<svg width="222" height="60" viewBox="0 0 222 60" fill="none" xmlns="http://www.w3.org/2000/svg">
<path d="M69.5283 54.6329H75.0628L76.4192 51.2794H83.7442L85.1279 54.6329H90.7708L82.6862 35.7195H77.6129L69.5283 54.6329ZM77.9656 47.2285L80.1089 41.8898L82.225 47.2285H77.9656Z" fill="#073C71"/>
<path d="M100.537 55.0084C104.743 55.0084 107.157 53.211 108.948 50.7697L104.987 47.9796C103.847 49.3478 102.681 50.26 100.7 50.26C98.0416 50.26 96.1696 48.0601 96.1696 45.2432V45.1896C96.1696 42.4532 98.0416 40.2265 100.7 40.2265C102.518 40.2265 103.766 41.085 104.851 42.4263L108.812 39.3948C107.13 37.0877 104.634 35.478 100.755 35.478C95.003 35.478 90.7437 39.7704 90.7437 45.2432V45.2969C90.7437 50.9038 95.1116 55.0084 100.537 55.0084Z" fill="#073C71"/>
<path d="M109.534 54.6329H115.068L116.425 51.2794H123.75L125.133 54.6329H130.776L122.692 35.7195H117.619L109.534 54.6329ZM117.971 47.2285L120.114 41.8898L122.231 47.2285H117.971Z" fill="#073C71"/>
<path d="M132.619 54.6329H139.836C146.672 54.6329 150.66 50.6087 150.66 45.1896V45.1359C150.66 39.7168 146.727 35.8536 139.944 35.8536H132.619V54.6329ZM137.882 50.0185V40.4679H140.025C143.173 40.4679 145.262 42.2117 145.262 45.2164V45.2701C145.262 48.3016 143.173 50.0185 140.025 50.0185H137.882Z" fill="#073C71"/>
<path d="M153.364 54.6329H168.773V50.2063H158.573V47.2285H167.688V43.1239H158.573V40.2801H168.638V35.8536H153.364V54.6329Z" fill="#073C71"/>
<path d="M171.459 54.6329H176.614V43.9019L181.443 51.1989H181.551L186.407 43.8482V54.6329H191.643V35.8536H186.082L181.551 43.1239L177.021 35.8536H171.459V54.6329Z" fill="#073C71"/>
<path d="M200.492 54.6329H205.782V47.5236L212.999 35.8536H207.112L203.178 42.6946L199.271 35.8536H193.276L200.492 47.604V54.6329Z" fill="#073C71"/>
<path d="M85.1227 26.1918L83.171 24.2422C82.6267 24.7411 82.0757 25.1349 81.5181 25.4237C80.9738 25.7126 80.3033 25.857 79.5067 25.857C78.9093 25.857 78.3583 25.7454 77.8538 25.5222C77.3626 25.2859 76.9378 24.9708 76.5793 24.577C76.2341 24.1831 75.9619 23.7236 75.7628 23.1985C75.5636 22.6733 75.4641 22.1154 75.4641 21.5246V21.4852C75.4641 20.8944 75.5636 20.343 75.7628 19.831C75.9619 19.3058 76.2407 18.8463 76.5992 18.4525C76.9577 18.0586 77.3825 17.7501 77.8737 17.5269C78.3782 17.3037 78.9226 17.1921 79.5067 17.1921C80.2104 17.1921 80.841 17.33 81.3986 17.6057C81.9695 17.8814 82.5271 18.2621 83.0715 18.7479L85.0231 16.5226C84.7045 16.2075 84.3593 15.9187 83.9875 15.6561C83.6158 15.3935 83.2109 15.1703 82.7727 14.9865C82.3346 14.8027 81.8434 14.6583 81.2991 14.5533C80.768 14.4483 80.1772 14.3958 79.5267 14.3958C78.4513 14.3958 77.4688 14.5861 76.5793 14.9668C75.6898 15.3344 74.9264 15.8465 74.2891 16.5029C73.6518 17.1462 73.154 17.9011 72.7955 18.7676C72.437 19.6209 72.2578 20.5399 72.2578 21.5246V21.564C72.2578 22.5486 72.437 23.4742 72.7955 24.3406C73.154 25.2071 73.6518 25.962 74.2891 26.6053C74.9264 27.2355 75.6831 27.7344 76.5594 28.102C77.4356 28.4696 78.3849 28.6534 79.4072 28.6534C80.0843 28.6534 80.695 28.5943 81.2393 28.4761C81.7837 28.3711 82.2815 28.2136 82.7329 28.0035C83.1976 27.7803 83.6224 27.5178 84.0075 27.2158C84.3925 26.9138 84.7642 26.5725 85.1227 26.1918Z" fill="#073C71"/>
<path d="M99.8253 26.1918L97.8736 24.2422C97.3293 24.7411 96.7783 25.1349 96.2207 25.4237C95.6764 25.7126 95.0059 25.857 94.2094 25.857C93.6119 25.857 93.0609 25.7454 92.5564 25.5222C92.0652 25.2859 91.6404 24.9708 91.2819 24.577C90.9367 24.1831 90.6645 23.7236 90.4654 23.1985C90.2663 22.6733 90.1667 22.1154 90.1667 21.5246V21.4852C90.1667 20.8944 90.2663 20.343 90.4654 19.831C90.6645 19.3058 90.9433 18.8463 91.3018 18.4525C91.6603 18.0586 92.0851 17.7501 92.5764 17.5269C93.0809 17.3037 93.6252 17.1921 94.2094 17.1921C94.913 17.1921 95.5436 17.33 96.1012 17.6057C96.6721 17.8814 97.2297 18.2621 97.7741 18.7479L99.7257 16.5226C99.4071 16.2075 99.0619 15.9187 98.6901 15.6561C98.3184 15.3935 97.9135 15.1703 97.4754 14.9865C97.0372 14.8027 96.546 14.6583 96.0017 14.5533C95.4706 14.4483 94.8798 14.3958 94.2293 14.3958C93.1539 14.3958 92.1714 14.5861 91.2819 14.9668C90.3924 15.3344 89.629 15.8465 88.9917 16.5029C88.3544 17.1462 87.8566 17.9011 87.4981 18.7676C87.1397 19.6209 86.9604 20.5399 86.9604 21.5246V21.564C86.9604 22.5486 87.1397 23.4742 87.4981 24.3406C87.8566 25.2071 88.3544 25.962 88.9917 26.6053C89.629 27.2355 90.3857 27.7344 91.262 28.102C92.1382 28.4696 93.0875 28.6534 94.1098 28.6534C94.7869 28.6534 95.3976 28.5943 95.9419 28.4761C96.4863 28.3711 96.9841 28.2136 97.4355 28.0035C97.9002 27.7803 98.325 27.5178 98.7101 27.2158C99.0951 26.9138 99.4668 26.5725 99.8253 26.1918Z" fill="#073C71"/>
<path d="M114.13 24.636V24.5967C114.13 23.6777 113.897 22.9621 113.433 22.4501C112.968 21.925 112.331 21.5114 111.521 21.2095C111.773 21.0782 112.005 20.9207 112.218 20.7369C112.443 20.5531 112.636 20.343 112.795 20.1067C112.968 19.8572 113.101 19.5815 113.194 19.2796C113.3 18.9776 113.353 18.6297 113.353 18.2359V18.1965C113.353 17.1068 112.941 16.2403 112.118 15.597C111.308 14.9537 110.186 14.6321 108.753 14.6321H102.28V28.4171H108.912C109.695 28.4171 110.406 28.3383 111.043 28.1807C111.693 28.0232 112.244 27.7869 112.696 27.4718C113.16 27.1567 113.512 26.7629 113.751 26.2902C114.003 25.8176 114.13 25.2662 114.13 24.636ZM110.306 18.7479C110.306 19.2599 110.107 19.6341 109.709 19.8704C109.31 20.0936 108.773 20.2051 108.095 20.2051H105.268V17.2906H108.295C108.945 17.2906 109.443 17.4153 109.788 17.6648C110.133 17.9011 110.306 18.249 110.306 18.7085V18.7479ZM111.083 24.2619C111.083 24.7739 110.89 25.1546 110.505 25.4041C110.12 25.6404 109.589 25.7585 108.912 25.7585H105.268V22.7258H108.812C109.609 22.7258 110.187 22.8637 110.545 23.1394C110.903 23.402 111.083 23.763 111.083 24.2225V24.2619Z" fill="#073C71"/>
<path d="M127.685 19.4371V19.3977C127.685 18.6888 127.559 18.0455 127.307 17.4678C127.068 16.8771 126.716 16.3716 126.251 15.9515C125.8 15.5314 125.242 15.2097 124.578 14.9865C123.928 14.7502 123.184 14.6321 122.348 14.6321H116.652V28.4171H119.719V24.2816H122.049C122.833 24.2816 123.563 24.1831 124.24 23.9862C124.93 23.7761 125.528 23.4676 126.032 23.0606C126.55 22.6536 126.955 22.1482 127.247 21.5443C127.539 20.9403 127.685 20.238 127.685 19.4371ZM124.578 19.4962C124.578 20.087 124.366 20.5859 123.941 20.9929C123.516 21.3867 122.919 21.5836 122.149 21.5836H119.719V17.3694H122.089C122.859 17.3694 123.463 17.5466 123.901 17.9011C124.353 18.2556 124.578 18.7741 124.578 19.4568V19.4962Z" fill="#073C71"/>
<path d="M142.517 14.5336L134.87 23.2969L135.368 25.4434H142.178V28.4171H145.106V25.4434H146.978V22.9818H145.106V14.5336H142.517ZM142.178 22.9818H138.474L142.178 18.6888V22.9818Z" fill="#073C71"/>
<path d="M152.444 28.4171V25.2662H149.217V28.4171H152.444Z" fill="#073C71"/>
<path d="M167.143 21.5049C167.143 20.5071 166.997 19.575 166.705 18.7085C166.413 17.842 165.995 17.0871 165.45 16.4438C164.919 15.8005 164.269 15.3016 163.499 14.9472C162.742 14.5796 161.899 14.3958 160.97 14.3958C160.04 14.3958 159.191 14.5796 158.421 14.9472C157.664 15.3148 157.013 15.8202 156.469 16.4635C155.925 17.1068 155.5 17.8683 155.194 18.7479C154.902 19.6144 154.756 20.5465 154.756 21.5443C154.756 22.5552 154.902 23.4939 155.194 24.3603C155.486 25.2137 155.898 25.962 156.429 26.6053C156.973 27.2486 157.624 27.7541 158.381 28.1217C159.151 28.4761 160 28.6534 160.93 28.6534C161.859 28.6534 162.702 28.4696 163.459 28.102C164.229 27.7344 164.886 27.2289 165.43 26.5856C165.975 25.9423 166.393 25.1874 166.685 24.321C166.99 23.4545 167.143 22.5158 167.143 21.5049ZM163.997 21.5443C163.997 22.1744 163.924 22.7586 163.778 23.2969C163.645 23.8221 163.446 24.2816 163.18 24.6754C162.915 25.0693 162.596 25.3778 162.224 25.601C161.852 25.811 161.434 25.9161 160.97 25.9161C160.505 25.9161 160.08 25.8045 159.695 25.5813C159.323 25.3581 159.005 25.0496 158.739 24.6557C158.474 24.2619 158.268 23.7958 158.122 23.2575C157.976 22.7193 157.903 22.135 157.903 21.5049C157.903 20.8747 157.969 20.2905 158.102 19.7522C158.248 19.2139 158.454 18.7544 158.719 18.3737C158.985 17.9799 159.303 17.6779 159.675 17.4678C160.047 17.2447 160.465 17.1331 160.93 17.1331C161.394 17.1331 161.813 17.2447 162.184 17.4678C162.569 17.691 162.895 17.9995 163.16 18.3934C163.426 18.7873 163.632 19.2533 163.778 19.7916C163.924 20.3299 163.997 20.9141 163.997 21.5443Z" fill="#073C71"/>
<path fill-rule="evenodd" clip-rule="evenodd" d="M53.7086 12.1541H35.389L36.8173 16.0535C37.0657 16.729 36.8794 17.5273 36.3516 18.0186L29.0237 25.0499C28.6822 25.3876 28.2164 25.5719 27.7196 25.5719C27.6575 25.5719 27.6265 25.5719 27.5644 25.5719L17.6904 24.8657V47.7711C17.6904 52.3154 21.4164 55.9999 26.0119 55.9999H53.7086C58.304 55.9999 62.0301 52.3154 62.0301 47.7711V20.3521C62.0301 15.8386 58.304 12.1541 53.7086 12.1541ZM25.2667 39.6959L24.242 38.3142L49.8584 19.9223L47.0639 19.4924L47.3433 17.8037L53.0566 18.6941L52.1251 24.3437L50.4173 24.0673L50.852 21.304L25.2667 39.6959ZM53.2739 36.4719V42.5207V49.4291H27.1297V42.5207H34.9854V35.6122H43.6484V29.9933H53.305V36.4719H53.2739Z" fill="url(#paint0_linear_4347_12128)"/>
<path d="M25.2351 18.7863L15.1748 18.0494L17.0378 23.1463C17.0999 23.3305 17.2552 23.4533 17.4725 23.4533L27.657 24.1902C27.8122 24.1902 27.9364 24.1595 28.0296 24.0674L35.3885 17.0361C35.5127 16.9133 35.5748 16.6984 35.5127 16.5142L33.6497 11.4172L26.3839 18.3871C26.2287 18.5406 26.0424 18.6328 25.8561 18.7249C25.6698 18.7863 25.4524 18.817 25.2351 18.7863Z" fill="url(#paint1_linear_4347_12128)"/>
<path d="M11.2005 27.0764L12.3804 30.2697C12.4736 30.5153 12.753 30.6381 13.0014 30.546L15.7649 29.5635C16.0133 29.4714 16.1375 29.195 16.0443 28.9494L14.8644 25.7561C14.8023 25.6026 14.6781 25.4798 14.5229 25.4491L13.0635 25.1114L9.98956 16.7291L25.3283 17.8344C25.4836 17.8344 25.6078 17.8037 25.7009 17.7116L36.879 6.96508C36.9722 6.87297 37.0032 6.78085 37.0343 6.65804C37.0653 6.3817 36.848 6.16677 36.5685 6.13606L21.0434 5C20.8882 5 20.764 5.0307 20.6708 5.12282L11.2626 14.1499L22.2233 10.2197C22.4717 10.1276 22.7512 10.2504 22.8443 10.4961C22.9375 10.7417 22.8133 11.0181 22.5649 11.1102L9.64801 15.7772C9.15121 15.9615 8.87175 16.5141 9.05806 17.0054L12.1631 25.4184L11.2626 26.6159C11.1695 26.7694 11.1384 26.9229 11.2005 27.0764Z" fill="url(#paint2_linear_4347_12128)"/>
<path d="M25.2351 18.7863L15.1748 18.0494L17.0378 23.1463C17.0999 23.3305 17.2552 23.4533 17.4725 23.4533L27.657 24.1902C27.8122 24.1902 27.9364 24.1595 28.0296 24.0674L35.3885 17.0361C35.5127 16.9133 35.5748 16.6984 35.5127 16.5142L33.6497 11.4172L26.3839 18.3871C26.2287 18.5406 26.0424 18.6328 25.8561 18.7249C25.6698 18.7863 25.4524 18.817 25.2351 18.7863Z" fill="url(#paint3_linear_4347_12128)"/>
<defs>
<linearGradient id="paint0_linear_4347_12128" x1="17.6667" y1="34.0729" x2="62.0249" y2="34.0729" gradientUnits="userSpaceOnUse">
<stop stop-color="#396AFC"/>
<stop offset="1" stop-color="#2948FF"/>
</linearGradient>
<linearGradient id="paint1_linear_4347_12128" x1="15.1859" y1="17.8217" x2="35.5282" y2="17.8217" gradientUnits="userSpaceOnUse">
<stop stop-color="#396AFC"/>
<stop offset="1" stop-color="#2948FF"/>
</linearGradient>
<linearGradient id="paint2_linear_4347_12128" x1="8.99596" y1="17.7944" x2="37.0391" y2="17.7944" gradientUnits="userSpaceOnUse">
<stop stop-color="#396AFC"/>
<stop offset="1" stop-color="#2948FF"/>
</linearGradient>
<linearGradient id="paint3_linear_4347_12128" x1="15.1859" y1="17.8217" x2="35.5282" y2="17.8217" gradientUnits="userSpaceOnUse">
<stop stop-color="#396AFC"/>
<stop offset="1" stop-color="#2948FF"/>
</linearGradient>
</defs>
</svg>
