<svg width="32" height="32" viewBox="0 0 32 32" fill="none" xmlns="http://www.w3.org/2000/svg">
<path d="M6.94466 17.3331H21.838L15.3313 23.8398C14.8113 24.3598 14.8113 25.2131 15.3313 25.7331C15.8513 26.2531 16.6913 26.2531 17.2113 25.7331L25.998 16.9464C26.518 16.4264 26.518 15.5864 25.998 15.0664L17.2247 6.26645C16.9756 6.01678 16.6374 5.87646 16.2847 5.87646C15.932 5.87646 15.5938 6.01678 15.3447 6.26645C14.8247 6.78645 14.8247 7.62645 15.3447 8.14645L21.838 14.6664H6.94466C6.21133 14.6664 5.61133 15.2664 5.61133 15.9998C5.61133 16.7331 6.21133 17.3331 6.94466 17.3331Z" fill="#475569"/>
</svg>
