<svg width="146" height="36" viewBox="0 0 146 36" fill="none" xmlns="http://www.w3.org/2000/svg">
<path d="M42.4721 35.035H46.346L47.2955 32.6678H52.4227L53.3912 35.035H57.341L51.6821 21.6843H48.131L42.4721 35.035ZM48.3779 29.8084L49.8781 26.0399L51.3593 29.8084H48.3779Z" fill="white"/>
<path d="M64.1773 35.3001C67.1207 35.3001 68.8108 34.0313 70.0641 32.308L67.2916 30.3386C66.494 31.3044 65.6775 31.9482 64.2912 31.9482C62.4303 31.9482 61.12 30.3954 61.12 28.407V28.3691C61.12 26.4376 62.4303 24.8658 64.2912 24.8658C65.5636 24.8658 66.4371 25.4718 67.1967 26.4186L69.9692 24.2787C68.7918 22.6501 67.0447 21.5139 64.3292 21.5139C60.3034 21.5139 57.322 24.5438 57.322 28.407V28.4449C57.322 32.4027 60.3794 35.3001 64.1773 35.3001Z" fill="white"/>
<path d="M70.4745 35.035H74.3483L75.2978 32.6678H80.425L81.3935 35.035H85.3434L79.6844 21.6843H76.1334L70.4745 35.035ZM76.3802 29.8084L77.8804 26.0399L79.3616 29.8084H76.3802Z" fill="white"/>
<path d="M86.6332 35.035H91.6844C96.4698 35.035 99.2613 32.1944 99.2613 28.3691V28.3313C99.2613 24.506 96.5078 21.779 91.7604 21.779H86.6332V35.035ZM90.3172 31.7778V25.0362H91.8174C94.0202 25.0362 95.4824 26.2671 95.4824 28.3881V28.4259C95.4824 30.5658 94.0202 31.7778 91.8174 31.7778H90.3172Z" fill="white"/>
<path d="M101.154 35.035H111.94V31.9104H104.8V29.8084H111.18V26.911H104.8V24.9037H111.845V21.779H101.154V35.035Z" fill="white"/>
<path d="M113.82 35.035H117.428V27.4602L120.808 32.611H120.884L124.283 27.4223V35.035H127.948V21.779H124.055L120.884 26.911L117.712 21.779H113.82V35.035Z" fill="white"/>
<path d="M134.142 35.035H137.845V30.0167L142.896 21.779H138.775L136.022 26.608L133.287 21.779H129.09L134.142 30.0735V35.035Z" fill="white"/>
<path d="M53.3874 14.9589L52.0213 13.5827C51.6403 13.9348 51.2547 14.2129 50.8644 14.4167C50.4833 14.6206 50.0141 14.7226 49.4565 14.7226C49.0383 14.7226 48.6526 14.6438 48.2995 14.4862C47.9557 14.3194 47.6583 14.097 47.4074 13.819C47.1658 13.541 46.9752 13.2166 46.8359 12.8459C46.6965 12.4753 46.6268 12.0814 46.6268 11.6644V11.6366C46.6268 11.2195 46.6965 10.8303 46.8359 10.4689C46.9752 10.0982 47.1704 9.77386 47.4213 9.49584C47.6722 9.21782 47.9696 9.00004 48.3134 8.8425C48.6666 8.68496 49.0476 8.60618 49.4565 8.60618C49.949 8.60618 50.3904 8.70349 50.7807 8.8981C51.1803 9.09271 51.5706 9.36146 51.9516 9.70435L53.3177 8.13356C53.0947 7.91114 52.8531 7.70726 52.5929 7.52192C52.3327 7.33657 52.0492 7.17903 51.7425 7.04929C51.4359 6.91955 51.092 6.81761 50.711 6.74347C50.3393 6.66933 49.9258 6.63226 49.4704 6.63226C48.7177 6.63226 48.03 6.76664 47.4074 7.03539C46.7847 7.29487 46.2504 7.65629 45.8043 8.11965C45.3583 8.57375 45.0098 9.10661 44.7589 9.71825C44.508 10.3206 44.3825 10.9693 44.3825 11.6644V11.6922C44.3825 12.3872 44.508 13.0406 44.7589 13.6522C45.0098 14.2638 45.3583 14.7967 45.8043 15.2508C46.2504 15.6956 46.7801 16.0478 47.3934 16.3073C48.0068 16.5667 48.6712 16.6965 49.3868 16.6965C49.8607 16.6965 50.2882 16.6548 50.6692 16.5714C51.0502 16.4972 51.3987 16.386 51.7147 16.2378C52.0399 16.0802 52.3373 15.8949 52.6068 15.6817C52.8763 15.4686 53.1365 15.2276 53.3874 14.9589Z" fill="white"/>
<path d="M63.6787 14.9589L62.3126 13.5827C61.9316 13.9348 61.5459 14.2129 61.1556 14.4167C60.7746 14.6206 60.3053 14.7226 59.7477 14.7226C59.3295 14.7226 58.9439 14.6438 58.5907 14.4862C58.2469 14.3194 57.9495 14.097 57.6986 13.819C57.457 13.541 57.2665 13.2166 57.1271 12.8459C56.9877 12.4753 56.918 12.0814 56.918 11.6644V11.6366C56.918 11.2195 56.9877 10.8303 57.1271 10.4689C57.2665 10.0982 57.4617 9.77386 57.7126 9.49584C57.9635 9.21782 58.2608 9.00004 58.6047 8.8425C58.9578 8.68496 59.3388 8.60618 59.7477 8.60618C60.2403 8.60618 60.6817 8.70349 61.072 8.8981C61.4716 9.09271 61.8619 9.36146 62.2429 9.70435L63.609 8.13356C63.3859 7.91114 63.1443 7.70726 62.8841 7.52192C62.6239 7.33657 62.3405 7.17903 62.0338 7.04929C61.7271 6.91955 61.3833 6.81761 61.0023 6.74347C60.6306 6.66933 60.217 6.63226 59.7617 6.63226C59.0089 6.63226 58.3213 6.76664 57.6986 7.03539C57.076 7.29487 56.5416 7.65629 56.0956 8.11965C55.6495 8.57375 55.301 9.10661 55.0501 9.71825C54.7992 10.3206 54.6738 10.9693 54.6738 11.6644V11.6922C54.6738 12.3872 54.7992 13.0406 55.0501 13.6522C55.301 14.2638 55.6495 14.7967 56.0956 15.2508C56.5416 15.6956 57.0713 16.0478 57.6847 16.3073C58.298 16.5667 58.9625 16.6965 59.678 16.6965C60.152 16.6965 60.5794 16.6548 60.9605 16.5714C61.3415 16.4972 61.69 16.386 62.0059 16.2378C62.3312 16.0802 62.6285 15.8949 62.898 15.6817C63.1675 15.4686 63.4277 15.2276 63.6787 14.9589Z" fill="white"/>
<path d="M73.6911 13.8607V13.8329C73.6911 13.1842 73.5285 12.6791 73.2032 12.3177C72.878 11.947 72.4319 11.6551 71.865 11.442C72.0416 11.3493 72.2042 11.2381 72.3529 11.1083C72.5109 10.9786 72.6457 10.8303 72.7572 10.6635C72.878 10.4874 72.9709 10.2928 73.036 10.0797C73.1103 9.86653 73.1475 9.62095 73.1475 9.34293V9.31513C73.1475 8.54595 72.8594 7.93431 72.2832 7.48022C71.7164 7.02612 70.9311 6.79907 69.9275 6.79907H65.3971V16.5297H70.039C70.5873 16.5297 71.0844 16.4741 71.5305 16.3629C71.9859 16.2517 72.3715 16.0848 72.6875 15.8624C73.0127 15.64 73.259 15.362 73.4263 15.0284C73.6028 14.6948 73.6911 14.3055 73.6911 13.8607ZM71.0147 9.70435C71.0147 10.0658 70.8753 10.3299 70.5966 10.4967C70.3178 10.6542 69.9414 10.733 69.4675 10.733H67.4881V8.67569H69.6069C70.0622 8.67569 70.4107 8.76373 70.6523 8.93981C70.8939 9.10662 71.0147 9.3522 71.0147 9.67655V9.70435ZM71.5584 13.5966C71.5584 13.958 71.4236 14.2268 71.1541 14.4028C70.8846 14.5697 70.5129 14.6531 70.039 14.6531H67.4881V12.5123H69.9693C70.5269 12.5123 70.9311 12.6096 71.182 12.8042C71.4329 12.9896 71.5584 13.2444 71.5584 13.5688V13.5966Z" fill="white"/>
<path d="M83.1794 10.1909V10.1631C83.1794 9.66265 83.0911 9.20855 82.9146 8.8008C82.7473 8.38377 82.501 8.02698 82.1758 7.73043C81.8598 7.43388 81.4695 7.20683 81.0049 7.04929C80.5495 6.88248 80.0291 6.79907 79.4437 6.79907H75.457V16.5297H77.6036V13.6105H79.2346C79.7828 13.6105 80.294 13.541 80.7679 13.402C81.2511 13.2537 81.6693 13.0359 82.0225 12.7486C82.3849 12.4614 82.6683 12.1046 82.8728 11.6783C83.0772 11.252 83.1794 10.7562 83.1794 10.1909ZM81.0049 10.2326C81.0049 10.6496 80.8562 11.0018 80.5588 11.289C80.2614 11.5671 79.8432 11.7061 79.3043 11.7061H77.6036V8.73129H79.2624C79.8014 8.73129 80.2243 8.8564 80.5309 9.10662C80.8469 9.35683 81.0049 9.72289 81.0049 10.2048V10.2326Z" fill="white"/>
<path d="M93.5612 6.72957L88.2084 12.9154L88.5569 14.4306H93.3242V16.5297H95.3733V14.4306H96.6836V12.693H95.3733V6.72957H93.5612ZM93.3242 12.693H90.7315L93.3242 9.66265V12.693Z" fill="white"/>
<path d="M100.509 16.5297V14.3055H98.2512V16.5297H100.509Z" fill="white"/>
<path d="M110.799 11.6505C110.799 10.9462 110.696 10.2882 110.492 9.67655C110.287 9.06491 109.995 8.53205 109.614 8.07795C109.242 7.62386 108.787 7.2717 108.248 7.02149C107.718 6.762 107.128 6.63226 106.477 6.63226C105.827 6.63226 105.232 6.762 104.693 7.02149C104.163 7.28097 103.708 7.63776 103.327 8.09185C102.946 8.54595 102.649 9.08345 102.435 9.70435C102.23 10.316 102.128 10.974 102.128 11.6783C102.128 12.3919 102.23 13.0545 102.435 13.6661C102.639 14.2685 102.927 14.7967 103.299 15.2508C103.68 15.7049 104.135 16.0617 104.665 16.3212C105.204 16.5714 105.799 16.6965 106.449 16.6965C107.1 16.6965 107.69 16.5667 108.22 16.3073C108.759 16.0478 109.219 15.691 109.6 15.2369C109.981 14.7828 110.273 14.2499 110.478 13.6383C110.692 13.0267 110.799 12.364 110.799 11.6505ZM108.596 11.6783C108.596 12.1231 108.545 12.5355 108.443 12.9154C108.35 13.2861 108.21 13.6105 108.025 13.8885C107.839 14.1665 107.616 14.3843 107.355 14.5418C107.095 14.6901 106.803 14.7643 106.477 14.7643C106.152 14.7643 105.855 14.6855 105.585 14.5279C105.325 14.3704 105.102 14.1526 104.916 13.8746C104.73 13.5966 104.586 13.2676 104.484 12.8876C104.382 12.5077 104.331 12.0953 104.331 11.6505C104.331 11.2056 104.377 10.7933 104.47 10.4133C104.572 10.0333 104.716 9.70898 104.902 9.44023C105.088 9.16222 105.311 8.94907 105.571 8.8008C105.831 8.64325 106.124 8.56448 106.449 8.56448C106.775 8.56448 107.067 8.64325 107.328 8.8008C107.597 8.95834 107.825 9.17612 108.011 9.45414C108.196 9.73215 108.341 10.0611 108.443 10.4411C108.545 10.8211 108.596 11.2334 108.596 11.6783Z" fill="white"/>
<path fill-rule="evenodd" clip-rule="evenodd" d="M31.3981 5.04999H18.5752L19.5749 7.80255C19.7488 8.27937 19.6184 8.84288 19.2489 9.18966L14.1197 14.1529C13.8806 14.3913 13.5546 14.5214 13.2069 14.5214C13.1634 14.5214 13.1417 14.5214 13.0982 14.5214L6.18683 14.0229V30.1915C6.18683 33.3992 8.7949 36 12.0115 36H31.3981C34.6148 36 37.2228 33.3992 37.2228 30.1915V10.8369C37.2228 7.65083 34.6148 5.04999 31.3981 5.04999ZM11.4899 24.4913L10.7727 23.516L28.7031 10.5334L26.7471 10.23L26.9427 9.03795L30.9417 9.66648L30.2897 13.6544L29.0944 13.4594L29.3986 11.5087L11.4899 24.4913ZM31.0939 22.2155V26.4853V31.3618H12.7939V26.4853H18.2926V21.6087H24.3564V17.6424H31.1156V22.2155H31.0939Z" fill="white"/>
<path d="M11.4681 9.73153L4.42633 9.21136L5.73036 12.8092C5.77383 12.9392 5.8825 13.0259 6.03464 13.0259L13.1634 13.5461C13.272 13.5461 13.359 13.5244 13.4242 13.4594L18.5751 8.49613C18.662 8.40944 18.7055 8.25772 18.662 8.12768L17.358 4.52985L12.2723 9.44977C12.1636 9.55814 12.0332 9.62316 11.9028 9.68818C11.7724 9.73153 11.6203 9.75321 11.4681 9.73153Z" fill="white"/>
<path d="M1.6444 15.5834L2.47029 17.8374C2.53549 18.0108 2.7311 18.0975 2.90497 18.0325L4.83928 17.339C5.01316 17.2739 5.10009 17.0789 5.03489 16.9055L4.209 14.6514C4.16553 14.543 4.0786 14.4564 3.96993 14.4347L2.94844 14.1963L0.79678 8.27935L11.5333 9.0596C11.642 9.0596 11.7289 9.03793 11.7941 8.97291L19.6183 1.38712C19.6835 1.3221 19.7053 1.25707 19.727 1.17038C19.7487 0.975316 19.5966 0.8236 19.401 0.801927L8.53405 0C8.42538 0 8.33844 0.0216737 8.27324 0.0866948L1.68787 6.45876L9.35994 3.68453C9.53381 3.61951 9.72941 3.7062 9.79461 3.87959C9.85982 4.05298 9.77288 4.24804 9.59901 4.31306L0.557707 7.60746C0.209964 7.73751 0.0143594 8.12763 0.144763 8.47441L2.31815 14.413L1.68787 15.2583C1.62267 15.3666 1.60093 15.475 1.6444 15.5834Z" fill="white"/>
<path d="M11.4681 9.73153L4.42633 9.21136L5.73036 12.8092C5.77383 12.9392 5.8825 13.0259 6.03464 13.0259L13.1634 13.5461C13.272 13.5461 13.359 13.5244 13.4242 13.4594L18.5751 8.49613C18.662 8.40944 18.7055 8.25772 18.662 8.12768L17.358 4.52985L12.2723 9.44977C12.1636 9.55814 12.0332 9.62316 11.9028 9.68818C11.7724 9.73153 11.6203 9.75321 11.4681 9.73153Z" fill="white"/>
</svg>
