<svg width="48" height="48" viewBox="0 0 48 48" fill="none" xmlns="http://www.w3.org/2000/svg">
<rect width="48" height="48" rx="24" fill="black" fill-opacity="0.01"/>
<rect width="48" height="48" rx="24" fill="white"/>
<path d="M25.4219 29.9453C25.6953 29.6719 25.668 29.2617 25.4219 28.9883L22.1133 25.8711L29.9609 25.8711C30.3437 25.8711 30.6172 25.5703 30.6172 25.2148L30.6172 24.3398C30.6172 23.957 30.3437 23.6836 29.9609 23.6836L22.1133 23.6836L25.4219 20.5391C25.668 20.2656 25.668 19.8555 25.4219 19.582L24.8203 18.9805C24.5469 18.7344 24.1367 18.7344 23.8906 18.9805L18.5586 24.3125C18.3125 24.5586 18.3125 24.9688 18.5586 25.2422L23.8906 30.5469C24.1367 30.793 24.5469 30.793 24.8203 30.5469L25.4219 29.9453Z" fill="#183B56"/>
</svg>
