<svg width="602" height="267" viewBox="0 0 602 267" fill="none" xmlns="http://www.w3.org/2000/svg">
<path fill-rule="evenodd" clip-rule="evenodd" d="M125.925 60.0737H86.6276V83.1635H51.3271V111.582H19.3569V140H125.925V111.582H125.869V85.1635H125.925V60.0737Z" fill="url(#paint0_linear)"/>
<path d="M101.719 9.78738L100.604 16.7563L111.949 18.571L7.6787 94.3275L11.8134 100.055L116.083 24.2987L114.263 35.6784L121.211 36.7897L124.936 13.5011L101.719 9.78738Z" fill="url(#paint1_linear)"/>
<path d="M174.755 135.829C189.811 135.829 198.455 129.321 204.866 120.482L190.685 110.38C186.605 115.334 182.429 118.636 175.338 118.636C165.819 118.636 159.117 110.672 159.117 100.473V100.279C159.117 90.3712 165.819 82.3093 175.338 82.3093C181.846 82.3093 186.314 85.4175 190.199 90.274L204.38 79.2982C198.358 70.9449 189.422 65.1171 175.532 65.1171C154.941 65.1171 139.691 80.6581 139.691 100.473V100.667C139.691 120.968 155.329 135.829 174.755 135.829ZM243.81 135.829C258.865 135.829 267.51 129.321 273.92 120.482L259.739 110.38C255.66 115.334 251.483 118.636 244.392 118.636C234.874 118.636 228.171 110.672 228.171 100.473V100.279C228.171 90.3712 234.874 82.3093 244.392 82.3093C250.9 82.3093 255.368 85.4175 259.253 90.274L273.435 79.2982C267.412 70.9449 258.476 65.1171 244.587 65.1171C223.995 65.1171 208.745 80.6581 208.745 100.473V100.667C208.745 120.968 224.383 135.829 243.81 135.829ZM282.028 134.469H317.092C333.313 134.469 342.832 127.378 342.832 115.722V115.528C342.832 106.301 337.587 101.638 329.331 98.9187C335.353 96.2962 339.821 91.6339 339.821 83.7663V83.572C339.821 78.9097 338.17 75.3158 335.45 72.5962C331.467 68.6138 325.445 66.4769 316.898 66.4769H282.028V134.469ZM300.385 93.5765V81.6294H312.624C318.258 81.6294 321.172 83.7663 321.172 87.4572V87.6515C321.172 91.6339 317.966 93.5765 312.235 93.5765H300.385ZM300.385 119.316V106.786H314.761C321.074 106.786 323.988 109.215 323.988 112.906V113.1C323.988 117.082 320.686 119.316 314.955 119.316H300.385ZM351.461 134.469H370.305V115.043H379.629C396.53 115.043 408.866 106.592 408.866 90.5654V90.3712C408.866 75.3158 397.793 66.4769 380.601 66.4769H351.461V134.469ZM370.305 100.279V82.3093H379.144C385.943 82.3093 390.022 85.4175 390.022 91.2454V91.4396C390.022 96.7818 385.943 100.279 379.241 100.279H370.305ZM475.031 134.469H493.292V121.259H501.937V107.175H493.292V65.9912H474.254L438.996 107.952L442.104 121.259H475.031V134.469ZM458.81 107.272L475.031 87.7486V107.272H458.81ZM508.877 134.469H528.109V115.528H508.877V134.469ZM565.762 135.829C585.188 135.829 597.329 119.705 597.329 100.473V100.279C597.329 81.0466 585.285 65.1171 565.956 65.1171C546.627 65.1171 534.388 81.2408 534.388 100.473V100.667C534.388 119.899 546.335 135.829 565.762 135.829ZM565.956 119.122C558.38 119.122 553.329 111.352 553.329 100.473V100.279C553.329 89.3999 558.283 81.8236 565.762 81.8236C573.241 81.8236 578.389 89.6913 578.389 100.473V100.667C578.389 111.449 573.532 119.122 565.956 119.122Z" fill="#134594"/>
<rect x="19" y="168" width="583" height="99" rx="24" fill="url(#paint2_linear)"/>
<path d="M59.28 240H66.72V222.66H72.96C82.2 222.66 87.18 218.34 87.18 210.24C87.18 202.26 82.32 198.18 72.96 198.18H59.28V240ZM66.72 215.76V205.08H72.18C77.52 205.08 79.68 206.58 79.68 210.36C79.68 214.14 77.46 215.76 72.18 215.76H66.72ZM133.018 240L121.738 221.76C126.718 220.08 129.478 216.24 129.478 210.24C129.478 202.74 125.218 198.18 115.258 198.18H101.578V240H109.018V222.66H111.778H114.298L124.318 240H133.018ZM109.018 215.76V205.08H114.478C119.338 205.08 121.978 206.28 121.978 210.36C121.978 214.44 119.338 215.76 114.478 215.76H109.018ZM162.849 240.9C174.729 240.9 182.829 232.2 182.829 219.12C182.829 205.98 174.789 197.28 162.849 197.28C150.969 197.28 142.869 205.98 142.869 219.12C142.869 232.2 150.969 240.9 162.849 240.9ZM162.849 233.76C155.229 233.76 150.369 228.18 150.369 219.12C150.369 210 155.229 204.42 162.849 204.42C170.469 204.42 175.329 210.06 175.329 219.12C175.329 228.12 170.469 233.76 162.849 233.76ZM197.657 240H205.157V221.94H224.657V215.04H205.157V205.08H227.297V198.18H197.657V240ZM241.185 240H269.025V233.1H248.685V221.94H267.585V215.04H248.685V205.08H269.025V198.18H241.185V240ZM297.007 240.78C305.587 240.78 311.527 235.62 311.527 227.82C311.527 221.88 308.587 218.7 299.647 215.28C293.347 212.82 291.307 211.26 291.307 208.5C291.307 205.92 293.587 203.94 296.587 203.94C299.407 203.94 301.867 205.62 303.307 208.74L309.547 204.9C306.907 199.86 302.467 197.28 296.827 197.28C289.027 197.28 283.807 201.9 283.807 208.68C283.807 214.74 286.927 217.92 295.687 221.34C301.867 223.8 304.027 225.6 304.027 228.48C304.027 232.02 301.327 234.12 297.127 234.12C292.267 234.12 288.967 231.3 288.427 226.32L280.987 228.18C282.187 235.8 288.667 240.78 297.007 240.78ZM337.664 240.78C346.244 240.78 352.184 235.62 352.184 227.82C352.184 221.88 349.244 218.7 340.304 215.28C334.004 212.82 331.964 211.26 331.964 208.5C331.964 205.92 334.244 203.94 337.244 203.94C340.064 203.94 342.524 205.62 343.964 208.74L350.204 204.9C347.564 199.86 343.124 197.28 337.484 197.28C329.684 197.28 324.464 201.9 324.464 208.68C324.464 214.74 327.584 217.92 336.344 221.34C342.524 223.8 344.684 225.6 344.684 228.48C344.684 232.02 341.984 234.12 337.784 234.12C332.924 234.12 329.624 231.3 329.084 226.32L321.644 228.18C322.844 235.8 329.324 240.78 337.664 240.78ZM366.321 240H373.821V198.18H366.321V240ZM408.608 240.9C420.488 240.9 428.588 232.2 428.588 219.12C428.588 205.98 420.548 197.28 408.608 197.28C396.728 197.28 388.628 205.98 388.628 219.12C388.628 232.2 396.728 240.9 408.608 240.9ZM408.608 233.76C400.988 233.76 396.128 228.18 396.128 219.12C396.128 210 400.988 204.42 408.608 204.42C416.228 204.42 421.088 210.06 421.088 219.12C421.088 228.12 416.228 233.76 408.608 233.76ZM468.736 198.18V226.98L451.156 198.18H443.416V240H450.916V211.08L468.436 240H476.236V198.18H468.736ZM519.835 240H527.995L511.315 198.18H505.675L488.935 240H497.095L500.275 231.36H516.655L519.835 240ZM502.855 224.46L508.495 209.22L514.135 224.46H502.855ZM540.726 240H566.106V233.1H548.226V198.18H540.726V240Z" fill="white"/>
<defs>
<linearGradient id="paint0_linear" x1="19.3569" y1="97.7282" x2="127.172" y2="97.7282" gradientUnits="userSpaceOnUse">
<stop stop-color="#00C6FF"/>
<stop offset="1" stop-color="#0072FF"/>
</linearGradient>
<linearGradient id="paint1_linear" x1="40.119" y1="73.9351" x2="125.547" y2="12.2672" gradientUnits="userSpaceOnUse">
<stop stop-color="#00C6FF"/>
<stop offset="1" stop-color="#0072FF"/>
</linearGradient>
<linearGradient id="paint2_linear" x1="-157.305" y1="276.706" x2="416.802" y2="155.442" gradientUnits="userSpaceOnUse">
<stop stop-color="#00C6FF"/>
<stop offset="1" stop-color="#0072FF"/>
</linearGradient>
</defs>
</svg>
