<svg width="280" height="38" viewBox="0 0 280 38" fill="none" xmlns="http://www.w3.org/2000/svg">
<path fill-rule="evenodd" clip-rule="evenodd" d="M16.3516 36.1386C12.1025 31.9569 0.936222 20.9663 0.331561 20.3545C-0.416093 19.598 0.199492 18.3843 1.19621 18.3856C1.84659 18.3865 6.57914 18.3876 8.58267 18.386C10.5862 18.3843 12.2923 19.5012 12.886 20.059C13.7774 20.8964 15.1373 22.174 16.2271 23.1978C17.2108 24.1221 18.5739 24.2419 19.585 23.2343C24.9104 17.9271 41.6536 1.24488 42.3453 0.60017C43.2281 -0.222613 44.7438 -0.177178 45.5112 0.60017C46.2787 1.37752 61.0237 15.812 61.6261 16.4303C62.3649 17.1886 61.6958 18.3843 60.8494 18.3856C60.0029 18.387 55.1023 18.3843 53.4579 18.3843C53.3488 18.3843 53.2395 18.3811 53.1303 18.3747C51.5935 18.2856 50.0711 17.5906 49.2624 16.8787C48.7317 16.4114 46.8456 14.6605 45.4645 13.3747C44.5919 12.5622 43.2124 12.6582 42.488 13.3597C41.7636 14.0612 20.2374 35.4765 19.5982 36.1211C18.8462 36.8794 17.3564 37.1276 16.3516 36.1386Z" fill="#3BA341"/>
<path fill-rule="evenodd" clip-rule="evenodd" d="M86.1303 37.2329C83.6726 37.2329 81.4848 36.6989 79.5669 35.6308C77.649 34.5628 76.156 33.0813 75.0879 31.1863C74.0199 29.2913 73.4858 27.1265 73.4858 24.6918C73.4858 22.257 74.0199 20.0922 75.0879 18.1973C76.156 16.3023 77.649 14.8208 79.5669 13.7527C81.4848 12.6847 83.6612 12.1506 86.0959 12.1506C89.6561 12.1506 92.6536 13.391 95.0883 15.8716L92.4009 18.3523C90.7242 16.6755 88.6685 15.8372 86.2337 15.8372C84.534 15.8372 83.0295 16.2104 81.7203 16.9569C80.411 17.7034 79.3889 18.7485 78.6539 20.0922C77.9189 21.4359 77.5514 22.9691 77.5514 24.6918C77.5514 26.4145 77.9189 27.9476 78.6539 29.2913C79.3889 30.635 80.411 31.6801 81.7203 32.4266C83.0295 33.1731 84.534 33.5464 86.2337 33.5464C87.4511 33.5464 88.6168 33.3224 89.7308 32.8745C90.8448 32.4266 91.8267 31.7892 92.6765 30.9624L95.2606 33.6497C92.8258 36.0385 89.7825 37.2329 86.1303 37.2329ZM107.182 19.3859C108.008 19.3859 108.807 19.518 109.576 19.7821C110.346 20.0463 110.983 20.408 111.488 20.8674L109.766 24.0027C108.847 23.3825 107.894 23.0725 106.906 23.0725C105.528 23.0725 104.431 23.5548 103.616 24.5195C102.8 25.4842 102.392 26.7934 102.392 28.4472V36.7506H98.5337V19.7304H101.979L102.013 22.3489C102.68 21.3383 103.438 20.5918 104.287 20.1094C105.137 19.6271 106.102 19.3859 107.182 19.3859ZM121.514 19.3859C124.271 19.3859 126.43 20.1783 127.992 21.7632C129.553 23.3481 130.334 25.5416 130.334 28.3439C130.334 28.6425 130.311 29.0904 130.266 29.6876H116.656C116.817 30.9279 117.38 31.9156 118.345 32.6506C119.309 33.3856 120.538 33.7531 122.031 33.7531C122.996 33.7531 123.926 33.5923 124.822 33.2707C125.718 32.9492 126.418 32.5243 126.924 31.996L129.266 34.2699C128.417 35.1887 127.343 35.9122 126.045 36.4405C124.747 36.9688 123.375 37.2329 121.928 37.2329C120.067 37.2329 118.442 36.8597 117.053 36.1132C115.663 35.3667 114.589 34.3159 113.831 32.9607C113.073 31.6055 112.694 30.0321 112.694 28.2405C112.694 26.4948 113.062 24.9559 113.797 23.6237C114.532 22.2915 115.565 21.2522 116.897 20.5057C118.23 19.7592 119.769 19.3859 121.514 19.3859ZM121.618 22.7279C120.285 22.7279 119.194 23.0725 118.345 23.7615C117.495 24.4506 116.943 25.4268 116.691 26.6901H126.579C126.441 25.4727 125.93 24.508 125.046 23.796C124.161 23.0839 123.019 22.7279 121.618 22.7279ZM133.78 12.633H137.639V36.7506H133.78V12.633ZM144.288 17.1809C143.576 17.1809 142.99 16.9569 142.531 16.509C142.072 16.0611 141.842 15.5041 141.842 14.838C141.842 14.126 142.072 13.546 142.531 13.0981C142.99 12.6502 143.576 12.4263 144.288 12.4263C145.023 12.4263 145.626 12.6502 146.097 13.0981C146.568 13.546 146.803 14.126 146.803 14.838C146.803 15.5041 146.568 16.0611 146.097 16.509C145.626 16.9569 145.023 17.1809 144.288 17.1809ZM142.359 19.7304H146.218V36.7506H142.359V19.7304ZM158.931 37.1296C157.116 37.1296 155.52 36.7448 154.142 35.9754C152.764 35.2059 151.701 34.1493 150.955 32.8056C150.208 31.4619 149.835 29.9402 149.835 28.2405C149.835 26.5408 150.208 25.0191 150.955 23.6754C151.701 22.3317 152.764 21.2751 154.142 20.5057C155.52 19.7362 157.116 19.3515 158.931 19.3515C160.723 19.3515 162.307 19.7362 163.686 20.5057C165.064 21.2751 166.126 22.3317 166.873 23.6754C167.619 25.0191 167.992 26.5408 167.992 28.2405C167.992 29.9402 167.619 31.4619 166.873 32.8056C166.126 34.1493 165.064 35.2059 163.686 35.9754C162.307 36.7448 160.723 37.1296 158.931 37.1296ZM158.931 33.6153C159.965 33.6153 160.878 33.3741 161.67 32.8918C162.463 32.4094 163.071 31.7605 163.496 30.9451C163.921 30.1297 164.134 29.2282 164.134 28.2405C164.134 27.2528 163.921 26.3513 163.496 25.5359C163.071 24.7205 162.463 24.0716 161.67 23.5893C160.878 23.1069 159.965 22.8657 158.931 22.8657C157.897 22.8657 156.984 23.1069 156.192 23.5893C155.399 24.0716 154.785 24.7205 154.349 25.5359C153.912 26.3513 153.694 27.2528 153.694 28.2405C153.694 29.2282 153.912 30.1297 154.349 30.9451C154.785 31.7605 155.399 32.4094 156.192 32.8918C156.984 33.3741 157.897 33.6153 158.931 33.6153Z" fill="#3BA341"/>
<path fill-rule="evenodd" clip-rule="evenodd" d="M16.3516 36.1386C12.1025 31.9569 0.936222 20.9663 0.331561 20.3545C-0.416093 19.598 0.199492 18.3843 1.19621 18.3856C1.84659 18.3865 6.57914 18.3876 8.58267 18.386C10.5862 18.3843 12.2923 19.5012 12.886 20.059C13.7774 20.8964 15.1373 22.174 16.2271 23.1978C17.2108 24.1221 18.5739 24.2419 19.585 23.2343C24.9104 17.9271 41.6536 1.24488 42.3453 0.60017C43.2281 -0.222613 44.7438 -0.177178 45.5112 0.60017C46.2787 1.37752 61.0237 15.812 61.6261 16.4303C62.3649 17.1886 61.6958 18.3843 60.8494 18.3856C60.0029 18.387 55.1023 18.3843 53.4579 18.3843C53.3488 18.3843 53.2395 18.3811 53.1303 18.3747C51.5935 18.2856 50.0711 17.5906 49.2624 16.8787C48.7317 16.4114 46.8456 14.6605 45.4645 13.3747C44.5919 12.5622 43.2124 12.6582 42.488 13.3597C41.7636 14.0612 20.2374 35.4765 19.5982 36.1211C18.8462 36.8794 17.3564 37.1276 16.3516 36.1386Z" fill="#3BA341"/>
<path fill-rule="evenodd" clip-rule="evenodd" d="M188.802 12.6331H192.834V36.7506H188.802V26.3801H176.227V36.7506H172.196V12.6331H176.227V22.6246H188.802V12.6331ZM205.857 19.386C208.613 19.386 210.772 20.1784 212.334 21.7633C213.896 23.3482 214.677 25.5417 214.677 28.3439C214.677 28.6425 214.654 29.0904 214.608 29.6876H200.999C201.16 30.928 201.723 31.9156 202.687 32.6507C203.652 33.3857 204.881 33.7532 206.374 33.7532C207.339 33.7532 208.269 33.5924 209.165 33.2708C210.06 32.9492 210.761 32.5243 211.266 31.996L213.609 34.27C212.759 35.1887 211.685 35.9123 210.388 36.4406C209.09 36.9688 207.718 37.233 206.271 37.233C204.41 37.233 202.785 36.8597 201.395 36.1132C200.006 35.3667 198.932 34.3159 198.174 32.9607C197.416 31.6055 197.037 30.0322 197.037 28.2406C197.037 26.4949 197.404 24.956 198.139 23.6238C198.874 22.2916 199.908 21.2522 201.24 20.5057C202.572 19.7592 204.111 19.386 205.857 19.386ZM205.96 22.728C204.628 22.728 203.537 23.0725 202.687 23.7616C201.837 24.4507 201.286 25.4269 201.034 26.6902H210.922C210.784 25.4728 210.273 24.5081 209.389 23.7961C208.504 23.084 207.362 22.728 205.96 22.728ZM235.143 19.7305V36.7506H231.697L231.663 34.4767C230.997 35.3036 230.124 35.9525 229.044 36.4233C227.965 36.8942 226.77 37.1296 225.461 37.1296C223.807 37.1296 222.343 36.7564 221.068 36.0099C219.794 35.2634 218.8 34.2126 218.088 32.8574C217.376 31.5022 217.02 29.9633 217.02 28.2406C217.02 26.5179 217.376 24.979 218.088 23.6238C218.8 22.2686 219.794 21.2178 221.068 20.4713C222.343 19.7248 223.807 19.3515 225.461 19.3515C226.77 19.3515 227.965 19.587 229.044 20.0578C230.124 20.5287 230.997 21.1776 231.663 22.0045L231.697 19.7305H235.143ZM226.081 33.6154C227.62 33.6154 228.872 33.1158 229.837 32.1166C230.802 31.1175 231.284 29.8255 231.284 28.2406C231.284 26.6557 230.802 25.3637 229.837 24.3645C228.872 23.3654 227.62 22.8658 226.081 22.8658C224.542 22.8658 223.291 23.3654 222.326 24.3645C221.361 25.3637 220.879 26.6557 220.879 28.2406C220.879 29.8255 221.361 31.1175 222.326 32.1166C223.291 33.1158 224.542 33.6154 226.081 33.6154ZM239.828 12.6331H243.687V36.7506H239.828V12.6331ZM259.674 36.1649C259.008 36.4635 258.382 36.676 257.796 36.8023C257.21 36.9286 256.561 36.9918 255.849 36.9918C254.058 36.9918 252.68 36.475 251.715 35.4414C250.75 34.4078 250.268 32.8918 250.268 30.8935V23.0036H247.064V19.7305H250.268V15.286L254.092 14.8725V19.7305H258.985V23.0036H254.092V30.8935C254.092 31.7663 254.293 32.4324 254.695 32.8918C255.097 33.3512 255.689 33.5809 256.47 33.5809C257.159 33.5809 257.871 33.4086 258.606 33.0641L259.674 36.1649ZM271.905 19.386C274.133 19.386 275.901 20.1095 277.211 21.5566C278.52 23.0036 279.175 24.933 279.175 27.3448V36.7506H275.316V27.586C275.316 26.093 274.948 24.933 274.213 24.1061C273.478 23.2792 272.468 22.8658 271.181 22.8658C269.78 22.8658 268.632 23.3309 267.736 24.2612C266.84 25.1914 266.392 26.3686 266.392 27.7927V36.7506H262.533V12.6331H266.392V21.7288C267.77 20.1669 269.608 19.386 271.905 19.386Z" fill="#222222"/>
</svg>
