<svg width="52" height="51" viewBox="0 0 52 51" fill="none" xmlns="http://www.w3.org/2000/svg">
<g clip-path="url(#clip0_299_33474)">
<path d="M36.5651 21.6282C35.5624 21.8833 34.9423 21.6396 34.3865 20.8041C33.1375 18.9324 31.7584 17.147 30.4285 15.329C30.257 15.0933 30.0785 14.8629 29.8568 14.57C28.2825 16.6941 26.7098 18.717 25.2349 20.8217C24.7071 21.5737 24.153 21.9009 23.168 21.6352L29.0872 13.6904L23.5769 6.51602C24.5242 6.33132 25.1794 6.42543 25.7599 7.27418C27.0423 9.14759 28.4557 10.9313 29.8656 12.8179C31.2834 10.9375 32.6802 9.15201 33.9995 7.29619C34.5289 6.54419 35.0989 6.25835 36.0505 6.5354C35.3293 7.49234 34.6239 8.43342 33.9132 9.36748C32.9545 10.6279 32.0135 11.9032 31.0196 13.1363C30.666 13.5761 30.7231 13.8619 31.0398 14.2779C32.878 16.694 34.6943 19.1347 36.5651 21.6282Z" fill="black"/>
<path d="M9.00703 13.5571C9.16535 12.7637 9.27094 11.9546 9.49082 11.1762C10.8101 6.46362 16.2193 4.50488 19.9353 7.42494C22.1122 9.1374 22.6531 11.5517 22.5449 14.2739H10.2753C10.0906 19.1579 13.607 22.1062 18.0883 20.6021C19.66 20.0744 20.5861 18.8431 21.0497 17.3039C21.2854 16.5325 21.6742 16.4111 22.3998 16.631C22.0286 18.5572 21.186 20.1667 19.4269 21.1738C16.7883 22.6822 13.0221 22.1941 11.0405 20.099C9.87075 18.8677 9.37385 17.3347 9.15396 15.6794C9.12142 15.4155 9.05277 15.1561 9 14.894C9.0044 14.448 9.00703 14.003 9.00703 13.5571ZM10.2973 13.2299H21.3865C21.3135 9.69852 19.1147 7.1892 16.1093 7.16721C12.811 7.14083 10.4407 9.59034 10.2973 13.2299Z" fill="black"/>
<path d="M0.0294745 48.0508V40.7781H4.58913V41.7227H1.12678V43.9386H4.35121V44.8796H1.12678V47.1062H4.63175V48.0508H0.0294745ZM6.80771 42.5962L8.01154 44.7198L9.22603 42.5962H10.3873L8.68626 45.3235L10.4015 48.0508H9.24023L8.01154 46.0124L6.7864 48.0508H5.62163L7.31907 45.3235L5.64293 42.5962H6.80771ZM11.4775 50.0962V42.5962H12.5144V43.4805H12.6032C12.6647 43.3668 12.7535 43.2354 12.8695 43.0863C12.9855 42.9371 13.1465 42.8069 13.3525 42.6957C13.5584 42.582 13.8307 42.5252 14.1692 42.5252C14.6096 42.5252 15.0025 42.6365 15.3482 42.859C15.6938 43.0816 15.9649 43.4023 16.1614 43.8214C16.3603 44.2404 16.4597 44.7447 16.4597 45.3342C16.4597 45.9237 16.3614 46.4291 16.165 46.8505C15.9685 47.2695 15.6986 47.5927 15.3553 47.82C15.012 48.0449 14.6202 48.1573 14.1799 48.1573C13.8484 48.1573 13.5774 48.1017 13.3667 47.9904C13.1583 47.8791 12.995 47.7489 12.8766 47.5998C12.7582 47.4506 12.6671 47.3181 12.6032 47.2021H12.5392V50.0962H11.4775ZM12.5179 45.3235C12.5179 45.707 12.5736 46.0432 12.6848 46.332C12.7961 46.6209 12.9571 46.8469 13.1678 47.0103C13.3785 47.1713 13.6365 47.2518 13.9419 47.2518C14.2592 47.2518 14.5243 47.1677 14.7374 46.9996C14.9505 46.8292 15.1114 46.5984 15.2203 46.3072C15.3316 46.016 15.3873 45.6881 15.3873 45.3235C15.3873 44.9637 15.3328 44.6405 15.2239 44.354C15.1174 44.0676 14.9564 43.8415 14.7409 43.6758C14.5279 43.5101 14.2615 43.4272 13.9419 43.4272C13.6342 43.4272 13.3738 43.5065 13.1607 43.6651C12.95 43.8237 12.7902 44.0451 12.6813 44.3292C12.5724 44.6133 12.5179 44.9447 12.5179 45.3235ZM17.6493 48.0508V42.5962H18.6756V43.4627H18.7324C18.8319 43.1692 19.007 42.9383 19.258 42.7702C19.5113 42.5998 19.7978 42.5146 20.1174 42.5146C20.1837 42.5146 20.2618 42.5169 20.3517 42.5217C20.4441 42.5264 20.5163 42.5323 20.5684 42.5394V43.555C20.5257 43.5432 20.45 43.5302 20.3411 43.516C20.2322 43.4994 20.1233 43.4911 20.0144 43.4911C19.7634 43.4911 19.5397 43.5444 19.3432 43.6509C19.1491 43.7551 18.9952 43.9007 18.8816 44.0877C18.7679 44.2724 18.7111 44.4831 18.7111 44.7198V48.0508H17.6493ZM23.6428 48.1609C23.1054 48.1609 22.6425 48.046 22.2543 47.8164C21.8684 47.5844 21.5701 47.2589 21.3594 46.8398C21.151 46.4184 21.0469 45.9248 21.0469 45.359C21.0469 44.8003 21.151 44.3079 21.3594 43.8817C21.5701 43.4556 21.8636 43.123 22.2401 42.8839C22.6188 42.6448 23.0616 42.5252 23.5682 42.5252C23.8759 42.5252 24.1742 42.5761 24.4631 42.6779C24.7519 42.7797 25.0111 42.9395 25.2408 43.1573C25.4704 43.3751 25.6515 43.658 25.7841 44.006C25.9167 44.3517 25.983 44.7719 25.983 45.2667V45.6431H21.647V44.8477H24.9425C24.9425 44.5683 24.8857 44.3209 24.772 44.1055C24.6584 43.8877 24.4986 43.716 24.2926 43.5906C24.089 43.4651 23.8499 43.4023 23.5753 43.4023C23.277 43.4023 23.0166 43.4757 22.794 43.6225C22.5739 43.7669 22.4034 43.9563 22.2827 44.1907C22.1643 44.4227 22.1051 44.6748 22.1051 44.9471V45.5685C22.1051 45.9331 22.169 46.2433 22.2969 46.4989C22.4271 46.7546 22.6082 46.9499 22.8402 47.0849C23.0722 47.2174 23.3433 47.2837 23.6534 47.2837C23.8546 47.2837 24.0381 47.2553 24.2038 47.1985C24.3696 47.1393 24.5128 47.0517 24.6335 46.9357C24.7543 46.8197 24.8466 46.6765 24.9105 46.506L25.9155 46.6871C25.835 46.9831 25.6906 47.2423 25.4822 47.4648C25.2763 47.685 25.017 47.8567 24.7045 47.9798C24.3944 48.1005 24.0405 48.1609 23.6428 48.1609ZM31.2484 43.9279L30.286 44.0984C30.2458 43.9753 30.1819 43.8581 30.0943 43.7468C30.0091 43.6355 29.8931 43.5444 29.7463 43.4734C29.5995 43.4023 29.416 43.3668 29.1958 43.3668C28.8952 43.3668 28.6442 43.4343 28.443 43.5692C28.2418 43.7018 28.1412 43.8735 28.1412 44.0842C28.1412 44.2665 28.2086 44.4132 28.3436 44.5245C28.4785 44.6358 28.6963 44.7269 28.997 44.7979L29.8635 44.9968C30.3654 45.1128 30.7394 45.2915 30.9856 45.533C31.2318 45.7745 31.3549 46.0882 31.3549 46.4741C31.3549 46.8008 31.2602 47.092 31.0708 47.3477C30.8838 47.601 30.6222 47.7998 30.286 47.9442C29.9522 48.0887 29.5652 48.1609 29.1248 48.1609C28.514 48.1609 28.0157 48.0307 27.6298 47.7702C27.2439 47.5075 27.0072 47.1346 26.9196 46.6516L27.9458 46.4954C28.0098 46.7629 28.1412 46.9653 28.34 47.1026C28.5389 47.2376 28.7981 47.305 29.1177 47.305C29.4657 47.305 29.7439 47.2328 29.9522 47.0884C30.1606 46.9416 30.2647 46.7629 30.2647 46.5522C30.2647 46.3817 30.2008 46.2385 30.073 46.1225C29.9475 46.0065 29.7546 45.9189 29.4941 45.8597L28.5708 45.6573C28.0618 45.5413 27.6854 45.3567 27.4416 45.1033C27.2001 44.85 27.0794 44.5292 27.0794 44.141C27.0794 43.819 27.1693 43.5373 27.3493 43.2958C27.5292 43.0543 27.7778 42.8661 28.095 42.7312C28.4122 42.5939 28.7756 42.5252 29.1852 42.5252C29.7747 42.5252 30.2387 42.6531 30.5772 42.9087C30.9158 43.1621 31.1395 43.5018 31.2484 43.9279ZM36.6097 43.9279L35.6474 44.0984C35.6071 43.9753 35.5432 43.8581 35.4556 43.7468C35.3704 43.6355 35.2544 43.5444 35.1076 43.4734C34.9608 43.4023 34.7773 43.3668 34.5572 43.3668C34.2565 43.3668 34.0056 43.4343 33.8043 43.5692C33.6031 43.7018 33.5025 43.8735 33.5025 44.0842C33.5025 44.2665 33.57 44.4132 33.7049 44.5245C33.8398 44.6358 34.0576 44.7269 34.3583 44.7979L35.2248 44.9968C35.7267 45.1128 36.1007 45.2915 36.3469 45.533C36.5932 45.7745 36.7163 46.0882 36.7163 46.4741C36.7163 46.8008 36.6216 47.092 36.4322 47.3477C36.2451 47.601 35.9835 47.7998 35.6474 47.9442C35.3136 48.0887 34.9265 48.1609 34.4862 48.1609C33.8754 48.1609 33.377 48.0307 32.9911 47.7702C32.6052 47.5075 32.3685 47.1346 32.2809 46.6516L33.3072 46.4954C33.3711 46.7629 33.5025 46.9653 33.7013 47.1026C33.9002 47.2376 34.1594 47.305 34.479 47.305C34.8271 47.305 35.1052 47.2328 35.3136 47.0884C35.5219 46.9416 35.6261 46.7629 35.6261 46.5522C35.6261 46.3817 35.5621 46.2385 35.4343 46.1225C35.3088 46.0065 35.1159 45.9189 34.8555 45.8597L33.9322 45.6573C33.4232 45.5413 33.0468 45.3567 32.8029 45.1033C32.5614 44.85 32.4407 44.5292 32.4407 44.141C32.4407 43.819 32.5307 43.5373 32.7106 43.2958C32.8905 43.0543 33.1391 42.8661 33.4563 42.7312C33.7736 42.5939 34.137 42.5252 34.5465 42.5252C35.136 42.5252 35.6 42.6531 35.9386 42.9087C36.2771 43.1621 36.5008 43.5018 36.6097 43.9279ZM43.4421 40.7781H44.5359V45.9343C44.5359 46.4007 44.4435 46.7996 44.2589 47.131C44.0766 47.4625 43.8197 47.7158 43.4883 47.891C43.1568 48.0638 42.7686 48.1502 42.3235 48.1502C41.9139 48.1502 41.5458 48.0756 41.2191 47.9265C40.8948 47.7773 40.6379 47.5607 40.4485 47.2766C40.2615 46.9902 40.168 46.6422 40.168 46.2326H41.2582C41.2582 46.4338 41.3043 46.6078 41.3967 46.7546C41.4914 46.9014 41.6204 47.0162 41.7837 47.0991C41.9495 47.1796 42.1388 47.2198 42.3519 47.2198C42.5839 47.2198 42.7804 47.1713 42.9414 47.0742C43.1048 46.9748 43.229 46.8292 43.3143 46.6374C43.3995 46.4457 43.4421 46.2113 43.4421 45.9343V40.7781ZM50.0996 42.6886C50.0617 42.3524 49.9055 42.092 49.6309 41.9073C49.3562 41.7203 49.0106 41.6268 48.5939 41.6268C48.2956 41.6268 48.0376 41.6741 47.8198 41.7688C47.602 41.8612 47.4327 41.989 47.312 42.1523C47.1936 42.3133 47.1344 42.4968 47.1344 42.7028C47.1344 42.8756 47.1747 43.0247 47.2551 43.1502C47.338 43.2757 47.4457 43.381 47.5783 43.4663C47.7132 43.5491 47.8577 43.619 48.0115 43.6758C48.1654 43.7302 48.3134 43.7752 48.4554 43.8107L49.1657 43.9954C49.3977 44.0522 49.6356 44.1291 49.8794 44.2262C50.1233 44.3233 50.3494 44.4511 50.5577 44.6097C50.766 44.7683 50.9341 44.9648 51.062 45.1992C51.1922 45.4336 51.2573 45.7141 51.2573 46.0408C51.2573 46.4528 51.1507 46.8185 50.9377 47.1381C50.727 47.4577 50.4204 47.7099 50.0179 47.8945C49.6178 48.0792 49.1337 48.1715 48.5655 48.1715C48.021 48.1715 47.5499 48.0851 47.1522 47.9123C46.7544 47.7395 46.4431 47.4944 46.2182 47.1772C45.9933 46.8576 45.869 46.4788 45.8453 46.0408H46.9462C46.9675 46.3036 47.0527 46.5226 47.2019 46.6978C47.3534 46.8706 47.5463 46.9996 47.7807 47.0849C48.0175 47.1677 48.2767 47.2092 48.5584 47.2092C48.8685 47.2092 49.1444 47.1606 49.3858 47.0636C49.6297 46.9641 49.8214 46.8268 49.9611 46.6516C50.1008 46.4741 50.1706 46.2669 50.1706 46.0302C50.1706 45.8147 50.1091 45.6384 49.986 45.5011C49.8652 45.3638 49.7007 45.2501 49.4924 45.1602C49.2864 45.0702 49.0532 44.9909 48.7928 44.9222L47.9334 44.6879C47.351 44.5292 46.8894 44.296 46.5485 43.9883C46.2099 43.6805 46.0407 43.2733 46.0407 42.7667C46.0407 42.3477 46.1543 41.9819 46.3816 41.6694C46.6088 41.3569 46.9166 41.1142 47.3049 40.9414C47.6931 40.7662 48.1311 40.6786 48.6188 40.6786C49.1112 40.6786 49.5456 40.765 49.9221 40.9379C50.3008 41.1107 50.5991 41.3486 50.8169 41.6516C51.0347 41.9523 51.1484 42.2979 51.1578 42.6886H50.0996Z" fill="#334155"/>
</g>
<defs>
<clipPath id="clip0_299_33474">
<rect width="52" height="50" fill="white" transform="translate(0 0.0507812)"/>
</clipPath>
</defs>
</svg>
