<svg width="36" height="36" viewBox="0 0 36 36" fill="none" xmlns="http://www.w3.org/2000/svg">
<path d="M6.48828 24.3V12.15C6.48828 8.67064 9.30889 5.85004 12.7883 5.85004C16.2677 5.85004 19.0883 8.67064 19.0883 12.15V24.3H6.48828Z" fill="#183B56"/>
<path d="M16.8367 22.5001C19.8202 22.5001 22.6867 24.9166 22.6867 27.9001V31.0501C22.6852 31.5465 22.2832 31.9486 21.7867 31.9501H3.78672C3.29028 31.9486 2.8882 31.5465 2.88672 31.0501V27.9001C2.88672 24.9166 5.75322 22.5001 8.73672 22.5001H16.8367Z" fill="#334A5E"/>
<path d="M16.8383 22.5001L15.0383 31.9501H10.5383L8.73828 22.5001H16.8383Z" fill="#FFB0DC"/>
<path d="M8.73795 31.9501L6.11895 28.2745C6.0486 28.1754 6.02316 28.0514 6.04884 27.9326C6.07452 27.8139 6.14896 27.7114 6.25395 27.6503L6.6963 27.3745C6.82903 27.2965 6.91055 27.154 6.91055 27.0001C6.91055 26.8461 6.82903 26.7037 6.6963 26.6257L6.2769 26.3638C6.16825 26.3002 6.09272 26.1924 6.07007 26.0686C6.04741 25.9448 6.07989 25.8173 6.159 25.7194L8.73795 22.5001L10.5379 31.9501H8.73795Z" fill="white"/>
<path d="M16.8352 31.9501L19.4542 28.2745C19.5245 28.1754 19.5499 28.0514 19.5243 27.9326C19.4986 27.8139 19.4241 27.7114 19.3192 27.6503L18.8768 27.3745C18.7441 27.2965 18.6626 27.154 18.6626 27.0001C18.6626 26.8461 18.7441 26.7037 18.8768 26.6257L19.2962 26.3638C19.4049 26.3002 19.4804 26.1924 19.503 26.0686C19.5257 25.9448 19.4932 25.8173 19.4141 25.7194L16.8352 22.5001L15.0352 31.9501H16.8352Z" fill="white"/>
<path d="M15.7522 19.35L16.8383 22.5C16.8383 22.5 16.3883 24.75 12.7883 24.75C9.18828 24.75 8.73828 22.5 8.73828 22.5L10.1272 19.35H15.7522Z" fill="#F0D0B0"/>
<path d="M12.7851 21.825C15.1251 21.825 16.8229 18.6714 17.2369 17.6436C17.2947 17.5003 17.4242 17.3984 17.5771 17.3759C18.0834 17.3335 18.4644 16.8964 18.4371 16.389C18.4582 15.8769 18.5968 15.3765 18.8421 14.9265C19.3641 13.8645 18.9681 13.1085 18.3741 13.0095C18.3159 13.0008 18.2573 12.9955 18.1986 12.9938C17.9531 12.9923 17.7534 12.7955 17.7486 12.5501V12.5294C17.7454 12.0559 17.42 11.6454 16.9597 11.5344C15.8158 11.2563 13.7085 10.6083 12.7851 9.45001C11.8617 10.6083 9.7543 11.2563 8.6095 11.5344C8.14919 11.6454 7.82379 12.0559 7.82065 12.5294V12.5501C7.81578 12.7955 7.61615 12.9923 7.37065 12.9938C7.31189 12.9955 7.25328 13.0008 7.19515 13.0095C6.60115 13.1085 6.20515 13.8645 6.72715 14.9265C6.97243 15.3765 7.111 15.8769 7.13215 16.389C7.10483 16.8964 7.48578 17.3335 7.9921 17.3759C8.145 17.3984 8.2745 17.5003 8.3323 17.6436C8.7472 18.6714 10.4473 21.825 12.7851 21.825Z" fill="#FFDFBE"/>
<path d="M29.4501 32.9224H22.2494C21.7191 32.9224 21.2893 32.477 21.2893 31.9276V20.4871C21.2893 19.9377 21.7191 19.4922 22.2494 19.4922H28.0099L30.4102 21.7306V31.9276C30.4102 32.477 29.9803 32.9224 29.4501 32.9224Z" fill="#8395DC"/>
<path d="M31.8524 31.4301H24.6517C24.1215 31.4301 23.6916 30.9847 23.6916 30.4353V18.9948C23.6916 18.4454 24.1215 18 24.6517 18H30.4123L32.8125 20.2384V30.4353C32.8125 30.9847 32.3826 31.4301 31.8524 31.4301Z" fill="#D7E6F0"/>
<path d="M30.4123 18V19.2435C30.4123 19.793 30.8421 20.2384 31.3724 20.2384H32.8125L30.4123 18Z" fill="#A5C3DC"/>
<path d="M31.1311 23.2228C31.2636 23.2228 31.3711 23.1115 31.3711 22.9741V20.9845C31.3711 20.8471 31.2636 20.7358 31.1311 20.7358C30.9985 20.7358 30.891 20.8471 30.891 20.9845V22.9741C30.891 23.1115 30.9985 23.2228 31.1311 23.2228Z" fill="#8395DC"/>
<path d="M29.6901 23.2228C30.0871 23.2228 30.4102 22.8881 30.4102 22.4767V21.4819C30.4102 21.0705 30.0871 20.7358 29.6901 20.7358C29.2931 20.7358 28.97 21.0705 28.97 21.4819V22.4767C28.97 22.8881 29.2931 23.2228 29.6901 23.2228ZM29.6901 21.2332C29.8224 21.2332 29.9301 21.3448 29.9301 21.4819V22.4767C29.9301 22.6139 29.8224 22.7254 29.6901 22.7254C29.5577 22.7254 29.4501 22.6139 29.4501 22.4767V21.4819C29.4501 21.3448 29.5577 21.2332 29.6901 21.2332Z" fill="#8395DC"/>
<path d="M29.6936 26.2073C29.8261 26.2073 29.9336 26.096 29.9336 25.9586V23.969C29.9336 23.8316 29.8261 23.7203 29.6936 23.7203C29.561 23.7203 29.4535 23.8316 29.4535 23.969V25.9586C29.4535 26.096 29.561 26.2073 29.6936 26.2073Z" fill="#8395DC"/>
<path d="M31.1315 26.208C31.5285 26.208 31.8516 25.8733 31.8516 25.4619V24.4671C31.8516 24.0556 31.5285 23.7209 31.1315 23.7209C30.7345 23.7209 30.4114 24.0556 30.4114 24.4671V25.4619C30.4114 25.8733 30.7345 26.208 31.1315 26.208ZM31.1315 24.2184C31.2638 24.2184 31.3715 24.3299 31.3715 24.4671V25.4619C31.3715 25.599 31.2638 25.7106 31.1315 25.7106C30.9992 25.7106 30.8915 25.599 30.8915 25.4619V24.4671C30.8915 24.3299 30.9992 24.2184 31.1315 24.2184Z" fill="#8395DC"/>
<path d="M26.8108 26.2073C26.9433 26.2073 27.0508 26.096 27.0508 25.9586V23.969C27.0508 23.8316 26.9433 23.7203 26.8108 23.7203C26.6782 23.7203 26.5707 23.8316 26.5707 23.969V25.9586C26.5707 26.096 26.6782 26.2073 26.8108 26.2073Z" fill="#8395DC"/>
<path d="M28.2526 26.2075C28.6496 26.2075 28.9727 25.8728 28.9727 25.4614V24.4666C28.9727 24.0552 28.6496 23.7205 28.2526 23.7205C27.8556 23.7205 27.5325 24.0552 27.5325 24.4666V25.4614C27.5325 25.8728 27.8556 26.2075 28.2526 26.2075ZM28.2526 24.2179C28.3849 24.2179 28.4926 24.3294 28.4926 24.4666V25.4614C28.4926 25.5985 28.3849 25.7101 28.2526 25.7101C28.1202 25.7101 28.0126 25.5985 28.0126 25.4614V24.4666C28.0126 24.3294 28.1202 24.2179 28.2526 24.2179Z" fill="#8395DC"/>
<path d="M25.3698 26.2073C25.7668 26.2073 26.0898 25.8726 26.0898 25.4612V24.4664C26.0898 24.055 25.7668 23.7203 25.3698 23.7203C24.9727 23.7203 24.6497 24.055 24.6497 24.4664V25.4612C24.6497 25.8726 24.9727 26.2073 25.3698 26.2073ZM25.3698 24.2177C25.5021 24.2177 25.6098 24.3293 25.6098 24.4664V25.4612C25.6098 25.5984 25.5021 25.7099 25.3698 25.7099C25.2374 25.7099 25.1298 25.5984 25.1298 25.4612V24.4664C25.1298 24.3293 25.2374 24.2177 25.3698 24.2177Z" fill="#8395DC"/>
<path d="M28.2522 23.2228C28.3847 23.2228 28.4922 23.1115 28.4922 22.9741V20.9845C28.4922 20.8471 28.3847 20.7358 28.2522 20.7358C28.1196 20.7358 28.0121 20.8471 28.0121 20.9845V22.9741C28.0121 23.1115 28.1196 23.2228 28.2522 23.2228Z" fill="#8395DC"/>
<path d="M26.8112 23.2228C27.2082 23.2228 27.5312 22.8881 27.5312 22.4767V21.4819C27.5312 21.0705 27.2082 20.7358 26.8112 20.7358C26.4142 20.7358 26.0911 21.0705 26.0911 21.4819V22.4767C26.0911 22.8881 26.4142 23.2228 26.8112 23.2228ZM26.8112 21.2332C26.9435 21.2332 27.0512 21.3448 27.0512 21.4819V22.4767C27.0512 22.6139 26.9435 22.7254 26.8112 22.7254C26.6788 22.7254 26.5712 22.6139 26.5712 22.4767V21.4819C26.5712 21.3448 26.6788 21.2332 26.8112 21.2332Z" fill="#8395DC"/>
<path d="M25.3694 23.2228C25.5019 23.2228 25.6094 23.1115 25.6094 22.9741V20.9845C25.6094 20.8471 25.5019 20.7358 25.3694 20.7358C25.2368 20.7358 25.1293 20.8471 25.1293 20.9845V22.9741C25.1293 23.1115 25.2368 23.2228 25.3694 23.2228Z" fill="#8395DC"/>
<path d="M31.1311 29.1918C31.2636 29.1918 31.3711 29.0805 31.3711 28.9431V26.9535C31.3711 26.8161 31.2636 26.7048 31.1311 26.7048C30.9985 26.7048 30.891 26.8161 30.891 26.9535V28.9431C30.891 29.0805 30.9985 29.1918 31.1311 29.1918Z" fill="#8395DC"/>
<path d="M29.6901 29.1918C30.0871 29.1918 30.4102 28.8571 30.4102 28.4457V27.4509C30.4102 27.0395 30.0871 26.7048 29.6901 26.7048C29.2931 26.7048 28.97 27.0395 28.97 27.4509V28.4457C28.97 28.8571 29.2931 29.1918 29.6901 29.1918ZM29.6901 27.2022C29.8224 27.2022 29.9301 27.3138 29.9301 27.4509V28.4457C29.9301 28.5828 29.8224 28.6944 29.6901 28.6944C29.5577 28.6944 29.4501 28.5828 29.4501 28.4457V27.4509C29.4501 27.3138 29.5577 27.2022 29.6901 27.2022Z" fill="#8395DC"/>
<path d="M28.2522 29.1918C28.3847 29.1918 28.4922 29.0805 28.4922 28.9431V26.9535C28.4922 26.8161 28.3847 26.7048 28.2522 26.7048C28.1196 26.7048 28.0121 26.8161 28.0121 26.9535V28.9431C28.0121 29.0805 28.1196 29.1918 28.2522 29.1918Z" fill="#8395DC"/>
<path d="M26.8112 29.1918C27.2082 29.1918 27.5312 28.8571 27.5312 28.4457V27.4509C27.5312 27.0395 27.2082 26.7048 26.8112 26.7048C26.4142 26.7048 26.0911 27.0395 26.0911 27.4509V28.4457C26.0911 28.8571 26.4142 29.1918 26.8112 29.1918ZM26.8112 27.2022C26.9435 27.2022 27.0512 27.3138 27.0512 27.4509V28.4457C27.0512 28.5828 26.9435 28.6944 26.8112 28.6944C26.6788 28.6944 26.5712 28.5828 26.5712 28.4457V27.4509C26.5712 27.3138 26.6788 27.2022 26.8112 27.2022Z" fill="#8395DC"/>
<path d="M25.3694 29.1918C25.5019 29.1918 25.6094 29.0805 25.6094 28.9431V26.9535C25.6094 26.8161 25.5019 26.7048 25.3694 26.7048C25.2368 26.7048 25.1293 26.8161 25.1293 26.9535V28.9431C25.1293 29.0805 25.2368 29.1918 25.3694 29.1918Z" fill="#8395DC"/>
<path d="M22.4691 31.2824C21.011 31.2824 19.8289 30.0575 19.8289 28.5466C19.8289 27.0357 21.011 25.8109 22.4691 25.8109C23.9273 25.8109 25.1094 27.0357 25.1094 28.5466C25.1094 30.0575 23.9273 31.2824 22.4691 31.2824Z" fill="#334A5E"/>
<rect opacity="0.5" width="2.50954" height="0.722315" rx="0.361158" transform="matrix(-1 0 0 1 23.6875 27.4803)" fill="#C4C4C4"/>
<rect opacity="0.75" width="2.50954" height="0.722315" rx="0.361158" transform="matrix(-1 0 0 1 23.6875 28.2026)" fill="#C4C4C4"/>
<rect width="2.50954" height="0.722315" rx="0.361158" transform="matrix(-1 0 0 1 23.6875 28.9249)" fill="#C4C4C4"/>
<path d="M22.4695 25.3134C24.1901 25.3134 25.5898 26.7638 25.5898 28.5466C25.5898 30.3294 24.1901 31.7798 22.4695 31.7798C20.749 31.7798 19.3493 30.3294 19.3493 28.5466C19.3493 26.7638 20.749 25.3134 22.4695 25.3134ZM22.4695 31.2824C23.9254 31.2824 25.1098 30.0551 25.1098 28.5466C25.1098 27.0381 23.9254 25.8108 22.4695 25.8108C21.0137 25.8108 19.8293 27.0381 19.8293 28.5466C19.8293 30.0551 21.0137 31.2824 22.4695 31.2824Z" fill="white"/>
</svg>
