<svg width="40" height="40" viewBox="0 0 40 40" fill="none" xmlns="http://www.w3.org/2000/svg">
<path d="M8.1543 8.62805V31.6839H32.0258V8.62805H8.1543ZM30.1109 29.8345H10.0691V10.4775H30.1109V29.8345Z" fill="#00358F"/>
<path d="M32.0256 8.62805V31.6839H20.0898V29.8345H30.1108V10.4775H20.0898V8.62805H32.0256Z" fill="#012453"/>
<path d="M15.1672 7.25592L14.7334 7.36467V13.3442L20.0948 16.3338L25.4563 13.3442V7.36467L25.0225 7.25592H15.1672Z" fill="#00B3FE"/>
<path d="M20.0947 7.25592V16.3338L25.4562 13.3442V7.36467L25.0224 7.25592H20.0947Z" fill="#0274F9"/>
<path d="M25.4563 7.36469V7.36493L20.0948 10.3533L14.7334 7.36493V7.36469L20.0948 4.375L25.4563 7.36469Z" fill="#07A0E0"/>
<path d="M25.4562 7.36469V7.36493L20.0947 10.3533V4.375L25.4562 7.36469Z" fill="#07A0E0"/>
<path d="M15.1672 26.8596L14.7334 26.9684V32.9478L20.0948 35.9375L25.4563 32.9478V26.9684L25.0225 26.8596H15.1672Z" fill="#00B3FE"/>
<path d="M20.0947 26.8596V35.9375L25.4562 32.9478V26.9684L25.0224 26.8596H20.0947Z" fill="#0274F9"/>
<path d="M25.4563 26.9684V26.9686L20.0948 29.957L14.7334 26.9686V26.9684L20.0948 23.9787L25.4563 26.9684Z" fill="#07A0E0"/>
<path d="M25.4562 26.9684V26.9686L20.0947 29.9569V23.9787L25.4562 26.9684Z" fill="#07A0E0"/>
<path d="M4.18377 17.0576L3.75 17.1663V23.1457L9.11144 26.1355L14.4728 23.1457V17.1663L14.0391 17.0576H4.18377Z" fill="#00B3FE"/>
<path d="M9.11133 17.0576V26.1355L14.4727 23.1457V17.1663L14.039 17.0576H9.11133Z" fill="#0274F9"/>
<path d="M14.4728 17.1662V17.1664L9.11144 20.1548L3.75 17.1664V17.1662L9.11144 14.1765L14.4728 17.1662Z" fill="#07A0E0"/>
<path d="M14.4727 17.1663V17.1665L9.11133 20.1548V14.1766L14.4727 17.1663Z" fill="#07A0E0"/>
<path d="M26.1407 17.0576L25.707 17.1663V23.1457L31.0684 26.1355L36.4299 23.1457V17.1663L35.9961 17.0576H26.1407Z" fill="#00B3FE"/>
<path d="M31.0684 17.0576V26.1355L36.4298 23.1457V17.1663L35.996 17.0576H31.0684Z" fill="#0274F9"/>
<path d="M36.4308 17.1662V17.1664L31.0694 20.1548L25.708 17.1664V17.1662L31.0694 14.1765L36.4308 17.1662Z" fill="#07A0E0"/>
<path d="M36.4298 17.1663V17.1665L31.0684 20.1548V14.1766L36.4298 17.1663Z" fill="#07A0E0"/>
</svg>
