<svg width="40" height="40" viewBox="0 0 40 40" fill="none" xmlns="http://www.w3.org/2000/svg">
<g clip-path="url(#clip0)">
<path d="M5.79341 10.3864C4.79269 10.3864 3.98145 11.1977 3.98145 12.1983V28.2343C3.98145 29.235 4.79269 30.0462 5.79341 30.0462H34.2059C35.2066 30.0462 36.0179 29.2349 36.0179 28.2343V12.1983C36.0179 11.1585 35.0987 10.3864 34.2059 10.3864H5.79341Z" fill="#E9E8FF"/>
<path d="M34.2057 10.3864H31.626C32.5188 10.3864 33.4379 11.1585 33.4379 12.1983V28.2343C33.4379 29.235 32.6267 30.0462 31.626 30.0462H34.2057C35.2064 30.0462 36.0176 29.235 36.0176 28.2343V12.1983C36.0176 11.1585 35.0985 10.3864 34.2057 10.3864Z" fill="#DFDEFF"/>
<path d="M36.0179 12.1983C36.0179 11.1585 35.0987 10.3864 34.2059 10.3864H5.79341C4.79269 10.3864 3.98145 11.1977 3.98145 12.1983V25.6893H36.0179V12.1983Z" fill="#7561F6"/>
<path d="M34.2057 10.3864H31.626C32.5188 10.3864 33.4379 11.1585 33.4379 12.1983V25.6893H36.0176V12.1983C36.0176 11.1585 35.0985 10.3864 34.2057 10.3864Z" fill="#5E48F0"/>
<path d="M11.3375 19.1748H7.35283C7.08564 19.1748 6.86914 18.9583 6.86914 18.6911C6.86914 18.424 7.08564 18.2075 7.35283 18.2075H11.3375C11.6047 18.2075 11.8212 18.424 11.8212 18.6911C11.8212 18.9583 11.6047 19.1748 11.3375 19.1748Z" fill="#FDF385"/>
<path d="M13.2723 21.6256H7.35283C7.08564 21.6256 6.86914 21.4091 6.86914 21.1419C6.86914 20.8747 7.08564 20.6582 7.35283 20.6582H13.2723C13.5395 20.6582 13.756 20.8747 13.756 21.1419C13.756 21.4091 13.5395 21.6256 13.2723 21.6256Z" fill="#FDF385"/>
<path d="M32.6637 19.1749H28.679C28.4118 19.1749 28.1953 18.9584 28.1953 18.6912C28.1953 18.424 28.4118 18.2075 28.679 18.2075H32.6637C32.9309 18.2075 33.1474 18.424 33.1474 18.6912C33.1474 18.9584 32.9309 19.1749 32.6637 19.1749Z" fill="#FDF385"/>
<path d="M32.6639 21.6256H26.7444C26.4772 21.6256 26.2607 21.4091 26.2607 21.1419C26.2607 20.8747 26.4772 20.6582 26.7444 20.6582H32.6639C32.9311 20.6582 33.1476 20.8747 33.1476 21.1419C33.1476 21.4091 32.9311 21.6256 32.6639 21.6256Z" fill="#FDF385"/>
<path d="M23.0299 35.7663H16.9707L17.6153 30.0462H22.3853L23.0299 35.7663Z" fill="#C1C0FA"/>
<path d="M22.3853 30.0462H19.8057L20.4503 35.7663H23.0299L22.3853 30.0462Z" fill="#B3B2FA"/>
<path d="M25.3938 36.25H14.6077C14.3405 36.25 14.124 36.0335 14.124 35.7664C14.124 35.4992 14.3405 35.2827 14.6077 35.2827H25.3938C25.661 35.2827 25.8775 35.4992 25.8775 35.7664C25.8775 36.0335 25.6609 36.25 25.3938 36.25Z" fill="#E9E8FF"/>
<path d="M25.3941 35.2827H22.8145C23.0816 35.2827 23.2981 35.4992 23.2981 35.7664C23.2981 36.0335 23.0816 36.25 22.8145 36.25H25.3941C25.6613 36.25 25.8778 36.0335 25.8778 35.7664C25.8778 35.4992 25.6613 35.2827 25.3941 35.2827Z" fill="#DFDEFF"/>
<path d="M24.1803 4.63908C24.5512 7.39495 26.6146 8.54948 27.696 8.97087C28.101 9.12868 28.3603 9.53169 28.3353 9.96559C27.8607 18.2228 20.0123 22.4448 20.0123 22.4448C20.0123 22.4448 12.156 18.2228 11.6813 9.96566C11.6564 9.53175 11.9157 9.12868 12.3207 8.97093C13.4021 8.54954 15.4654 7.39501 15.8364 4.63915C15.9045 4.1325 16.3285 3.75 16.8397 3.75H23.177C23.6881 3.75 24.1121 4.1325 24.1803 4.63908Z" fill="#FFC600"/>
<path d="M20.015 20.159C19.3249 19.6812 18.3309 18.914 17.3344 17.8716C15.2018 15.6405 13.9704 13.1607 13.668 10.4919C15.6989 9.50157 17.0922 7.79918 17.6066 5.68475H22.4116C22.926 7.79931 24.3191 9.50151 26.3499 10.4918C25.7641 15.6276 21.8331 18.9023 20.015 20.159Z" fill="#FDF385"/>
<path d="M21.8079 11.2362C21.8079 10.2004 20.9325 9.36906 19.8812 9.44161C19.009 9.50184 18.2962 10.1981 18.2175 11.0688C18.1473 11.8457 18.5717 12.5317 19.2114 12.8487V15.0195C19.2114 15.4599 19.5684 15.817 20.0089 15.817C20.4493 15.817 20.8064 15.46 20.8064 15.0195V12.8487C21.3998 12.5548 21.8079 11.9432 21.8079 11.2362Z" fill="#5E48F0"/>
</g>
<defs>
<clipPath id="clip0">
<rect width="32.5" height="32.5" fill="white" transform="translate(3.75 3.75)"/>
</clipPath>
</defs>
</svg>
