<svg width="40" height="40" viewBox="0 0 40 40" fill="none" xmlns="http://www.w3.org/2000/svg">
<g clip-path="url(#clip0)">
<path d="M27.1997 37.3143H12.4874C11.194 37.3143 10.1455 36.2577 10.1455 34.9542V5.00577C10.1455 3.70226 11.194 2.64563 12.4874 2.64563H27.1997C28.4932 2.64563 29.5417 3.70226 29.5417 5.00577V34.9542C29.5417 36.2577 28.4932 37.3143 27.1997 37.3143Z" fill="#6583FE"/>
<path d="M10.1455 6.00562H29.5417V33.8017H10.1455V6.00562Z" fill="white"/>
<path d="M27.2493 37.6198H12.4381C10.9214 37.6198 9.6875 36.3854 9.6875 34.8681V4.9392C9.6875 3.42191 10.9214 2.1875 12.4381 2.1875H27.2494C28.7661 2.1875 30 3.42191 30 4.9392V34.8681C29.9999 36.3854 28.766 37.6198 27.2493 37.6198ZM12.4381 2.9737C11.3548 2.9737 10.4734 3.85542 10.4734 4.9392V34.8681C10.4734 35.9519 11.3548 36.8336 12.4381 36.8336H27.2494C28.3327 36.8336 29.2141 35.9519 29.2141 34.8681V4.9392C29.2141 3.85542 28.3327 2.9737 27.2494 2.9737H12.4381Z" fill="#2626BC"/>
<path d="M21.6266 17.0935L19.8676 18.0393L18.1087 17.0915C17.8659 16.9609 17.5633 17.0518 17.4327 17.2946C17.3021 17.5373 17.393 17.8399 17.6357 17.9705L19.3688 18.9049V20.1021C19.3688 20.3776 19.5921 20.601 19.8676 20.601C20.1431 20.601 20.3665 20.3776 20.3665 20.1021V18.9049L22.0995 17.9735C22.3422 17.8429 22.4331 17.5403 22.3025 17.2976C22.1719 17.0548 21.8693 16.9639 21.6266 17.0945V17.0935Z" fill="#FF4646"/>
<path d="M15.8172 16.4206C15.7557 16.5376 15.6498 16.6252 15.5232 16.6636C15.3967 16.7021 15.26 16.6882 15.1438 16.6251L13.3828 15.6773V15.2632C13.3826 15.1718 13.4323 15.0876 13.5125 15.0437L13.9066 14.8292L15.6127 15.7471C15.8546 15.877 15.946 16.178 15.8172 16.4206Z" fill="#FF4646"/>
<path d="M15.8172 22.8695C15.7557 22.9866 15.6498 23.0742 15.5232 23.1126C15.3967 23.151 15.26 23.1372 15.1438 23.0741L13.3828 22.1262V21.7122C13.3826 21.6208 13.4323 21.5366 13.5125 21.4927L13.9066 21.2782L15.6127 22.1961C15.8546 22.326 15.946 22.627 15.8172 22.8695Z" fill="#FF4646"/>
<path d="M17.6965 23.8582C17.758 23.7412 17.8639 23.6536 17.9904 23.6152C18.117 23.5767 18.2537 23.5906 18.3699 23.6537L20.1309 24.6015L20.1309 25.0156C20.1311 25.107 20.0813 25.1912 20.0012 25.2351L19.6071 25.4496L17.901 24.5317C17.6591 24.4018 17.5677 24.1008 17.6965 23.8582Z" fill="#FF4646"/>
<path d="M21.8758 13.2478C21.8143 13.3649 21.7084 13.4525 21.5818 13.4909C21.4553 13.5293 21.3186 13.5155 21.2024 13.4524L19.4414 12.5045V12.0905C19.4412 11.9991 19.4909 11.9149 19.5711 11.871L19.9652 11.6565L21.6713 12.5744C21.9132 12.7043 22.0046 13.0053 21.8758 13.2478Z" fill="#FF4646"/>
<path d="M26.3528 15.2632V15.6823L24.5919 16.6251C24.3526 16.7325 24.0711 16.6363 23.9476 16.405C23.824 16.1737 23.9007 15.8862 24.123 15.7471L25.829 14.8292L26.2231 15.0437C26.3033 15.0876 26.3531 15.1718 26.3528 15.2632Z" fill="#FF4646"/>
<path d="M26.3528 21.7122V22.1312L24.5919 23.0741C24.3526 23.1815 24.0711 23.0853 23.9476 22.854C23.824 22.6227 23.9007 22.3352 24.123 22.1961L25.829 21.2782L26.2231 21.4927C26.3033 21.5366 26.3531 21.6208 26.3528 21.7122Z" fill="#FF4646"/>
<path d="M19.656 24.9996L19.656 24.5806L21.4169 23.6377C21.6561 23.5303 21.9377 23.6265 22.0612 23.8578C22.1848 24.0891 22.1081 24.3766 21.8858 24.5157L20.1798 25.4336L19.7857 25.2191C19.7055 25.1752 19.6557 25.091 19.656 24.9996Z" fill="#FF4646"/>
<path d="M20.4798 12.0905V12.5095L18.7188 13.4524C18.4796 13.5598 18.1981 13.4636 18.0745 13.2323C17.951 13.001 18.0276 12.7135 18.2499 12.5744L19.956 11.6565L20.3501 11.871C20.4303 11.9149 20.48 11.9991 20.4798 12.0905Z" fill="#FF4646"/>
<path d="M13.8894 15.2536L13.8894 14.8346L15.6503 13.8918C15.8895 13.7844 16.1711 13.8805 16.2946 14.1118C16.4182 14.3432 16.3415 14.6306 16.1192 14.7697L14.4131 15.6876L14.0191 15.4731C13.9389 15.4292 13.8891 15.345 13.8894 15.2536Z" fill="#FF4646"/>
<path d="M25.8694 15.2536L25.8694 14.8346L24.1085 13.8918C23.8693 13.7844 23.5877 13.8805 23.4642 14.1118C23.3406 14.3432 23.4173 14.6306 23.6396 14.7697L25.3456 15.6876L25.7397 15.4731C25.8199 15.4292 25.8697 15.345 25.8694 15.2536Z" fill="#FF4646"/>
<path d="M20.3668 23.0952V25.32L19.9877 25.5246C19.9129 25.5645 19.8231 25.5645 19.7483 25.5246L19.3691 25.32V23.0952C19.3691 22.8197 19.5925 22.5963 19.868 22.5963C20.1435 22.5963 20.3668 22.8197 20.3668 23.0952Z" fill="#FF4646"/>
<path d="M26.3899 19.829V22.1072L26.0514 22.3166C25.9846 22.3575 25.9044 22.3575 25.8376 22.3166L25.499 22.1072V19.829C25.499 19.5469 25.6985 19.3182 25.9445 19.3182C26.1905 19.3182 26.3899 19.5469 26.3899 19.829Z" fill="#FF4646"/>
<path d="M14.3805 19.8171V22.042L14.0014 22.2465C13.9266 22.2864 13.8368 22.2864 13.7619 22.2465L13.3828 22.042V19.8171C13.3828 19.5416 13.6062 19.3182 13.8817 19.3182C14.1572 19.3182 14.3805 19.5416 14.3805 19.8171Z" fill="#FF4646"/>
<path d="M13.3832 17.5182L13.3832 15.2934L13.7623 15.0888C13.8371 15.0489 13.9269 15.0489 14.0017 15.0888L14.3809 15.2934L14.3809 17.5182C14.3809 17.7937 14.1575 18.0171 13.882 18.0171C13.6065 18.0171 13.3832 17.7937 13.3832 17.5182Z" fill="#FF4646"/>
<path d="M25.3656 17.5182L25.3656 15.2934L25.7447 15.0888C25.8195 15.0489 25.9093 15.0489 25.9842 15.0888L26.3633 15.2934L26.3633 17.5182C26.3633 17.7937 26.1399 18.0171 25.8644 18.0171C25.5889 18.0171 25.3656 17.7937 25.3656 17.5182Z" fill="#FF4646"/>
</g>
<defs>
<clipPath id="clip0">
<rect width="40" height="40" fill="white"/>
</clipPath>
</defs>
</svg>
