<svg width="40" height="40" viewBox="0 0 40 40" fill="none" xmlns="http://www.w3.org/2000/svg">
<path d="M21.0941 30.4165C13.9144 30.4165 8.07324 24.5753 8.07324 17.3956C8.07324 10.216 13.9143 4.37488 21.0941 4.37488C28.2738 4.37488 34.1149 10.216 34.1149 17.3957C34.1149 24.5755 28.2738 30.4165 21.0941 30.4165ZM21.0941 5.62488C14.6036 5.62488 9.32324 10.9053 9.32324 17.3957C9.32324 23.8862 14.6036 29.1666 21.0941 29.1666C27.5845 29.1666 32.8649 23.8862 32.8649 17.3957C32.8649 10.9053 27.5845 5.62488 21.0941 5.62488Z" fill="#FFEB23"/>
<path d="M31.25 38.7498H8.75C8.05961 38.7498 7.5 38.1902 7.5 37.4998V28.7498H32.5V37.4998C32.5 38.1902 31.9403 38.7498 31.25 38.7498Z" fill="#FFCD05"/>
<path d="M26.2499 20.5176L25.2588 21.5088L32.4999 28.7499H34.9999C34.68 28.7499 34.3601 28.6279 34.116 28.3838L26.2499 20.5176Z" fill="#46508C"/>
<path d="M31.25 38.7499H16.25C15.5596 38.7499 15 38.1903 15 37.4999V28.7499L23.75 19.9999L32.5 28.7499V37.4999C32.5 38.1903 31.9403 38.7499 31.25 38.7499Z" fill="#FAA019"/>
<path d="M27.4048 18.2716C27.2113 17.8045 26.7555 17.4999 26.25 17.4999H13.75C13.4185 17.4999 13.1005 17.6317 12.8662 17.8661L4.11617 26.6161C3.75867 26.9736 3.65172 27.5113 3.84516 27.9784C4.03859 28.4454 4.49438 28.7499 5 28.7499H17.5C17.8315 28.7499 18.1494 28.6182 18.3838 28.3838L27.1338 19.6338C27.4913 19.2763 27.5983 18.7387 27.4048 18.2716Z" fill="#5AD7FF"/>
<path d="M35 28.7499C34.6801 28.7499 34.3603 28.6278 34.1162 28.3838L26.25 20.5176L18.3839 28.3838C17.8958 28.8719 17.1043 28.8719 16.6162 28.3838C16.1279 27.8956 16.1279 27.1042 16.6162 26.616L25.3661 17.866C25.8543 17.3778 26.6457 17.3778 27.1339 17.866L35.8839 26.616C36.3721 27.1042 36.3721 27.8956 35.8839 28.3838C35.6398 28.6278 35.3199 28.7499 35 28.7499Z" fill="#2387C3"/>
<path d="M7.5 28.7498H15V31.2498H7.5V28.7498Z" fill="#FAA019"/>
<path d="M23.75 28.7498C21.6789 28.7498 20 30.4287 20 32.4998V38.7498H27.5V32.4998C27.5 30.4287 25.821 28.7498 23.75 28.7498Z" fill="#46508C"/>
<path d="M22.8617 16.3571C22.7017 16.3571 22.5418 16.296 22.4198 16.174C22.0657 15.8199 21.5948 15.6249 21.094 15.6249C20.5931 15.6249 20.1223 15.82 19.7681 16.174C19.524 16.4182 19.1284 16.4182 18.8842 16.174C18.6402 15.93 18.6402 15.5343 18.8842 15.2902C19.4745 14.7 20.2593 14.3749 21.094 14.3749C21.9287 14.3749 22.7134 14.7 23.3037 15.2902C23.5477 15.5343 23.5477 15.93 23.3037 16.174C23.1816 16.296 23.0216 16.3571 22.8617 16.3571Z" fill="#FAA019"/>
<path d="M24.6297 14.5894C24.4697 14.5894 24.3098 14.5284 24.1877 14.4063C23.3613 13.58 22.2627 13.1249 21.0941 13.1249C19.9255 13.1249 18.8269 13.58 18.0005 14.4063C17.7564 14.6504 17.3608 14.6505 17.1166 14.4063C16.8726 14.1623 16.8726 13.7666 17.1166 13.5225C18.1791 12.4601 19.5916 11.875 21.0941 11.875C22.5966 11.875 24.0092 12.4601 25.0716 13.5225C25.3157 13.7666 25.3157 14.1623 25.0716 14.4063C24.9495 14.5284 24.7896 14.5894 24.6297 14.5894Z" fill="#FAA019"/>
<path d="M26.3967 12.8216C26.2367 12.8216 26.0768 12.7606 25.9547 12.6385C24.6562 11.34 22.9297 10.6249 21.0934 10.6249C19.257 10.6249 17.5305 11.34 16.232 12.6385C15.9879 12.8825 15.5922 12.8825 15.3481 12.6385C15.104 12.3944 15.104 11.9987 15.3481 11.7546C16.8828 10.22 18.9231 9.37488 21.0934 9.37488C23.2636 9.37488 25.304 10.22 26.8386 11.7546C27.0827 11.9987 27.0827 12.3944 26.8386 12.6385C26.7165 12.7605 26.5566 12.8216 26.3967 12.8216Z" fill="#FAA019"/>
<path d="M11.0089 13.2127C11.0089 13.9529 10.6731 14.6383 10.0939 15.0975C9.85748 15.2825 9.70328 15.5258 9.6553 15.7863L9.63817 15.7828H7.58209L7.55811 15.7863C7.51013 15.5155 7.36963 15.2791 7.16745 15.1283C6.42041 14.5629 6.07088 13.6377 6.26278 12.7056C6.45125 11.7975 7.18801 11.0573 8.09611 10.8688C8.81916 10.7146 9.55935 10.8928 10.1213 11.3486C10.6868 11.8078 11.0089 12.4863 11.0089 13.2127Z" fill="#FFC107"/>
<path d="M10.8624 11.2179C10.7966 11.2179 10.7308 11.1929 10.6808 11.1425C10.5804 11.0421 10.5804 10.8793 10.6808 10.7789L11.155 10.3047C11.2554 10.2043 11.4182 10.2043 11.5186 10.3047C11.619 10.4051 11.619 10.5679 11.5186 10.6683L11.0444 11.1425C10.994 11.1926 10.9282 11.2179 10.8624 11.2179Z" fill="#FFC107"/>
<path d="M12.4657 13.4697H11.7951C11.6532 13.4697 11.5381 13.3546 11.5381 13.2127C11.5381 13.0708 11.6532 12.9557 11.7951 12.9557H12.4657C12.6076 12.9557 12.7227 13.0708 12.7227 13.2127C12.7227 13.3546 12.6076 13.4697 12.4657 13.4697Z" fill="#FFC107"/>
<path d="M11.3367 16.1956C11.2709 16.1956 11.2051 16.1706 11.155 16.1202L10.6808 15.646C10.5804 15.5456 10.5804 15.3828 10.6808 15.2824C10.7812 15.182 10.9439 15.182 11.0444 15.2824L11.5186 15.7567C11.619 15.8571 11.619 16.0198 11.5186 16.1202C11.4682 16.1706 11.4025 16.1956 11.3367 16.1956Z" fill="#FFC107"/>
<path d="M9.65579 15.7861C9.64551 15.8444 9.63865 15.9027 9.63865 15.9643V16.7251C9.63865 17.0541 9.36794 17.3248 9.03897 17.3248H8.18227C7.89442 17.3248 7.58258 17.1055 7.58258 16.6257V16.0192C7.58258 15.9403 7.57573 15.8615 7.55859 15.7861L7.58258 15.7827H9.63865L9.65579 15.7861Z" fill="#607D8B"/>
<path d="M8.61052 10.2852C8.46866 10.2852 8.35352 10.17 8.35352 10.0282V9.35753C8.35352 9.21567 8.46866 9.10052 8.61052 9.10052C8.75239 9.10052 8.86753 9.21567 8.86753 9.35753V10.0282C8.86753 10.17 8.75239 10.2852 8.61052 10.2852Z" fill="#FFC107"/>
<path d="M6.35814 11.2179C6.29235 11.2179 6.22656 11.1929 6.17652 11.1425L5.70226 10.6683C5.60185 10.5679 5.60185 10.4051 5.70226 10.3047C5.80266 10.2043 5.96543 10.2043 6.06584 10.3047L6.54011 10.7789C6.64051 10.8793 6.64051 11.0421 6.54011 11.1425C6.48939 11.1926 6.42394 11.2179 6.35814 11.2179Z" fill="#FFC107"/>
<path d="M5.42568 13.4696H4.75506C4.61319 13.4696 4.49805 13.3545 4.49805 13.2126C4.49805 13.0708 4.61319 12.9556 4.75506 12.9556H5.42568C5.56755 12.9556 5.68269 13.0708 5.68269 13.2126C5.68269 13.3545 5.56755 13.4696 5.42568 13.4696Z" fill="#FFC107"/>
<path d="M5.88388 16.1957C5.81808 16.1957 5.75229 16.1707 5.70226 16.1203C5.60185 16.0199 5.60185 15.8571 5.70226 15.7567L6.17652 15.2825C6.27693 15.1821 6.4397 15.1821 6.54011 15.2825C6.64051 15.3829 6.64051 15.5456 6.54011 15.646L6.06584 16.1203C6.01547 16.1707 5.94967 16.1957 5.88388 16.1957Z" fill="#FFC107"/>
<path d="M34.867 18.4463H31.2437C30.9252 18.4463 30.667 18.1842 30.667 17.8609V10.4335C30.667 10.1102 30.9252 9.84814 31.2437 9.84814H34.867C35.1855 9.84814 35.4437 10.1102 35.4437 10.4335V17.8609C35.4437 18.1842 35.1855 18.4463 34.867 18.4463Z" fill="#6583FE"/>
<path d="M30.666 10.8035H35.4427V17.491H30.666V10.8035Z" fill="white"/>
<path d="M34.7969 18.4463H31.3138C30.9572 18.4463 30.667 18.1467 30.667 17.7785V10.5159C30.667 10.1477 30.9572 9.84814 31.3138 9.84814H34.7969C35.1535 9.84814 35.4437 10.1477 35.4437 10.5159V17.7785C35.4437 18.1467 35.1535 18.4463 34.7969 18.4463ZM31.3138 10.0389C31.0591 10.0389 30.8518 10.2529 30.8518 10.5159V17.7785C30.8518 18.0415 31.0591 18.2555 31.3138 18.2555H34.7969C35.0516 18.2555 35.2589 18.0415 35.2589 17.7785V10.5159C35.2589 10.2529 35.0516 10.0389 34.7969 10.0389H31.3138Z" fill="#2626BC"/>
<path d="M21.3199 7.60513C19.8767 7.60513 18.7031 6.57254 18.7031 5.30337C18.7031 4.12299 20.8242 1.78806 21.0657 1.52564L21.3199 1.25L21.5742 1.52564C21.8157 1.78808 23.9368 4.12299 23.9368 5.30337C23.9368 6.57254 22.7632 7.60513 21.3199 7.60513Z" fill="#66E6FF"/>
</svg>
