<svg width="88" height="88" viewBox="0 0 88 88" fill="none" xmlns="http://www.w3.org/2000/svg">
<rect width="88" height="88" rx="24" fill="#F2F4FD"/>
<g clip-path="url(#clip0)">
<path d="M33.5834 35.6668C31.2855 35.6668 29.4167 33.7981 29.4167 31.5002C29.4167 29.2022 31.2855 27.3335 33.5834 27.3335C35.8813 27.3335 37.7501 29.2022 37.7501 31.5002C37.7501 33.7981 35.8813 35.6668 33.5834 35.6668Z" fill="#003366"/>
<path d="M40.3542 44H26.8125C25.95 44 25.25 43.3 25.25 42.4375C25.25 39.8521 27.3521 37.75 29.9375 37.75H37.2292C39.8146 37.75 41.9167 39.8521 41.9167 42.4375C41.9167 43.3 41.2167 44 40.3542 44Z" fill="#003366"/>
<path d="M62.75 60.6667C64.4759 60.6667 65.875 59.2676 65.875 57.5417C65.875 55.8159 64.4759 54.4167 62.75 54.4167C61.0241 54.4167 59.625 55.8159 59.625 57.5417C59.625 59.2676 61.0241 60.6667 62.75 60.6667Z" fill="#003366"/>
<path d="M67.4375 69H58.0625C57.2 69 56.5 68.3 56.5 67.4375C56.5 64.8521 58.6021 62.75 61.1875 62.75H64.3125C66.8979 62.75 69 64.8521 69 67.4375C69 68.3 68.3 69 67.4375 69Z" fill="#003366"/>
<path d="M46.0832 60.6667C47.8091 60.6667 49.2082 59.2676 49.2082 57.5417C49.2082 55.8159 47.8091 54.4167 46.0832 54.4167C44.3574 54.4167 42.9583 55.8159 42.9583 57.5417C42.9583 59.2676 44.3574 60.6667 46.0832 60.6667Z" fill="#003366"/>
<path d="M50.7707 69H41.3958C40.5333 69 39.8333 68.3 39.8333 67.4375C39.8333 64.8521 41.9353 62.75 44.5207 62.75H47.6457C50.2312 62.75 52.3332 64.8521 52.3332 67.4375C52.3332 68.3 51.6332 69 50.7707 69Z" fill="#003366"/>
<path d="M65.3542 19H47.6458C45.6354 19 44 20.6354 44 22.6458V32.0208C44 34.0312 45.6354 35.6667 47.6458 35.6667H50.25V40.3542C50.25 41.7479 51.9396 42.4354 52.9167 41.4583L58.7104 35.6667H65.3542C67.3646 35.6667 69 34.0312 69 32.0208V22.6458C69 20.6354 67.3646 19 65.3542 19ZM50.25 29.4167C49.1 29.4167 48.1667 28.4833 48.1667 27.3333C48.1667 26.1833 49.1 25.25 50.25 25.25C51.4 25.25 52.3333 26.1833 52.3333 27.3333C52.3333 28.4833 51.4 29.4167 50.25 29.4167ZM56.5 29.4167C55.35 29.4167 54.4167 28.4833 54.4167 27.3333C54.4167 26.1833 55.35 25.25 56.5 25.25C57.65 25.25 58.5833 26.1833 58.5833 27.3333C58.5833 28.4833 57.65 29.4167 56.5 29.4167ZM62.75 29.4167C61.6 29.4167 60.6667 28.4833 60.6667 27.3333C60.6667 26.1833 61.6 25.25 62.75 25.25C63.9 25.25 64.8333 26.1833 64.8333 27.3333C64.8333 28.4833 63.9 29.4167 62.75 29.4167Z" fill="#57ABFF"/>
<path d="M46.0833 46.0833H21.0833C19.9333 46.0833 19 47.0166 19 48.1666C19 49.3166 19.9333 50.2499 21.0833 50.2499H23.4229L25.25 67.6041C25.3333 68.3958 26.0208 68.9999 26.8125 68.9999H35.9104C35.7667 68.4999 35.6667 67.9833 35.6667 67.4374C35.6667 64.4958 37.125 61.902 39.3396 60.2916C38.9917 59.4416 38.7917 58.5145 38.7917 57.5416C38.7917 54.3603 40.8521 51.677 43.6979 50.6833L43.7438 50.2499H46.0833C47.2333 50.2499 48.1667 49.3166 48.1667 48.1666C48.1667 47.0166 47.2333 46.0833 46.0833 46.0833Z" fill="#57ABFF"/>
</g>
<defs>
<clipPath id="clip0">
<rect width="50" height="50" fill="white" transform="translate(19 19)"/>
</clipPath>
</defs>
</svg>
