<svg width="88" height="88" viewBox="0 0 88 88" fill="none" xmlns="http://www.w3.org/2000/svg">
<rect width="88" height="88" rx="24" fill="#F2F4FD"/>
<path d="M20 58.5625V59.9688C20 63.8456 23.1544 67 27.0312 67H60.9688C64.8456 67 68 63.8456 68 59.9688V58.5625H20Z" fill="#003366"/>
<path d="M34.3182 35.671C34.0037 37.4069 34.1424 39.166 34.7178 40.759C35.1353 41.9153 35.7944 43.0181 36.6225 43.945C37.7527 45.2113 38.3748 46.9059 38.3748 48.7186V50.1249H49.6248V48.7186C49.6248 46.9718 50.3046 45.2071 51.5378 43.7542C52.3137 42.8437 52.9029 41.833 53.2846 40.7508C53.6554 39.7044 53.8436 38.6002 53.8436 37.4686C53.8436 31.3906 48.3884 26.6906 42.2118 27.7856C38.2897 28.4722 35.0446 31.7132 34.3182 35.671Z" fill="#57ABFF"/>
<path d="M39.7812 52.9375H48.2188V55.75H39.7812V52.9375Z" fill="#003366"/>
<path d="M48.0781 25.4092L49.2676 22.8615L51.8158 24.0512L50.6263 26.5989L48.0781 25.4092Z" fill="#003366"/>
<path d="M52.7761 28.2656L54.9304 26.4601L56.7365 28.6151L54.5823 30.4206L52.7761 28.2656Z" fill="#003366"/>
<path d="M55.866 32.8296L58.5826 32.1012L59.3109 34.8178L56.5943 35.5462L55.866 32.8296Z" fill="#003366"/>
<path d="M42.5938 22H45.4062V24.8125H42.5938V22Z" fill="#003366"/>
<path d="M36.1804 24.0488L38.7286 22.8619L39.9153 25.4096L37.3671 26.5965L36.1804 24.0488Z" fill="#003366"/>
<path d="M31.249 28.6084L33.058 26.4534L35.2122 28.2617L33.4033 30.4167L31.249 28.6084Z" fill="#003366"/>
<path d="M28.6973 34.8252L29.4256 32.1086L32.1422 32.837L31.4139 35.5536L28.6973 34.8252Z" fill="#003366"/>
<path d="M36.9688 52.9376H35.5625V48.7188C35.5625 47.5983 35.1944 46.5683 34.5243 45.8184C33.46 44.6264 32.6113 43.2064 32.073 41.715C31.7433 40.8022 31.5432 39.8461 31.4365 38.875H22.8125V55.75H36.9688V52.9376Z" fill="#003366"/>
<path d="M55.9353 41.6902C55.441 43.0923 54.6815 44.4025 53.679 45.578C52.8797 46.5201 52.4375 47.6366 52.4375 48.7188V52.9375H51.0312V55.75H65.0938V38.875H56.5377C56.4312 39.8353 56.2568 40.7828 55.9353 41.6902Z" fill="#003366"/>
</svg>
