<svg width="34" height="34" viewBox="0 0 34 34" fill="none" xmlns="http://www.w3.org/2000/svg">
<path d="M25.125 16.1737H27.2917V19.4788H25.125V16.1737Z" fill="#EF5E3B"/>
<path d="M27.292 15.072H29.4587V19.4788H27.292V15.072Z" fill="#FA8669"/>
<path d="M29.459 13.4195H31.6257V19.4788H29.459V13.4195Z" fill="#FFB0A1"/>
<path d="M22.958 18.9279H33.2497V20.0296H22.958V18.9279Z" fill="#D1E4FF"/>
<path d="M8.87503 12.8686H0.75V11.767H8.65159L11.7459 8.62024L12.511 9.39831L9.26097 12.7034C9.15941 12.8136 9.01722 12.8686 8.87503 12.8686Z" fill="#D1E4FF"/>
<path d="M2.91602 1.85168H3.99935V3.91736H2.91602V1.85168Z" fill="#FFC431"/>
<path d="M5.08398 1.85168H6.16732V4.60592H5.08398V1.85168Z" fill="#FFC431"/>
<path d="M9.41699 29.394H20.2504V33.2499H9.41699V29.394Z" fill="#7148DB"/>
<path d="M18.084 23.8856V29.3941L16.459 31.5975H13.209L11.584 29.3941V23.8856H18.084Z" fill="#FFC431"/>
<path d="M11.584 26.6398H18.084V27.7415H11.584V26.6398Z" fill="#FFB401"/>
<path d="M18.084 28.8433V29.3941L17.6778 29.945H11.9902L11.584 29.3941V28.8433H18.084Z" fill="#FFB401"/>
<path d="M26.208 33.25L24.3325 31.8109L19.708 25.5381V21.1313H23.2424L26.6549 28.3819L31.645 33.2431H26.208V33.25Z" fill="#7148DB"/>
<path d="M23.5008 20.8697C23.5008 21.4068 23.4127 21.9438 23.2299 22.4465L20.7924 29.394H18.0841L16.4049 25.9719C15.9716 25.0905 14.9153 24.7325 14.0554 25.1732C13.7169 25.3453 13.4393 25.6276 13.27 25.9719L11.584 29.394H8.8757L6.69548 25.5106L5.1111 22.6875C3.93974 20.6011 4.65068 17.9433 6.70226 16.7521C7.23715 16.4422 7.82622 16.2494 8.44237 16.1944C8.57101 16.1806 8.69966 16.1737 8.82831 16.1737H18.8898C21.4357 16.1737 23.5008 18.2738 23.5008 20.8697Z" fill="#8760E6"/>
<path d="M11.0424 20.5805C11.0424 23.1144 9.16685 25.2352 6.69548 25.5106L5.1111 22.6875C3.93974 20.6012 4.65068 17.9433 6.70225 16.7521C7.23715 16.4423 7.82622 16.2495 8.44237 16.1944C10.0403 17.0482 11.0424 18.7352 11.0424 20.5805Z" fill="#7148DB"/>
<path d="M12.667 12.8686V16.7245C12.667 17.9433 13.6352 18.9279 14.8337 18.9279C16.0321 18.9279 17.0003 17.9433 17.0003 16.7245V12.8686H12.667Z" fill="#7148DB"/>
<path d="M19.7087 9.56359V15.6229C19.7087 15.9259 19.4649 16.1738 19.167 16.1738H16.628C16.5196 16.1738 16.4113 16.1393 16.3165 16.0774L13.2087 13.8602L11.042 12.3178V9.62556C11.042 7.18807 12.9649 5.1637 15.3618 5.15682C17.7519 5.14993 19.7019 7.11232 19.7087 9.54982C19.7087 9.54982 19.7087 9.55671 19.7087 9.56359Z" fill="#9977ED"/>
<path d="M13.7507 11.2161C14.9473 11.2161 15.9173 10.2296 15.9173 9.01271C15.9173 7.79582 14.9473 6.80933 13.7507 6.80933C12.554 6.80933 11.584 7.79582 11.584 9.01271C11.584 10.2296 12.554 11.2161 13.7507 11.2161Z" fill="#08D175" stroke="#8760E6" stroke-width="3.38983" stroke-linejoin="round"/>
<path d="M14.2923 11.2161V14.6314L13.209 13.8602V11.2161H14.2923Z" fill="#8760E6"/>
<path d="M19.7089 11.2161H17.0005C16.8583 11.2161 16.7162 11.161 16.6146 11.0577L15.5312 9.95605L16.2964 9.17798L17.224 10.1213H19.7089V11.2161Z" fill="#8760E6"/>
<path d="M25.1247 32.1483C26.3213 32.1483 27.2914 31.1618 27.2914 29.9449C27.2914 28.728 26.3213 27.7415 25.1247 27.7415C23.9281 27.7415 22.958 28.728 22.958 29.9449C22.958 31.1618 23.9281 32.1483 25.1247 32.1483Z" fill="#A88AF2"/>
<path d="M22.4164 13.4195H19.708V12.3178H22.1929L25.8289 8.62024L26.594 9.39831L22.8023 13.2542C22.7007 13.3644 22.5585 13.4195 22.4164 13.4195Z" fill="#D1E4FF"/>
<path d="M27.833 0.75C25.1382 0.75 22.958 2.96716 22.958 5.70762C22.958 8.44809 25.1382 10.6652 27.833 10.6652C30.5278 10.6652 32.708 8.44809 32.708 5.70762C32.708 2.96716 30.5278 0.75 27.833 0.75ZM27.833 7.91101C26.6346 7.91101 25.6664 6.92637 25.6664 5.70762C25.6664 4.48888 26.6346 3.50424 27.833 3.50424C29.0315 3.50424 29.9997 4.48888 29.9997 5.70762C29.9997 6.32733 29.7424 6.91949 29.2888 7.33951C28.8893 7.71133 28.3679 7.91101 27.833 7.91101Z" fill="#FFC431"/>
<path d="M32.708 5.70762H29.9997C29.9997 4.48888 29.0315 3.50424 27.833 3.50424V0.75C30.5278 0.75 32.708 2.96716 32.708 5.70762Z" fill="#FFB401"/>
<path d="M5.08334 3.50421H2.375V9.01268H6.70835V5.15675L5.08334 3.50421Z" fill="#08D175"/>
<path d="M4 5.1568H5.08334V7.36019H4V5.1568Z" fill="#67EBA0"/>
<path d="M2.91602 9.0127H3.99935V10.6652H2.91602V9.0127Z" fill="#FFC431"/>
<path d="M5.08398 9.0127H6.16732V10.6652H5.08398V9.0127Z" fill="#FFC431"/>
<path d="M0.75 5.70758H2.37501V6.80927H0.75V5.70758Z" fill="#FFC431"/>
<path d="M0.75 7.36017H2.37501V8.46186H0.75V7.36017Z" fill="#FFC431"/>
<path d="M0.75 4.05505H2.37501V5.15675H0.75V4.05505Z" fill="#FFC431"/>
<path d="M6.70898 5.70758H8.33399V6.80927H6.70898V5.70758Z" fill="#FFC431"/>
<path d="M6.70898 7.36017H8.33399V8.46186H6.70898V7.36017Z" fill="#FFC431"/>
<path d="M13.75 9.839C14.1987 9.839 14.5625 9.46907 14.5625 9.01273C14.5625 8.5564 14.1987 8.18646 13.75 8.18646C13.3013 8.18646 12.9375 8.5564 12.9375 9.01273C12.9375 9.46907 13.3013 9.839 13.75 9.839Z" fill="#3CDE8D"/>
<path d="M1.72559 31.2669L2.37559 33.25H7.57561L5.6256 29.9449L8.33395 22.233L3.45893 20.5805L1.52246 28.9603L1.72559 31.2669Z" fill="#8760E6"/>
<path d="M6.16635 23.3348C7.66213 23.3348 8.8747 22.1017 8.8747 20.5805C8.8747 19.0594 7.66213 17.8263 6.16635 17.8263C4.67057 17.8263 3.45801 19.0594 3.45801 20.5805C3.45801 22.1017 4.67057 23.3348 6.16635 23.3348Z" fill="#A88AF2"/>
<path d="M3.45867 32.1483C4.65529 32.1483 5.62534 31.1618 5.62534 29.9449C5.62534 28.728 4.65529 27.7415 3.45867 27.7415C2.26205 27.7415 1.29199 28.728 1.29199 29.9449C1.29199 31.1618 2.26205 32.1483 3.45867 32.1483Z" fill="#A88AF2"/>
<path d="M32.7083 5.70758C32.7083 7.1329 32.1057 8.48936 31.0495 9.43268L29.2891 7.33946C29.7427 6.92633 30 6.32728 30 5.70758H32.7083Z" fill="#FFA100"/>
</svg>
