<svg width="88" height="88" viewBox="0 0 88 88" fill="none" xmlns="http://www.w3.org/2000/svg">
<rect width="88" height="88" rx="24" fill="#F2F4FD"/>
<path d="M62.332 45.9874H26.668V42.7493L17 49.2255L26.668 55.7017V52.4636H41.2773V62.1778H38.0547L44.5 72.0001L50.9453 62.1778H47.7227V52.4636H62.332V55.7017L72 49.2255L62.332 42.7493V45.9874Z" fill="#57ABFF"/>
<rect x="31.1895" y="20.0125" width="26.6217" height="22.7368" rx="5.5603" fill="#003366"/>
<rect x="31.1895" y="20.0125" width="26.6217" height="22.7368" rx="5.5603" stroke="#D8D8D8"/>
<rect x="41.8379" y="29.3745" width="5.32433" height="2.67492" rx="1.33746" fill="#57ABFF"/>
<path fill-rule="evenodd" clip-rule="evenodd" d="M39.5027 18.5222L38.9095 20.0124H35.1825C32.977 20.0124 31.1892 21.8088 31.1892 24.0248V26.6997C31.1892 28.9157 32.977 30.7121 35.1825 30.7121H39.1757C39.1757 28.4961 40.9635 26.6997 43.169 26.6997H45.8311C48.0365 26.6997 49.8244 28.4961 49.8244 30.7121H53.8176C56.023 30.7121 57.8109 28.9157 57.8109 26.6997V24.0248C57.8109 21.8088 56.023 20.0124 53.8176 20.0124H50.0906L49.4974 18.5222C48.8909 16.9989 47.4226 16 45.7897 16H43.2104C41.5775 16 40.1091 16.9989 39.5027 18.5222ZM45.7897 18.6749H43.2104C42.6661 18.6749 42.1766 19.0079 41.9745 19.5157L41.7767 20.0124H47.2234L47.0256 19.5157C46.8235 19.0079 46.334 18.6749 45.7897 18.6749Z" fill="#57ABFF"/>
</svg>
