<svg width="88" height="88" viewBox="0 0 88 88" fill="none" xmlns="http://www.w3.org/2000/svg">
<rect width="88" height="88" rx="24" fill="#F2F4FD"/>
<g clip-path="url(#clip0)">
<circle cx="44.4998" cy="31.9048" r="10.5953" fill="#57ABFF"/>
<path d="M25.4287 56.113V59.9404C25.4287 62.0115 27.1076 63.6904 29.1787 63.6904H59.8216C61.8927 63.6904 63.5716 62.0115 63.5716 59.9404V56.113C63.5716 50.9354 59.3743 46.738 54.1966 46.738H34.8037C29.626 46.738 25.4287 50.9354 25.4287 56.113Z" fill="#003366"/>
<path d="M53.9693 58.3299L53.7072 59.2706L52.7103 62.8456L51.3934 61.378L49.5076 61.9525L50.5808 58.1032L50.8123 57.2737L52.6465 57.4693L53.9693 58.3299Z" fill="#57ABFF"/>
<path d="M59.0334 61.952L57.1472 61.3775L55.8306 62.8451L54.8334 59.2702L54.5713 58.3298L55.8941 57.4688L57.7287 57.2732L57.9602 58.1028L59.0334 61.952Z" fill="#57ABFF"/>
<path d="M59.5237 52.6561C59.5237 52.0535 60.0767 51.3706 59.9002 50.8269C59.7173 50.2634 58.8623 50.0374 58.5209 49.5684C58.1761 49.0946 58.2231 48.2129 57.7493 47.8681C57.2803 47.5267 56.4578 47.8415 55.8943 47.6585C55.3505 47.482 54.8729 46.738 54.2703 46.738C53.6678 46.738 53.1901 47.482 52.6465 47.6585C52.083 47.8415 51.2605 47.5267 50.7914 47.8681C50.3177 48.2128 50.3646 49.0946 50.0198 49.5684C49.6785 50.0374 48.8235 50.2634 48.6405 50.8269C48.464 51.3706 49.0171 52.0535 49.0171 52.6561C49.0171 53.2587 48.464 53.9416 48.6405 54.4853C48.8234 55.0488 49.6784 55.2748 50.0198 55.7438C50.3646 56.2176 50.3177 57.0993 50.7914 57.4441C51.2604 57.7855 52.0829 57.4707 52.6464 57.6537C53.1901 57.8302 53.6677 58.5742 54.2703 58.5742C54.8729 58.5742 55.3505 57.8302 55.8942 57.6537C56.4577 57.4707 57.2801 57.7855 57.7492 57.4441C58.223 57.0994 58.1761 56.2176 58.5208 55.7438C58.8622 55.2748 59.7172 55.0488 59.9001 54.4853C60.0767 53.9416 59.5237 53.2586 59.5237 52.6561Z" fill="#57ABFF"/>
<path d="M54.2699 56.383C56.3285 56.383 57.9973 54.7142 57.9973 52.6556C57.9973 50.597 56.3285 48.9282 54.2699 48.9282C52.2113 48.9282 50.5425 50.597 50.5425 52.6556C50.5425 54.7142 52.2113 56.383 54.2699 56.383Z" fill="#F2F4FD"/>
</g>
<defs>
<clipPath id="clip0">
<rect width="45" height="45" fill="white" transform="translate(22 20)"/>
</clipPath>
</defs>
</svg>
