<svg width="145" height="89" viewBox="0 0 145 89" fill="none" xmlns="http://www.w3.org/2000/svg">
<path d="M16.2528 41.3529C15.8968 43.1408 12.7509 59.5781 19.573 62.2293C24.7532 64.2483 29.5846 55.9344 41.1509 55.7781C48.9902 55.6693 58.2534 59.3266 61.3702 65.268C64.8793 71.964 58.0136 76.6953 61.2176 81.719C66.0345 89.2647 89.7411 91.4332 96.6722 82.9834C102.579 75.7844 89.7048 71.1414 94.7106 61.5971C97.5441 56.186 98.4086 63.4529 105.572 66.2537C113.702 69.4351 108.653 59.4422 116.586 63.1131C125.363 67.1714 141.252 62.712 144.347 55.5198C148.873 45.0102 125.297 30.3879 119.907 27.0501C96.9919 12.8424 53.4365 -1.33125 30.8923 15.5344C19.7619 23.8618 17.0738 37.2538 16.2528 41.3529Z" fill="url(#paint0_linear)"/>
<path d="M33.5239 2.01818L33.3398 2.17236L35.6118 4.52172L35.7959 4.36754L33.5239 2.01818Z" fill="#A6BAF7"/>
<path d="M35.6183 2.01863L33.3457 4.36743L33.5298 4.52162L35.8023 2.17282L35.6183 2.01863Z" fill="#A6BAF7"/>
<path d="M123.678 43.3306C123.612 43.3306 123.554 43.2763 123.554 43.2151V1.58463C123.554 1.31271 123.474 1.10198 123.315 0.972818C123.06 0.762083 122.668 0.796072 122.668 0.796072H33.8498C33.828 0.796072 33.1451 0.728093 32.6292 1.13597C32.2805 1.40788 32.0843 1.84295 32.048 2.41398C31.9245 4.3106 32.048 26.1999 32.048 26.4174C32.048 26.4786 31.9899 26.533 31.9245 26.533C31.8591 26.533 31.801 26.4786 31.801 26.4174C31.801 26.1931 31.6775 4.3038 31.801 2.39358C31.8446 1.75458 32.0698 1.26513 32.4767 0.945626C33.0724 0.47657 33.8353 0.551347 33.8716 0.558145H122.653C122.661 0.558145 123.14 0.503762 123.482 0.789274C123.7 0.96602 123.809 1.23114 123.809 1.57783V43.2083C123.801 43.2763 123.743 43.3306 123.678 43.3306Z" fill="#A6BAF7"/>
<path d="M123.59 5.69798H31.9243C31.8589 5.69798 31.8008 5.64359 31.8008 5.58239C31.8008 5.52119 31.8589 5.4668 31.9243 5.4668H123.59C123.656 5.4668 123.714 5.52119 123.714 5.58239C123.714 5.65039 123.656 5.69798 123.59 5.69798Z" fill="#A6BAF7"/>
<path d="M38.6522 4.52281C37.8821 4.52281 37.25 3.93125 37.25 3.2105C37.25 2.48975 37.8821 1.89819 38.6522 1.89819C39.4223 1.89819 40.0544 2.48975 40.0544 3.2105C40.0544 3.93125 39.4296 4.52281 38.6522 4.52281ZM38.6522 2.12938C38.0129 2.12938 37.497 2.61214 37.497 3.2105C37.497 3.80886 38.0129 4.29162 38.6522 4.29162C39.2915 4.29162 39.8074 3.80886 39.8074 3.2105C39.8074 2.61214 39.2915 2.12938 38.6522 2.12938Z" fill="#A6BAF7"/>
<path d="M25.3264 23.9904C23.096 26.0773 19.4633 26.0841 17.2256 24.0108L15.7871 25.3568C18.824 28.1779 23.7426 28.1711 26.765 25.3364C29.7873 22.5016 29.7946 17.8994 26.7867 15.0647L25.3482 16.4107C27.5641 18.5044 27.5641 21.9034 25.3264 23.9904Z" fill="#BDCFFF"/>
<path d="M17.2035 16.39C19.4412 14.2962 23.0884 14.2962 25.3261 16.39C25.3334 16.3968 25.3406 16.4036 25.3479 16.4104L26.7864 15.0644C26.7792 15.0576 26.7719 15.0508 26.7646 15.044C23.735 12.2093 18.7946 12.2093 15.765 15.044C15.7214 15.0848 15.6705 15.1324 15.627 15.18L17.0655 16.526C17.1163 16.4784 17.1599 16.4376 17.2035 16.39Z" fill="#03BCE1"/>
<path d="M15.7658 25.336C15.7731 25.3428 15.7804 25.3496 15.7876 25.3564L17.2262 24.0104C17.2189 24.0036 17.2116 23.9968 17.2044 23.99C15.0102 21.9371 14.9667 18.6265 17.0663 16.5259L15.6278 15.1799C12.7362 18.0283 12.7798 22.5421 15.7658 25.336Z" fill="#00DEE1"/>
<path d="M31.2923 41.2571C28.8148 41.2571 26.8023 39.3808 26.7878 37.0627H25.1895C25.204 40.2034 27.9357 42.7526 31.2923 42.7526C34.6489 42.7526 37.3806 40.2034 37.3951 37.0627H35.7968C35.7822 39.3808 33.7698 41.2571 31.2923 41.2571Z" fill="#BDCFFF"/>
<path d="M31.2932 32.8278C33.7779 32.8278 35.7977 34.7176 35.7977 37.0425C35.7977 37.0493 35.7977 37.0561 35.7977 37.0629H37.396C37.396 37.0561 37.396 37.0493 37.396 37.0425C37.396 33.8951 34.657 31.3323 31.2932 31.3323C31.2423 31.3323 31.1915 31.3323 31.1406 31.3391V32.8346C31.1915 32.8346 31.2423 32.8278 31.2932 32.8278Z" fill="#03BCE1"/>
<path d="M25.1895 37.0433C25.1895 37.0501 25.1895 37.0569 25.1895 37.0637H26.7878C26.7878 37.0569 26.7878 37.0501 26.7878 37.0433C26.7878 34.766 28.7276 32.9102 31.1325 32.8354V31.3398C27.8485 31.4146 25.1895 33.9434 25.1895 37.0433Z" fill="#00DEE1"/>
<path d="M31.4157 37.2936H30.9144C30.849 37.2936 30.7909 37.2392 30.7909 37.1781C30.7909 37.1169 30.849 37.0625 30.9144 37.0625H31.4157C31.4811 37.0625 31.5392 37.1169 31.5392 37.1781C31.5392 37.2392 31.4811 37.2936 31.4157 37.2936ZM29.919 37.2936H28.931C28.8656 37.2936 28.8075 37.2392 28.8075 37.1781C28.8075 37.1169 28.8656 37.0625 28.931 37.0625H29.919C29.9844 37.0625 30.0426 37.1169 30.0426 37.1781C30.0426 37.2392 29.9917 37.2936 29.919 37.2936ZM27.9356 37.2936H26.9475C26.8822 37.2936 26.824 37.2392 26.824 37.1781C26.824 37.1169 26.8822 37.0625 26.9475 37.0625H27.9356C28.001 37.0625 28.0591 37.1169 28.0591 37.1781C28.0591 37.2392 28.0083 37.2936 27.9356 37.2936ZM25.9595 37.2936H24.9714C24.906 37.2936 24.8479 37.2392 24.8479 37.1781C24.8479 37.1169 24.906 37.0625 24.9714 37.0625H25.9595C26.0248 37.0625 26.083 37.1169 26.083 37.1781C26.083 37.2392 26.0248 37.2936 25.9595 37.2936ZM23.976 37.2936H22.988C22.9226 37.2936 22.8644 37.2392 22.8644 37.1781C22.8644 37.1169 22.9226 37.0625 22.988 37.0625H23.976C24.0414 37.0625 24.0995 37.1169 24.0995 37.1781C24.0995 37.2392 24.0414 37.2936 23.976 37.2936ZM21.9926 37.2936H21.1426V36.9265C21.1426 36.8653 21.2007 36.811 21.2661 36.811C21.3315 36.811 21.3896 36.8653 21.3896 36.9265V37.0625H21.9926C22.058 37.0625 22.1161 37.1169 22.1161 37.1781C22.1161 37.2392 22.058 37.2936 21.9926 37.2936ZM21.2661 36.1108C21.2007 36.1108 21.1426 36.0564 21.1426 35.9952V35.0707C21.1426 35.0095 21.2007 34.9551 21.2661 34.9551C21.3315 34.9551 21.3896 35.0095 21.3896 35.0707V35.9952C21.3896 36.0632 21.3387 36.1108 21.2661 36.1108ZM21.2661 34.2617C21.2007 34.2617 21.1426 34.2074 21.1426 34.1462V33.2217C21.1426 33.1605 21.2007 33.1061 21.2661 33.1061C21.3315 33.1061 21.3896 33.1605 21.3896 33.2217V34.1462C21.3896 34.2074 21.3387 34.2617 21.2661 34.2617ZM21.2661 32.4059C21.2007 32.4059 21.1426 32.3515 21.1426 32.2903V31.3658C21.1426 31.3046 21.2007 31.2503 21.2661 31.2503C21.3315 31.2503 21.3896 31.3046 21.3896 31.3658V32.2903C21.3896 32.3515 21.3387 32.4059 21.2661 32.4059ZM21.2661 30.5501C21.2007 30.5501 21.1426 30.4957 21.1426 30.4345V29.51C21.1426 29.4488 21.2007 29.3944 21.2661 29.3944C21.3315 29.3944 21.3896 29.4488 21.3896 29.51V30.4345C21.3896 30.4957 21.3387 30.5501 21.2661 30.5501ZM21.2661 28.6942C21.2007 28.6942 21.1426 28.6399 21.1426 28.5787V27.6542C21.1426 27.593 21.2007 27.5386 21.2661 27.5386C21.3315 27.5386 21.3896 27.593 21.3896 27.6542V28.5787C21.3896 28.6467 21.3387 28.6942 21.2661 28.6942ZM21.2661 26.8384C21.2007 26.8384 21.1426 26.784 21.1426 26.7229V25.7983C21.1426 25.7372 21.2007 25.6828 21.2661 25.6828C21.3315 25.6828 21.3896 25.7372 21.3896 25.7983V26.7229C21.3896 26.7908 21.3387 26.8384 21.2661 26.8384ZM21.2661 24.9894C21.2007 24.9894 21.1426 24.935 21.1426 24.8738V23.9425C21.1426 23.8813 21.2007 23.8269 21.2661 23.8269C21.3315 23.8269 21.3896 23.8813 21.3896 23.9425V24.867C21.3896 24.935 21.3387 24.9894 21.2661 24.9894ZM21.2661 23.1335C21.2007 23.1335 21.1426 23.0792 21.1426 23.018V22.0935C21.1426 22.0323 21.2007 21.9779 21.2661 21.9779C21.3315 21.9779 21.3896 22.0323 21.3896 22.0935V23.018C21.3896 23.0792 21.3387 23.1335 21.2661 23.1335ZM21.2661 21.2777C21.2007 21.2777 21.1426 21.2233 21.1426 21.1622V20.2376C21.1426 20.1765 21.2007 20.1221 21.2661 20.1221C21.3315 20.1221 21.3896 20.1765 21.3896 20.2376V21.1622C21.3896 21.2233 21.3387 21.2777 21.2661 21.2777Z" fill="#A6BAF7"/>
<path d="M51.6118 57.6139H46.9911C45.8577 57.6139 44.9277 56.7438 44.9277 55.6833V51.1491C44.9277 50.0886 45.8577 49.2185 46.9911 49.2185H51.6118C52.7452 49.2185 53.6751 50.0886 53.6751 51.1491V55.6833C53.6751 56.7438 52.7452 57.6139 51.6118 57.6139Z" fill="#00DEE1"/>
<path d="M49.0244 55.4121L47.0265 53.6446C46.8739 53.5155 46.8739 53.2911 47.0119 53.1552C47.15 53.0124 47.3897 53.0124 47.535 53.1416L48.9154 54.3652L51.2912 51.2789C51.4147 51.1226 51.6472 51.0886 51.807 51.1974C51.9741 51.3129 52.0105 51.5237 51.8942 51.68L49.0244 55.4121Z" fill="white"/>
<path d="M57.5626 49.2397H100.362C100.922 49.2397 101.372 49.6681 101.372 50.1849V50.2597C101.372 50.7832 100.915 51.2048 100.362 51.2048H57.5626C57.0032 51.2048 56.5527 50.7764 56.5527 50.2597V50.1849C56.5527 49.6613 57.0104 49.2397 57.5626 49.2397Z" fill="url(#paint1_linear)"/>
<path d="M57.5626 52.4412H100.362C100.922 52.4412 101.372 52.8695 101.372 53.3863V53.4611C101.372 53.9847 100.915 54.4062 100.362 54.4062H57.5626C57.0032 54.4062 56.5527 53.9779 56.5527 53.4611V53.3863C56.5527 52.8695 57.0104 52.4412 57.5626 52.4412Z" fill="url(#paint2_linear)"/>
<path d="M57.5626 55.6431H100.362C100.922 55.6431 101.372 56.0714 101.372 56.5882V56.663C101.372 57.1865 100.915 57.6081 100.362 57.6081H57.5626C57.0032 57.6081 56.5527 57.1797 56.5527 56.663V56.5882C56.5527 56.0714 57.0104 55.6431 57.5626 55.6431Z" fill="url(#paint3_linear)"/>
<path d="M51.6118 44.9423H46.9911C45.8577 44.9423 44.9277 44.0722 44.9277 43.0117V38.4775C44.9277 37.417 45.8577 36.5469 46.9911 36.5469H51.6118C52.7452 36.5469 53.6751 37.417 53.6751 38.4775V43.0117C53.6751 44.0722 52.7452 44.9423 51.6118 44.9423Z" fill="#00DEE1"/>
<path d="M49.0244 42.7404L47.0265 40.973C46.8739 40.8438 46.8739 40.6195 47.0119 40.4835C47.15 40.3408 47.3897 40.3408 47.535 40.4699L48.9154 41.6936L51.2912 38.6073C51.4147 38.451 51.6472 38.417 51.807 38.5257C51.9741 38.6413 52.0105 38.852 51.8942 39.0084L49.0244 42.7404Z" fill="white"/>
<path d="M57.5626 36.5681H100.362C100.922 36.5681 101.372 36.9965 101.372 37.5132V37.588C101.372 38.1116 100.915 38.5332 100.362 38.5332H57.5626C57.0032 38.5332 56.5527 38.1048 56.5527 37.588V37.5132C56.5527 36.9965 57.0104 36.5681 57.5626 36.5681Z" fill="url(#paint4_linear)"/>
<path d="M57.5626 39.77H100.362C100.922 39.77 101.372 40.1984 101.372 40.7152V40.7899C101.372 41.3135 100.915 41.7351 100.362 41.7351H57.5626C57.0032 41.7351 56.5527 41.3067 56.5527 40.7899V40.7152C56.5527 40.1984 57.0104 39.77 57.5626 39.77Z" fill="url(#paint5_linear)"/>
<path d="M57.5626 42.9714H100.362C100.922 42.9714 101.372 43.3998 101.372 43.9166V43.9914C101.372 44.5149 100.915 44.9365 100.362 44.9365H57.5626C57.0032 44.9365 56.5527 44.5081 56.5527 43.9914V43.9166C56.5527 43.3998 57.0104 42.9714 57.5626 42.9714Z" fill="url(#paint6_linear)"/>
<path d="M51.6118 32.2709H46.9911C45.8577 32.2709 44.9277 31.4008 44.9277 30.3403V25.8061C44.9277 24.7456 45.8577 23.8755 46.9911 23.8755H51.6118C52.7452 23.8755 53.6751 24.7456 53.6751 25.8061V30.3403C53.6751 31.4008 52.7452 32.2709 51.6118 32.2709Z" fill="#00DEE1"/>
<path d="M49.0244 30.0691L47.0265 28.3016C46.8739 28.1724 46.8739 27.9481 47.0119 27.8121C47.15 27.6694 47.3897 27.6694 47.535 27.7985L48.9154 29.0222L51.2912 25.9359C51.4147 25.7796 51.6472 25.7456 51.807 25.8543C51.9741 25.9699 52.0105 26.1806 51.8942 26.337L49.0244 30.0691Z" fill="white"/>
<path d="M57.5626 23.8962H100.362C100.922 23.8962 101.372 24.3246 101.372 24.8414V24.9162C101.372 25.4397 100.915 25.8613 100.362 25.8613H57.5626C57.0032 25.8613 56.5527 25.4329 56.5527 24.9162V24.8414C56.5527 24.3246 57.0104 23.8962 57.5626 23.8962Z" fill="url(#paint7_linear)"/>
<path d="M57.5626 27.0981H100.362C100.922 27.0981 101.372 27.5265 101.372 28.0433V28.1181C101.372 28.6416 100.915 29.0632 100.362 29.0632H57.5626C57.0032 29.0632 56.5527 28.6348 56.5527 28.1181V28.0433C56.5527 27.5265 57.0104 27.0981 57.5626 27.0981Z" fill="url(#paint8_linear)"/>
<path d="M57.5626 30.2996H100.362C100.922 30.2996 101.372 30.7279 101.372 31.2447V31.3195C101.372 31.843 100.915 32.2646 100.362 32.2646H57.5626C57.0032 32.2646 56.5527 31.8362 56.5527 31.3195V31.2447C56.5527 30.7279 57.0104 30.2996 57.5626 30.2996Z" fill="url(#paint9_linear)"/>
<path d="M51.6118 19.6061H46.9911C45.8577 19.6061 44.9277 18.736 44.9277 17.6755V13.1345C44.9277 12.074 45.8577 11.2039 46.9911 11.2039H51.6118C52.7452 11.2039 53.6751 12.074 53.6751 13.1345V17.6687C53.6751 18.736 52.7452 19.6061 51.6118 19.6061Z" fill="url(#paint10_linear)"/>
<path d="M57.5607 11.2251H100.36C100.92 11.2251 101.37 11.6535 101.37 12.1702V12.245C101.37 12.7686 100.913 13.1902 100.36 13.1902H57.5607C57.0012 13.1902 56.5508 12.7618 56.5508 12.245V12.1702C56.5508 11.6535 57.0085 11.2251 57.5607 11.2251Z" fill="url(#paint11_linear)"/>
<path d="M57.5607 14.4338H100.36C100.92 14.4338 101.37 14.8622 101.37 15.379V15.4538C101.37 15.9773 100.913 16.3989 100.36 16.3989H57.5607C57.0012 16.3989 56.5508 15.9705 56.5508 15.4538V15.379C56.5508 14.8554 57.0085 14.4338 57.5607 14.4338Z" fill="url(#paint12_linear)"/>
<path d="M57.5607 17.6357H100.36C100.92 17.6357 101.37 18.0641 101.37 18.5809V18.6557C101.37 19.1792 100.913 19.6008 100.36 19.6008H57.5607C57.0012 19.6008 56.5508 19.1724 56.5508 18.6557V18.5809C56.5508 18.0573 57.0085 17.6357 57.5607 17.6357Z" fill="url(#paint13_linear)"/>
<g opacity="0.5">
<path opacity="0.5" d="M36.9383 62.9754H4.47704C3.67786 62.9754 3.03125 62.3636 3.03125 61.6226V49.801C3.03125 49.0533 3.68513 48.4482 4.47704 48.4482H36.9311C37.7302 48.4482 38.3769 49.0601 38.3769 49.801V61.6226C38.3841 62.3636 37.7302 62.9754 36.9383 62.9754Z" fill="#ECF2FE"/>
<path opacity="0.5" d="M36.9369 63.0918H4.47555C3.61098 63.0918 2.90625 62.4324 2.90625 61.6234V49.8018C2.90625 48.9929 3.61098 48.3335 4.47555 48.3335H36.9296C37.7942 48.3335 38.4989 48.9929 38.4989 49.8018V61.6234C38.5062 62.4324 37.8014 63.0918 36.9369 63.0918ZM4.47555 48.5578C3.74902 48.5578 3.15327 49.1153 3.15327 49.795V61.6166C3.15327 62.3032 3.74902 62.8539 4.47555 62.8539H36.9296C37.6561 62.8539 38.2519 62.2964 38.2519 61.6166V49.8018C38.2519 49.1153 37.6561 48.5646 36.9296 48.5646H4.47555V48.5578Z" fill="#A6BAF7"/>
</g>
<path d="M35.2737 55.7559H6.12537C5.88562 55.7559 5.68945 55.5723 5.68945 55.3479C5.68945 55.1235 5.88562 54.9399 6.12537 54.9399H35.2737C35.5134 54.9399 35.7096 55.1235 35.7096 55.3479C35.7023 55.5723 35.5134 55.7559 35.2737 55.7559Z" fill="url(#paint14_linear)"/>
<path d="M35.2737 54.2881H6.12537C5.88562 54.2881 5.68945 54.1045 5.68945 53.8801C5.68945 53.6558 5.88562 53.4722 6.12537 53.4722H35.2737C35.5134 53.4722 35.7096 53.6558 35.7096 53.8801C35.7023 54.1045 35.5134 54.2881 35.2737 54.2881Z" fill="url(#paint15_linear)"/>
<path d="M35.2737 52.8206H6.12537C5.88562 52.8206 5.68945 52.637 5.68945 52.4126C5.68945 52.1882 5.88562 52.0046 6.12537 52.0046H35.2737C35.5134 52.0046 35.7096 52.1882 35.7096 52.4126C35.7023 52.637 35.5134 52.8206 35.2737 52.8206Z" fill="url(#paint16_linear)"/>
<path d="M35.2737 57.1094H6.12537C5.88562 57.1094 5.68945 56.9258 5.68945 56.7014C5.68945 56.477 5.88562 56.2935 6.12537 56.2935H35.2737C35.5134 56.2935 35.7096 56.477 35.7096 56.7014C35.7023 56.9258 35.5134 57.1094 35.2737 57.1094Z" fill="url(#paint17_linear)"/>
<path d="M35.2728 58.4624H9.9242C9.68444 58.4624 9.48828 58.2788 9.48828 58.0545C9.48828 57.8301 9.68444 57.6465 9.9242 57.6465H35.2728C35.5125 57.6465 35.7087 57.8301 35.7087 58.0545C35.7014 58.2788 35.5125 58.4624 35.2728 58.4624Z" fill="url(#paint18_linear)"/>
<path d="M35.2734 59.8155H21.1351C20.8954 59.8155 20.6992 59.6319 20.6992 59.4075C20.6992 59.1831 20.8954 58.9995 21.1351 58.9995H35.2734C35.5131 58.9995 35.7093 59.1831 35.7093 59.4075C35.702 59.6319 35.5131 59.8155 35.2734 59.8155Z" fill="url(#paint19_linear)"/>
<path d="M40.6569 49.2377C40.5915 49.2377 40.5334 49.1833 40.5334 49.1221V46.1175C40.5334 45.8115 40.2719 45.5668 39.9449 45.5668H36.5884C36.523 45.5668 36.4648 45.5124 36.4648 45.4513C36.4648 45.3901 36.523 45.3357 36.5884 45.3357H39.9449C40.4026 45.3357 40.7804 45.6892 40.7804 46.1175V49.1221C40.7804 49.1901 40.7223 49.2377 40.6569 49.2377Z" fill="#A6BAF7"/>
<path d="M39.8719 65.8854H36.6606C36.5952 65.8854 36.5371 65.831 36.5371 65.7698C36.5371 65.7087 36.5952 65.6543 36.6606 65.6543H39.8719C40.1988 65.6543 40.4604 65.4095 40.4604 65.1036V61.963C40.4604 61.9018 40.5185 61.8474 40.5839 61.8474C40.6493 61.8474 40.7074 61.9018 40.7074 61.963V65.1036C40.7074 65.5319 40.3296 65.8854 39.8719 65.8854Z" fill="#A6BAF7"/>
<path d="M4.40301 65.8859H1.04644C0.588732 65.8859 0.210938 65.5324 0.210938 65.1041V62.0995C0.210938 62.0383 0.26906 61.9839 0.334447 61.9839C0.399835 61.9839 0.457957 62.0383 0.457957 62.0995V65.1041C0.457957 65.41 0.719507 65.6548 1.04644 65.6548H4.40301C4.46839 65.6548 4.52652 65.7091 4.52652 65.7703C4.52652 65.8315 4.46839 65.8859 4.40301 65.8859Z" fill="#A6BAF7"/>
<path d="M0.408666 49.3749C0.343279 49.3749 0.285156 49.3205 0.285156 49.2593V46.1187C0.285156 45.6904 0.662951 45.3369 1.12066 45.3369H4.33192C4.39731 45.3369 4.45543 45.3913 4.45543 45.4525C4.45543 45.5137 4.39731 45.568 4.33192 45.568H1.12066C0.793726 45.568 0.532176 45.8128 0.532176 46.1187V49.2593C0.532176 49.3273 0.481319 49.3749 0.408666 49.3749Z" fill="#A6BAF7"/>
<path d="M72.4857 78.0483H49.8325C49.0333 78.0483 48.3867 77.4365 48.3867 76.6955V65.8189C48.3867 65.0711 49.0406 64.4661 49.8325 64.4661H72.4857C73.2849 64.4661 73.9315 65.0779 73.9315 65.8189V76.6955C73.9387 77.4365 73.2849 78.0483 72.4857 78.0483Z" fill="#BDCFFF"/>
<path d="M72.4861 78.1637H49.833C48.9684 78.1637 48.2637 77.5043 48.2637 76.6954V65.8187C48.2637 65.0097 48.9684 64.3503 49.833 64.3503H72.4861C73.3507 64.3503 74.0554 65.0097 74.0554 65.8187V76.6954C74.0627 77.5043 73.358 78.1637 72.4861 78.1637ZM49.833 64.5747C49.0992 64.5747 48.5107 65.1321 48.5107 65.8119V76.6886C48.5107 77.3684 49.1064 77.9258 49.833 77.9258H72.4861C73.2126 77.9258 73.8084 77.3684 73.8084 76.6886V65.8187C73.8084 65.1389 73.2126 64.5815 72.4861 64.5815H49.833V64.5747Z" fill="#A6BAF7"/>
<path d="M71.0256 71.2984H51.8307C51.6055 71.2984 51.4238 71.1284 51.4238 70.9176C51.4238 70.7069 51.6055 70.5369 51.8307 70.5369H71.0183C71.2435 70.5369 71.4251 70.7069 71.4251 70.9176C71.4324 71.1284 71.2508 71.2984 71.0256 71.2984Z" fill="white"/>
<path d="M71.0256 69.9249H51.8307C51.6055 69.9249 51.4238 69.7549 51.4238 69.5441C51.4238 69.3333 51.6055 69.1633 51.8307 69.1633H71.0183C71.2435 69.1633 71.4251 69.3333 71.4251 69.5441C71.4324 69.7549 71.2508 69.9249 71.0256 69.9249Z" fill="white"/>
<path d="M71.0256 68.5509H51.8307C51.6055 68.5509 51.4238 68.3809 51.4238 68.1701C51.4238 67.9593 51.6055 67.7893 51.8307 67.7893H71.0183C71.2435 67.7893 71.4252 67.9593 71.4252 68.1701C71.4324 68.3809 71.2508 68.5509 71.0256 68.5509Z" fill="white"/>
<path d="M71.0256 72.5618H51.8307C51.6055 72.5618 51.4238 72.3919 51.4238 72.1811C51.4238 71.9703 51.6055 71.8003 51.8307 71.8003H71.0183C71.2435 71.8003 71.4251 71.9703 71.4251 72.1811C71.4324 72.3919 71.2508 72.5618 71.0256 72.5618Z" fill="white"/>
<path d="M71.0252 73.8262H54.3658C54.1406 73.8262 53.959 73.6563 53.959 73.4455C53.959 73.2347 54.1406 73.0647 54.3658 73.0647H71.0252C71.2504 73.0647 71.432 73.2347 71.432 73.4455C71.432 73.6563 71.2504 73.8262 71.0252 73.8262Z" fill="white"/>
<path d="M71.0252 75.0909H61.8346C61.6094 75.0909 61.4277 74.9209 61.4277 74.7101C61.4277 74.4993 61.6094 74.3293 61.8346 74.3293H71.0252C71.2504 74.3293 71.432 74.4993 71.432 74.7101C71.432 74.9209 71.2504 75.0909 71.0252 75.0909Z" fill="white"/>
<path d="M76.0619 65.2131C75.9966 65.2131 75.9384 65.1588 75.9384 65.0976V62.2832C75.9384 62.0045 75.6987 61.7802 75.4008 61.7802H72.2622C72.1968 61.7802 72.1387 61.7258 72.1387 61.6646C72.1387 61.6035 72.1968 61.5491 72.2622 61.5491H75.4008C75.8367 61.5491 76.1855 61.8822 76.1855 62.2832V65.0908C76.1855 65.1588 76.1273 65.2131 76.0619 65.2131Z" fill="#A6BAF7"/>
<path d="M75.3291 80.7735H72.3286C72.2632 80.7735 72.2051 80.7191 72.2051 80.6579C72.2051 80.5967 72.2632 80.5424 72.3286 80.5424H75.3291C75.627 80.5424 75.8668 80.318 75.8668 80.0393V77.1026C75.8668 77.0414 75.9249 76.9871 75.9903 76.9871C76.0557 76.9871 76.1138 77.0414 76.1138 77.1026V80.0393C76.1138 80.4404 75.7651 80.7735 75.3291 80.7735Z" fill="#A6BAF7"/>
<path d="M49.267 80.7737H46.1284C45.6925 80.7737 45.3438 80.4406 45.3438 80.0395V77.232C45.3438 77.1708 45.4019 77.1165 45.4673 77.1165C45.5326 77.1165 45.5908 77.1708 45.5908 77.232V80.0395C45.5908 80.3183 45.8305 80.5426 46.1284 80.5426H49.267C49.3324 80.5426 49.3905 80.597 49.3905 80.6582C49.3905 80.7193 49.3324 80.7737 49.267 80.7737Z" fill="#A6BAF7"/>
<path d="M45.5317 65.3358C45.4663 65.3358 45.4082 65.2814 45.4082 65.2202V62.2835C45.4082 61.8756 45.7642 61.5493 46.1929 61.5493H49.1934C49.2588 61.5493 49.3169 61.6037 49.3169 61.6649C49.3169 61.7261 49.2588 61.7804 49.1934 61.7804H46.1929C45.895 61.7804 45.6552 62.0048 45.6552 62.2835V65.2202C45.6552 65.2882 45.5971 65.3358 45.5317 65.3358Z" fill="#A6BAF7"/>
<path d="M131.58 56.8453L134.108 56.3218L135.961 57.1921L132.51 58.076L131.58 56.8453Z" fill="url(#paint20_linear)"/>
<path d="M134.545 57.1185C134.436 56.9621 134.283 56.8329 134.109 56.7581C134 56.7105 133.891 56.6901 133.782 56.6493C133.673 56.6085 133.564 56.5541 133.499 56.4589C133.477 56.4249 133.455 56.3909 133.455 56.3501C133.455 56.2821 133.506 56.2277 133.564 56.2005C133.629 56.1733 133.702 56.1733 133.767 56.1733C133.927 56.1733 134.094 56.1801 134.254 56.2209C134.414 56.2617 134.574 56.3501 134.676 56.4793C134.777 56.6085 134.814 56.7581 134.857 56.9077C134.908 57.0845 134.966 57.2613 134.995 57.4448C135.017 57.5672 135.024 57.6964 135.003 57.8188C134.995 57.8596 134.966 58.05 134.894 58.0432C134.799 58.0296 134.763 57.6284 134.741 57.5604C134.705 57.404 134.639 57.2545 134.545 57.1185Z" fill="#0A0652"/>
<path d="M134.61 55.2074C134.705 55.153 134.843 55.1122 134.93 55.1938C134.974 55.2346 134.988 55.2889 135.01 55.3365C135.279 56.1591 135.962 56.8253 136.645 57.4235C137.327 58.0217 138.054 58.6199 138.468 59.3949C138.613 59.6668 138.715 59.9523 138.81 60.2378C138.831 60.3126 138.853 60.4078 138.795 60.4554C138.773 60.469 138.744 60.4758 138.722 60.4826C138.81 60.4826 138.904 60.4758 138.991 60.4622C139.028 60.4554 139.064 60.4554 139.093 60.4282C139.151 60.3806 139.129 60.2854 139.107 60.2106C139.013 59.9183 138.904 59.6328 138.759 59.3541C138.337 58.5587 137.829 57.8246 137.139 57.2128C136.884 56.9816 136.645 56.7369 136.456 56.4514C136.216 56.0911 136.078 55.6696 135.853 55.3025C135.773 55.1666 135.642 54.9151 135.475 54.8471C135.271 54.7655 134.988 54.983 134.828 55.0714C134.748 55.1122 134.668 55.1666 134.596 55.2142C134.596 55.2142 134.603 55.2074 134.61 55.2074Z" fill="#0A0652"/>
<path d="M133.434 56.3428C133.681 56.3564 133.935 56.3768 134.167 56.4856C134.436 56.6147 134.64 56.8662 134.763 57.1246C134.865 57.3489 134.923 57.58 134.974 57.8112C134.872 57.7976 134.77 57.7976 134.676 57.7976C134.516 57.7976 134.342 57.8248 134.226 57.9131C134.095 57.9403 133.971 57.9947 133.899 58.0967C133.87 58.1375 133.855 58.1986 133.891 58.2394C133.906 58.253 133.928 58.2666 133.949 58.2734C134.117 58.3414 134.284 58.423 134.451 58.4638C134.567 58.4977 134.69 58.5045 134.807 58.5317C135.163 58.6201 135.519 58.7493 135.882 58.8308C136.144 58.9124 136.405 59.0008 136.638 59.13C137.066 59.3679 137.4 59.735 137.727 60.1021C137.851 60.2448 137.989 60.3876 138.171 60.4556C138.338 60.5167 138.512 60.4963 138.679 60.4691C138.686 60.4691 138.694 60.4691 138.701 60.4624C138.73 60.4556 138.752 60.4488 138.774 60.4352C138.832 60.3876 138.81 60.2924 138.788 60.2176C138.694 59.9321 138.592 59.6466 138.447 59.3747C138.033 58.5929 137.306 58.0015 136.623 57.4033C135.94 56.8051 135.257 56.1389 134.988 55.3163C134.974 55.2619 134.952 55.2076 134.908 55.1736C134.821 55.092 134.683 55.1396 134.589 55.1872C134.582 55.194 134.574 55.194 134.567 55.2008C134.109 55.4863 133.702 55.8737 133.434 56.3428Z" fill="url(#paint21_linear)"/>
<path d="M136.522 59.1369C136.551 59.1369 136.573 59.1233 136.587 59.1029C136.616 59.0553 136.616 58.9941 136.616 58.9533C136.616 58.8649 136.616 58.7697 136.602 58.6677C136.58 58.5521 136.543 58.4569 136.485 58.3754C136.463 58.3414 136.413 58.3346 136.376 58.3618C136.34 58.3822 136.333 58.4297 136.362 58.4637C136.405 58.5249 136.442 58.5997 136.456 58.6949C136.471 58.7833 136.471 58.8717 136.471 58.9533C136.471 58.9805 136.471 59.0145 136.456 59.0281C136.434 59.0621 136.449 59.1029 136.485 59.1233C136.493 59.1301 136.507 59.1369 136.522 59.1369Z" fill="#ECF2FE"/>
<path d="M135.984 58.9467C136.028 58.9467 136.064 58.9127 136.064 58.8719C136.057 58.6475 136.057 58.3959 135.926 58.1715C135.904 58.1376 135.861 58.124 135.824 58.1443C135.788 58.1647 135.774 58.2055 135.795 58.2395C135.904 58.4367 135.912 58.6747 135.912 58.8787C135.912 58.9195 135.941 58.9467 135.984 58.9467Z" fill="#ECF2FE"/>
<path d="M135.258 58.6813C135.294 58.6813 135.324 58.6541 135.331 58.6201C135.36 58.4637 135.367 58.3413 135.36 58.2189C135.345 58.0693 135.294 57.9265 135.222 57.8109C135.2 57.7769 135.149 57.7701 135.12 57.7905C135.084 57.8109 135.076 57.8585 135.098 57.8857C135.164 57.9809 135.2 58.0965 135.215 58.2257C135.222 58.3345 135.215 58.4433 135.193 58.5929C135.185 58.6337 135.215 58.6677 135.258 58.6745C135.251 58.6813 135.258 58.6813 135.258 58.6813Z" fill="#ECF2FE"/>
<path d="M136.448 58.1443C136.433 58.0219 136.455 57.8112 136.63 57.8112C136.681 57.8112 136.731 57.8452 136.768 57.8792C136.877 57.9743 136.971 58.0695 137.116 58.0287C137.138 58.0219 137.153 58.0151 137.153 57.9947C137.153 57.9811 137.138 57.9675 137.131 57.9607C136.935 57.7704 136.746 57.5733 136.542 57.3897C136.317 57.1858 136.085 56.9886 135.874 56.7711C135.663 56.5536 135.474 56.302 135.3 56.0573C135.148 55.8398 134.973 55.6222 134.871 55.3775C134.857 55.3435 134.842 55.3027 134.813 55.2823C134.755 55.2416 134.668 55.2619 134.617 55.2891C134.421 55.3843 134.261 55.5475 134.116 55.7038C134.08 55.7446 134.036 55.7922 134.072 55.8534C134.101 55.9078 134.159 55.9417 134.21 55.9689C134.392 56.0573 134.588 56.1185 134.777 56.2137C135.002 56.3292 135.22 56.4856 135.329 56.7167C135.424 56.9139 135.387 57.111 135.344 57.3013C135.307 57.4509 135.249 57.6004 135.162 57.7296C135.155 57.75 135.14 57.7636 135.14 57.784C135.14 57.818 135.177 57.852 135.213 57.8656C135.249 57.8724 135.286 57.8588 135.315 57.8384C135.344 57.818 135.365 57.784 135.38 57.7568C135.438 57.6752 135.489 57.5869 135.547 57.5053C135.562 57.4781 135.583 57.4509 135.62 57.4509C135.758 57.4373 135.801 57.7024 135.809 57.784C135.816 57.8724 135.801 57.9607 135.801 58.0491C135.801 58.0695 135.801 58.0967 135.809 58.1171C135.816 58.1375 135.838 58.1579 135.86 58.1647C135.881 58.1715 135.903 58.1579 135.925 58.1443C135.99 58.0899 136.027 58.0083 136.034 57.9199C136.048 57.8248 136.005 57.6956 136.056 57.614C136.136 57.4917 136.281 57.7772 136.295 57.8316C136.325 57.9539 136.303 58.0831 136.325 58.2055C136.332 58.2327 136.339 58.2666 136.354 58.287C136.361 58.3006 136.368 58.3074 136.383 58.3142C136.397 58.321 136.419 58.321 136.433 58.3074C136.484 58.2734 136.455 58.1851 136.448 58.1443Z" fill="#FFB900"/>
<path d="M103.551 47.8856C103.471 48.2799 104.997 49.4627 105.273 49.721C106.494 50.8291 105.426 51.2166 106.77 52.2023C109.4 54.1329 112.611 57.797 115.786 58.8846C121.293 60.7744 127.796 60.8492 132.961 58.1369C133.048 58.0893 133.143 58.0349 133.194 57.9533C133.259 57.8445 133.23 57.7154 133.194 57.5998C133.056 57.0968 132.896 56.6073 132.707 56.1179C132.678 56.0499 132.649 55.9751 132.591 55.9275C132.46 55.8256 132.257 55.8731 132.097 55.9343C130.774 56.3966 129.43 56.8452 128.035 57.0424C125.783 57.3551 123.48 56.9744 121.366 56.2538C119.252 55.5332 117.828 54.9962 116.266 53.4735C112.858 50.1493 112.887 46.7571 109.284 44.3371C108.775 44.8061 103.864 43.7389 103.559 44.3371C103.421 44.609 103.798 46.1249 103.559 46.3289C103.384 46.4784 104.111 47.2874 104.024 47.4301C104.009 47.4505 103.559 47.8652 103.551 47.8856Z" fill="url(#paint22_linear)"/>
<path d="M113.489 76.2466L115.168 78.6462L115.022 80.6856L112.545 77.4498L113.489 76.2466Z" fill="url(#paint23_linear)"/>
<path d="M114.326 79.4481C114.494 79.3529 114.632 79.2102 114.704 79.0334C114.748 78.9246 114.77 78.809 114.806 78.6934C114.842 78.5846 114.9 78.4758 114.995 78.4146C115.031 78.3942 115.068 78.3806 115.111 78.3806C115.184 78.3874 115.249 78.4486 115.285 78.5234C115.322 78.5982 115.322 78.673 115.329 78.7478C115.336 78.9246 115.344 79.1014 115.3 79.2646C115.256 79.4277 115.177 79.5841 115.038 79.6793C114.908 79.7677 114.733 79.7881 114.573 79.8153C114.377 79.8425 114.181 79.8833 113.985 79.8901C113.847 79.8969 113.709 79.8833 113.571 79.8425C113.527 79.8289 113.309 79.7745 113.317 79.6929C113.331 79.5909 113.767 79.6113 113.847 79.5977C114.021 79.5773 114.188 79.5297 114.326 79.4481Z" fill="#0A0652"/>
<path d="M116.456 79.7948C116.522 79.9104 116.58 80.0599 116.493 80.1415C116.456 80.1823 116.391 80.1891 116.333 80.2027C115.432 80.3726 114.735 81.0116 114.117 81.6642C113.492 82.31 112.875 83.0102 112.039 83.3433C111.749 83.4589 111.436 83.5269 111.124 83.5881C111.044 83.6017 110.935 83.6085 110.884 83.5405C110.862 83.5133 110.855 83.4861 110.848 83.4521C110.855 83.5473 110.869 83.6492 110.884 83.7444C110.891 83.7852 110.899 83.826 110.928 83.86C110.986 83.928 111.087 83.9212 111.175 83.9076C111.494 83.8464 111.807 83.7716 112.105 83.656C112.962 83.3161 113.746 82.8811 114.386 82.2217C114.626 81.977 114.887 81.7594 115.192 81.5963C115.577 81.3923 116.035 81.304 116.435 81.1136C116.58 81.0456 116.849 80.9437 116.914 80.7737C116.994 80.5698 116.733 80.2299 116.624 80.0463C116.573 79.9512 116.515 79.8628 116.449 79.7744C116.449 79.7812 116.456 79.788 116.456 79.7948Z" fill="#0A0652"/>
<path d="M115.119 78.3674C115.119 78.6325 115.111 78.9045 115.002 79.1356C114.872 79.4075 114.61 79.5911 114.327 79.6862C114.087 79.7678 113.833 79.795 113.571 79.8154C113.578 79.7066 113.578 79.5979 113.571 79.4891C113.557 79.3123 113.52 79.1288 113.411 78.986C113.375 78.8365 113.31 78.7005 113.186 78.6122C113.135 78.5782 113.07 78.551 113.026 78.585C113.012 78.5986 112.997 78.6258 112.99 78.6461C112.925 78.8161 112.845 78.986 112.808 79.1628C112.779 79.2852 112.779 79.4143 112.75 79.5367C112.67 79.9106 112.554 80.2776 112.481 80.6515C112.409 80.9166 112.329 81.1886 112.191 81.4265C111.951 81.8548 111.559 82.1607 111.181 82.4598C111.036 82.5753 110.876 82.7045 110.818 82.888C110.76 83.058 110.796 83.2483 110.832 83.4319C110.832 83.4387 110.832 83.4523 110.839 83.4591C110.847 83.4863 110.854 83.5202 110.876 83.5474C110.934 83.6154 111.036 83.6086 111.116 83.595C111.428 83.5338 111.74 83.4659 112.031 83.3503C112.874 83.0172 113.491 82.3238 114.109 81.6712C114.734 81.0254 115.431 80.3796 116.325 80.2097C116.383 80.1961 116.441 80.1893 116.485 80.1485C116.572 80.0669 116.514 79.9106 116.448 79.8018C116.441 79.795 116.441 79.7882 116.434 79.7814C116.114 79.2172 115.656 78.7277 115.119 78.3674Z" fill="url(#paint24_linear)"/>
<path d="M112.693 81.4273C112.7 81.4273 112.715 81.4273 112.722 81.4273C112.853 81.4205 112.954 81.3933 113.041 81.3389C113.078 81.3185 113.085 81.2709 113.063 81.237C113.041 81.203 112.991 81.1962 112.954 81.2166C112.889 81.2573 112.809 81.2777 112.715 81.2777C112.62 81.2777 112.526 81.2641 112.431 81.2505C112.395 81.2437 112.359 81.2369 112.337 81.2233C112.3 81.203 112.257 81.203 112.228 81.237C112.206 81.2709 112.206 81.3117 112.242 81.3389C112.293 81.3729 112.351 81.3865 112.402 81.3933C112.497 81.4137 112.591 81.4273 112.693 81.4273Z" fill="#ECF2FE"/>
<path d="M112.816 80.8425C112.954 80.8425 113.099 80.8221 113.23 80.7677C113.266 80.7541 113.288 80.7065 113.266 80.6725C113.252 80.6385 113.201 80.6181 113.165 80.6385C112.954 80.7269 112.7 80.6997 112.467 80.6725C112.424 80.6657 112.387 80.6929 112.38 80.7337C112.373 80.7745 112.402 80.8085 112.445 80.8153C112.569 80.8289 112.692 80.8425 112.816 80.8425Z" fill="#ECF2FE"/>
<path d="M113.187 80.1551C113.34 80.1551 113.478 80.1211 113.594 80.0599C113.63 80.0395 113.645 79.9987 113.623 79.9647C113.601 79.9307 113.558 79.9171 113.521 79.9375C113.42 79.9919 113.296 80.0191 113.158 80.0123C113.042 80.0055 112.918 79.9851 112.751 79.9307C112.708 79.9171 112.671 79.9375 112.657 79.9783C112.642 80.0191 112.664 80.0531 112.708 80.0667C112.889 80.1211 113.02 80.1483 113.151 80.1551C113.158 80.1551 113.173 80.1551 113.187 80.1551Z" fill="#ECF2FE"/>
<path d="M113.31 81.3589C113.441 81.3657 113.681 81.42 113.688 81.6036C113.688 81.658 113.659 81.7056 113.623 81.7463C113.528 81.8483 113.427 81.9367 113.478 82.0998C113.485 82.1202 113.499 82.1474 113.521 82.1474C113.536 82.1474 113.55 82.1406 113.558 82.127C113.754 81.9435 113.964 81.7667 114.153 81.5764C114.364 81.3657 114.575 81.1413 114.8 80.9442C115.032 80.7471 115.294 80.5839 115.563 80.4276C115.795 80.2916 116.02 80.1352 116.289 80.0673C116.326 80.0605 116.369 80.0469 116.391 80.0197C116.435 79.9653 116.398 79.8701 116.369 79.8089C116.246 79.5846 116.057 79.3875 115.875 79.2107C115.824 79.1631 115.773 79.1156 115.708 79.136C115.65 79.1563 115.614 79.2175 115.585 79.2719C115.497 79.4555 115.439 79.6594 115.345 79.8429C115.229 80.0741 115.069 80.278 114.822 80.3596C114.604 80.4276 114.386 80.3664 114.168 80.2916C113.993 80.2304 113.834 80.142 113.681 80.0333C113.659 80.0197 113.637 80.0061 113.616 79.9993C113.572 79.9925 113.543 80.0265 113.536 80.0673C113.528 80.108 113.543 80.1488 113.572 80.1828C113.601 80.2168 113.63 80.244 113.666 80.2644C113.761 80.3392 113.863 80.4072 113.957 80.4819C113.986 80.5023 114.015 80.5295 114.022 80.5635C114.044 80.7131 113.754 80.7267 113.666 80.7199C113.565 80.7131 113.47 80.6859 113.369 80.6791C113.347 80.6791 113.318 80.6723 113.296 80.6791C113.274 80.6859 113.252 80.6995 113.252 80.7267C113.245 80.7539 113.26 80.781 113.281 80.8014C113.347 80.883 113.441 80.9306 113.536 80.9578C113.645 80.985 113.783 80.9578 113.877 81.0258C114.015 81.1277 113.71 81.2501 113.652 81.2501C113.514 81.2637 113.376 81.2229 113.238 81.2297C113.209 81.2297 113.172 81.2365 113.143 81.2501C113.129 81.2569 113.122 81.2637 113.114 81.2773C113.107 81.2909 113.114 81.3181 113.122 81.3317C113.165 81.3725 113.26 81.3521 113.31 81.3589Z" fill="#FFB900"/>
<path d="M103.639 46.9137C103.522 47.0429 103.435 47.206 103.348 47.3624C101.997 49.7824 100.631 52.2365 99.8461 54.9352C97.9789 61.3865 100.827 65.8051 105.179 70.251C107.402 72.5283 109.335 75.0027 111.536 77.2936C111.696 77.4636 111.877 77.6335 112.11 77.6811C112.342 77.7287 112.575 77.6403 112.793 77.5519C113.425 77.3004 113.824 76.8109 114.449 76.5526C112.444 74.1258 110.57 71.6173 108.84 69.0273C107.613 67.1851 106.959 65.7507 106.036 63.7317C102.905 56.8658 113.49 52.9299 111.441 46.7098C111.362 46.465 111.253 46.2067 111.056 46.0504C110.766 45.8124 110.359 45.8464 110.003 45.8872C108.179 46.1115 106.349 46.3359 104.525 46.5602C104.278 46.5874 104.024 46.6214 103.82 46.7641C103.748 46.8049 103.689 46.8593 103.639 46.9137Z" fill="url(#paint25_linear)"/>
<path d="M93.8469 50.2717C94.1666 50.2785 94.3482 50.5096 94.6679 50.5028C95.1401 50.496 96.3389 50.5504 96.2372 50.2785C95.9248 50.1833 95.5107 50.1561 95.2055 50.0473C95.1111 50.0133 95.0312 50.0541 95.0094 49.9793C94.9948 49.9249 94.8277 49.5237 94.7841 49.4761C93.767 48.3882 94.2828 48.837 93.767 48.3882C93.5127 48.1706 93.2366 48.1026 93.1349 48.5242C92.9969 49.0885 93.1422 50.2581 93.8469 50.2717Z" fill="url(#paint26_linear)"/>
<path d="M92.7849 47.7424C92.4798 47.0626 92.5016 44.3774 92.7123 43.9423C92.9157 43.5141 93.032 43.0518 93.2644 42.6303C93.7512 41.7738 94.3542 40.9852 95.0517 40.2646C96.236 39.0478 97.333 37.7222 98.6626 36.6346C99.578 35.8868 101.634 35.4449 101.126 37.2396C100.857 38.1845 101.409 39.3673 100.348 40.1219C99.469 40.7473 97.3403 41.6854 96.5266 42.3584C95.7056 43.0382 94.9355 43.8404 94.6013 44.8396C94.2017 46.0225 94.6013 47.2937 94.3179 48.4969C94.2961 48.5785 94.2743 48.6601 94.1871 48.7281C94.0854 48.8028 93.9474 48.8164 93.8311 48.8164C93.308 48.7892 93.2717 49.0136 92.923 48.0822C92.8939 47.9667 92.8358 47.8579 92.7849 47.7424Z" fill="url(#paint27_linear)"/>
<path d="M105.58 35.7851C106.967 37.1787 108.123 38.783 108.958 40.5165C109.779 42.2228 110.099 44.1534 111.254 45.7101C111.53 46.084 111.835 46.553 111.632 46.9609C111.407 47.4232 110.731 47.4708 110.186 47.4436C109.031 47.3892 107.788 47.1173 106.648 47.5863C105.602 48.0146 104.701 48.8847 103.458 48.504C102.499 48.2117 103.306 46.6822 103.262 46.4443C102.906 44.6224 102.318 42.3791 101.046 40.9108C100.189 39.9251 98.5252 38.9802 98.3799 37.6546C98.3072 37.0292 99.6005 35.7511 100.327 35.3705C100.458 35.2957 103.524 33.7254 105.58 35.7851Z" fill="url(#paint28_linear)"/>
<path d="M100.252 36.3909C100.419 36.588 100.448 36.5609 100.688 36.6764C100.884 36.7716 101.11 36.826 101.342 36.7988C101.575 36.7716 101.807 36.6628 101.945 36.4861C102.047 36.3501 102.083 36.1938 102.134 36.0442C102.192 35.8539 102.257 35.6635 102.337 35.48C102.381 35.3712 102.432 35.2625 102.425 35.1537C102.417 35.0449 102.345 34.9497 102.279 34.8614C101.989 34.4671 101.691 34.0796 101.4 33.6853C101.255 33.4882 101.11 33.2911 100.964 33.0939C100.841 32.9308 100.717 32.6589 100.543 32.5569C99.9907 33.2095 99.5984 33.4814 99.1261 34.1816C99.0462 34.2768 99.5257 34.9837 99.5766 35.0789C99.7946 35.4664 99.9689 36.051 100.252 36.3909Z" fill="url(#paint29_linear)"/>
<path d="M100.326 27.1323C101.859 27.4314 102.752 28.5667 102.607 30.0282C102.549 30.6128 102.425 31.1975 102.193 31.7481C101.851 32.5502 100.754 33.6787 100.413 33.9846C100.1 34.2633 99.3739 34.6168 98.938 34.7596C97.3978 35.2694 97.8046 33.6855 96.9473 33.4204C96.09 33.1621 97.0708 32.4823 96.8674 31.1975C96.8238 30.9255 96.6058 29.1377 96.6276 28.859C96.7584 27.4042 98.0516 26.9148 99.403 27.0031C99.541 27.0099 100.202 27.1119 100.326 27.1323Z" fill="#FFCFCB"/>
<path d="M97.3322 31.2793C97.4266 31.3201 97.5065 31.3609 97.5646 31.4629C97.5719 31.4833 97.5937 31.5581 97.6155 31.5649C97.6373 31.5717 97.6663 31.5309 97.6518 31.5241C97.6736 31.5377 97.6809 31.2929 97.492 31.1909C97.3975 31.0957 97.1941 31.0345 97.0706 31.1093C97.0634 31.1161 97.0488 31.1229 97.0488 31.1365C97.0488 31.1501 97.0634 31.1637 97.0706 31.1705C97.1651 31.2249 97.2522 31.2453 97.3322 31.2793Z" fill="#750114"/>
<path d="M97.195 31.6459C97.2241 31.6187 97.275 31.6119 97.3041 31.6391C97.3986 31.7071 97.2823 31.8295 97.1878 31.8159C97.1078 31.8023 97.0424 31.7003 97.1223 31.6459C97.1732 31.6119 97.2459 31.6119 97.3113 31.6323" fill="#000614"/>
<path d="M97.7685 34.195C97.8339 34.195 97.8993 34.1882 97.9574 34.1746C97.9647 34.1746 98.713 33.8958 98.7057 33.7258C98.7057 33.6986 98.6767 33.6782 98.6549 33.6782C98.6258 33.6782 98.604 33.6986 98.604 33.7258C98.5822 33.8006 98.0737 34.0386 97.9283 34.0794C97.8194 34.1134 97.6886 34.0998 97.5869 34.0862C97.5578 34.0794 97.536 34.0998 97.5288 34.127C97.5215 34.1542 97.5433 34.1746 97.5723 34.1814C97.6305 34.1882 97.7031 34.195 97.7685 34.195Z" fill="#D77E8E"/>
<path opacity="0.31" d="M98.5086 32.6592C98.4214 32.8564 98.436 33.0944 98.5595 33.2643C98.683 33.4343 98.93 33.5363 99.148 33.4955C99.2787 33.4683 99.395 33.4003 99.4894 33.3187C99.5839 33.2372 99.671 33.142 99.7219 33.0332C99.8163 32.8292 99.78 32.5776 99.6347 32.4008C99.2787 31.9792 98.7048 32.2308 98.5086 32.6592Z" fill="#D77E8E"/>
<path d="M113.643 33.2022C113.447 33.2634 113.251 33.2906 113.055 33.2634C112.989 33.2566 112.967 33.1682 113.018 33.1342C113.418 32.8555 113.832 32.5972 114.268 32.3729C113.97 32.3525 113.665 32.3797 113.374 32.4544C112.749 32.6108 112.037 33.0866 111.369 32.9031C110.759 32.7331 110.599 32.0262 110.003 31.8358C109.4 31.6523 108.608 31.9514 108.121 31.4347C107.649 30.9385 107.874 29.9936 107.046 29.776C106.617 29.6605 106.138 29.8916 105.717 29.7557C105.23 29.5993 105.019 29.0283 104.547 28.8311C104.191 28.6816 103.762 28.7768 103.413 28.6204C102.81 28.3485 102.803 27.4172 102.149 27.254C101.968 27.2064 101.786 27.2608 101.604 27.288C101.19 27.356 100.921 27.1385 100.645 26.8801C100.398 26.649 100.159 26.4315 99.839 26.2955C99.374 26.0984 98.7855 26.1664 98.3205 26.3363C98.0226 26.4451 97.732 26.6082 97.485 26.8122C97.2525 27.0093 97.0636 27.3696 96.7294 27.424C96.3226 27.4852 96.0247 27.0841 95.7268 26.8937C95.3417 26.6422 94.8114 26.7918 94.4917 27.0637C93.6853 27.7639 93.9323 28.9467 94.637 29.6265C94.9858 29.9664 95.5089 30.2247 96.032 30.3131C96.0973 30.3267 96.1191 30.4083 96.061 30.4422C96.061 30.4422 96.0537 30.4422 96.0537 30.449C95.952 30.5102 95.567 30.4151 95.6178 30.517C95.7413 30.7821 96.1046 30.8637 96.3807 30.8161C96.635 30.7753 96.8457 30.6394 97.0709 30.5238C97.4051 30.3539 97.6231 30.7481 97.9863 30.8705C98.3423 30.9861 99.0616 30.6938 99.0398 30.3403C99.2214 30.3675 99.1124 30.7481 98.9381 30.7957C99.0253 30.8365 99.1996 30.7753 99.3013 30.687C99.3449 30.653 99.4103 30.6666 99.4248 30.7142C99.483 30.8705 99.5629 31.0133 99.6719 31.1424C99.7155 31.1968 99.8026 31.1764 99.8099 31.1084L99.868 30.7481C99.8753 30.7142 99.9044 30.6802 99.9479 30.687C100.391 30.7142 100.653 31.2444 100.573 31.6727C100.493 32.1213 100.18 32.502 100.042 32.9371C99.7954 33.6916 100.093 34.5482 100.667 35.1328C101.234 35.7174 102.04 36.0641 102.861 36.2613C103.05 36.3088 103.246 36.3496 103.421 36.4176C103.435 36.4244 103.443 36.4312 103.45 36.438C103.719 36.7575 103.995 37.0702 104.402 37.1858C105.39 37.4577 106.254 36.37 107.286 36.336C107.998 36.3088 108.608 36.7915 109.277 37.0294C109.989 37.2877 110.831 37.3761 111.601 37.2877C112.117 37.2266 112.706 37.077 113.134 36.7779C113.28 36.6759 113.658 36.3904 113.527 36.1933C113.425 36.0369 111.914 36.1797 112.451 35.7718C113.396 35.0716 115.982 34.7861 116.28 33.4877C116.288 33.4401 116.244 33.3925 116.193 33.3993C116.12 33.4061 116.048 33.4265 115.982 33.4469C115.917 33.4673 115.859 33.3925 115.895 33.3382C116.106 33.039 116.251 32.5564 116.229 32.3185C116.208 32.1553 116.07 31.999 115.902 32.0058C115.801 32.0126 115.714 32.0669 115.634 32.1281C115.183 32.434 114.718 32.7127 114.231 32.9711C114.021 33.0526 113.832 33.141 113.643 33.2022Z" fill="url(#paint30_linear)"/>
<path d="M113.301 35.8335C113.149 36.017 113.316 35.9966 113.432 35.9966C113.614 35.9898 113.752 36.0102 113.933 36.0306C114.05 36.0442 114.21 35.9966 114.253 35.8811C114.006 35.9083 113.534 35.5683 113.301 35.8335Z" fill="url(#paint31_linear)"/>
<g opacity="0.35">
<g opacity="0.35">
<path opacity="0.35" d="M97.8043 27.792C97.8261 27.792 97.8479 27.7784 97.8551 27.7512C97.8987 27.5268 97.9569 27.3024 98.1532 27.1868C98.175 27.1732 98.1968 27.1664 98.2186 27.1528C98.2477 27.1393 98.2549 27.112 98.2404 27.0917C98.2259 27.0645 98.1968 27.0577 98.175 27.0713C98.1459 27.0849 98.1241 27.0985 98.095 27.1121C97.8697 27.248 97.797 27.4928 97.7534 27.7376C97.7461 27.7648 97.7679 27.7852 97.797 27.792C97.797 27.792 97.797 27.792 97.8043 27.792Z" fill="#BA9AFF"/>
</g>
<g opacity="0.35">
<path opacity="0.35" d="M106.791 33.9439C106.733 33.9167 106.675 33.8827 106.632 33.8419C106.53 33.7604 106.457 33.6584 106.385 33.5632C106.355 33.5224 106.326 33.4884 106.297 33.4476C106.276 33.4204 106.254 33.4 106.239 33.3796C106.217 33.3592 106.225 33.332 106.246 33.3116C106.268 33.298 106.297 33.298 106.319 33.3184C106.341 33.3456 106.363 33.366 106.385 33.3932C106.414 33.434 106.45 33.4748 106.479 33.5088C106.552 33.604 106.624 33.6992 106.711 33.774C106.755 33.808 106.799 33.8351 106.85 33.8623C106.871 33.8759 106.886 33.9031 106.871 33.9235C106.864 33.9371 106.842 33.9507 106.828 33.9507C106.806 33.9507 106.799 33.9507 106.791 33.9439ZM105.607 32.924C105.404 32.822 105.178 32.754 104.946 32.72C104.917 32.7132 104.881 32.7132 104.852 32.7064C104.822 32.6996 104.808 32.6792 104.808 32.652C104.815 32.6248 104.837 32.6044 104.866 32.6112C104.895 32.618 104.931 32.618 104.961 32.6248C105.208 32.6656 105.44 32.7336 105.651 32.8424C105.673 32.856 105.687 32.8832 105.673 32.9036C105.665 32.9172 105.643 32.9308 105.629 32.9308C105.622 32.9308 105.614 32.9308 105.607 32.924ZM104.038 32.5296C104.016 32.516 104.002 32.5092 103.98 32.4956C103.805 32.38 103.704 32.2101 103.602 32.0469C103.58 32.0061 103.551 31.9653 103.522 31.9245C103.507 31.9041 103.515 31.8701 103.537 31.8565C103.558 31.8429 103.595 31.8497 103.609 31.8701C103.638 31.9109 103.66 31.9517 103.689 31.9993C103.791 32.1625 103.878 32.3189 104.038 32.4208C104.052 32.4344 104.074 32.4412 104.089 32.448C104.11 32.4616 104.125 32.4888 104.11 32.516C104.103 32.5296 104.081 32.5432 104.067 32.5432C104.06 32.5364 104.052 32.5364 104.038 32.5296ZM102.083 31.5437C102.076 31.5165 102.098 31.4961 102.12 31.4893C102.316 31.4485 102.548 31.4077 102.759 31.4077C102.825 31.4077 102.883 31.4145 102.941 31.4213C102.97 31.4281 102.992 31.4485 102.984 31.4757C102.977 31.5029 102.955 31.5165 102.926 31.5165C102.701 31.4893 102.389 31.5369 102.134 31.5845H102.127C102.105 31.5845 102.083 31.5709 102.083 31.5437Z" fill="#BA9AFF"/>
</g>
<g opacity="0.35">
<path opacity="0.35" d="M106.827 35.7586C106.696 35.7246 106.573 35.6702 106.449 35.5954C106.289 35.5002 106.195 35.3915 106.166 35.2759C106.159 35.2487 106.173 35.2215 106.202 35.2215C106.231 35.2147 106.26 35.2283 106.26 35.2555C106.282 35.3507 106.362 35.4322 106.5 35.5138C106.609 35.5818 106.725 35.6294 106.849 35.6634C106.878 35.6702 106.892 35.6974 106.885 35.7246C106.878 35.745 106.856 35.7586 106.834 35.7586H106.827ZM107.59 35.677C107.575 35.6566 107.59 35.6226 107.612 35.6158C107.684 35.5818 107.757 35.541 107.815 35.4866C107.837 35.4662 107.866 35.473 107.888 35.4866C107.91 35.507 107.902 35.5342 107.888 35.5546C107.822 35.609 107.742 35.6566 107.663 35.6974C107.655 35.6974 107.648 35.7042 107.641 35.7042C107.612 35.7042 107.597 35.6974 107.59 35.677Z" fill="#BA9AFF"/>
</g>
<g opacity="0.35">
<path opacity="0.35" d="M110.526 35.7523C110.497 35.7523 110.475 35.7319 110.475 35.7047C110.475 35.6775 110.497 35.6571 110.526 35.6571H110.562C110.664 35.6571 110.773 35.6367 110.904 35.6027C111.034 35.5619 111.158 35.5143 111.274 35.4531C111.296 35.4395 111.332 35.4463 111.347 35.4735C111.361 35.4939 111.354 35.5279 111.325 35.5415C111.202 35.6027 111.071 35.6571 110.94 35.6979C110.802 35.7387 110.678 35.7591 110.569 35.7591L110.526 35.7523ZM109.77 35.4259C109.552 35.2899 109.327 35.1539 109.066 35.0791C109.036 35.0723 109.022 35.0451 109.029 35.0179C109.036 34.9907 109.066 34.9771 109.095 34.9839C109.371 35.0655 109.603 35.2015 109.828 35.3443C109.85 35.3579 109.857 35.3851 109.843 35.4123C109.836 35.4259 109.814 35.4327 109.799 35.4327C109.785 35.4327 109.778 35.4327 109.77 35.4259Z" fill="#BA9AFF"/>
</g>
<g opacity="0.35">
<path opacity="0.35" d="M113.183 34.0527C113.162 34.0391 113.162 34.0051 113.176 33.9847C113.191 33.9643 113.227 33.9643 113.249 33.9779C113.329 34.0391 113.459 34.0595 113.583 34.0391C113.692 34.0187 113.801 33.9779 113.946 33.8963C113.968 33.8827 114.004 33.8895 114.019 33.9099C114.033 33.9303 114.026 33.9643 114.004 33.9779C113.852 34.0663 113.728 34.1139 113.605 34.1343C113.561 34.1411 113.525 34.1479 113.481 34.1479C113.358 34.1411 113.256 34.1139 113.183 34.0527ZM114.564 33.4884C114.542 33.468 114.542 33.4408 114.564 33.4204C114.76 33.2368 114.934 33.0328 115.094 32.8492C115.109 32.8288 115.145 32.822 115.167 32.8424C115.189 32.856 115.196 32.89 115.174 32.9104C115.014 33.1008 114.84 33.3048 114.636 33.4884C114.629 33.4952 114.615 33.502 114.6 33.502C114.586 33.502 114.578 33.4952 114.564 33.4884Z" fill="#BA9AFF"/>
</g>
<g opacity="0.35">
<path opacity="0.35" d="M95.4278 29.4235C95.4496 29.4235 95.4714 29.4235 95.4932 29.4167L95.5295 29.4099C95.6676 29.3827 95.8274 29.3555 95.8855 29.3283C95.9073 29.3147 95.9219 29.2875 95.9073 29.2671C95.8928 29.2467 95.8637 29.2331 95.842 29.2467C95.7911 29.2739 95.6022 29.3079 95.515 29.3215L95.4787 29.3283C95.4205 29.3419 95.3552 29.3283 95.3261 29.2943C95.3043 29.2739 95.297 29.2467 95.297 29.1991C95.297 29.1719 95.297 29.1583 95.3043 29.1379C95.3116 29.1107 95.2898 29.0903 95.2607 29.0835C95.2316 29.0835 95.2098 29.0971 95.2026 29.1243C95.2026 29.1447 95.1953 29.1651 95.1953 29.1855V29.1991C95.1953 29.2671 95.2098 29.3147 95.2462 29.3555C95.2825 29.4031 95.3479 29.4235 95.4278 29.4235Z" fill="#BA9AFF"/>
</g>
</g>
<g opacity="0.31">
<g opacity="0.31">
<path opacity="0.31" d="M104.365 31.0477C104.379 31.0477 104.386 31.0477 104.401 31.0477C104.597 31.0409 104.793 30.9593 104.917 30.8301C104.939 30.8097 104.931 30.7825 104.917 30.7621C104.895 30.7417 104.866 30.7485 104.844 30.7621C104.735 30.8709 104.568 30.9389 104.394 30.9457C104.248 30.9525 104.11 30.9117 104.016 30.8301C103.965 30.7893 103.929 30.7349 103.885 30.6805C103.805 30.5785 103.725 30.4765 103.587 30.4357C103.449 30.3949 103.297 30.4289 103.151 30.4629C103.064 30.4833 102.977 30.5037 102.897 30.5105C102.665 30.5241 102.468 30.3949 102.272 30.2657C102.076 30.1365 101.873 30.0006 101.611 30.0006C101.4 30.0006 101.204 30.0889 101.008 30.1773C100.964 30.1977 100.914 30.2181 100.87 30.2385C100.739 30.2997 100.405 30.4153 100.209 30.2725C100.085 30.1841 100.071 30.0346 100.056 29.8714C100.049 29.783 100.035 29.6946 100.013 29.613C99.9764 29.5042 99.882 29.375 99.7221 29.375C99.6495 29.375 99.5914 29.4022 99.526 29.4294C99.3298 29.511 99.1409 29.6878 98.952 29.851C98.7486 30.0346 98.5306 30.2249 98.4071 30.1841C98.3781 30.1773 98.349 30.1909 98.3417 30.2113C98.3345 30.2385 98.349 30.2657 98.3708 30.2725C98.5524 30.3337 98.7704 30.1433 99.0174 29.919C99.199 29.7558 99.3807 29.5926 99.5623 29.5178C99.6132 29.4974 99.664 29.477 99.7149 29.477C99.8166 29.477 99.882 29.5722 99.911 29.6538C99.9328 29.7286 99.9474 29.817 99.9546 29.8986C99.9764 30.0754 99.9909 30.2521 100.151 30.3677C100.391 30.5445 100.768 30.4085 100.914 30.3473C100.957 30.3269 101.008 30.3065 101.052 30.2861C101.233 30.2045 101.422 30.1161 101.611 30.1161C101.836 30.1161 102.025 30.2385 102.214 30.3677C102.418 30.5037 102.635 30.6397 102.904 30.6329C102.999 30.6261 103.086 30.6057 103.18 30.5853C103.318 30.5513 103.449 30.5173 103.558 30.5513C103.667 30.5853 103.733 30.6737 103.805 30.7621C103.849 30.8165 103.892 30.8777 103.951 30.9253C104.052 31.0001 104.198 31.0477 104.365 31.0477Z" fill="#6229CE"/>
</g>
<g opacity="0.31">
<path opacity="0.31" d="M97.9438 30.0828C97.9656 30.0828 97.9801 30.0692 97.9946 30.0488C98.1036 29.77 98.1908 29.5864 98.4015 29.3348C98.634 29.0629 98.9391 28.8861 99.237 28.8453C99.5785 28.7977 99.9054 28.9541 99.9853 29.1988C99.9926 29.2328 99.9999 29.2668 100.007 29.3008C100.029 29.4028 100.051 29.5116 100.152 29.5796C100.298 29.6748 100.508 29.6068 100.617 29.5524C100.646 29.5388 100.676 29.5252 100.705 29.5116C100.806 29.464 100.908 29.4164 101.01 29.4096C101.162 29.396 101.286 29.4844 101.409 29.566L101.46 29.6C101.671 29.7292 101.867 29.7632 102.027 29.6884C102.049 29.6748 102.063 29.6476 102.049 29.6272C102.034 29.6068 102.005 29.5932 101.983 29.6068C101.823 29.6884 101.627 29.5932 101.526 29.5252L101.475 29.4912C101.344 29.4028 101.191 29.3144 101.01 29.3212C100.886 29.328 100.77 29.3824 100.668 29.4368C100.639 29.4504 100.61 29.464 100.588 29.4776C100.516 29.5116 100.334 29.5796 100.225 29.5116C100.16 29.4708 100.138 29.3824 100.123 29.294C100.116 29.26 100.109 29.2192 100.094 29.1852C99.9999 28.8929 99.6221 28.7093 99.237 28.7637C98.9101 28.8045 98.5831 29.0017 98.3361 29.2872C98.1182 29.5524 98.031 29.7428 97.9147 30.0284C97.9075 30.0556 97.9147 30.0828 97.9438 30.0896C97.9365 30.0828 97.9365 30.0828 97.9438 30.0828Z" fill="#6229CE"/>
</g>
<g opacity="0.31">
<path opacity="0.31" d="M97.2529 30.3884H97.2602C97.2892 30.3816 97.3038 30.3612 97.3038 30.334C97.2747 30.164 97.2456 29.9872 97.1657 29.824C97.0713 29.6404 96.926 29.5045 96.7443 29.4501C96.6571 29.4229 96.5554 29.4161 96.461 29.4093C96.3738 29.4025 96.2866 29.3957 96.2067 29.3753C96.1195 29.3481 96.0396 29.2801 96.0178 29.2121C96.0032 29.1645 96.0105 29.1237 96.0396 29.0897C96.0541 29.0693 96.0541 29.0421 96.0323 29.0217C96.0105 29.0081 95.9814 29.0081 95.9596 29.0285C95.9088 29.0897 95.8943 29.1645 95.9161 29.2393C95.9524 29.3413 96.0541 29.4297 96.1704 29.4705C96.2575 29.4977 96.352 29.5045 96.4464 29.5113C96.5409 29.5181 96.6281 29.5249 96.7007 29.5521C96.8533 29.5996 96.9841 29.7152 97.064 29.8784C97.1367 30.028 97.1657 30.198 97.1948 30.3612C97.2093 30.368 97.2311 30.3884 97.2529 30.3884Z" fill="#6229CE"/>
</g>
<g opacity="0.31">
<path opacity="0.31" d="M97.2534 30.3889C97.2825 30.3889 97.3043 30.3685 97.3043 30.3481C97.3116 30.2801 97.3479 30.2461 97.3915 30.1917C97.5079 30.0625 97.6532 29.9061 97.4642 29.3078C97.4352 29.2194 97.3915 29.1446 97.3479 29.0698C97.2898 28.9746 97.2389 28.8794 97.2244 28.7774C97.2026 28.6006 97.3043 28.383 97.5006 28.3355C97.5297 28.3287 97.5442 28.3015 97.5369 28.2743C97.5297 28.2471 97.5006 28.2335 97.4715 28.2403C97.2171 28.3015 97.0862 28.5734 97.1153 28.791C97.1299 28.9134 97.1953 29.0154 97.2462 29.1174C97.2898 29.1922 97.3261 29.2602 97.3552 29.3418C97.5224 29.8857 97.3988 30.0217 97.2971 30.1373C97.2462 30.1917 97.1953 30.2529 97.1807 30.3481C97.2025 30.3617 97.2244 30.3821 97.2534 30.3889Z" fill="#6229CE"/>
</g>
<g opacity="0.31">
<path opacity="0.31" d="M104.452 36.0645C104.467 36.0645 104.474 36.0577 104.489 36.0509C104.51 36.0373 104.51 36.0033 104.496 35.9829C104.256 35.7246 103.944 35.5343 103.639 35.3507C103.544 35.2963 103.45 35.2352 103.355 35.1808C102.861 34.8681 102.585 34.5418 102.52 34.2223C102.476 34.0115 102.527 33.794 102.578 33.5901V33.5765C102.636 33.3317 102.68 33.1142 102.621 32.8831C102.563 32.6655 102.367 32.4004 102.069 32.346C102.04 32.3392 102.018 32.3596 102.011 32.3868C102.004 32.414 102.026 32.4344 102.055 32.4412C102.295 32.482 102.476 32.7063 102.527 32.9035C102.578 33.1142 102.542 33.3181 102.483 33.5493V33.5629C102.433 33.7804 102.374 34.0047 102.418 34.2359C102.491 34.5894 102.774 34.9225 103.297 35.2556C103.392 35.3167 103.486 35.3711 103.58 35.4323C103.878 35.6091 104.191 35.7994 104.416 36.0509C104.423 36.0645 104.438 36.0645 104.452 36.0645Z" fill="#6229CE"/>
</g>
<g opacity="0.31">
<path opacity="0.31" d="M111.559 34.9019C111.66 34.9019 111.769 34.8815 111.864 34.8407C111.893 34.8271 111.9 34.7999 111.893 34.7795C111.878 34.7523 111.849 34.7455 111.827 34.7523C111.529 34.8747 111.144 34.7659 111.021 34.5211C111.006 34.4939 110.977 34.4871 110.956 34.4939C110.926 34.5075 110.919 34.5347 110.926 34.5551C111.028 34.7727 111.29 34.9019 111.559 34.9019Z" fill="#6229CE"/>
</g>
</g>
<path d="M99.7363 30.7084C99.7363 30.7084 99.8744 30.1984 100.434 30.6132C100.993 31.028 101.022 31.8371 100.674 31.9527C100.332 32.0751 99.9906 32.1363 99.9906 32.1363L99.7363 30.7084Z" fill="#FFCFCB"/>
<path d="M77.6809 39.401C83.2142 39.401 87.6997 35.204 87.6997 30.0267C87.6997 24.8494 83.2142 20.6523 77.6809 20.6523C72.1477 20.6523 67.6621 24.8494 67.6621 30.0267C67.6621 35.204 72.1477 39.401 77.6809 39.401Z" fill="url(#paint32_linear)"/>
<path d="M70.5252 36.7231C66.5801 33.0318 66.5801 27.0224 70.5252 23.3312C72.436 21.5433 74.9788 20.5576 77.6815 20.5576C80.3842 20.5576 82.927 21.5433 84.8378 23.3312C88.7828 27.0224 88.7828 33.0318 84.8378 36.7231C82.927 38.5109 80.3842 39.4966 77.6815 39.4966C74.9788 39.4966 72.436 38.5177 70.5252 36.7231ZM70.6705 23.4671C66.8054 27.0836 66.8054 32.9706 70.6705 36.5939C72.5449 38.3478 75.0369 39.3131 77.6815 39.3131C80.3333 39.3131 82.8253 38.3478 84.6925 36.5939C88.5576 32.9774 88.5576 27.0904 84.6925 23.4671C82.8181 21.7133 80.3261 20.748 77.6815 20.748C75.0369 20.748 72.5449 21.7133 70.6705 23.4671Z" fill="#3958D7"/>
<path d="M68.9709 38.1856C64.1686 33.6922 64.1686 26.3708 68.9709 21.8774C73.7733 17.384 81.598 17.384 86.4003 21.8774C91.2027 26.3708 91.2027 33.6922 86.4003 38.1856C83.9955 40.4357 80.8424 41.5574 77.682 41.5574C74.5288 41.5574 71.3757 40.4289 68.9709 38.1856ZM69.1162 22.0066C64.3865 26.432 64.3865 33.6242 69.1162 38.0429C73.8386 42.4615 81.5326 42.4683 86.255 38.0429C90.9847 33.6174 90.9847 26.4252 86.255 22.0066C83.8938 19.7972 80.7915 18.6892 77.682 18.6892C74.5797 18.696 71.4774 19.7972 69.1162 22.0066Z" fill="#3958D7"/>
<path d="M103.517 55.214L103.568 55.1664C104.338 54.4458 104.338 53.263 103.568 52.5424L89.8078 39.6671C89.0377 38.9466 87.7736 38.9466 87.0034 39.6671L86.9526 39.7147C86.1825 40.4353 86.1825 41.6181 86.9526 42.3387L100.713 55.214C101.483 55.9414 102.747 55.9414 103.517 55.214Z" fill="#BDCFFF"/>
<path d="M100.64 55.2821L86.8798 42.4069C86.0661 41.6455 86.0661 40.4083 86.8798 39.6469L86.9307 39.5993C87.323 39.2323 87.8461 39.0283 88.4055 39.0283C88.965 39.0283 89.488 39.2323 89.8804 39.5993L103.641 52.4746C104.455 53.236 104.455 54.4732 103.641 55.2346L103.59 55.2821C103.198 55.6492 102.675 55.8532 102.115 55.8532C101.556 55.8532 101.033 55.6492 100.64 55.2821ZM87.0687 39.7353L87.0179 39.7829C86.2841 40.4695 86.2841 41.5843 87.0179 42.2709L100.778 55.1462C101.134 55.4793 101.607 55.6628 102.108 55.6628C102.609 55.6628 103.081 55.4793 103.437 55.1462L103.488 55.0986C104.222 54.412 104.222 53.2971 103.488 52.6106L89.7278 39.7353C89.3718 39.4022 88.8996 39.2255 88.3983 39.2255C87.897 39.2255 87.4247 39.409 87.0687 39.7353Z" fill="#3958D7"/>
<path d="M67.5536 20.6469C67.5826 20.6469 67.6044 20.6401 67.6262 20.6197C68.9994 19.3349 70.605 18.3424 72.3995 17.6694C72.4504 17.649 72.4794 17.5947 72.4576 17.5471C72.4358 17.4995 72.3777 17.4723 72.3269 17.4927C70.5105 18.1725 68.8831 19.1786 67.4882 20.4838C67.4519 20.5178 67.4519 20.579 67.4882 20.6197C67.5027 20.6333 67.5245 20.6469 67.5536 20.6469Z" fill="#BDCFFF"/>
<path d="M73.7358 17.2353C73.7431 17.2353 73.7576 17.2353 73.7649 17.2285C74.5423 17.0177 75.3414 16.8749 76.1479 16.7933C76.206 16.7865 76.2423 16.7389 76.2351 16.6913C76.2278 16.6369 76.1769 16.6029 76.1261 16.6097C75.3124 16.6913 74.4987 16.8409 73.7067 17.0517C73.6559 17.0653 73.6196 17.1197 73.6341 17.1673C73.6486 17.2081 73.6922 17.2353 73.7358 17.2353Z" fill="#BDCFFF"/>
<path d="M87.8166 20.6469C87.8457 20.6469 87.8675 20.6401 87.8893 20.6197C87.9256 20.5857 87.9256 20.5245 87.8893 20.4837C85.1575 17.9277 81.5467 16.5273 77.6888 16.5273C77.6162 16.5273 77.5435 16.5273 77.4709 16.5273C77.4127 16.5273 77.3691 16.5681 77.3691 16.6225C77.3691 16.6769 77.4127 16.7109 77.4709 16.7177C81.3505 16.6633 84.9977 18.0501 87.7367 20.6129C87.7658 20.6333 87.7876 20.6469 87.8166 20.6469Z" fill="#BDCFFF"/>
<path d="M68.9129 40.8164C68.942 40.8164 68.971 40.8028 68.9928 40.7756C69.0291 40.7348 69.0146 40.6736 68.971 40.6396C67.4235 39.5384 66.1521 38.1924 65.1931 36.6221C65.164 36.5745 65.1059 36.5609 65.055 36.5881C65.0042 36.6153 64.9897 36.6697 65.0187 36.7172C65.985 38.308 67.2782 39.6811 68.8475 40.7892C68.8693 40.8096 68.8911 40.8164 68.9129 40.8164Z" fill="#BDCFFF"/>
<path d="M64.4579 35.5618C64.4725 35.5618 64.487 35.5617 64.5015 35.555C64.5524 35.5346 64.5742 35.4802 64.5524 35.4326C64.2255 34.739 63.9639 34.0183 63.7678 33.2839C63.7532 33.2363 63.7024 33.2023 63.6442 33.2159C63.5934 33.2295 63.5571 33.2771 63.5716 33.3315C63.775 34.0795 64.0438 34.807 64.3708 35.5074C64.378 35.5346 64.4144 35.5618 64.4579 35.5618Z" fill="#BDCFFF"/>
<path d="M63.3975 32.1624C63.4048 32.1624 63.4048 32.1624 63.412 32.1624C63.4702 32.1556 63.5065 32.108 63.4992 32.0536C62.9107 28.4643 63.877 24.8954 66.2164 21.9995C66.2528 21.9587 66.2382 21.8975 66.1946 21.8635C66.151 21.8295 66.0857 21.8431 66.0493 21.8839C63.6736 24.8206 62.7 28.4371 63.2958 32.0808C63.303 32.1284 63.3466 32.1624 63.3975 32.1624Z" fill="#BDCFFF"/>
<path d="M95.4234 51.34C95.2709 51.0816 94.9512 51.034 94.8059 50.7688C94.5952 50.3677 93.9776 49.4021 94.3046 49.3613C94.5443 49.5789 94.7768 49.9053 95.0239 50.1093C95.1038 50.1705 95.0965 50.2589 95.1837 50.2385C95.2491 50.2249 95.7359 50.1705 95.8085 50.1841C97.3996 50.5172 96.6949 50.2997 97.3996 50.5172C97.7411 50.626 97.9372 50.8232 97.5594 51.1088C97.0363 51.4964 95.7649 51.918 95.4234 51.34Z" fill="url(#paint33_linear)"/>
<path d="M99.1572 50.3738C102.121 48.7695 105.703 46.1931 105.863 43.0116C105.943 41.4005 105.928 39.769 105.798 38.1307C105.645 36.0982 104.33 33.7325 102.862 35.6903C102.121 36.676 101.758 38.0628 101.853 39.4971C102.012 41.8356 102.79 43.8138 101.322 45.9619C100.748 46.8049 99.9854 47.5254 99.1935 48.1984C98.6123 48.6879 98.0092 49.157 97.4571 49.6668C97.2319 49.8707 97.0139 50.0951 96.934 50.3806C96.8541 50.6661 96.9776 51.0128 97.2682 51.1147C97.5079 51.1963 97.7622 51.0944 97.9875 50.9788C98.3652 50.7885 98.7576 50.5913 99.1572 50.3738Z" fill="url(#paint34_linear)"/>
<defs>
<linearGradient id="paint0_linear" x1="117.212" y1="78.7644" x2="78.605" y2="46.9213" gradientUnits="userSpaceOnUse">
<stop stop-color="#CDDBFF"/>
<stop offset="1" stop-color="white"/>
</linearGradient>
<linearGradient id="paint1_linear" x1="101.381" y1="50.2236" x2="56.553" y2="50.2236" gradientUnits="userSpaceOnUse">
<stop stop-color="#ECF2FE"/>
<stop offset="1" stop-color="#CDDBFF"/>
</linearGradient>
<linearGradient id="paint2_linear" x1="101.381" y1="53.4259" x2="56.553" y2="53.4259" gradientUnits="userSpaceOnUse">
<stop stop-color="#ECF2FE"/>
<stop offset="1" stop-color="#CDDBFF"/>
</linearGradient>
<linearGradient id="paint3_linear" x1="101.381" y1="56.6286" x2="56.553" y2="56.6286" gradientUnits="userSpaceOnUse">
<stop stop-color="#ECF2FE"/>
<stop offset="1" stop-color="#CDDBFF"/>
</linearGradient>
<linearGradient id="paint4_linear" x1="101.381" y1="37.5537" x2="56.553" y2="37.5537" gradientUnits="userSpaceOnUse">
<stop stop-color="#ECF2FE"/>
<stop offset="1" stop-color="#CDDBFF"/>
</linearGradient>
<linearGradient id="paint5_linear" x1="101.381" y1="40.7564" x2="56.553" y2="40.7564" gradientUnits="userSpaceOnUse">
<stop stop-color="#ECF2FE"/>
<stop offset="1" stop-color="#CDDBFF"/>
</linearGradient>
<linearGradient id="paint6_linear" x1="101.381" y1="43.9587" x2="56.553" y2="43.9587" gradientUnits="userSpaceOnUse">
<stop stop-color="#ECF2FE"/>
<stop offset="1" stop-color="#CDDBFF"/>
</linearGradient>
<linearGradient id="paint7_linear" x1="101.381" y1="24.8835" x2="56.553" y2="24.8835" gradientUnits="userSpaceOnUse">
<stop stop-color="#ECF2FE"/>
<stop offset="1" stop-color="#CDDBFF"/>
</linearGradient>
<linearGradient id="paint8_linear" x1="101.381" y1="28.0863" x2="56.553" y2="28.0863" gradientUnits="userSpaceOnUse">
<stop stop-color="#ECF2FE"/>
<stop offset="1" stop-color="#CDDBFF"/>
</linearGradient>
<linearGradient id="paint9_linear" x1="101.381" y1="31.2885" x2="56.553" y2="31.2885" gradientUnits="userSpaceOnUse">
<stop stop-color="#ECF2FE"/>
<stop offset="1" stop-color="#CDDBFF"/>
</linearGradient>
<linearGradient id="paint10_linear" x1="44.9233" y1="15.4032" x2="53.6738" y2="15.4032" gradientUnits="userSpaceOnUse">
<stop stop-color="#ECF2FE"/>
<stop offset="1" stop-color="#CDDBFF"/>
</linearGradient>
<linearGradient id="paint11_linear" x1="101.379" y1="12.2141" x2="56.5511" y2="12.2141" gradientUnits="userSpaceOnUse">
<stop stop-color="#ECF2FE"/>
<stop offset="1" stop-color="#CDDBFF"/>
</linearGradient>
<linearGradient id="paint12_linear" x1="101.379" y1="15.4169" x2="56.5511" y2="15.4169" gradientUnits="userSpaceOnUse">
<stop stop-color="#ECF2FE"/>
<stop offset="1" stop-color="#CDDBFF"/>
</linearGradient>
<linearGradient id="paint13_linear" x1="101.379" y1="18.6196" x2="56.5511" y2="18.6196" gradientUnits="userSpaceOnUse">
<stop stop-color="#ECF2FE"/>
<stop offset="1" stop-color="#CDDBFF"/>
</linearGradient>
<linearGradient id="paint14_linear" x1="33.7456" y1="55.3474" x2="9.82344" y2="55.3474" gradientUnits="userSpaceOnUse">
<stop stop-color="#03BCE1"/>
<stop offset="1" stop-color="#00E8EA"/>
</linearGradient>
<linearGradient id="paint15_linear" x1="33.7456" y1="53.8799" x2="9.82344" y2="53.8799" gradientUnits="userSpaceOnUse">
<stop stop-color="#03BCE1"/>
<stop offset="1" stop-color="#00E8EA"/>
</linearGradient>
<linearGradient id="paint16_linear" x1="33.7456" y1="52.4126" x2="9.82344" y2="52.4126" gradientUnits="userSpaceOnUse">
<stop stop-color="#03BCE1"/>
<stop offset="1" stop-color="#00E8EA"/>
</linearGradient>
<linearGradient id="paint17_linear" x1="33.7456" y1="56.7023" x2="9.82344" y2="56.7023" gradientUnits="userSpaceOnUse">
<stop stop-color="#03BCE1"/>
<stop offset="1" stop-color="#00E8EA"/>
</linearGradient>
<linearGradient id="paint18_linear" x1="33.7447" y1="58.0567" x2="9.82252" y2="58.0567" gradientUnits="userSpaceOnUse">
<stop stop-color="#03BCE1"/>
<stop offset="1" stop-color="#00E8EA"/>
</linearGradient>
<linearGradient id="paint19_linear" x1="33.7453" y1="59.4111" x2="9.82312" y2="59.4111" gradientUnits="userSpaceOnUse">
<stop stop-color="#03BCE1"/>
<stop offset="1" stop-color="#00E8EA"/>
</linearGradient>
<linearGradient id="paint20_linear" x1="133.568" y1="57.3769" x2="134.277" y2="55.8879" gradientUnits="userSpaceOnUse">
<stop stop-color="#FFCFCB"/>
<stop offset="1" stop-color="#D77E8E"/>
</linearGradient>
<linearGradient id="paint21_linear" x1="133.908" y1="55.6418" x2="137.463" y2="61.2918" gradientUnits="userSpaceOnUse">
<stop stop-color="#FF7A46"/>
<stop offset="1" stop-color="#FF5946"/>
</linearGradient>
<linearGradient id="paint22_linear" x1="109.374" y1="50.6099" x2="124.813" y2="55.117" gradientUnits="userSpaceOnUse">
<stop stop-color="#0A0652"/>
<stop offset="0.9851" stop-color="#310477"/>
</linearGradient>
<linearGradient id="paint23_linear" x1="113.829" y1="78.4036" x2="115.959" y2="78.7703" gradientUnits="userSpaceOnUse">
<stop stop-color="#FFCFCB"/>
<stop offset="1" stop-color="#D77E8E"/>
</linearGradient>
<linearGradient id="paint24_linear" x1="115.943" y1="79.0082" x2="110.341" y2="82.7221" gradientUnits="userSpaceOnUse">
<stop stop-color="#FF7A46"/>
<stop offset="1" stop-color="#FF5946"/>
</linearGradient>
<linearGradient id="paint25_linear" x1="112.276" y1="61.9289" x2="104.475" y2="59.8992" gradientUnits="userSpaceOnUse">
<stop stop-color="#0A0652"/>
<stop offset="0.9851" stop-color="#310477"/>
</linearGradient>
<linearGradient id="paint26_linear" x1="96.5148" y1="52.5498" x2="91.6682" y2="44.7355" gradientUnits="userSpaceOnUse">
<stop stop-color="#FFCFCB"/>
<stop offset="1" stop-color="#D77E8E"/>
</linearGradient>
<linearGradient id="paint27_linear" x1="92.7514" y1="42.3479" x2="101.049" y2="42.624" gradientUnits="userSpaceOnUse">
<stop stop-color="#934DE6"/>
<stop offset="1" stop-color="#6229CE"/>
</linearGradient>
<linearGradient id="paint28_linear" x1="102.393" y1="35.6672" x2="104.276" y2="49.9509" gradientUnits="userSpaceOnUse">
<stop stop-color="#934DE6"/>
<stop offset="1" stop-color="#6229CE"/>
</linearGradient>
<linearGradient id="paint29_linear" x1="102.734" y1="36.8981" x2="97.2111" y2="29.9522" gradientUnits="userSpaceOnUse">
<stop stop-color="#FFCFCB"/>
<stop offset="1" stop-color="#D77E8E"/>
</linearGradient>
<linearGradient id="paint30_linear" x1="93.9883" y1="31.7481" x2="116.281" y2="31.7481" gradientUnits="userSpaceOnUse">
<stop stop-color="#005C97"/>
<stop offset="1" stop-color="#363795"/>
</linearGradient>
<linearGradient id="paint31_linear" x1="108.17" y1="26.5314" x2="100.568" y2="11.8999" gradientUnits="userSpaceOnUse">
<stop stop-color="#934DE6"/>
<stop offset="1" stop-color="#6229CE"/>
</linearGradient>
<linearGradient id="paint32_linear" x1="84.7707" y1="23.3964" x2="71.5398" y2="37.537" gradientUnits="userSpaceOnUse">
<stop stop-color="#CDDBFF"/>
<stop offset="1" stop-color="white" stop-opacity="0"/>
</linearGradient>
<linearGradient id="paint33_linear" x1="91.8932" y1="50.1347" x2="101.969" y2="51.3828" gradientUnits="userSpaceOnUse">
<stop stop-color="#FFCFCB"/>
<stop offset="1" stop-color="#D77E8E"/>
</linearGradient>
<linearGradient id="paint34_linear" x1="100.175" y1="42.0454" x2="101.154" y2="44.581" gradientUnits="userSpaceOnUse">
<stop stop-color="#934DE6"/>
<stop offset="1" stop-color="#6229CE"/>
</linearGradient>
</defs>
</svg>
