<svg width="88" height="88" viewBox="0 0 88 88" fill="none" xmlns="http://www.w3.org/2000/svg">
<rect width="88" height="88" rx="24" fill="#F2F4FD"/>
<rect x="24.0007" y="30.0015" width="40.0059" height="34.005" rx="6.00088" fill="#003366"/>
<rect x="24.0007" y="30.0015" width="40.0059" height="34.005" rx="6.00088" stroke="#D8D8D8"/>
<rect x="40.0029" y="44.0034" width="8.00117" height="4.00059" rx="2.00029" fill="#57ABFF"/>
<path fill-rule="evenodd" clip-rule="evenodd" d="M36.4939 27.7727L35.6024 30.0014H30.0016C26.6874 30.0014 24.0007 32.6881 24.0007 36.0022V40.0028C24.0007 43.317 26.6874 46.0037 30.0016 46.0037H36.0025C36.0025 42.6895 38.6892 40.0028 42.0034 40.0028H46.004C49.3182 40.0028 52.0048 42.6895 52.0048 46.0037H58.0057C61.3199 46.0037 64.0066 43.317 64.0066 40.0028V36.0022C64.0066 32.6881 61.3199 30.0014 58.0057 30.0014H52.4049L51.5134 27.7727C50.6021 25.4944 48.3955 24.0005 45.9418 24.0005H42.0656C39.6118 24.0005 37.4052 25.4944 36.4939 27.7727ZM45.9418 28.0011H42.0656C41.2477 28.0011 40.5121 28.4991 40.2084 29.2585L39.9112 30.0014H48.0961L47.799 29.2585C47.4952 28.4991 46.7597 28.0011 45.9418 28.0011Z" fill="#57ABFF"/>
</svg>
