<svg width="88" height="88" viewBox="0 0 88 88" fill="none" xmlns="http://www.w3.org/2000/svg">
<rect width="88" height="88" rx="24" fill="#F2F4FD"/>
<path d="M48.2188 24.3125C48.2188 21.9862 46.3263 20 44 20C41.6737 20 39.7812 21.9862 39.7812 24.3125C39.7812 26.6388 41.6737 28.5312 44 28.5312C46.3263 28.5312 48.2188 26.6388 48.2188 24.3125Z" fill="#003366"/>
<path d="M51.0312 35.5625C51.0312 31.6857 47.8768 28.5312 44 28.5312C40.1232 28.5312 36.9688 31.6857 36.9688 35.5625V36.9688H51.0312V35.5625Z" fill="#003366"/>
<path d="M60.875 45.4063C63.205 45.4063 65.0938 43.5175 65.0938 41.1875C65.0938 38.8575 63.205 36.9688 60.875 36.9688C58.545 36.9688 56.6562 38.8575 56.6562 41.1875C56.6562 43.5175 58.545 45.4063 60.875 45.4063Z" fill="#003366"/>
<path d="M60.875 45.4062C56.9982 45.4062 53.8438 48.5607 53.8438 52.4375V53.8438H68V52.4375C68 48.5607 64.7518 45.4062 60.875 45.4062Z" fill="#003366"/>
<path d="M27.125 45.4063C29.455 45.4063 31.3438 43.5175 31.3438 41.1875C31.3438 38.8575 29.455 36.9688 27.125 36.9688C24.795 36.9688 22.9062 38.8575 22.9062 41.1875C22.9062 43.5175 24.795 45.4063 27.125 45.4063Z" fill="#003366"/>
<path d="M34.1562 52.4375C34.1562 48.5607 31.0018 45.4062 27.125 45.4062C23.2482 45.4062 20 48.5607 20 52.4375V53.8438H34.1562V52.4375Z" fill="#003366"/>
<path d="M44 59.4688C46.33 59.4688 48.2188 57.58 48.2188 55.25C48.2188 52.92 46.33 51.0312 44 51.0312C41.67 51.0312 39.7812 52.92 39.7812 55.25C39.7812 57.58 41.67 59.4688 44 59.4688Z" fill="#003366"/>
<path d="M51.0312 66.5C51.0312 62.6232 47.8768 59.4688 44 59.4688C40.1232 59.4688 36.9688 62.6232 36.9688 66.5V68H51.0312V66.5Z" fill="#003366"/>
<path d="M28.5313 32.75C28.5313 30.4237 30.4237 28.5313 32.75 28.5313H34.1563V25.7188H32.75C28.8732 25.7188 25.7188 28.8732 25.7188 32.75V34.1563H28.5313V32.75Z" fill="#57ABFF"/>
<path d="M59.4688 32.75V34.1563H62.2813V32.75C62.2813 28.8732 59.1268 25.7188 55.25 25.7188H53.8438V28.5313H55.25C57.5763 28.5313 59.4688 30.4237 59.4688 32.75Z" fill="#57ABFF"/>
<path d="M25.7188 56.6562V58.0625C25.7188 61.9393 28.8732 65.0938 32.75 65.0938H34.1563V62.2813H32.75C30.4237 62.2813 28.5313 60.3888 28.5313 58.0625V56.6562H25.7188Z" fill="#57ABFF"/>
<path d="M62.2813 58.0625V56.6562H59.4688V58.0625C59.4688 60.3888 57.5763 62.2813 55.25 62.2813H53.8438V65.0938H55.25C59.1268 65.0938 62.2813 61.9393 62.2813 58.0625Z" fill="#57ABFF"/>
</svg>
