<svg width="158" height="117" viewBox="0 0 158 117" fill="none" xmlns="http://www.w3.org/2000/svg">
<path opacity="0.49" d="M74.0588 4.70612C72.4523 4.64965 70.8373 4.64158 69.2308 4.49637C67.1652 4.31888 64.8957 3.60088 62.8982 4.44796C60.3482 5.53706 60.4842 9.20775 60.4587 11.4505C60.4247 14.5 60.9177 17.5817 62.1587 20.4134C63.9012 24.3745 66.9697 27.658 70.0978 30.7639C80.7314 41.3081 93.1755 51.473 97.2131 65.5588C98.6496 70.5687 98.5561 76.1433 95.6916 80.6933C92.3 86.0904 85.7464 86.4615 79.7879 87.0908C74.0758 87.6878 65.1762 89.6965 65.1932 96.6426C65.2017 99.0064 65.7202 101.644 68.0493 102.935C70.3443 104.202 72.5288 102.984 74.9428 103.177C82.8394 103.831 87.1575 111.301 94.697 112.753C99.1001 113.6 103.682 111.6 106.878 108.599C110.235 105.444 111.383 101.023 111.536 96.6749C111.655 93.1575 110.592 89.6723 110.983 86.1549C111.442 82.0083 114.273 78.7006 116.967 75.6027C120.104 71.9885 123.3 67.7773 123.691 62.953C124.328 55.0227 124.609 46.8665 122.824 39.0411C121.846 34.7654 119.798 30.7397 117.146 27.1659C115.42 24.8505 113.236 22.8498 111.595 20.4941C109.173 17.009 107.099 13.1043 103.622 10.4259C101.429 8.73984 98.7516 8.14285 95.9891 8.68336C92.351 9.40943 89.104 10.1758 85.5764 8.49781C82.4824 7.02954 79.4904 5.05302 75.9373 4.80293C75.3168 4.75452 74.6878 4.73032 74.0588 4.70612Z" fill="url(#paint0_linear)"/>
<path d="M129.37 104.403C126.531 108.122 121.465 106.985 118.847 104.194C115.056 100.152 113.5 99.337 108.426 98.9095C107.151 98.8046 105.51 98.1672 104.779 97.0539C103.946 95.7874 104.728 94.8757 106.216 94.666C109.641 94.19 113.033 95.0129 116.186 96.2553C118.966 97.3444 121.805 99.4903 124.874 99.692C126.54 99.8049 129.073 98.6674 130.458 99.9986C131.767 101.265 130.203 103.314 129.37 104.403Z" fill="#BDCFFF"/>
<path d="M26.7913 57.6683H41.148C43.018 57.6683 44.5565 56.2161 44.5565 54.4332V39.3229C44.5565 37.5481 43.0265 36.0879 41.148 36.0879H26.7913C24.9213 36.0879 23.3828 37.54 23.3828 39.3229V54.4332C23.3828 56.2161 24.9213 57.6683 26.7913 57.6683Z" fill="url(#paint1_linear)"/>
<path d="M41.1473 82.5809H26.7906C24.8356 82.5809 23.2461 81.0723 23.2461 79.2167V64.0984C23.2461 62.2429 24.8356 60.7343 26.7906 60.7343H41.1473C43.1023 60.7343 44.6918 62.2429 44.6918 64.0984V79.2087C44.6918 81.0723 43.1023 82.5809 41.1473 82.5809ZM26.7906 61.0085C24.9886 61.0085 23.5266 62.3961 23.5266 64.1064V79.2167C23.5266 80.927 24.9886 82.3146 26.7906 82.3146H41.1473C42.9493 82.3146 44.4113 80.927 44.4113 79.2167V64.0984C44.4113 62.3881 42.9493 61.0005 41.1473 61.0005H26.7906V61.0085Z" fill="#A6BAF7"/>
<path d="M26.9713 79.192C26.9373 79.192 26.9033 79.1839 26.8778 79.1597C26.8183 79.1113 26.8183 79.0226 26.8693 78.9661L40.8774 64.0252C40.9284 63.9688 41.0219 63.9688 41.0814 64.0172C41.1409 64.0656 41.1409 64.1543 41.0899 64.2108L27.0733 79.1517C27.0478 79.1839 27.0053 79.192 26.9713 79.192Z" fill="url(#paint2_linear)"/>
<path d="M40.9697 79.1925C40.9272 79.1925 40.8932 79.1764 40.8677 79.1441L26.8595 64.2113C26.8085 64.1548 26.8085 64.0741 26.868 64.0177C26.9275 63.9692 27.0125 63.9692 27.072 64.0257L41.0802 78.9666C41.1312 79.0231 41.1312 79.1037 41.0717 79.1602C41.0377 79.1844 41.0037 79.1925 40.9697 79.1925Z" fill="url(#paint3_linear)"/>
<path d="M52.0277 82.4433H66.3843C68.2543 82.4433 69.7929 80.9912 69.7929 79.2083V64.098C69.7929 62.3231 68.2628 60.8629 66.3843 60.8629H52.0277C50.1577 60.8629 48.6191 62.3151 48.6191 64.098V79.2083C48.6276 80.9912 50.1577 82.4433 52.0277 82.4433Z" fill="#ECF2FE"/>
<path d="M52.2057 79.1926C52.1717 79.1926 52.1377 79.1845 52.1122 79.1603C52.0527 79.1119 52.0527 79.0232 52.1037 78.9667L66.1118 64.0258C66.1628 63.9694 66.2563 63.9694 66.3158 64.0178C66.3753 64.0662 66.3753 64.1549 66.3243 64.2114L52.3162 79.1523C52.2822 79.1845 52.2482 79.1926 52.2057 79.1926Z" fill="white"/>
<path d="M66.2138 79.1926C66.1713 79.1926 66.1373 79.1765 66.1118 79.1442L52.1037 64.2114C52.0527 64.1549 52.0527 64.0742 52.1122 64.0178C52.1717 63.9694 52.2567 63.9694 52.3162 64.0258L66.3243 78.9667C66.3753 79.0232 66.3753 79.1039 66.3158 79.1603C66.2818 79.1845 66.2478 79.1926 66.2138 79.1926Z" fill="white"/>
<path d="M52.0277 57.6683H66.3843C68.2543 57.6683 69.7929 56.2161 69.7929 54.4332V39.3229C69.7929 37.5481 68.2628 36.0879 66.3843 36.0879H52.0277C50.1577 36.0879 48.6191 37.54 48.6191 39.3229V54.4332C48.6276 56.2161 50.1577 57.6683 52.0277 57.6683Z" fill="#ECF2FE"/>
<path d="M52.2057 54.4252C52.1717 54.4252 52.1377 54.4171 52.1122 54.3929C52.0527 54.3445 52.0527 54.2558 52.1037 54.1993L66.1118 39.2584C66.1628 39.2019 66.2563 39.2019 66.3158 39.2503C66.3753 39.2987 66.3753 39.3875 66.3243 39.4439L52.3162 54.3768C52.2822 54.409 52.2482 54.4252 52.2057 54.4252Z" fill="#FF7A46"/>
<path d="M66.2138 54.4247C66.1713 54.4247 66.1373 54.4086 66.1118 54.3763L52.1037 39.4354C52.0527 39.3789 52.0527 39.2982 52.1122 39.2418C52.1717 39.1934 52.2567 39.1934 52.3162 39.2498L66.3243 54.1907C66.3753 54.2472 66.3753 54.3279 66.3158 54.3843C66.2818 54.4086 66.2478 54.4247 66.2138 54.4247Z" fill="#FF7A46"/>
<path opacity="0.56" d="M47.3692 90.0752H19.2509C18.2224 90.0752 17.3809 89.2765 17.3809 88.3004C17.3809 87.3242 18.2224 86.5255 19.2509 86.5255H47.3607C48.3892 86.5255 49.2307 87.3242 49.2307 88.3004C49.2392 89.2765 48.3977 90.0752 47.3692 90.0752Z" fill="#CDDBFF"/>
<g opacity="0.56">
<path opacity="0.56" d="M78.039 28.9328H25.0239C24.6329 28.9328 24.3184 28.6343 24.3184 28.2632C24.3184 27.8921 24.6329 27.5936 25.0239 27.5936H78.039C78.43 27.5936 78.7445 27.8921 78.7445 28.2632C78.7445 28.6343 78.43 28.9328 78.039 28.9328Z" fill="#CDDBFF"/>
</g>
<path d="M68.8498 31.2883C70.5445 31.2883 71.9183 29.9844 71.9183 28.376C71.9183 26.7675 70.5445 25.4636 68.8498 25.4636C67.1551 25.4636 65.7812 26.7675 65.7812 28.376C65.7812 29.9844 67.1551 31.2883 68.8498 31.2883Z" fill="url(#paint4_linear)"/>
<g opacity="0.56">
<path opacity="0.56" d="M78.039 20.0023H25.0239C24.6329 20.0023 24.3184 19.7038 24.3184 19.3327C24.3184 18.9616 24.6329 18.6631 25.0239 18.6631H78.039C78.43 18.6631 78.7445 18.9616 78.7445 19.3327C78.7445 19.6957 78.43 20.0023 78.039 20.0023Z" fill="#CDDBFF"/>
</g>
<path d="M46.5627 22.3578C48.2574 22.3578 49.6312 21.0539 49.6312 19.4454C49.6312 17.837 48.2574 16.5331 46.5627 16.5331C44.868 16.5331 43.4941 17.837 43.4941 19.4454C43.4941 21.0539 44.868 22.3578 46.5627 22.3578Z" fill="url(#paint5_linear)"/>
<g opacity="0.56">
<path opacity="0.56" d="M78.039 11.0632H25.0239C24.6329 11.0632 24.3184 10.7647 24.3184 10.3936C24.3184 10.0225 24.6329 9.724 25.0239 9.724H78.039C78.43 9.724 78.7445 10.0225 78.7445 10.3936C78.7445 10.7566 78.43 11.0632 78.039 11.0632Z" fill="#CDDBFF"/>
</g>
<path d="M62.0588 13.4192C63.7535 13.4192 65.1273 12.1153 65.1273 10.5068C65.1273 8.89838 63.7535 7.59448 62.0588 7.59448C60.3641 7.59448 58.9902 8.89838 58.9902 10.5068C58.9902 12.1153 60.3641 13.4192 62.0588 13.4192Z" fill="url(#paint6_linear)"/>
<g opacity="0.67">
<g opacity="0.67">
<path opacity="0.67" d="M51.5262 31.66H50.9567C50.9142 31.66 50.8887 31.6276 50.8887 31.5952C50.8887 31.5547 50.9227 31.5304 50.9567 31.5304H51.5262C51.5687 31.5304 51.5942 31.5628 51.5942 31.5952C51.5942 31.6276 51.5687 31.66 51.5262 31.66Z" fill="#A6BAF7"/>
</g>
<g opacity="0.67">
<path opacity="0.67" d="M49.8442 31.66H48.7307C48.6882 31.66 48.6627 31.6276 48.6627 31.5952C48.6627 31.5547 48.6967 31.5304 48.7307 31.5304H49.8442C49.8867 31.5304 49.9122 31.5628 49.9122 31.5952C49.9207 31.6276 49.8867 31.66 49.8442 31.66ZM47.6172 31.66H46.5037C46.4612 31.66 46.4357 31.6276 46.4357 31.5952C46.4357 31.5547 46.4697 31.5304 46.5037 31.5304H47.6172C47.6597 31.5304 47.6852 31.5628 47.6852 31.5952C47.6852 31.6276 47.6597 31.66 47.6172 31.66ZM45.3902 31.66H44.2766C44.2341 31.66 44.2086 31.6276 44.2086 31.5952C44.2086 31.5547 44.2426 31.5304 44.2766 31.5304H45.3902C45.4327 31.5304 45.4582 31.5628 45.4582 31.5952C45.4582 31.6276 45.4242 31.66 45.3902 31.66ZM43.1546 31.66H42.0411C41.9986 31.66 41.9731 31.6276 41.9731 31.5952C41.9731 31.5547 42.0071 31.5304 42.0411 31.5304H43.1546C43.1971 31.5304 43.2226 31.5628 43.2226 31.5952C43.2311 31.6276 43.1971 31.66 43.1546 31.66ZM40.9276 31.66H39.8141C39.7716 31.66 39.7461 31.6276 39.7461 31.5952C39.7461 31.5547 39.7801 31.5304 39.8141 31.5304H40.9276C40.9701 31.5304 40.9956 31.5628 40.9956 31.5952C40.9956 31.6276 40.9701 31.66 40.9276 31.66Z" fill="#A6BAF7"/>
</g>
<g opacity="0.67">
<path opacity="0.67" d="M38.7 31.66H38.1305C38.088 31.66 38.0625 31.6276 38.0625 31.5952C38.0625 31.5547 38.0965 31.5304 38.1305 31.5304H38.7C38.7425 31.5304 38.768 31.5628 38.768 31.5952C38.768 31.6276 38.734 31.66 38.7 31.66Z" fill="#A6BAF7"/>
</g>
</g>
<g opacity="0.67">
<g opacity="0.67">
<path opacity="0.67" d="M32.4109 13.4921H31.8414C31.7989 13.4921 31.7734 13.4597 31.7734 13.4273C31.7734 13.3949 31.8074 13.3625 31.8414 13.3625H32.4109C32.4534 13.3625 32.4789 13.3949 32.4789 13.4273C32.4789 13.4597 32.4449 13.4921 32.4109 13.4921Z" fill="#A6BAF7"/>
</g>
<g opacity="0.67">
<path opacity="0.67" d="M30.7277 13.4921H29.6142C29.5717 13.4921 29.5462 13.4597 29.5462 13.4273C29.5462 13.3949 29.5802 13.3625 29.6142 13.3625H30.7277C30.7702 13.3625 30.7957 13.3949 30.7957 13.4273C30.7957 13.4597 30.7617 13.4921 30.7277 13.4921ZM28.4922 13.4921H27.3787C27.3362 13.4921 27.3107 13.4597 27.3107 13.4273C27.3107 13.3949 27.3447 13.3625 27.3787 13.3625H28.4922C28.5347 13.3625 28.5602 13.3949 28.5602 13.4273C28.5602 13.4597 28.5347 13.4921 28.4922 13.4921ZM26.2652 13.4921H25.1516C25.1091 13.4921 25.0836 13.4597 25.0836 13.4273C25.0836 13.3949 25.1176 13.3625 25.1516 13.3625H26.2652C26.3077 13.3625 26.3332 13.3949 26.3332 13.4273C26.3332 13.4597 26.3077 13.4921 26.2652 13.4921ZM24.0381 13.4921H22.9246C22.8821 13.4921 22.8566 13.4597 22.8566 13.4273C22.8566 13.3949 22.8906 13.3625 22.9246 13.3625H24.0381C24.0806 13.3625 24.1061 13.3949 24.1061 13.4273C24.1061 13.4597 24.0721 13.4921 24.0381 13.4921ZM21.8111 13.4921H20.6891C20.6466 13.4921 20.6211 13.4597 20.6211 13.4273C20.6211 13.3949 20.6551 13.3625 20.6891 13.3625H21.8026C21.8451 13.3625 21.8706 13.3949 21.8706 13.4273C21.8706 13.4597 21.8451 13.4921 21.8111 13.4921Z" fill="#A6BAF7"/>
</g>
<g opacity="0.67">
<path opacity="0.67" d="M19.575 13.4926H19.0055C18.963 13.4926 18.9375 13.4602 18.9375 13.4278C18.9375 13.3954 18.9715 13.363 19.0055 13.363H19.575C19.6175 13.363 19.643 13.3954 19.643 13.4278C19.643 13.4602 19.6175 13.4926 19.575 13.4926Z" fill="#A6BAF7"/>
</g>
</g>
<path d="M134.279 8.99203L134.07 9.17004L135.715 10.9023L135.923 10.7243L134.279 8.99203Z" fill="#A6BAF7"/>
<path d="M135.71 8.98784L134.068 10.7222L134.277 10.8999L135.919 9.16558L135.71 8.98784Z" fill="#A6BAF7"/>
<path d="M137.964 10.9186C137.369 10.9186 136.893 10.4588 136.893 9.90212C136.893 9.3374 137.377 8.88562 137.964 8.88562C138.55 8.88562 139.035 9.34546 139.035 9.90212C139.035 10.4668 138.559 10.9186 137.964 10.9186ZM137.964 9.15991C137.53 9.15991 137.173 9.49874 137.173 9.91018C137.173 10.3216 137.53 10.6605 137.964 10.6605C138.397 10.6605 138.754 10.3216 138.754 9.91018C138.754 9.49068 138.397 9.15991 137.964 9.15991Z" fill="#A6BAF7"/>
<path d="M138.719 71.6415H107.261C106.147 71.6415 105.246 70.7864 105.246 69.7296V9.45776C105.246 8.40092 106.147 7.54578 107.261 7.54578H138.719C139.833 7.54578 140.734 8.40092 140.734 9.45776V69.7296C140.734 70.7783 139.824 71.6415 138.719 71.6415ZM107.261 7.812C106.309 7.812 105.527 8.54614 105.527 9.45776V69.7296C105.527 70.6331 106.3 71.3753 107.261 71.3753H138.719C139.671 71.3753 140.453 70.6412 140.453 69.7296V9.45776C140.453 8.55421 139.68 7.812 138.719 7.812H107.261Z" fill="#A6BAF7"/>
<path d="M140.59 63.1314H105.646C105.57 63.1314 105.502 63.0747 105.502 62.9937C105.502 62.9209 105.561 62.8561 105.646 62.8561H140.59C140.667 62.8561 140.735 62.9128 140.735 62.9937C140.735 63.0666 140.667 63.1314 140.59 63.1314Z" fill="#A6BAF7"/>
<path d="M140.59 11.9677H105.646C105.57 11.9677 105.502 11.911 105.502 11.8301C105.502 11.7491 105.561 11.6924 105.646 11.6924H140.59C140.667 11.6924 140.735 11.7491 140.735 11.8301C140.735 11.911 140.667 11.9677 140.59 11.9677Z" fill="#A6BAF7"/>
<path d="M122.986 69.8507C121.643 69.8507 120.555 68.818 120.555 67.5434C120.555 66.2687 121.643 65.2361 122.986 65.2361C124.329 65.2361 125.417 66.2687 125.417 67.5434C125.417 68.81 124.329 69.8507 122.986 69.8507ZM122.986 65.5023C121.804 65.5023 120.835 66.4139 120.835 67.5434C120.835 68.6647 121.796 69.5844 122.986 69.5844C124.167 69.5844 125.136 68.6728 125.136 67.5434C125.136 66.4139 124.167 65.5023 122.986 65.5023Z" fill="#A6BAF7"/>
<path d="M112.429 58.3787H133.543C135.022 58.3787 136.238 57.2251 136.238 55.8213V55.6116C136.238 54.2078 135.022 53.0542 133.543 53.0542H112.429C110.95 53.0542 109.734 54.2078 109.734 55.6116V55.8213C109.734 57.2251 110.95 58.3787 112.429 58.3787Z" fill="url(#paint7_linear)"/>
<path opacity="0.56" d="M132.438 55.3375H113.185C113.007 55.3375 112.854 55.2004 112.854 55.0229V54.9987C112.854 54.8293 112.998 54.6841 113.185 54.6841H132.438C132.616 54.6841 132.769 54.8212 132.769 54.9987V55.0229C132.769 55.1923 132.625 55.3375 132.438 55.3375Z" fill="white"/>
<path opacity="0.56" d="M132.438 56.8539H113.185C113.007 56.8539 112.854 56.7168 112.854 56.5393V56.5151C112.854 56.3457 112.998 56.2004 113.185 56.2004H132.438C132.616 56.2004 132.769 56.3376 132.769 56.5151V56.5393C132.769 56.7168 132.625 56.8539 132.438 56.8539Z" fill="white"/>
<g opacity="0.56">
<g opacity="0.56">
<path opacity="0.56" d="M133.645 41.8726H111.715C111.145 41.8726 110.678 41.4289 110.678 40.8884C110.678 40.3479 111.145 39.9042 111.715 39.9042H133.645C134.214 39.9042 134.682 40.3479 134.682 40.8884C134.691 41.4289 134.223 41.8726 133.645 41.8726ZM111.723 40.1704C111.307 40.1704 110.967 40.4931 110.967 40.8884C110.967 41.2837 111.307 41.6064 111.723 41.6064H133.653C134.07 41.6064 134.41 41.2837 134.41 40.8884C134.41 40.4931 134.07 40.1704 133.653 40.1704H111.723Z" fill="#CDDBFF"/>
</g>
<g opacity="0.56">
<path opacity="0.56" d="M133.645 44.9064H111.715C111.145 44.9064 110.678 44.4627 110.678 43.9222C110.678 43.3817 111.145 42.938 111.715 42.938H133.645C134.215 42.938 134.682 43.3817 134.682 43.9222C134.691 44.4627 134.223 44.9064 133.645 44.9064ZM111.723 43.2042C111.307 43.2042 110.967 43.5269 110.967 43.9222C110.967 44.3175 111.307 44.6402 111.723 44.6402H133.653C134.07 44.6402 134.41 44.3175 134.41 43.9222C134.41 43.5269 134.07 43.2042 133.653 43.2042H111.723Z" fill="#CDDBFF"/>
</g>
<g opacity="0.56">
<path opacity="0.56" d="M133.645 47.9396H111.715C111.145 47.9396 110.678 47.4959 110.678 46.9554C110.678 46.4149 111.145 45.9712 111.715 45.9712H133.645C134.215 45.9712 134.682 46.4149 134.682 46.9554C134.691 47.4959 134.223 47.9396 133.645 47.9396ZM111.723 46.2374C111.307 46.2374 110.967 46.5601 110.967 46.9554C110.967 47.3507 111.307 47.6734 111.723 47.6734H133.653C134.07 47.6734 134.41 47.3507 134.41 46.9554C134.41 46.5601 134.07 46.2374 133.653 46.2374H111.723Z" fill="#CDDBFF"/>
</g>
<g opacity="0.56">
<path opacity="0.56" d="M133.645 50.9729H111.715C111.145 50.9729 110.678 50.5291 110.678 49.9886C110.678 49.4481 111.145 49.0044 111.715 49.0044H133.645C134.215 49.0044 134.682 49.4481 134.682 49.9886C134.691 50.5291 134.223 50.9729 133.645 50.9729ZM111.723 49.2706C111.307 49.2706 110.967 49.5933 110.967 49.9886C110.967 50.3839 111.307 50.7066 111.723 50.7066H133.653C134.07 50.7066 134.41 50.3839 134.41 49.9886C134.41 49.5933 134.07 49.2706 133.653 49.2706H111.723Z" fill="#CDDBFF"/>
</g>
</g>
<path d="M102.025 24.9311C101.949 24.9311 101.881 24.8746 101.881 24.7939V12.4507C101.881 12.3781 101.94 12.3136 102.025 12.3136C102.11 12.3136 102.17 12.3701 102.17 12.4507V24.7939C102.17 24.8665 102.102 24.9311 102.025 24.9311Z" fill="#A6BAF7"/>
<path d="M67.2766 90.0757C67.2766 90.0757 45.4399 71.0688 49.5964 79.6929C53.753 88.317 67.2766 90.0757 67.2766 90.0757Z" fill="#03BCE1"/>
<path d="M67.3112 90.1161C67.3112 90.1161 60.7151 58.4918 58.7176 68.3341C56.7201 78.1844 67.3112 90.1161 67.3112 90.1161Z" fill="#86F7EA"/>
<path d="M66.2221 89.4866C66.2136 89.4866 66.2136 89.4866 66.2051 89.4866C64.3265 88.9864 62.6095 87.7279 61.088 86.6227C60.901 86.4855 60.7055 86.3403 60.5185 86.2112C59.252 85.2915 57.9175 84.4203 56.634 83.5732C55.9199 83.1053 55.1719 82.6132 54.4494 82.1291C54.2114 81.9678 53.9649 81.7741 53.7014 81.5724C53.0299 81.0481 52.2734 80.4591 51.5084 80.322C51.4659 80.3139 51.4404 80.2817 51.4489 80.2413C51.4574 80.2091 51.4914 80.1768 51.5339 80.1848C52.3414 80.3301 53.1149 80.9271 53.7949 81.4676C54.0499 81.6693 54.2964 81.8629 54.5344 82.0162C55.2569 82.5083 55.9964 82.9923 56.7105 83.4602C58.0025 84.3073 59.3285 85.1786 60.6035 86.0983C60.7905 86.2354 60.9775 86.3726 61.173 86.5097C62.6775 87.615 64.386 88.8654 66.2391 89.3495C66.2731 89.3575 66.2986 89.3979 66.2901 89.4301C66.2816 89.4705 66.2561 89.4866 66.2221 89.4866Z" fill="white"/>
<path d="M67.463 89.721C67.446 89.721 67.4205 89.7129 67.412 89.6968C66.1284 88.3011 65.4144 86.3569 64.7854 84.6385C64.7089 84.4207 64.6239 84.2109 64.5474 83.9931C64.0204 82.5652 63.4084 81.1453 62.8219 79.7658C62.4904 78.9994 62.1589 78.2088 61.8359 77.4262C61.7679 77.2568 61.6659 77.0793 61.5469 76.8776C61.0199 75.9821 60.1359 74.4735 60.0254 69.7783C60.0254 69.738 60.0594 69.7138 60.0934 69.7057C60.1359 69.7057 60.1614 69.738 60.1699 69.7702C60.2719 74.4332 61.1474 75.9176 61.6659 76.805C61.7849 77.0067 61.8954 77.1923 61.9634 77.3697C62.2864 78.1523 62.6264 78.9429 62.9494 79.7093C63.5359 81.0888 64.1479 82.5087 64.6834 83.9447C64.7599 84.1545 64.8364 84.3723 64.9214 84.5901C65.5419 86.2923 66.2474 88.2285 67.514 89.6C67.5395 89.6242 67.5395 89.6726 67.5055 89.6968C67.4885 89.721 67.48 89.721 67.463 89.721Z" fill="white"/>
<path d="M67.4727 90.0759C67.4727 90.0759 68.0167 89.4547 68.8667 88.414C72.6747 80.1449 75.3183 71.7789 77.4348 63.2032C73.6267 59.823 67.4727 90.0759 67.4727 90.0759Z" fill="#03BCE1"/>
<path d="M79.2033 68.6177C78.7188 65.4956 78.1153 63.8095 77.4353 63.2045C75.3188 71.7801 72.6752 80.1461 68.8672 88.4152C72.1482 84.3976 80.0448 74.0632 79.2033 68.6177Z" fill="#00DEE1"/>
<path d="M68.0089 89.8504C67.9664 89.8504 67.9409 89.8181 67.9409 89.7858C67.8984 87.6883 68.7824 85.5101 69.5559 83.5901C69.6579 83.348 69.7515 83.106 69.845 82.872C70.4825 81.2666 71.052 79.6128 71.596 78.0074C71.902 77.12 72.2165 76.2003 72.5395 75.2967C72.6075 75.1031 72.6585 74.8772 72.7095 74.6191C72.939 73.4735 73.33 71.5615 76.849 67.4148C76.8745 67.3826 76.917 67.3826 76.951 67.4068C76.985 67.431 76.985 67.4713 76.9595 67.5036C73.466 71.618 73.075 73.5138 72.8455 74.6433C72.7945 74.9014 72.7435 75.1273 72.6755 75.3371C72.3525 76.2406 72.038 77.1603 71.732 78.0477C71.1795 79.6531 70.6185 81.307 69.9725 82.9124C69.879 83.1463 69.7769 83.3884 69.6834 83.6304C68.9099 85.5424 68.0344 87.7044 68.0769 89.7697C68.0769 89.8181 68.0514 89.8504 68.0089 89.8504Z" fill="white"/>
<path d="M64.9902 83.8721C66.2312 87.5911 67.4893 90.1324 67.4893 90.1324C67.4893 90.1324 71.7733 50.3196 65.1857 61.1945C65.6872 63.9697 66.9453 66.5513 66.5627 69.5685C65.9252 74.2637 65.2112 79.0881 64.9902 83.8721Z" fill="#00DEE1"/>
<path d="M64.9906 83.872C65.2116 79.0961 65.9256 74.2637 66.5716 69.5685C66.9541 66.5593 65.6961 63.9777 65.1946 61.1945C64.8886 61.7027 64.5571 62.3239 64.2 63.058C61.1485 69.3668 63.044 78.0554 64.9906 83.872Z" fill="#00E8EA"/>
<path d="M66.7501 87.0018C66.7246 87.0018 66.6906 86.9857 66.6821 86.9615C65.8831 85.0092 65.9256 82.6777 65.9596 80.6205C65.9681 80.3623 65.9681 80.1042 65.9681 79.8541C65.9851 78.1357 65.9171 76.4012 65.8576 74.7151C65.8236 73.7793 65.7896 72.8112 65.7641 71.8593C65.7556 71.6495 65.7216 71.4317 65.6791 71.1735C65.4836 70.0199 65.1606 68.0998 66.9626 63.0577C66.9711 63.0254 67.0136 63.0012 67.0561 63.0173C67.0901 63.0254 67.1156 63.0657 67.0986 63.1061C65.3051 68.116 65.6281 70.0199 65.8151 71.1574C65.8576 71.4236 65.9001 71.6495 65.9001 71.8673C65.9256 72.8193 65.9596 73.7874 65.9936 74.7232C66.0616 76.4093 66.1211 78.1519 66.1041 79.8702C66.1041 80.1203 66.0956 80.3785 66.0956 80.6447C66.0616 82.6938 66.0191 85.0092 66.8096 86.9373C66.8266 86.9696 66.8096 87.0099 66.7671 87.026C66.7671 87.0018 66.7586 87.0018 66.7501 87.0018Z" fill="white"/>
<path d="M67.2949 90.2855C67.2949 90.2855 75.5485 79.4187 78.0645 81.9841C80.5806 84.5496 67.2949 90.2855 67.2949 90.2855Z" fill="#03BCE1"/>
<path d="M67.2931 90.3741C67.2676 90.3741 67.2506 90.366 67.2336 90.3499C67.2081 90.3176 67.2166 90.2773 67.2506 90.2531L77.4932 82.944C77.5272 82.9198 77.5697 82.9279 77.5952 82.9601C77.6207 82.9924 77.6122 83.0327 77.5782 83.0569L67.3356 90.358C67.3271 90.366 67.3101 90.3741 67.2931 90.3741Z" fill="white"/>
<path d="M72.086 89.2854H62.5744C62.5744 89.2854 60.7639 94.9971 61.2399 99.7005C61.7159 104.404 65.2009 103.855 65.2009 103.855H67.2665H67.394H69.4595C69.4595 103.855 72.9445 104.396 73.4205 99.7005C73.8965 94.9971 72.086 89.2854 72.086 89.2854Z" fill="#3958D7"/>
<g opacity="0.42">
<g opacity="0.42">
<path opacity="0.42" d="M63.9949 104.162L64.5049 103.984C67.2419 103.008 70.1659 102.363 73.022 101.758C69.4859 101.887 65.9414 102.363 62.5074 102.831L62.4734 102.701C66.4684 101.556 70.7099 101.015 74.8325 100.515C74.0505 100.443 73.26 100.483 72.512 100.531C68.5254 100.806 64.1989 101.524 59.2773 102.71L59.2433 102.58C64.0969 101.282 69.0949 100.265 74.1355 99.5471C68.6614 99.6681 63.2384 100.644 57.9853 101.588L57.4668 101.677L57.9428 101.459C58.7333 101.088 59.6173 100.878 60.5353 100.668C63.2554 100.055 66.0264 99.531 68.8144 99.1115C65.6014 99.3051 62.3969 99.5794 59.2263 99.9263L59.2008 99.7972C60.8838 99.3132 62.5754 98.9259 64.3009 98.6113C63.9694 98.6274 63.6379 98.6436 63.3064 98.6597C61.9038 98.8211 60.5948 99.0227 59.3368 99.2809C58.8013 99.3938 58.2573 99.5148 57.7218 99.6359L57.6878 99.5068C58.2148 99.3777 58.7588 99.2567 59.3028 99.1518C60.0253 98.9985 60.7563 98.8533 61.4873 98.7162C61.0198 98.7242 60.5608 98.7242 60.1018 98.7162L59.5918 98.7081L60.0848 98.579C64.9554 97.3286 70.1574 96.8203 75.266 97.0866C75.504 97.0785 75.742 97.0623 75.98 97.0543C72.6735 96.8365 69.3414 96.6993 66.0179 96.6348C65.0404 96.7316 64.0119 96.8203 62.9239 96.9091C61.2153 97.0462 59.6768 97.143 58.1638 96.8607L57.8493 96.8042L58.1553 96.7316C59.1583 96.4896 60.2123 96.4734 61.3853 96.4654C62.9239 96.4573 64.4709 96.4734 66.0094 96.4976C69.0014 96.2072 71.543 95.8684 73.923 95.4569C72.716 95.4892 71.509 95.5053 70.3274 95.5053C67.5224 95.828 64.7004 96.0781 61.8868 96.2314C60.9688 96.2798 60.1443 96.3121 59.3538 96.1265L59.0988 96.07L59.3538 95.9974C59.7958 95.8764 60.2633 95.7877 60.7138 95.7312C60.1953 95.7393 59.6853 95.7232 59.1753 95.6828C58.7758 95.6505 58.3338 95.586 58.0703 95.3198L58.0023 95.2552L58.0873 95.2149C58.7503 94.9003 59.5408 94.8761 60.3653 94.8761C61.8103 94.8761 63.2809 94.9003 64.7004 94.9325C65.5249 94.9487 66.3494 94.9648 67.1739 94.9729C69.3584 94.6582 71.526 94.2549 73.6595 93.7708C72.0105 93.8112 70.3444 93.7386 68.7209 93.6579C68.5084 93.6498 68.2874 93.6337 68.0749 93.6256C65.6269 93.908 63.1619 94.0855 60.7393 94.263C60.3313 94.2952 60.0763 94.2145 59.9913 94.0371L59.9743 93.9967L60.0083 93.9645C60.2123 93.7628 60.5438 93.6982 60.8328 93.6579C63.2214 93.311 65.6779 93.3836 68.0749 93.4965C69.8259 93.2949 71.577 93.0367 73.294 92.6817C72.784 92.714 72.2995 92.7301 71.866 92.7301C71.8575 92.7301 71.8405 92.7301 71.832 92.7301C70.1064 92.7301 68.3554 92.593 66.6554 92.4558C65.5589 92.3671 64.4454 92.2784 63.3234 92.23C62.5754 92.2864 61.8273 92.3348 61.0708 92.3671C60.3653 92.3994 59.6683 92.4155 58.9798 92.2945L58.4953 92.2058L58.9798 92.1573C60.4163 92.0202 61.8613 92.0202 63.3064 92.0847C65.6439 91.8992 67.9644 91.5765 70.2509 91.1247C66.8764 91.2215 63.5359 90.6407 60.2888 90.076C60.1783 90.0598 60.0083 89.9872 59.9658 89.8743C59.9488 89.8259 59.9573 89.7694 59.9998 89.729C60.0253 89.7048 60.0678 89.6968 60.1018 89.729C60.1273 89.7532 60.1358 89.7936 60.1018 89.8259C60.0933 89.8339 60.0933 89.8339 60.0933 89.8339C60.0933 89.8581 60.1868 89.9227 60.3058 89.9469C63.8249 90.56 67.4544 91.1893 71.0925 90.9553C71.764 90.8101 72.427 90.6649 73.09 90.4955L73.4215 90.4148L73.1495 90.6165C72.7245 90.9311 72.1295 91.0118 71.6025 91.0521C71.441 91.0682 71.2794 91.0763 71.1094 91.0924C68.8569 91.5684 66.5619 91.9234 64.2499 92.1412C65.0574 92.1896 65.8564 92.2542 66.6469 92.3187C68.3384 92.4558 70.0894 92.593 71.815 92.593C71.8235 92.593 71.8405 92.593 71.849 92.593C72.682 92.593 73.702 92.5607 74.722 92.3671C75.0365 92.2945 75.351 92.2138 75.657 92.1331L75.6995 92.2622C75.385 92.359 75.0705 92.4397 74.756 92.4962C72.8265 92.956 70.8544 93.2868 68.8739 93.5369C70.6759 93.6256 72.529 93.7063 74.3395 93.6176C75.079 93.4401 75.81 93.2545 76.541 93.0609L76.83 92.9802L76.609 93.1738C76.1245 93.5934 75.3765 93.6902 74.6455 93.7386C74.552 93.7466 74.4585 93.7466 74.365 93.7547C72.2825 94.2549 70.1659 94.6663 68.0324 94.9971C70.6589 95.0132 73.3025 94.9567 75.895 94.6179L75.912 94.7551C74.4415 94.989 72.971 95.1907 71.4835 95.3763C72.597 95.3682 73.7275 95.344 74.8495 95.2956C75.589 95.1584 76.354 95.0455 77.102 95.1584L77.6545 95.2472L77.0935 95.2956C76.354 95.3601 75.6145 95.4005 74.8665 95.4327C74.8155 95.4408 74.7645 95.4489 74.705 95.465L74.637 95.4811C72.3335 95.9006 69.9109 96.2395 67.0889 96.538C70.4889 96.6186 73.889 96.78 77.255 97.022V97.1592C77 97.1672 76.7535 97.1753 76.4985 97.1834C76.8215 97.2076 77.1445 97.2398 77.4675 97.264V97.4012C74.2545 97.6109 71.2964 97.8207 68.4914 98.1515C69.4264 98.1111 70.4039 98.0869 71.424 98.0788C71.5345 98.0788 71.645 98.0788 71.7555 98.0788C72.3675 98.0546 72.971 98.0385 73.583 98.0385C74.246 98.0304 74.9515 98.0385 75.623 98.1595C76.9065 98.2402 78.1815 98.3854 79.431 98.6516L80.043 98.7807H79.414C76.405 98.7968 73.379 98.8856 70.3614 99.0469C67.0549 99.4987 63.7739 100.096 60.5523 100.822C59.8638 100.975 59.2008 101.136 58.5718 101.362C63.9864 100.394 69.5709 99.4261 75.2065 99.418L75.215 99.5552C71.4495 100.055 67.6924 100.725 64.0034 101.564C67.0294 100.983 69.8344 100.604 72.4865 100.426C73.413 100.362 74.399 100.314 75.368 100.475L75.827 100.556L75.368 100.612C71.424 101.088 67.3524 101.58 63.4764 102.589C66.8424 102.137 70.3019 101.701 73.7615 101.629L73.7785 101.758C70.8799 102.363 67.8794 102.992 65.0659 103.952L74.1525 103.089C74.1865 103.089 74.229 103.113 74.229 103.145C74.229 103.186 74.2035 103.218 74.1695 103.218L63.9949 104.162ZM65.4824 98.5548C63.6124 98.8533 61.7933 99.2244 59.9998 99.7165C63.4254 99.3535 66.8849 99.0792 70.3444 98.9017C72.121 98.6597 73.906 98.458 75.691 98.2967C75.657 98.2886 75.6315 98.2886 75.5975 98.2805C74.3055 98.1999 73.0135 98.1918 71.7555 98.1999C70.2764 98.2563 68.8059 98.3451 67.3609 98.4419C66.7404 98.4822 66.1114 98.5226 65.4824 98.5548ZM76.3965 98.337L76.4815 98.3612L76.116 98.3935C74.7475 98.5145 73.379 98.6516 72.019 98.8211C74.263 98.7242 76.507 98.6597 78.7425 98.6436C77.969 98.5064 77.187 98.4096 76.3965 98.337ZM60.6203 98.5871C61.1813 98.5871 61.7423 98.579 62.3034 98.5629C66.0944 97.8852 69.9449 97.4173 73.8125 97.1753C69.3584 97.0704 64.8704 97.5464 60.6203 98.5871ZM75.249 97.2318C71.2284 97.4334 67.2164 97.8691 63.2724 98.5387H63.2809C64.3774 98.4096 65.5249 98.3128 66.7489 98.2402C69.8174 97.8126 73.0475 97.5545 76.5835 97.3205C76.133 97.2802 75.691 97.256 75.249 97.2318ZM58.5123 96.7961C59.8978 97.0059 61.3173 96.9171 62.8899 96.7881C63.5359 96.7316 64.1649 96.6832 64.7684 96.6267C63.6294 96.6106 62.4989 96.6025 61.3598 96.6106C60.3398 96.6106 59.4048 96.6348 58.5123 96.7961ZM59.6598 96.07C60.3483 96.183 61.0623 96.1588 61.8613 96.1104C64.2584 95.9732 66.6639 95.7796 69.0609 95.5215C66.6299 95.5295 64.1394 95.5537 61.6913 95.7716C61.0283 95.8361 60.3313 95.9087 59.6598 96.07ZM58.2403 95.3117C58.4783 95.4892 58.8438 95.5376 59.1753 95.5699C60.5438 95.6747 61.9463 95.5779 63.2469 95.4569C64.2669 95.3601 65.2784 95.2472 66.2899 95.1181C65.7544 95.11 65.2189 95.102 64.6919 95.0858C63.2724 95.0536 61.8018 95.0294 60.3568 95.0294C59.5918 95.0294 58.8523 95.0536 58.2403 95.3117ZM67.1824 95.1262C66.2899 95.2552 65.3889 95.3682 64.4964 95.465C66.1964 95.4005 67.8964 95.3924 69.5624 95.3843C69.8089 95.3843 70.0554 95.3843 70.3104 95.3843C71.305 95.2714 72.291 95.1423 73.277 95.0052C71.2454 95.1423 69.1969 95.1504 67.1824 95.1262ZM60.1443 94.0371C60.2463 94.1581 60.5183 94.1661 60.7308 94.15C62.8729 93.9967 65.0404 93.8354 67.1994 93.6095C65.0829 93.5207 62.9409 93.5046 60.8498 93.8112C60.5948 93.8434 60.3143 93.8918 60.1443 94.0371ZM76.1755 93.3029C75.8355 93.3917 75.504 93.4804 75.164 93.5611C75.5295 93.5207 75.878 93.4481 76.1755 93.3029ZM59.6683 92.2542C60.1188 92.2784 60.5863 92.2703 61.0538 92.2461C61.3598 92.23 61.6573 92.2138 61.9633 92.1977C61.1983 92.1896 60.4333 92.2058 59.6683 92.2542Z" fill="#00DEE1"/>
</g>
</g>
<path d="M69.877 29.9729C69.877 29.9729 69.384 28.8596 68.7465 28.5611C68.109 28.2626 67.8285 28.1335 68.0325 28.4643C68.2365 28.795 68.8825 29.3355 68.976 29.634C69.0695 29.9325 68.2195 29.8519 68.2025 30.4246C68.177 30.9974 68.755 31.6509 69.4775 32.1188C70.2 32.5867 70.676 32.2559 71.3475 33.2079C72.019 34.1599 72.716 33.4741 72.716 33.4741C72.716 33.4741 71.1945 32.7884 70.8375 31.9413C70.472 31.0942 70.3105 30.2472 69.877 29.9729Z" fill="url(#paint8_linear)"/>
<path d="M74.7991 39.0807C76.6691 41.3154 78.7856 43.3565 81.3102 44.9216C83.4097 46.2285 84.7952 46.0591 86.5207 42.5578C87.6427 40.2828 87.2262 36.9348 88.0592 34.7647C88.4587 33.7159 87.5832 32.8688 86.1297 33.2722C85.1097 34.3855 84.5572 35.3778 84.0812 36.5072C83.8432 37.0719 83.5967 37.6286 83.3247 38.1772C83.0952 38.629 82.8317 39.4276 82.2792 39.589C82.0667 39.6535 81.8287 39.6051 81.6162 39.5406C80.7577 39.2582 80.0947 38.6532 79.4147 38.1046C78.0631 37.0235 76.5671 36.1281 75.1816 35.0874C73.8641 34.1031 72.5891 33.0544 71.3736 31.9491C70.8211 31.4409 70.4131 32.0137 70.3366 32.538C70.2516 33.1512 70.8296 33.6352 71.1441 34.1112C72.2746 35.8134 73.4731 37.4995 74.7991 39.0807Z" fill="url(#paint9_linear)"/>
<path d="M115.209 46.6563C115.753 46.5998 116.297 46.6079 116.824 46.6724C117.198 46.7127 117.572 46.7853 117.963 46.7208C118.26 46.6643 118.558 46.5272 118.864 46.5191C119.085 46.511 119.297 46.5837 119.527 46.5756C119.586 46.5756 119.663 46.5595 119.688 46.503C119.722 46.4304 119.654 46.3739 119.586 46.3416C119.255 46.1884 118.872 46.1238 118.49 46.1561C118.507 46.0835 118.6 46.0431 118.677 46.0351C119.042 45.9705 119.408 45.9544 119.765 45.9867C120.309 46.0431 120.836 46.2126 121.397 46.1319C121.422 46.0673 121.363 46.0189 121.312 45.9867C120.606 45.6317 119.833 45.3977 119.059 45.1638C118.787 45.0831 118.515 45.0024 118.226 45.0024C117.776 45.0105 117.334 45.2041 116.892 45.3413C116.73 45.3897 116.569 45.43 116.416 45.4139C116.263 45.3977 116.127 45.3251 115.974 45.2929C115.719 45.2364 115.421 45.2848 115.2 45.1557C115.166 45.1315 115.124 45.1073 115.081 45.1073C114.988 45.1073 114.92 45.2203 114.886 45.3171C114.716 45.8334 114.767 46.3981 115.03 46.8176" fill="url(#paint10_linear)"/>
<path d="M112.625 46.8339C109.233 46.8339 105.901 46.2773 103.198 45.0188C100.316 43.6796 98.319 41.5256 96.5764 39.2263C95.3014 37.8065 92.6579 31.6913 94.3664 30.3683C95.8539 31.5945 96.976 33.3613 98.3955 34.7005C100.095 36.2817 101.49 37.5644 103.309 39.1134C105.272 40.7914 108.026 42.4694 110.517 43.5828C112.098 44.3088 113.823 44.8574 115.702 45.1882C116.56 45.3334 115.838 46.1159 115.09 46.5435C114.206 47.0517 113.381 46.8339 112.625 46.8339Z" fill="url(#paint11_linear)"/>
<path d="M122.253 82.9595L125.186 85.4684L125.577 88.3001L121.344 85.0086L122.253 82.9595Z" fill="url(#paint12_linear)"/>
<path d="M125.314 86.4933C125.238 86.2271 125.093 85.9851 124.881 85.8156C124.753 85.7108 124.6 85.6382 124.464 85.5414C124.328 85.4445 124.201 85.3235 124.158 85.1702C124.141 85.1138 124.133 85.0492 124.15 84.9928C124.184 84.896 124.286 84.8314 124.388 84.8153C124.49 84.7991 124.6 84.8233 124.702 84.8475C124.94 84.904 125.17 84.9686 125.382 85.0896C125.595 85.2106 125.773 85.3881 125.85 85.614C125.926 85.8318 125.901 86.0738 125.884 86.3078C125.867 86.5901 125.85 86.8644 125.799 87.1387C125.765 87.3242 125.705 87.5098 125.612 87.6792C125.578 87.7357 125.442 88.01 125.34 87.9616C125.212 87.9051 125.374 87.3162 125.382 87.2032C125.399 86.9612 125.382 86.7192 125.314 86.4933Z" fill="#0A0652"/>
<path d="M126.437 83.7258C126.607 83.6855 126.828 83.6693 126.913 83.8145C126.956 83.8871 126.947 83.9678 126.947 84.0566C126.896 85.3554 127.534 86.5655 128.197 87.6708C128.868 88.7841 129.599 89.9055 129.778 91.1882C129.837 91.6319 129.837 92.0837 129.82 92.5354C129.812 92.6565 129.795 92.8017 129.684 92.842C129.642 92.8581 129.599 92.8581 129.557 92.8581C129.684 92.8904 129.82 92.9065 129.956 92.9227C130.007 92.9307 130.067 92.9307 130.118 92.9146C130.228 92.8662 130.254 92.721 130.254 92.6C130.271 92.1401 130.271 91.6803 130.203 91.2285C130.016 89.9216 129.676 88.6711 129.004 87.5417C128.749 87.1222 128.545 86.6704 128.426 86.1944C128.273 85.5813 128.299 84.9279 128.171 84.3067C128.12 84.0808 128.069 83.6693 127.865 83.516C127.61 83.3305 127.083 83.5483 126.811 83.6209C126.667 83.6532 126.531 83.7016 126.395 83.75C126.412 83.7339 126.42 83.7258 126.437 83.7258Z" fill="#0A0652"/>
<path d="M124.124 84.9769C124.473 85.0818 124.838 85.2028 125.11 85.4449C125.433 85.7272 125.595 86.1629 125.629 86.5904C125.663 86.9454 125.62 87.3084 125.569 87.6715C125.433 87.6231 125.289 87.5747 125.144 87.5424C124.906 87.4859 124.651 87.4698 124.43 87.5585C124.226 87.5505 124.014 87.5827 123.861 87.7118C123.801 87.7602 123.742 87.8489 123.776 87.9135C123.793 87.9458 123.818 87.9619 123.844 87.9861C124.048 88.1394 124.252 88.3169 124.473 88.4459C124.626 88.5347 124.796 88.5912 124.957 88.6718C125.433 88.93 125.875 89.2365 126.351 89.4866C126.683 89.6964 127.014 89.9142 127.286 90.1885C127.779 90.6887 128.068 91.3422 128.34 91.9795C128.451 92.2296 128.57 92.4958 128.791 92.6491C128.995 92.7943 129.258 92.8266 129.513 92.8508C129.53 92.8508 129.539 92.8508 129.556 92.8508C129.598 92.8508 129.641 92.8508 129.683 92.8346C129.794 92.7862 129.819 92.641 129.819 92.5281C129.836 92.0763 129.845 91.6245 129.777 91.1808C129.598 89.8981 128.859 88.7767 128.196 87.6634C127.524 86.5501 126.895 85.34 126.946 84.0492C126.946 83.9685 126.955 83.8798 126.912 83.8072C126.827 83.6619 126.606 83.67 126.436 83.7184C126.428 83.7184 126.411 83.7265 126.402 83.7265C125.552 83.9604 124.762 84.388 124.124 84.9769Z" fill="url(#paint13_linear)"/>
<path d="M127.134 90.1153C127.108 90.1153 127.074 90.1072 127.057 90.083C127.015 90.0426 127.023 89.9781 127.066 89.9378C127.091 89.9136 127.108 89.8652 127.125 89.8248C127.176 89.6958 127.219 89.5667 127.244 89.4376C127.27 89.3004 127.27 89.1794 127.236 89.0746C127.219 89.0181 127.253 88.9616 127.304 88.9455C127.363 88.9293 127.423 88.9616 127.44 89.01C127.482 89.1472 127.491 89.3004 127.457 89.4779C127.431 89.6231 127.372 89.7603 127.321 89.8974C127.295 89.9539 127.27 90.0346 127.202 90.0911C127.185 90.1072 127.159 90.1153 127.134 90.1153Z" fill="#ECF2FE"/>
<path d="M126.461 89.6634C126.452 89.6634 126.435 89.6634 126.427 89.6553C126.367 89.6392 126.342 89.5827 126.359 89.5262C126.461 89.2197 126.58 88.8808 126.529 88.5501C126.52 88.4936 126.563 88.4452 126.614 88.4371C126.673 88.421 126.724 88.4694 126.733 88.5178C126.792 88.897 126.665 89.2761 126.554 89.5827C126.546 89.6311 126.503 89.6634 126.461 89.6634Z" fill="#ECF2FE"/>
<path d="M125.552 89.0099C125.535 89.0099 125.518 89.0099 125.501 88.9937C125.45 88.9695 125.433 88.905 125.459 88.8566C125.578 88.6549 125.646 88.4855 125.688 88.3322C125.739 88.1386 125.748 87.953 125.705 87.7917C125.688 87.7352 125.722 87.6787 125.782 87.6707C125.842 87.6545 125.901 87.6868 125.91 87.7433C125.961 87.9369 125.961 88.1547 125.893 88.3806C125.841 88.5581 125.765 88.7275 125.646 88.9534C125.629 88.9937 125.595 89.0099 125.552 89.0099Z" fill="#ECF2FE"/>
<path d="M127.532 88.655C127.583 88.4775 127.727 88.1709 127.965 88.2355C128.042 88.2516 128.093 88.3162 128.135 88.3807C128.237 88.5501 128.331 88.7276 128.56 88.7195C128.586 88.7195 128.628 88.7115 128.637 88.6873C128.645 88.6711 128.637 88.6469 128.628 88.6308C128.441 88.2839 128.28 87.937 128.084 87.5982C127.872 87.219 127.634 86.856 127.447 86.4606C127.251 86.0653 127.124 85.6378 126.996 85.2183C126.886 84.8472 126.75 84.4761 126.741 84.0808C126.741 84.0243 126.741 83.9678 126.707 83.9194C126.648 83.8387 126.512 83.8468 126.418 83.8629C126.087 83.9356 125.764 84.113 125.475 84.2986C125.398 84.347 125.313 84.3954 125.33 84.4922C125.339 84.5809 125.407 84.6536 125.475 84.71C125.696 84.9036 125.942 85.065 126.163 85.2667C126.435 85.5168 126.656 85.8153 126.69 86.1944C126.716 86.5171 126.563 86.7914 126.393 87.0576C126.257 87.2674 126.095 87.461 125.9 87.6224C125.874 87.6466 125.849 87.6627 125.84 87.695C125.823 87.7434 125.849 87.8079 125.9 87.8321C125.951 87.8563 126.01 87.8482 126.061 87.8321C126.112 87.816 126.155 87.7756 126.206 87.7353C126.333 87.6304 126.461 87.5255 126.588 87.4287C126.622 87.3965 126.673 87.3642 126.716 87.3723C126.92 87.4045 126.843 87.8079 126.809 87.9208C126.767 88.0499 126.707 88.179 126.665 88.3081C126.656 88.3404 126.639 88.3726 126.648 88.4049C126.656 88.4372 126.665 88.4694 126.699 88.4856C126.733 88.5017 126.767 88.4936 126.801 88.4775C126.928 88.421 127.022 88.3081 127.081 88.1871C127.149 88.0499 127.158 87.8482 127.277 87.7514C127.455 87.5982 127.515 88.0741 127.506 88.1467C127.481 88.3404 127.387 88.5098 127.353 88.7034C127.345 88.7437 127.345 88.7921 127.353 88.8405C127.362 88.8567 127.37 88.8809 127.379 88.8889C127.396 88.9051 127.43 88.9131 127.455 88.897C127.506 88.8567 127.515 88.7195 127.532 88.655Z" fill="#FFB900"/>
<path d="M92.8686 51.0774C92.7156 61.0729 104.777 76.9496 121.718 85.9529C122.219 86.2191 122.466 85.3075 122.576 85.0574C122.678 84.8235 122.865 84.4443 123.035 84.2345C123.418 83.7828 123.316 83.4923 122.831 82.9679C122.415 82.5162 121.803 81.5642 121.352 81.1528C120.655 80.5154 120.273 79.8943 119.61 79.2327C118.42 78.0468 117.247 76.8448 116.099 75.6266C114.221 73.6178 112.402 71.5606 110.719 69.3985C108.177 66.1312 106.035 62.6299 104.31 58.9189C102.669 55.3935 101.309 51.755 99.8132 48.165C95.9797 49.7382 97.3312 50.6256 92.8686 51.0774Z" fill="url(#paint14_linear)"/>
<path d="M89.1715 96.3926L88.5425 100.354L86.2305 102.29L86.851 96.7556L89.1715 96.3926Z" fill="url(#paint15_linear)"/>
<path d="M87.1231 100.506C87.4121 100.498 87.7011 100.41 87.9391 100.24C88.0836 100.135 88.1941 100.006 88.3301 99.8932C88.4661 99.7803 88.6276 99.6835 88.7976 99.6754C88.8571 99.6754 88.9251 99.6835 88.9761 99.7158C89.0696 99.7722 89.1036 99.8932 89.0951 99.9981C89.0866 100.103 89.0271 100.208 88.9761 100.305C88.8571 100.522 88.7211 100.74 88.5426 100.918C88.3641 101.095 88.1261 101.232 87.8796 101.257C87.6331 101.281 87.3951 101.192 87.1656 101.119C86.8851 101.031 86.6046 100.95 86.3325 100.829C86.154 100.748 85.9755 100.644 85.831 100.506C85.78 100.458 85.542 100.256 85.6185 100.168C85.712 100.055 86.273 100.361 86.3835 100.393C86.613 100.466 86.8681 100.514 87.1231 100.506Z" fill="#0A0652"/>
<path d="M89.6479 102.298C89.6479 102.475 89.5969 102.701 89.4269 102.75C89.3419 102.774 89.2569 102.75 89.1719 102.725C87.8629 102.354 86.4434 102.685 85.1259 103.08C83.8084 103.468 82.4569 103.919 81.0883 103.79C80.6123 103.742 80.1533 103.629 79.7028 103.5C79.5838 103.468 79.4393 103.411 79.4223 103.29C79.4138 103.25 79.4308 103.201 79.4393 103.161C79.3713 103.282 79.3118 103.411 79.2608 103.54C79.2353 103.597 79.2183 103.645 79.2268 103.702C79.2438 103.823 79.3883 103.879 79.5158 103.911C79.9833 104.04 80.4508 104.153 80.9353 104.202C82.3294 104.339 83.6979 104.315 85.0409 103.919C85.5424 103.774 86.0609 103.677 86.5794 103.677C87.2424 103.677 87.9139 103.863 88.5769 103.887C88.8234 103.895 89.2569 103.944 89.4779 103.774C89.7414 103.572 89.6564 102.992 89.6649 102.701C89.6649 102.556 89.6564 102.403 89.6479 102.257C89.6394 102.274 89.6479 102.282 89.6479 102.298Z" fill="#0A0652"/>
<path d="M89.0029 99.6918C88.7989 100.015 88.5779 100.345 88.2548 100.555C87.8723 100.805 87.3878 100.854 86.9373 100.789C86.5633 100.733 86.2063 100.603 85.8493 100.466C85.9428 100.337 86.0193 100.208 86.0958 100.071C86.2148 99.8532 86.3083 99.595 86.2743 99.361C86.3423 99.1594 86.3593 98.9415 86.2743 98.756C86.2403 98.6834 86.1723 98.6108 86.0873 98.6269C86.0533 98.635 86.0278 98.6592 85.9938 98.6753C85.7813 98.8367 85.5433 98.998 85.3563 99.1836C85.2203 99.3126 85.1183 99.4659 84.9908 99.6031C84.5998 100.006 84.1578 100.378 83.7753 100.789C83.4693 101.071 83.1548 101.346 82.7978 101.547C82.1518 101.91 81.4038 102.031 80.6728 102.152C80.3838 102.201 80.0863 102.249 79.8653 102.435C79.6613 102.604 79.5593 102.862 79.4573 103.104C79.4488 103.12 79.4488 103.129 79.4403 103.145C79.4233 103.185 79.4148 103.225 79.4233 103.274C79.4403 103.395 79.5848 103.451 79.7038 103.484C80.1628 103.613 80.6218 103.726 81.0893 103.774C82.4493 103.911 83.8008 103.459 85.1268 103.064C86.4443 102.677 87.8638 102.338 89.1729 102.709C89.2579 102.733 89.3429 102.757 89.4279 102.733C89.6064 102.685 89.6489 102.459 89.6489 102.281C89.6489 102.265 89.6489 102.257 89.6489 102.241C89.6489 101.362 89.4279 100.474 89.0029 99.6918Z" fill="url(#paint16_linear)"/>
<path d="M83.9023 101.983C83.7663 101.983 83.6218 101.951 83.4773 101.886C83.3328 101.822 83.2053 101.733 83.0863 101.652C83.0353 101.62 82.9588 101.564 82.9163 101.483C82.8908 101.434 82.9163 101.37 82.9673 101.346C83.0183 101.321 83.0863 101.346 83.1118 101.394C83.1288 101.426 83.1713 101.459 83.2138 101.483C83.3243 101.564 83.4433 101.644 83.5708 101.701C83.7068 101.757 83.8258 101.789 83.9448 101.781C84.0043 101.781 84.0553 101.822 84.0553 101.878C84.0638 101.935 84.0128 101.983 83.9533 101.983C83.9448 101.983 83.9193 101.983 83.9023 101.983Z" fill="#ECF2FE"/>
<path d="M84.6663 101.41H84.6578C84.2583 101.378 83.8928 101.152 83.6123 100.966C83.5613 100.934 83.5528 100.87 83.5868 100.829C83.6208 100.781 83.6888 100.773 83.7313 100.805C84.0118 100.982 84.3348 101.184 84.6748 101.208C84.7343 101.216 84.7768 101.265 84.7683 101.313C84.7683 101.37 84.7173 101.41 84.6663 101.41Z" fill="#ECF2FE"/>
<path d="M85.6527 100.781C85.4487 100.781 85.2277 100.724 85.0152 100.612C84.8537 100.523 84.6922 100.402 84.4967 100.224C84.4542 100.184 84.4542 100.119 84.4967 100.079C84.5392 100.039 84.6072 100.039 84.6497 100.079C84.8282 100.249 84.9727 100.353 85.1257 100.434C85.3042 100.531 85.4912 100.587 85.6697 100.579C85.7292 100.579 85.7802 100.62 85.7802 100.676C85.7802 100.733 85.7377 100.781 85.6782 100.781C85.6697 100.781 85.6612 100.781 85.6527 100.781Z" fill="#ECF2FE"/>
<path d="M84.3015 102.169C84.4715 102.257 84.7435 102.475 84.6075 102.701C84.565 102.774 84.4885 102.806 84.412 102.83C84.208 102.895 84.004 102.935 83.9445 103.169C83.936 103.201 83.936 103.233 83.9615 103.25C83.9785 103.258 84.004 103.258 84.021 103.25C84.4205 103.153 84.8285 103.072 85.228 102.959C85.6701 102.838 86.1121 102.701 86.5711 102.604C87.0301 102.507 87.5061 102.483 87.9736 102.467C88.3816 102.451 88.7981 102.411 89.2061 102.491C89.2656 102.507 89.3251 102.515 89.3846 102.499C89.4866 102.459 89.5121 102.322 89.5206 102.225C89.5376 101.878 89.4441 101.507 89.3421 101.184C89.3166 101.096 89.2826 100.999 89.1806 100.991C89.0871 100.983 88.9936 101.031 88.9171 101.079C88.6621 101.249 88.4241 101.459 88.1606 101.62C87.8291 101.822 87.4636 101.975 87.0641 101.91C86.7241 101.854 86.4861 101.644 86.2651 101.41C86.0866 101.225 85.9336 101.015 85.8231 100.789C85.8061 100.757 85.7891 100.724 85.7636 100.708C85.7126 100.676 85.6445 100.692 85.602 100.733C85.5595 100.773 85.551 100.837 85.5595 100.894C85.568 100.95 85.5935 101.007 85.619 101.055C85.6871 101.209 85.7636 101.354 85.8316 101.507C85.8571 101.555 85.8741 101.604 85.8571 101.652C85.772 101.846 85.3811 101.676 85.2705 101.612C85.143 101.539 85.0325 101.451 84.9135 101.37C84.888 101.354 84.854 101.33 84.82 101.321C84.786 101.313 84.7435 101.321 84.718 101.346C84.6925 101.37 84.6925 101.418 84.701 101.451C84.718 101.588 84.8115 101.709 84.922 101.797C85.041 101.902 85.245 101.959 85.313 102.104C85.4151 102.322 84.9135 102.265 84.8455 102.233C84.6585 102.16 84.5055 102.023 84.3185 101.943C84.276 101.927 84.225 101.91 84.1825 101.91C84.1655 101.91 84.14 101.918 84.123 101.927C84.0975 101.943 84.089 101.975 84.0975 101.999C84.0975 102.096 84.242 102.136 84.3015 102.169Z" fill="#FFB900"/>
<path d="M88.7213 51.5055L86.6133 97.8932H89.4183L98.8109 51.57L88.7213 51.5055Z" fill="url(#paint17_linear)"/>
<path d="M89.3004 31.183C89.4959 31.1669 89.6829 31.1507 89.8784 31.1427C91.7824 31.0217 93.6779 30.9006 95.582 30.7716C96.296 30.7232 97.095 30.707 97.6135 31.1749C96.7125 32.4577 96.6615 34.1034 96.7465 35.6443C97.027 40.7913 98.4975 45.8738 101.014 50.44C101.311 50.9886 101.634 51.6582 101.286 52.1825C100.903 52.7715 100.002 52.7231 99.288 52.602C97.826 52.36 97.7155 51.7953 96.143 51.884C93.9754 52.0051 91.8164 52.5859 89.6744 52.8925C89.3769 52.9328 89.0539 52.9731 88.7989 52.8199C87.7279 52.1664 88.4334 49.9156 88.5524 48.9798C88.7224 47.6728 88.7649 46.3498 88.6034 45.0429C88.2039 41.824 86.5888 38.839 86.0958 35.6362C85.8918 34.297 85.2628 33.692 86.3678 32.8368C86.9883 32.3689 88.4929 31.2556 89.3004 31.183Z" fill="url(#paint18_linear)"/>
<path d="M88.414 31.7232C88.482 32.0459 88.533 32.0298 88.7285 32.3041C88.8985 32.53 89.1195 32.7236 89.4085 32.8284C89.689 32.9333 90.0375 32.9333 90.3095 32.8042C90.5135 32.7074 90.658 32.5461 90.811 32.3928C90.998 32.1992 91.202 32.0136 91.4145 31.8442C91.5335 31.7474 91.661 31.6425 91.7205 31.5054C91.78 31.3682 91.763 31.223 91.7375 31.0859C91.6525 30.4566 91.5675 29.8274 91.474 29.2062C91.4315 28.8915 91.389 28.5769 91.3465 28.2623C91.3125 28.0041 91.338 27.6088 91.202 27.391C90.1395 27.8428 89.519 27.9396 88.5245 28.4882C88.3715 28.5527 88.4735 29.6579 88.4735 29.7951C88.4735 30.3759 88.295 31.1666 88.414 31.7232Z" fill="url(#paint19_linear)"/>
<path d="M93.2857 22.3248C93.4557 23.6398 93.1072 25.0436 92.3592 26.1811C91.2967 27.7865 89.2992 29.0289 87.3272 29.3596C85.1426 29.7307 86.0607 27.6574 84.9726 27.125C83.8846 26.5925 85.3551 25.8745 85.3891 24.0835C85.3976 23.7044 85.5166 21.2277 85.6186 20.8566C86.1712 18.7832 89.3842 18.1056 91.1097 19.0656C92.4357 19.8078 93.1157 21.0179 93.2857 22.3248Z" fill="#FFCFCB"/>
<path d="M85.9656 24.3337C86.1016 24.3256 86.2376 24.3337 86.3736 24.4224C86.3991 24.4385 86.4756 24.5192 86.5011 24.5112C86.5351 24.5112 86.5436 24.4385 86.5181 24.4385C86.5521 24.4385 86.3991 24.1401 86.1101 24.1159C85.9316 24.0513 85.6426 24.0997 85.5491 24.2691C85.5406 24.2853 85.5321 24.3014 85.5406 24.3095C85.5491 24.3256 85.5746 24.3337 85.5916 24.3417C85.7276 24.3659 85.8466 24.3417 85.9656 24.3337Z" fill="#750114"/>
<path d="M85.7116 24.7694C85.7541 24.737 85.8221 24.7451 85.8646 24.7775C85.9751 24.8909 85.7881 25.0366 85.6691 24.9961C85.5586 24.9637 85.4991 24.8099 85.6181 24.7451C85.6946 24.7046 85.7966 24.7289 85.8731 24.7613" fill="#000614"/>
<path d="M86.3924 28.2707C86.3329 28.3191 86.2479 28.3594 86.1544 28.3675C85.9759 28.3917 85.7804 28.3433 85.6273 28.2949C85.5848 28.2787 85.5678 28.2384 85.5763 28.2061C85.5933 28.1658 85.6358 28.1497 85.6698 28.1577C85.8059 28.1981 85.9844 28.2465 86.1289 28.2223C86.2309 28.2061 86.3499 28.1497 86.3669 28.0286C86.3754 27.9883 86.4094 27.9641 86.4519 27.9641C86.4944 27.9722 86.5199 28.0044 86.5199 28.0448C86.5114 28.1416 86.4604 28.2142 86.3924 28.2707Z" fill="#D77E8E"/>
<path d="M107.404 30.2956C107.132 30.3359 106.86 30.3359 106.605 30.2552C106.52 30.231 106.503 30.11 106.588 30.0697C107.183 29.7712 107.804 29.513 108.441 29.2952C108.042 29.2065 107.633 29.1742 107.225 29.2145C106.35 29.3033 105.287 29.8035 104.429 29.4082C103.647 29.0532 103.604 28.0528 102.839 27.6737C102.074 27.2945 100.935 27.5365 100.408 26.7378C99.8899 25.9634 100.408 24.721 99.3544 24.2611C98.8019 24.0191 98.1134 24.2289 97.5779 23.9546C96.9574 23.6399 96.8129 22.8171 96.2179 22.454C95.7759 22.1797 95.1809 22.2201 94.7474 21.9296C94.0078 21.4375 94.2118 20.1629 93.3703 19.8079C93.1408 19.7111 92.8773 19.7353 92.6308 19.7434C92.0613 19.7514 91.7468 19.3965 91.4408 18.985C91.1603 18.622 90.8883 18.2751 90.4888 18.025C89.9108 17.6539 89.1033 17.6297 88.4403 17.7588C88.0153 17.8395 87.5903 18.0089 87.2078 18.2348C86.8508 18.4526 86.5108 18.9044 86.0433 18.9044C85.4823 18.9044 85.1762 18.2993 84.8277 17.9766C84.3772 17.5571 83.6207 17.6458 83.1277 17.9524C81.8782 18.7349 81.9377 20.3968 82.7197 21.4698C83.1107 22.0022 83.7482 22.4702 84.4282 22.696C84.5132 22.7283 84.5217 22.8493 84.4367 22.8816C84.4367 22.8816 84.4282 22.8816 84.4282 22.8897C84.2837 22.9542 83.7822 22.7364 83.8247 22.8897C83.9352 23.2769 84.3942 23.4544 84.7852 23.4544C85.1422 23.4463 85.4482 23.3172 85.7713 23.2043C86.2558 23.0429 86.4598 23.6319 86.9103 23.8578C87.3608 24.0917 88.3893 23.8416 88.4488 23.3576C88.6868 23.4302 88.4573 23.9304 88.2023 23.9546C88.3043 24.0272 88.5593 23.9788 88.7208 23.89C88.7888 23.8578 88.8653 23.882 88.8823 23.9546C88.9163 24.1805 88.9928 24.3902 89.1118 24.5919C89.1543 24.6726 89.2818 24.6645 89.3073 24.5758L89.4688 24.0998C89.4858 24.0514 89.5368 24.0191 89.5878 24.0272C90.1743 24.1563 90.4038 24.9388 90.1998 25.4954C89.9873 26.0844 89.4858 26.5442 89.1968 27.1009C88.6868 28.077 88.8908 29.3033 89.5198 30.2149C90.1488 31.1265 91.1433 31.7719 92.1973 32.2076C92.4438 32.3044 92.6903 32.4012 92.9113 32.5383C92.9283 32.5464 92.9368 32.5625 92.9453 32.5787C93.2343 33.0708 93.5318 33.5548 94.0503 33.7888C95.3084 34.3696 96.7194 33.0627 98.1134 33.2241C99.0739 33.337 99.7794 34.1115 100.621 34.5794C101.513 35.0796 102.627 35.3781 103.681 35.4103C104.386 35.4345 105.211 35.3458 105.848 35.0392C106.069 34.9343 106.639 34.6197 106.511 34.3212C106.409 34.0873 104.344 33.9663 105.168 33.5306C106.596 32.7723 110.133 32.9256 110.838 31.2153C110.864 31.1507 110.813 31.0781 110.745 31.0781C110.643 31.0781 110.549 31.0862 110.447 31.0942C110.354 31.1104 110.294 30.9974 110.354 30.9329C110.711 30.5699 111.017 29.9406 111.034 29.6098C111.042 29.384 110.898 29.1419 110.66 29.1177C110.524 29.1016 110.388 29.1661 110.269 29.2226C109.597 29.5453 108.9 29.8277 108.195 30.0778C107.948 30.1746 107.676 30.2552 107.404 30.2956Z" fill="url(#paint20_linear)"/>
<path d="M106.341 33.8051C106.094 34.0229 106.315 34.031 106.477 34.0552C106.723 34.0875 106.902 34.1359 107.14 34.2004C107.293 34.2408 107.514 34.2085 107.607 34.0633C107.267 34.0552 106.706 33.4905 106.341 33.8051Z" fill="url(#paint21_linear)"/>
<g opacity="0.31">
<g opacity="0.31">
<path opacity="0.31" d="M96.2602 25.2615C96.0562 25.4148 95.7842 25.4793 95.5121 25.4471C95.2656 25.4229 95.0616 25.318 94.9341 25.1647C94.8661 25.084 94.8236 24.9953 94.7811 24.9146C94.7046 24.7775 94.6366 24.6484 94.5006 24.5758C94.3561 24.5032 94.1776 24.5193 93.9906 24.5435C93.8631 24.5516 93.7356 24.5677 93.6081 24.5516C93.2341 24.5113 92.9791 24.2773 92.7411 24.0514C92.5116 23.8336 92.2991 23.6319 91.9931 23.5916C91.7381 23.5512 91.4746 23.6319 91.2111 23.7045C91.1431 23.7206 91.0751 23.7448 91.0071 23.761C90.7861 23.8175 90.2506 23.9223 89.9701 23.6319C89.7916 23.4464 89.8001 23.1963 89.8171 22.9462C89.8256 22.8332 89.8341 22.7122 89.8171 22.6073C89.8001 22.4944 89.7321 22.3572 89.6046 22.3411C89.5451 22.333 89.4686 22.3492 89.3921 22.3653C89.1371 22.4379 88.8481 22.6235 88.5676 22.801C88.1766 23.051 87.8366 23.2689 87.6071 23.1479C87.5731 23.1317 87.5561 23.0833 87.5731 23.051C87.5901 23.0188 87.6411 23.0026 87.6751 23.0188C87.8281 23.0995 88.1511 22.8816 88.4741 22.6799C88.7631 22.4944 89.0606 22.3008 89.3411 22.2282C89.4261 22.204 89.5281 22.1798 89.6216 22.1959C89.8341 22.2282 89.9446 22.4299 89.9616 22.5912C89.9786 22.7122 89.9701 22.8332 89.9616 22.9542C89.9446 23.1721 89.9361 23.3818 90.0721 23.527C90.2931 23.761 90.7691 23.6642 90.9561 23.6158C91.0241 23.5996 91.0921 23.5754 91.1601 23.5593C91.4406 23.4786 91.7211 23.3979 92.0101 23.4383C92.3586 23.4948 92.6051 23.7206 92.8431 23.9385C93.0811 24.1563 93.3021 24.366 93.6251 24.3983C93.7356 24.4064 93.8546 24.3983 93.9736 24.3902C94.1776 24.3741 94.3901 24.3499 94.5686 24.4386C94.7471 24.5274 94.8321 24.6887 94.9086 24.842C94.9511 24.9227 94.9936 25.0034 95.0446 25.0679C95.1466 25.1889 95.3166 25.2777 95.5206 25.2938C95.7501 25.318 95.9882 25.2615 96.1582 25.1405C96.1922 25.1163 96.2432 25.1244 96.2687 25.1486C96.3027 25.197 96.2942 25.2373 96.2602 25.2615Z" fill="url(#paint22_linear)"/>
</g>
<g opacity="0.31">
<path opacity="0.31" d="M92.6654 23.0995C92.6569 23.1076 92.6484 23.1076 92.6399 23.1157C92.4104 23.1883 92.1469 23.1076 91.8919 22.8817L91.8324 22.8252C91.6879 22.6881 91.5349 22.5509 91.3394 22.5348C91.2034 22.5187 91.0589 22.5671 90.9144 22.6074C90.8719 22.6235 90.8294 22.6316 90.7869 22.6477C90.6254 22.6881 90.3364 22.7446 90.1579 22.5832C90.0304 22.4703 90.0304 22.3089 90.0219 22.1637C90.0219 22.1153 90.0219 22.0669 90.0134 22.0266C89.9709 21.6797 89.5714 21.4054 89.1039 21.3973C88.6874 21.3892 88.2454 21.5586 87.8714 21.8894C87.5314 22.1879 87.3699 22.4219 87.1574 22.7768C87.1319 22.8091 87.0894 22.8252 87.0554 22.801C87.0214 22.7849 87.0044 22.7365 87.0299 22.7042C87.2509 22.3412 87.4124 22.0911 87.7694 21.7765C88.1689 21.4296 88.6534 21.2359 89.1039 21.244C89.6394 21.2521 90.1069 21.5909 90.1664 22.0024C90.1749 22.0508 90.1749 22.1072 90.1749 22.1556C90.1749 22.2766 90.1834 22.3977 90.2599 22.4703C90.3874 22.5832 90.6424 22.5267 90.7444 22.5025C90.7869 22.4945 90.8294 22.4783 90.8634 22.4703C91.0249 22.4219 91.1864 22.3735 91.3564 22.3896C91.6114 22.4138 91.7814 22.5751 91.9429 22.7204L92.0024 22.7768C92.1214 22.8817 92.3594 23.0511 92.5889 22.9785C92.6314 22.9624 92.6739 22.9866 92.6824 23.0269C92.6994 23.0511 92.6909 23.0834 92.6654 23.0995Z" fill="url(#paint23_linear)"/>
</g>
<g opacity="0.31">
<path opacity="0.31" d="M86.1453 23.0594C86.1283 23.0675 86.1113 23.0755 86.0943 23.0755C86.0518 23.0755 86.0178 23.0433 86.0178 23.0029C86.0178 22.777 86.0263 22.535 85.9583 22.3172C85.8903 22.0832 85.7458 21.8977 85.5503 21.8089C85.4482 21.7605 85.3377 21.7363 85.2187 21.7041C85.0997 21.6718 84.9722 21.6476 84.8617 21.5911C84.7087 21.5185 84.5897 21.3652 84.5642 21.22C84.5472 21.1071 84.5897 21.0103 84.6747 20.9377C84.7087 20.9135 84.7512 20.9135 84.7852 20.9457C84.8107 20.978 84.8107 21.0183 84.7767 21.0506C84.7257 21.0909 84.7087 21.1474 84.7172 21.2039C84.7342 21.3007 84.8192 21.4136 84.9297 21.462C85.0317 21.5104 85.1422 21.5347 85.2612 21.5669C85.3887 21.5992 85.5163 21.6234 85.6268 21.6799C85.8563 21.7928 86.0348 22.0026 86.1113 22.2769C86.1793 22.5108 86.1793 22.7609 86.1793 23.0029C86.1793 23.0271 86.1623 23.0433 86.1453 23.0594Z" fill="url(#paint24_linear)"/>
</g>
<g opacity="0.31">
<path opacity="0.31" d="M86.1448 23.0591C86.1278 23.0753 86.1023 23.0833 86.0768 23.0753C86.0343 23.0672 86.0088 23.0269 86.0173 22.9865C86.0513 22.8575 86.1363 22.7848 86.2213 22.7203C86.3828 22.5912 86.5783 22.4379 86.4763 21.6635C86.4593 21.5586 86.4253 21.4537 86.3828 21.3408C86.3318 21.1875 86.2723 21.0342 86.2808 20.8648C86.2893 20.5663 86.5273 20.2194 86.8843 20.1871C86.9268 20.1871 86.9608 20.2113 86.9693 20.2517C86.9693 20.292 86.9438 20.3243 86.9013 20.3323C86.6293 20.3565 86.4423 20.6308 86.4338 20.8729C86.4253 21.0181 86.4763 21.1472 86.5273 21.2924C86.5698 21.4053 86.6123 21.5183 86.6293 21.6473C86.7398 22.5025 86.5103 22.6961 86.3233 22.8332C86.2468 22.8897 86.1958 22.9381 86.1703 23.0188C86.1703 23.0349 86.1618 23.0511 86.1448 23.0591Z" fill="url(#paint25_linear)"/>
</g>
<g opacity="0.31">
<path opacity="0.31" d="M94.4839 32.2802L94.4754 32.2883C94.4414 32.3125 94.3904 32.2963 94.3734 32.2641C94.1269 31.8768 93.7529 31.5622 93.3959 31.2556C93.2769 31.1588 93.1664 31.062 93.0559 30.9571C92.4354 30.3924 92.1209 29.8761 92.1124 29.3759C92.1039 29.0532 92.2314 28.7547 92.3504 28.4724L92.3589 28.4562C92.4864 28.1578 92.5884 27.8835 92.5714 27.585C92.5459 27.3107 92.3674 26.9718 92.0529 26.867C92.0104 26.8508 91.9934 26.8105 92.0104 26.7702C92.0274 26.7298 92.0699 26.7137 92.1124 26.7298C92.5034 26.8589 92.7074 27.2623 92.7329 27.5769C92.7584 27.8996 92.6394 28.2062 92.5119 28.5127L92.5034 28.5289C92.3844 28.7951 92.2654 29.0774 92.2739 29.3759C92.2824 29.8277 92.5799 30.3198 93.1664 30.8523C93.2769 30.9491 93.3874 31.0459 93.5064 31.1427C93.8719 31.4573 94.2544 31.78 94.5094 32.1834C94.5179 32.2157 94.5094 32.256 94.4839 32.2802Z" fill="url(#paint26_linear)"/>
</g>
<g opacity="0.31">
<path opacity="0.31" d="M104.668 32.151C104.659 32.1591 104.651 32.1671 104.634 32.1671C104.115 32.2962 103.554 32.0219 103.435 31.5863C103.427 31.5459 103.452 31.5056 103.486 31.4975C103.529 31.4895 103.571 31.5137 103.58 31.5459C103.682 31.9009 104.166 32.1349 104.591 32.0219C104.634 32.0139 104.676 32.0381 104.685 32.0703C104.702 32.1026 104.693 32.1349 104.668 32.151Z" fill="url(#paint27_linear)"/>
</g>
</g>
<g opacity="0.35">
<g opacity="0.35">
<path opacity="0.35" d="M87.487 19.6467C87.47 19.6628 87.4361 19.6709 87.4106 19.6628C87.368 19.6467 87.351 19.6063 87.3595 19.566C87.4445 19.3159 87.5635 19.0658 87.7676 18.8964C87.8271 18.848 87.8951 18.8076 87.9631 18.7754C88.0396 18.7431 88.1246 18.7189 88.2096 18.7108C88.2521 18.7028 88.2861 18.735 88.2946 18.7754C88.2946 18.8157 88.2691 18.848 88.2266 18.8561C88.1586 18.8641 88.0906 18.8803 88.0226 18.9045C87.9631 18.9287 87.9121 18.9609 87.8611 19.0013C87.6826 19.1465 87.5806 19.3804 87.4956 19.6063C87.5041 19.6225 87.4955 19.6386 87.487 19.6467Z" fill="url(#paint28_linear)"/>
</g>
<g opacity="0.35">
<path opacity="0.35" d="M98.6216 30.0214C98.6131 30.0294 98.5961 30.0375 98.5791 30.0375C98.3241 30.0617 98.0521 29.9488 97.8566 29.731C97.8226 29.6906 97.7971 29.6583 97.7801 29.6341C97.7546 29.6019 97.7631 29.5535 97.7971 29.5293C97.8311 29.5051 97.8821 29.5131 97.9076 29.5454C97.9246 29.5696 97.9501 29.5938 97.9671 29.618C98.1371 29.8116 98.3581 29.9084 98.5621 29.8842C98.6046 29.8842 98.6386 29.9084 98.6471 29.9488C98.6471 29.9891 98.6386 30.0133 98.6216 30.0214ZM97.2446 28.658C97.2106 28.6822 97.1681 28.6822 97.1341 28.6499C96.8791 28.3756 96.5476 28.1336 96.1821 27.9723C96.1481 27.9561 96.1311 27.9077 96.1481 27.8754C96.1651 27.8432 96.2161 27.827 96.2501 27.8432C96.6326 28.0207 96.9811 28.2627 97.2531 28.5612C97.2786 28.5854 97.2786 28.6338 97.2446 28.658ZM95.1026 27.577C95.0771 27.5931 95.0516 27.6012 95.0261 27.585C94.8561 27.5124 94.7201 27.4317 94.6096 27.3349C94.5841 27.3107 94.5586 27.2865 94.5416 27.2623C94.3886 27.0929 94.3121 26.8993 94.2271 26.6734C94.2101 26.6331 94.2356 26.5927 94.2696 26.5766C94.3121 26.5605 94.3546 26.5847 94.3716 26.6169C94.4481 26.8267 94.5331 27.0122 94.6606 27.1574C94.6776 27.1816 94.7031 27.1978 94.7201 27.222C94.8136 27.3107 94.9326 27.3833 95.0856 27.4398C95.1281 27.4559 95.1451 27.4963 95.1281 27.5366C95.1196 27.5608 95.1196 27.5689 95.1026 27.577ZM93.6236 25.8183C93.5981 25.8344 93.5726 25.8425 93.5471 25.8263C93.2071 25.6972 92.7736 25.6972 92.3656 25.7134C92.3231 25.7134 92.2891 25.6811 92.2891 25.6408C92.2891 25.6004 92.3231 25.5682 92.3656 25.5682C92.7991 25.552 93.2496 25.544 93.6151 25.6892C93.6576 25.7053 93.6746 25.7456 93.6576 25.786C93.6406 25.8021 93.6321 25.8102 93.6236 25.8183Z" fill="url(#paint29_linear)"/>
</g>
<g opacity="0.35">
<path opacity="0.35" d="M99.149 32.3043C99.149 32.3124 99.1405 32.3124 99.149 32.3043C99.115 32.3285 99.081 32.3446 99.047 32.3608C99.013 32.3769 98.962 32.3688 98.945 32.3285C98.928 32.2962 98.9365 32.2478 98.979 32.2317C99.0045 32.2156 99.0385 32.1994 99.064 32.1833C99.098 32.1591 99.149 32.1672 99.1745 32.2075C99.183 32.2398 99.1745 32.2882 99.149 32.3043ZM97.8655 32.4011C97.8485 32.4172 97.8145 32.4253 97.789 32.4172C97.5765 32.3366 97.381 32.2236 97.2025 32.0703C97.16 32.03 97.109 31.9897 97.075 31.9493C96.9645 31.8283 96.905 31.7073 96.8965 31.5782C96.8965 31.5379 96.922 31.5056 96.9645 31.4976C97.007 31.4976 97.041 31.5218 97.0495 31.5621C97.058 31.6589 97.1005 31.7476 97.194 31.8525C97.228 31.8929 97.2705 31.9251 97.313 31.9655C97.4745 32.1107 97.6615 32.2156 97.857 32.2882C97.8995 32.3043 97.9165 32.3446 97.8995 32.385C97.8825 32.385 97.874 32.393 97.8655 32.4011Z" fill="url(#paint30_linear)"/>
</g>
<g opacity="0.35">
<path opacity="0.35" d="M104.071 32.8773C104.062 32.8773 104.062 32.8854 104.054 32.8854C103.782 33.0064 103.501 33.0871 103.204 33.1274C103.093 33.1435 102.991 33.1516 102.898 33.1516C102.855 33.1516 102.821 33.1193 102.821 33.079C102.821 33.0386 102.855 33.0064 102.898 33.0064C102.983 33.0064 103.076 32.9983 103.187 32.9822C103.467 32.9418 103.739 32.8692 103.994 32.7482C104.037 32.7321 104.079 32.7482 104.096 32.7805C104.105 32.8208 104.096 32.8531 104.071 32.8773ZM101.886 32.6111C101.861 32.6353 101.81 32.6353 101.784 32.6111L101.691 32.5304C101.419 32.2964 101.155 32.0706 100.824 31.9173C100.79 31.9011 100.773 31.8527 100.79 31.8205C100.807 31.7882 100.858 31.7721 100.892 31.7882C101.24 31.9495 101.521 32.1916 101.793 32.4255L101.886 32.5062C101.92 32.5223 101.92 32.5707 101.886 32.6111C101.886 32.603 101.886 32.603 101.886 32.6111Z" fill="url(#paint31_linear)"/>
</g>
<g opacity="0.35">
<path opacity="0.35" d="M109.128 30.554C109.052 30.6186 108.967 30.6831 108.882 30.7476C108.848 30.7718 108.797 30.7638 108.771 30.7396C108.746 30.7073 108.754 30.667 108.78 30.6347C109.018 30.4572 109.239 30.2636 109.46 30.078C109.494 30.0538 109.536 30.0538 109.57 30.0861C109.596 30.1184 109.596 30.1587 109.562 30.191C109.434 30.312 109.281 30.433 109.128 30.554ZM107.845 31.3688C107.836 31.3769 107.836 31.3769 107.828 31.3769C107.785 31.393 107.751 31.4092 107.709 31.4253C107.479 31.514 107.301 31.5544 107.139 31.5624C106.91 31.5705 106.706 31.4979 106.587 31.3688C106.561 31.3366 106.561 31.2962 106.595 31.264C106.629 31.2397 106.672 31.2397 106.706 31.272C106.799 31.3688 106.961 31.4253 107.139 31.4172C107.292 31.4172 107.445 31.3769 107.658 31.2962C107.692 31.2801 107.734 31.264 107.768 31.2478C107.811 31.2317 107.853 31.2478 107.87 31.2801C107.879 31.3124 107.87 31.3446 107.845 31.3688Z" fill="url(#paint32_linear)"/>
</g>
<g opacity="0.35">
<path opacity="0.35" d="M84.5207 21.3406C84.5122 21.3486 84.5037 21.3486 84.4952 21.3567C84.4102 21.389 84.1892 21.389 83.9937 21.397H83.9512C83.8237 21.397 83.7131 21.3567 83.6536 21.2841C83.6451 21.276 83.6366 21.268 83.6281 21.2599C83.5856 21.1954 83.5771 21.1147 83.5941 21.0098C83.6111 20.9372 83.6366 20.8727 83.6706 20.8081C83.6877 20.7678 83.7386 20.7597 83.7726 20.7759C83.8066 20.792 83.8237 20.8404 83.8067 20.8727C83.7811 20.9291 83.7556 20.9775 83.7471 21.034C83.7301 21.0986 83.7387 21.147 83.7557 21.1792C83.7982 21.2276 83.8661 21.2518 83.9427 21.2518H83.9937C84.0957 21.2518 84.3762 21.2438 84.4442 21.2196C84.4867 21.2034 84.5292 21.2276 84.5462 21.268C84.5547 21.2922 84.5462 21.3244 84.5207 21.3406Z" fill="url(#paint33_linear)"/>
</g>
</g>
<path d="M89.3418 24.0192C89.3418 24.0192 89.6478 23.3576 90.3023 24.0272C90.9568 24.7049 90.8038 25.8101 90.3108 25.8989C89.8263 25.9957 89.3503 26.0038 89.3503 26.0038L89.3418 24.0192Z" fill="#FFCFCB"/>
<path d="M41.5 47C41.5 48.4834 41.0601 49.9334 40.236 51.1668C39.4119 52.4002 38.2406 53.3615 36.8701 53.9291C35.4997 54.4968 33.9917 54.6453 32.5368 54.3559C31.082 54.0665 29.7456 53.3522 28.6967 52.3033C27.6478 51.2544 26.9335 49.9181 26.6441 48.4632C26.3547 47.0084 26.5032 45.5004 27.0709 44.1299C27.6386 42.7595 28.5999 41.5881 29.8332 40.764C31.0666 39.9399 32.5166 39.5 34 39.5C34.9858 39.4967 35.9626 39.6885 36.874 40.0642C37.7855 40.44 38.6136 40.9923 39.3107 41.6894C40.0078 42.3865 40.5601 43.2146 40.9358 44.126C41.3116 45.0374 41.5033 46.0142 41.5 47Z" fill="url(#paint34_linear)"/>
<path d="M39.5246 52.0664C38.8221 52.8317 37.9682 53.4427 37.0171 53.8607C36.066 54.2787 35.0385 54.4945 33.9996 54.4945C32.9607 54.4945 31.9332 54.2787 30.9821 53.8607C30.031 53.4427 29.1772 52.8317 28.4746 52.0664C28.8553 51.2054 29.4462 50.4538 30.1933 49.8808C30.9403 49.3078 31.8193 48.9318 32.7496 48.7873C32.1553 48.4996 31.6763 48.0188 31.3907 47.4235C31.1051 46.8282 31.03 46.1537 31.1776 45.5101C31.3251 44.8666 31.6867 44.2922 32.2031 43.8808C32.7195 43.4694 33.3602 43.2454 34.0204 43.2454C34.6807 43.2454 35.3214 43.4694 35.8378 43.8808C36.3542 44.2922 36.7157 44.8666 36.8633 45.5101C37.0109 46.1537 36.9358 46.8282 36.6502 47.4235C36.3646 48.0188 35.8855 48.4996 35.2913 48.7873C36.2141 48.9383 37.0846 49.3173 37.8239 49.8899C38.5631 50.4625 39.1477 51.2107 39.5246 52.0664Z" fill="url(#paint35_linear)"/>
<path d="M116.409 39.5804H130.765C132.635 39.5804 134.174 38.1283 134.174 36.3454V21.235C134.174 19.4602 132.644 18 130.765 18H116.409C114.539 18 113 19.4521 113 21.235V36.3454C113 38.1283 114.539 39.5804 116.409 39.5804Z" fill="url(#paint36_linear)"/>
<path d="M131.119 28.9122C131.119 30.3955 130.679 31.8456 129.855 33.0789C129.031 34.3123 127.86 35.2736 126.489 35.8412C125.119 36.4089 123.611 36.5574 122.156 36.268C120.701 35.9787 119.365 35.2643 118.316 34.2155C117.267 33.1666 116.553 31.8302 116.263 30.3753C115.974 28.9205 116.122 27.4125 116.69 26.042C117.258 24.6716 118.219 23.5002 119.452 22.6761C120.686 21.852 122.136 21.4122 123.619 21.4122C124.605 21.4088 125.582 21.6006 126.493 21.9763C127.405 22.3521 128.233 22.9044 128.93 23.6015C129.627 24.2986 130.179 25.1267 130.555 26.0381C130.931 26.9496 131.122 27.9263 131.119 28.9122Z" fill="url(#paint37_linear)"/>
<path d="M129.144 33.9786C128.441 34.7439 127.587 35.3549 126.636 35.7728C125.685 36.1908 124.658 36.4066 123.619 36.4066C122.58 36.4066 121.552 36.1908 120.601 35.7728C119.65 35.3549 118.796 34.7439 118.094 33.9786C118.474 33.1175 119.065 32.3659 119.812 31.7929C120.559 31.2199 121.438 30.8439 122.369 30.6994C121.774 30.4117 121.295 29.9309 121.01 29.3356C120.724 28.7403 120.649 28.0658 120.797 27.4222C120.944 26.7787 121.306 26.2043 121.822 25.7929C122.339 25.3815 122.979 25.1575 123.64 25.1575C124.3 25.1575 124.941 25.3815 125.457 25.7929C125.973 26.2043 126.335 26.7787 126.482 27.4222C126.63 28.0658 126.555 28.7403 126.269 29.3356C125.984 29.9309 125.505 30.4117 124.91 30.6994C125.833 30.8504 126.704 31.2294 127.443 31.802C128.182 32.3746 128.767 33.1228 129.144 33.9786Z" fill="url(#paint38_linear)"/>
<defs>
<linearGradient id="paint0_linear" x1="91.7296" y1="99.7621" x2="92.4036" y2="14.0822" gradientUnits="userSpaceOnUse">
<stop stop-color="#CDDBFF"/>
<stop offset="1" stop-color="white"/>
</linearGradient>
<linearGradient id="paint1_linear" x1="31.6314" y1="46.8403" x2="66.9998" y2="47.5347" gradientUnits="userSpaceOnUse">
<stop stop-color="#BDCFFF"/>
<stop offset="0.1676" stop-color="#CDDBFF"/>
<stop offset="1" stop-color="white"/>
</linearGradient>
<linearGradient id="paint2_linear" x1="26.8272" y1="71.5907" x2="41.1151" y2="71.5907" gradientUnits="userSpaceOnUse">
<stop stop-color="#00DEE1"/>
<stop offset="1" stop-color="#00E8EA"/>
</linearGradient>
<linearGradient id="paint3_linear" x1="26.8259" y1="71.5912" x2="41.1139" y2="71.5912" gradientUnits="userSpaceOnUse">
<stop stop-color="#00DEE1"/>
<stop offset="1" stop-color="#00E8EA"/>
</linearGradient>
<linearGradient id="paint4_linear" x1="65.7761" y1="28.3795" x2="71.9187" y2="28.3795" gradientUnits="userSpaceOnUse">
<stop stop-color="#934DE6"/>
<stop offset="1" stop-color="#6229CE"/>
</linearGradient>
<linearGradient id="paint5_linear" x1="43.4894" y1="19.4426" x2="49.632" y2="19.4426" gradientUnits="userSpaceOnUse">
<stop stop-color="#00DEE1"/>
<stop offset="1" stop-color="#00E8EA"/>
</linearGradient>
<linearGradient id="paint6_linear" x1="58.9847" y1="10.5058" x2="65.1273" y2="10.5058" gradientUnits="userSpaceOnUse">
<stop stop-color="#FF7A46"/>
<stop offset="1" stop-color="#FF5946"/>
</linearGradient>
<linearGradient id="paint7_linear" x1="136.24" y1="55.7112" x2="109.735" y2="55.7112" gradientUnits="userSpaceOnUse">
<stop stop-color="#00DEE1"/>
<stop offset="1" stop-color="#00E8EA"/>
</linearGradient>
<linearGradient id="paint8_linear" x1="67.8544" y1="28.9313" x2="75.2966" y2="38.468" gradientUnits="userSpaceOnUse">
<stop stop-color="#FFCFCB"/>
<stop offset="1" stop-color="#D77E8E"/>
</linearGradient>
<linearGradient id="paint9_linear" x1="70.3281" y1="38.712" x2="88.156" y2="38.712" gradientUnits="userSpaceOnUse">
<stop stop-color="#DA22FF"/>
<stop offset="1" stop-color="#9733EE"/>
</linearGradient>
<linearGradient id="paint10_linear" x1="117.826" y1="45.9013" x2="115.91" y2="42.8741" gradientUnits="userSpaceOnUse">
<stop stop-color="#FFCFCB"/>
<stop offset="1" stop-color="#D77E8E"/>
</linearGradient>
<linearGradient id="paint11_linear" x1="93.8086" y1="38.6243" x2="116.091" y2="38.6243" gradientUnits="userSpaceOnUse">
<stop stop-color="#DA22FF"/>
<stop offset="1" stop-color="#9733EE"/>
</linearGradient>
<linearGradient id="paint12_linear" x1="123.254" y1="85.698" x2="126.011" y2="85.3844" gradientUnits="userSpaceOnUse">
<stop stop-color="#FFCFCB"/>
<stop offset="1" stop-color="#D77E8E"/>
</linearGradient>
<linearGradient id="paint13_linear" x1="125.057" y1="84.1285" x2="127.769" y2="93.4053" gradientUnits="userSpaceOnUse">
<stop stop-color="#FF7A46"/>
<stop offset="1" stop-color="#FF5946"/>
</linearGradient>
<linearGradient id="paint14_linear" x1="113.651" y1="78.7308" x2="76.8264" y2="17.2865" gradientUnits="userSpaceOnUse">
<stop stop-color="#0A0652"/>
<stop offset="0.9851" stop-color="#310477"/>
</linearGradient>
<linearGradient id="paint15_linear" x1="87.2881" y1="98.841" x2="89.0509" y2="101.18" gradientUnits="userSpaceOnUse">
<stop stop-color="#FFCFCB"/>
<stop offset="1" stop-color="#D77E8E"/>
</linearGradient>
<linearGradient id="paint16_linear" x1="89.5867" y1="100.967" x2="79.3284" y2="101.462" gradientUnits="userSpaceOnUse">
<stop stop-color="#FF7A46"/>
<stop offset="1" stop-color="#FF5946"/>
</linearGradient>
<linearGradient id="paint17_linear" x1="86.6156" y1="74.6981" x2="98.811" y2="74.6981" gradientUnits="userSpaceOnUse">
<stop stop-color="#0A0652"/>
<stop offset="0.9851" stop-color="#310477"/>
</linearGradient>
<linearGradient id="paint18_linear" x1="85.7324" y1="41.8388" x2="101.437" y2="41.8388" gradientUnits="userSpaceOnUse">
<stop stop-color="#DA22FF"/>
<stop offset="1" stop-color="#9733EE"/>
</linearGradient>
<linearGradient id="paint19_linear" x1="90.9769" y1="33.7375" x2="88.5393" y2="22.5388" gradientUnits="userSpaceOnUse">
<stop stop-color="#FFCFCB"/>
<stop offset="1" stop-color="#D77E8E"/>
</linearGradient>
<linearGradient id="paint20_linear" x1="82.1562" y1="26.551" x2="111.034" y2="26.551" gradientUnits="userSpaceOnUse">
<stop stop-color="#005C97"/>
<stop offset="1" stop-color="#363795"/>
</linearGradient>
<linearGradient id="paint21_linear" x1="106.23" y1="33.9631" x2="107.607" y2="33.9631" gradientUnits="userSpaceOnUse">
<stop stop-color="#005C97"/>
<stop offset="1" stop-color="#363795"/>
</linearGradient>
<linearGradient id="paint22_linear" x1="87.5664" y1="23.8229" x2="96.2903" y2="23.8229" gradientUnits="userSpaceOnUse">
<stop stop-color="#005C97"/>
<stop offset="1" stop-color="#363795"/>
</linearGradient>
<linearGradient id="paint23_linear" x1="87.0176" y1="22.1927" x2="92.6912" y2="22.1927" gradientUnits="userSpaceOnUse">
<stop stop-color="#005C97"/>
<stop offset="1" stop-color="#363795"/>
</linearGradient>
<linearGradient id="paint24_linear" x1="84.5605" y1="21.998" x2="86.1793" y2="21.998" gradientUnits="userSpaceOnUse">
<stop stop-color="#005C97"/>
<stop offset="1" stop-color="#363795"/>
</linearGradient>
<linearGradient id="paint25_linear" x1="86.0156" y1="21.6328" x2="86.9693" y2="21.6328" gradientUnits="userSpaceOnUse">
<stop stop-color="#005C97"/>
<stop offset="1" stop-color="#363795"/>
</linearGradient>
<linearGradient id="paint26_linear" x1="92.0039" y1="29.5118" x2="94.5126" y2="29.5118" gradientUnits="userSpaceOnUse">
<stop stop-color="#005C97"/>
<stop offset="1" stop-color="#363795"/>
</linearGradient>
<linearGradient id="paint27_linear" x1="103.434" y1="31.8476" x2="104.694" y2="31.8476" gradientUnits="userSpaceOnUse">
<stop stop-color="#005C97"/>
<stop offset="1" stop-color="#363795"/>
</linearGradient>
<linearGradient id="paint28_linear" x1="87.3574" y1="19.1878" x2="88.2946" y2="19.1878" gradientUnits="userSpaceOnUse">
<stop stop-color="#005C97"/>
<stop offset="1" stop-color="#363795"/>
</linearGradient>
<linearGradient id="paint29_linear" x1="92.2891" y1="27.8002" x2="98.6471" y2="27.8002" gradientUnits="userSpaceOnUse">
<stop stop-color="#005C97"/>
<stop offset="1" stop-color="#363795"/>
</linearGradient>
<linearGradient id="paint30_linear" x1="96.8965" y1="31.959" x2="99.1777" y2="31.959" gradientUnits="userSpaceOnUse">
<stop stop-color="#005C97"/>
<stop offset="1" stop-color="#363795"/>
</linearGradient>
<linearGradient id="paint31_linear" x1="100.783" y1="32.4667" x2="104.1" y2="32.4667" gradientUnits="userSpaceOnUse">
<stop stop-color="#005C97"/>
<stop offset="1" stop-color="#363795"/>
</linearGradient>
<linearGradient id="paint32_linear" x1="106.568" y1="30.8119" x2="109.588" y2="30.8119" gradientUnits="userSpaceOnUse">
<stop stop-color="#005C97"/>
<stop offset="1" stop-color="#363795"/>
</linearGradient>
<linearGradient id="paint33_linear" x1="83.5859" y1="21.0826" x2="84.5494" y2="21.0826" gradientUnits="userSpaceOnUse">
<stop stop-color="#005C97"/>
<stop offset="1" stop-color="#363795"/>
</linearGradient>
<linearGradient id="paint34_linear" x1="25" y1="52.5" x2="172.624" y2="5.89227" gradientUnits="userSpaceOnUse">
<stop stop-color="#BDCFFF"/>
<stop offset="0.1676" stop-color="#CDDBFF"/>
<stop offset="1" stop-color="white"/>
</linearGradient>
<linearGradient id="paint35_linear" x1="20.1107" y1="80.3333" x2="44.1112" y2="24.27" gradientUnits="userSpaceOnUse">
<stop stop-color="#BDCFFF"/>
<stop offset="0.1676" stop-color="#CDDBFF"/>
<stop offset="1" stop-color="white"/>
</linearGradient>
<linearGradient id="paint36_linear" x1="121.249" y1="28.7524" x2="156.617" y2="29.4468" gradientUnits="userSpaceOnUse">
<stop stop-color="#BDCFFF"/>
<stop offset="0.1676" stop-color="#CDDBFF"/>
<stop offset="1" stop-color="white"/>
</linearGradient>
<linearGradient id="paint37_linear" x1="91.0005" y1="41.5" x2="232.127" y2="-6.125" gradientUnits="userSpaceOnUse">
<stop stop-color="#BDCFFF"/>
<stop offset="0.582048" stop-color="#97B4FF"/>
<stop offset="1" stop-color="white"/>
</linearGradient>
<linearGradient id="paint38_linear" x1="109.73" y1="62.2454" x2="133.73" y2="6.18208" gradientUnits="userSpaceOnUse">
<stop stop-color="#BDCFFF"/>
<stop offset="0.1676" stop-color="#CDDBFF"/>
<stop offset="1" stop-color="white"/>
</linearGradient>
</defs>
</svg>
