<svg width="24" height="24" viewBox="0 0 24 24" fill="none" xmlns="http://www.w3.org/2000/svg">
<path d="M20.5197 3.449C18.2398 1.245 15.2398 0 12.0449 0C2.87496 0 -2.88296 9.935 1.69598 17.838L0 24L6.33492 22.348C9.09489 23.839 11.3559 23.707 12.0508 23.795C22.6837 23.795 27.9767 10.931 20.5047 3.488L20.5197 3.449Z" fill="white"/>
<path d="M12.067 21.7512L12.061 21.7502H12.045C8.86304 21.7502 6.83007 20.2432 6.63007 20.1562L2.88012 21.1312L3.88511 17.4862L3.64611 17.1112C2.65612 15.5352 2.13013 13.7202 2.13013 11.8512C2.13013 3.05821 12.875 -1.33879 19.0929 4.87621C25.2958 11.0262 20.9409 21.7512 12.067 21.7512Z" fill="#4CAF50"/>
<path d="M17.507 14.3072L17.498 14.3822C17.197 14.2322 15.731 13.5152 15.458 13.4162C14.845 13.1892 15.018 13.3802 13.841 14.7282C13.666 14.9232 13.492 14.9382 13.195 14.8032C12.8951 14.6532 11.9321 14.3382 10.7921 13.3182C9.90409 12.5232 9.3081 11.5482 9.1321 11.2482C8.8391 10.7422 9.45209 10.6702 10.0101 9.61417C10.1101 9.40417 10.0591 9.23917 9.98509 9.09017C9.91009 8.94017 9.3131 7.47017 9.0631 6.88417C8.8231 6.30017 8.57611 6.37417 8.39111 6.37417C7.81511 6.32417 7.39412 6.33217 7.02312 6.71817C5.40914 8.49217 5.81614 10.3222 7.19712 12.2682C9.91109 15.8202 11.3571 16.4742 14.001 17.3822C14.715 17.6092 15.366 17.5772 15.881 17.5032C16.455 17.4122 17.648 16.7822 17.897 16.0772C18.152 15.3722 18.152 14.7872 18.077 14.6522C18.003 14.5172 17.807 14.4422 17.507 14.3072Z" fill="#FAFAFA"/>
</svg>
