<svg width="24" height="24" viewBox="0 0 24 24" fill="none" xmlns="http://www.w3.org/2000/svg">
<path d="M4.21518 5.32644L18.2299 19.3412C18.6556 19.7669 19.349 19.7637 19.7785 19.3342C20.2081 18.9046 20.2112 18.2112 19.7855 17.7855L5.77081 3.77081C5.3451 3.3451 4.65176 3.34824 4.22218 3.77782C3.79261 4.20739 3.78947 4.90074 4.21518 5.32644Z" fill="white"/>
<path d="M5.32641 19.7848L19.3411 5.7701C19.7668 5.34439 19.7637 4.65105 19.3341 4.22147C18.9046 3.79189 18.2112 3.78875 17.7855 4.21446L3.77078 18.2292C3.34507 18.6549 3.34821 19.3482 3.77779 19.7778C4.20736 20.2074 4.90071 20.2105 5.32641 19.7848Z" fill="white"/>
</svg>
