<svg width="50" height="51" viewBox="0 0 50 51" fill="none" xmlns="http://www.w3.org/2000/svg">
<g clip-path="url(#clip0_299_33449)">
<path fill-rule="evenodd" clip-rule="evenodd" d="M35.3087 40.0014C35.3765 39.871 35.4415 39.7559 35.4969 39.6367C35.5318 39.5605 35.5856 39.5452 35.6614 39.5472C36.116 39.5601 36.5706 39.5741 37.0256 39.5785C37.412 39.5825 37.7992 39.5753 38.186 39.5709C38.6217 39.5657 39.0575 39.5428 39.4928 39.5552C40.0726 39.5721 40.6375 39.6857 41.1619 39.9436C41.7883 40.2522 42.2621 40.722 42.5851 41.3411C42.7913 41.7364 42.9109 42.1557 42.9587 42.601C43.0277 43.2462 42.9823 43.8765 42.7777 44.4936C42.5241 45.2584 42.0426 45.8438 41.3738 46.2824C40.859 46.6198 40.2945 46.8192 39.6894 46.9332C39.049 47.0539 38.4066 47.015 37.7643 47.017C37.0597 47.0198 36.3555 47.0046 35.651 46.9966C35.5278 46.9953 35.5101 46.9721 35.5426 46.8545L35.5727 46.7462C35.6413 46.5303 35.6783 46.5207 35.8973 46.4846C36.049 46.4601 36.2063 46.4031 36.3335 46.3189C36.4073 46.2699 36.4378 46.1423 36.4667 46.044C36.4916 45.9582 36.4928 45.8639 36.4936 45.7732C36.5036 44.399 36.514 43.0251 36.5196 41.6517C36.5208 41.3046 36.5128 40.9568 36.4936 40.6101C36.4799 40.3673 36.3503 40.2012 36.0614 40.1439C35.8367 40.0993 35.6104 40.0648 35.3845 40.0251L35.3087 40.0014ZM41.759 43.3289C41.7285 43.0552 41.7136 42.7792 41.6647 42.5095C41.5475 41.8623 41.2642 41.2986 40.7667 40.8569C39.9622 40.1431 38.9937 40.0331 37.9785 40.1182C37.7474 40.1374 37.6977 40.2165 37.6941 40.454C37.6884 40.7911 37.6828 41.1281 37.6824 41.4651C37.6808 42.534 37.6808 43.6029 37.6824 44.6718C37.6828 44.9759 37.686 45.2801 37.6949 45.5834C37.7045 45.894 37.8172 46.1568 38.1214 46.2771C38.6008 46.4669 39.1052 46.4894 39.6083 46.412C40.412 46.2888 40.9742 45.8205 41.3513 45.1188C41.6498 44.5619 41.7341 43.954 41.759 43.3289ZM43.7126 46.9685C43.7029 46.802 43.7712 46.6643 43.8554 46.5379C43.8783 46.5038 43.9569 46.5054 44.0111 46.4946L44.4709 46.4035C44.6334 46.369 44.7189 46.2599 44.7417 46.1006C44.757 45.9955 44.7714 45.8891 44.7726 45.7828C44.7827 44.9414 44.7923 44.1 44.7963 43.2586C44.8003 42.4161 44.7971 41.5735 44.7971 40.7309L44.7935 40.57C44.7771 40.2991 44.6463 40.1587 44.3774 40.119L43.7944 40.0303C43.7226 40.0207 43.6965 39.9862 43.7226 39.9224C43.7675 39.8136 43.8105 39.7009 43.8739 39.603C43.8975 39.5669 43.9774 39.5528 44.0312 39.554C44.3096 39.5581 44.5881 39.5789 44.8665 39.5785L47.2904 39.5641C47.7574 39.5637 48.2084 39.6451 48.6273 39.8686C49.0883 40.1142 49.3463 40.4941 49.4201 41.0117C49.4972 41.5554 49.3323 42.0136 48.9351 42.3775C48.7717 42.5276 48.5603 42.6255 48.3709 42.7475L48.3091 42.786C48.4849 42.8506 48.6522 42.9064 48.8151 42.973C49.2917 43.1684 49.6709 43.4737 49.8715 43.9612C50.03 44.346 50.03 44.7472 49.9361 45.1461C49.7901 45.7704 49.3788 46.1857 48.844 46.4998C48.342 46.7947 47.7988 46.9665 47.2202 46.9953C46.6865 47.0222 46.1505 47.0122 45.6156 47.0182L45.3059 47.0198C44.7907 47.0082 44.2751 46.9949 43.7595 46.9813L43.7126 46.9685ZM45.9342 44.5253H45.9394C45.9394 44.7894 45.9358 45.0534 45.9406 45.3174C45.9438 45.4883 45.9378 45.6641 45.9747 45.8286C46.0301 46.0745 46.1425 46.2964 46.4185 46.367C46.7913 46.4629 47.172 46.4822 47.5492 46.4168C48.0214 46.3345 48.3982 46.0978 48.6048 45.648C48.7581 45.3138 48.781 44.9595 48.7284 44.5976C48.6586 44.1209 48.4054 43.775 47.9845 43.5483C47.7085 43.3995 47.414 43.3084 47.1002 43.2964C46.7487 43.2831 46.3968 43.2823 46.0454 43.2715C45.9467 43.2687 45.933 43.3188 45.9334 43.3999C45.9354 43.7746 45.9342 44.1498 45.9342 44.5253ZM46.6825 42.7298C46.8747 42.7202 47.0922 42.7174 47.3084 42.6957C47.7225 42.6544 48.0142 42.4461 48.1663 42.0501C48.2437 41.8491 48.2405 41.6421 48.2425 41.433C48.2485 40.8886 47.9308 40.4424 47.4136 40.2578C47.0143 40.1154 46.6027 40.113 46.1886 40.1242C46.0209 40.1286 45.9459 40.202 45.9434 40.371L45.9186 42.5733C45.9174 42.6608 45.9551 42.6985 46.0401 42.7013L46.6825 42.7298Z" fill="#94795D"/>
<path fill-rule="evenodd" clip-rule="evenodd" d="M2.70607 46.5794L2.67528 46.9775C2.3885 46.9775 2.12407 46.9754 1.85965 46.9784C1.36158 46.9835 0.86351 46.9915 0.36502 46.9986L0.316942 47.0016C0.245669 46.9932 0.116197 46.9932 0.112823 46.9721C0.0917361 46.8536 0.0984839 46.7291 0.103966 46.6064C0.104388 46.5925 0.152888 46.5748 0.181144 46.568L0.568718 46.4816C0.810371 46.4188 0.895562 46.3146 0.906949 46.0649C0.920022 45.7836 0.933096 45.5019 0.934361 45.2206C0.938157 44.5281 0.93394 43.8365 0.936892 43.144C0.937314 42.982 0.881223 42.8614 0.730242 42.7956C0.550583 42.7163 0.370081 42.6387 0.188313 42.5654C0.102279 42.5308 -0.00948023 42.5118 0.000641399 42.3962C0.010763 42.2786 0.119149 42.2478 0.221209 42.2246C0.643786 42.128 1.06679 42.034 1.4881 41.9311C1.6239 41.8978 1.75379 41.8417 1.91616 41.7852C1.92459 41.8729 1.9402 41.9564 1.93851 42.0399L1.91363 42.4367C1.91321 42.4814 1.9364 42.5413 1.96972 42.5662C1.98996 42.5818 2.05786 42.5536 2.0916 42.5274C2.45176 42.2533 2.83301 42.0167 3.26782 41.8788C3.94133 41.665 4.51953 41.8632 4.92439 42.4439C5.06694 42.6484 5.06736 42.6484 5.26515 42.5055C5.60465 42.2588 5.95975 42.0411 6.35702 41.8978C7.22917 41.5827 8.06715 41.9825 8.37038 42.861C8.48088 43.1798 8.52305 43.5092 8.52221 43.8458L8.51419 46.0801C8.51377 46.2644 8.57492 46.3694 8.75036 46.4268C8.94731 46.4913 9.15143 46.5356 9.37327 46.5938L9.32181 46.978C9.06962 46.978 8.83766 46.9763 8.60571 46.9784C8.0389 46.9835 7.47209 46.9864 6.9057 46.9995C6.80701 47.002 6.78129 46.9775 6.77623 46.8852C6.75978 46.5896 6.75725 46.59 7.03559 46.5233L7.12922 46.4993C7.40124 46.4251 7.49191 46.3416 7.49402 46.0658C7.50034 45.2737 7.51679 44.4796 7.47673 43.6893C7.43498 42.8694 6.78424 42.4329 5.98969 42.643C5.73032 42.7113 5.49542 42.8311 5.27696 42.9863C5.20316 43.039 5.18924 43.0997 5.19514 43.1921C5.2175 43.5413 5.23141 43.8909 5.23436 44.2405C5.23943 44.8524 5.23183 45.4644 5.23436 46.0767C5.23521 46.3247 5.31998 46.4196 5.565 46.477L5.92896 46.5609L5.99644 46.5761C6.0015 46.6925 6.00614 46.8089 6.00066 46.9253C5.99728 46.9982 5.94077 47.0045 5.87751 47.0033C5.52367 46.9944 5.16942 46.9826 4.81558 46.9835C4.38499 46.9843 3.95482 46.9965 3.52465 47.0041H3.42344C3.42344 46.8806 3.41753 46.7625 3.42765 46.6448C3.42976 46.6165 3.47953 46.5769 3.51369 46.568L3.93795 46.4782C4.11803 46.4339 4.20407 46.3416 4.21419 46.1585C4.26227 45.3109 4.29685 44.4627 4.21714 43.6155C4.20154 43.451 4.14798 43.284 4.07966 43.1326C3.86246 42.6527 3.37367 42.4523 2.80981 42.5966C2.54201 42.6649 2.30036 42.7876 2.07178 42.9424C1.96381 43.0158 1.91236 43.1128 1.91236 43.2355C1.91236 44.0811 1.91532 44.9267 1.91785 45.7718L1.92249 46.0978C1.92755 46.3251 2.02412 46.4449 2.24975 46.4938C2.39483 46.5267 2.54159 46.5491 2.70607 46.5794Z" fill="#50382B"/>
<path fill-rule="evenodd" clip-rule="evenodd" d="M28.2074 41.8723C28.2727 42.1903 28.2715 42.4762 28.0378 42.693C27.8059 42.9085 27.5124 42.8359 27.226 42.7879C27.2526 42.9388 27.2821 43.067 27.2964 43.1969C27.4006 44.1623 26.9852 44.8788 26.0898 45.2883C25.7516 45.4427 25.3927 45.5 25.0262 45.5295C24.844 45.5439 24.6846 45.6831 24.6673 45.8328C24.6496 45.9846 24.7449 46.1406 24.9356 46.1862C25.1603 46.2397 25.3948 46.2549 25.6255 46.2815C26.1206 46.338 26.6212 46.3637 27.1104 46.4523C27.8502 46.5856 28.263 47.2312 28.1327 47.9743C28.0167 48.6356 27.6338 49.1168 27.0999 49.4858C26.2003 50.1092 25.2135 50.2913 24.1625 49.9734C23.5615 49.7912 23.1377 49.396 22.9914 48.7567C22.918 48.4366 22.996 48.1468 23.2368 47.9296C23.5232 47.6724 23.8348 47.443 24.1347 47.2L24.2317 47.1026L24.1203 47.0246C23.8146 46.8795 23.57 46.6809 23.4751 46.3359C23.4426 46.2191 23.4764 46.1423 23.5755 46.0824C23.7442 45.9808 23.912 45.8775 24.0786 45.7725C24.157 45.7235 24.2346 45.6729 24.3076 45.6164C24.4071 45.5405 24.3983 45.484 24.2793 45.4401C24.0027 45.3381 23.7568 45.19 23.5662 44.9623C23.2478 44.5823 23.1575 44.1298 23.1837 43.652C23.2246 42.9055 23.6299 42.4138 24.2886 42.0975C25.0718 41.7217 25.8575 41.6981 26.6558 42.0405C26.951 42.1671 27.2623 42.1941 27.579 42.1721C27.8156 42.1553 28.0222 42.0658 28.2074 41.8723ZM25.3214 47.2203C24.7335 47.2152 24.5492 47.2878 24.2043 47.6391C23.818 48.033 23.8201 48.5791 24.2055 48.9747C24.4982 49.2745 24.8634 49.415 25.2696 49.4572C25.744 49.5061 26.2113 49.4863 26.6423 49.2488C27.102 48.9945 27.3306 48.5222 27.2273 48.0465C27.1416 47.6538 26.8523 47.4742 26.5002 47.3708C26.0995 47.2536 25.6854 47.2312 25.3214 47.2203ZM24.1667 43.4635C24.1882 43.6267 24.1971 43.792 24.2334 43.9518C24.3274 44.366 24.5075 44.7299 24.9195 44.9142C25.4033 45.1314 26.0211 45.0382 26.2328 44.3592C26.3779 43.8941 26.3602 43.4323 26.1852 42.9785C26.1071 42.776 25.9815 42.6048 25.8014 42.4791C25.3813 42.186 24.6235 42.1472 24.3148 42.795C24.2144 43.0055 24.1752 43.2294 24.1667 43.4635Z" fill="#4F382B"/>
<path fill-rule="evenodd" clip-rule="evenodd" d="M18.2294 41.7673C18.245 41.8395 18.2762 41.9213 18.277 42.0035C18.2783 42.16 18.2614 42.3164 18.2526 42.4729V42.6087L18.385 42.5075C18.7477 42.2089 19.1373 41.9546 19.5911 41.8175C20.4101 41.5708 21.2283 42.0191 21.4953 42.8533C21.5965 43.1704 21.6365 43.4964 21.6403 43.8279C21.6488 44.5643 21.6538 45.3006 21.6614 46.037C21.664 46.3014 21.6943 46.3486 21.9444 46.425C22.0861 46.4684 22.2325 46.4988 22.3788 46.5215C22.4594 46.5342 22.4939 46.5658 22.4897 46.6447L22.4906 46.7172C22.4876 47.0221 22.4665 47.0361 22.1709 47.0352C21.4632 47.034 20.756 47.0382 20.0483 47.0441C19.8374 47.0458 19.837 47.0521 19.8159 46.8438L19.8117 46.724C19.8248 46.5443 19.829 46.546 20.0057 46.5199C20.1246 46.5021 20.2427 46.4747 20.3587 46.4444C20.478 46.4136 20.5354 46.3254 20.5514 46.2074C20.5594 46.1475 20.57 46.0876 20.5696 46.0277C20.5594 45.223 20.5725 44.4175 20.5287 43.6141C20.4932 42.9642 19.9973 42.5771 19.3448 42.6214C19.0247 42.6437 18.7354 42.7504 18.4714 42.9347C18.2973 43.0566 18.2623 43.2324 18.2631 43.4218C18.2665 44.1742 18.2736 44.9265 18.2816 45.6793C18.2833 45.8442 18.288 46.0091 18.3036 46.1728C18.32 46.3516 18.3829 46.4237 18.5583 46.4625C18.7262 46.4996 18.8974 46.5211 19.0766 46.5511L19.0918 46.6894C19.0977 47.012 19.064 47.0361 18.7506 47.0348C18.0189 47.0318 17.2872 47.0365 16.5559 47.0445C16.4408 47.0462 16.3919 47.0099 16.3948 46.8977L16.3931 46.8497C16.3741 46.5591 16.3826 46.5481 16.6576 46.5009L16.7874 46.4747C17.0852 46.4077 17.1615 46.3284 17.1657 46.026C17.1797 45.0683 17.1847 44.1109 17.1944 43.1532C17.1957 43.0157 17.1438 42.909 17.0156 42.852C16.8359 42.7728 16.6546 42.6973 16.4728 42.6226C16.3725 42.5813 16.2577 42.5551 16.254 42.4164C16.2514 42.3185 16.356 42.2321 16.499 42.203C16.7862 42.1448 17.0759 42.0963 17.3597 42.025C17.6423 41.9546 17.9198 41.8601 18.2294 41.7673Z" fill="#4F372B"/>
<path fill-rule="evenodd" clip-rule="evenodd" d="M34.0476 44.2668C34.0341 45.1613 33.8018 45.8845 33.1692 46.4273C32.3679 47.116 31.1179 47.3501 30.096 46.8351C29.6599 46.6154 29.3394 46.2784 29.1306 45.8411C28.8105 45.1684 28.7304 44.4612 28.8974 43.7366C29.0627 43.0201 29.4967 42.501 30.1462 42.1648C30.8142 41.8194 31.5177 41.6845 32.2595 41.8658C33.1978 42.0948 33.8722 42.8599 34.0063 43.8341C34.0304 44.0049 34.0396 44.1778 34.0476 44.2668ZM32.9608 44.7513L32.9246 44.7471C32.9246 44.6628 32.9292 44.5784 32.9237 44.4941C32.8929 43.9686 32.7748 43.468 32.4704 43.0281C32.1815 42.6115 31.788 42.3656 31.276 42.3297C30.7029 42.2892 30.2212 42.6098 30.0521 43.1951C29.7982 44.074 29.8843 44.9306 30.3305 45.7357C30.5249 46.0865 30.8129 46.3455 31.1988 46.4817C31.955 46.7478 32.6256 46.4033 32.8225 45.629C32.895 45.343 32.9161 45.044 32.9608 44.7513Z" fill="#4F382B"/>
<path fill-rule="evenodd" clip-rule="evenodd" d="M15.4718 44.338C15.4562 44.9799 15.3048 45.5733 14.9084 46.0891C14.4837 46.6416 13.9 46.9368 13.2362 47.0612C12.4514 47.2079 11.7142 47.0747 11.0837 46.5479C10.7843 46.2974 10.5797 45.9765 10.4448 45.6113C10.2234 45.0124 10.1681 44.3988 10.3043 43.7733C10.4498 43.104 10.8277 42.5925 11.4135 42.2492C12.0908 41.8532 12.8217 41.6765 13.6023 41.8544C14.606 42.0839 15.1855 42.738 15.3997 43.7282C15.4427 43.9281 15.4487 44.1348 15.4718 44.338ZM14.3728 44.7615L14.3437 44.7572V44.6366C14.3273 44.0479 14.2121 43.487 13.8608 42.9978C13.6006 42.6347 13.2523 42.4069 12.8056 42.3432C12.0777 42.2395 11.602 42.6713 11.4443 43.258C11.2385 44.0243 11.303 44.7813 11.6214 45.5079C11.82 45.9609 12.1338 46.3139 12.6159 46.4851C13.3674 46.752 14.0481 46.3986 14.2383 45.6273C14.3083 45.3451 14.3294 45.0508 14.3728 44.7615Z" fill="#4F372B"/>
<path fill-rule="evenodd" clip-rule="evenodd" d="M26.1016 37.0085L26.4751 36.0508L26.5521 37.1839L26.1016 37.0085Z" fill="#EBE9DC"/>
<path fill-rule="evenodd" clip-rule="evenodd" d="M31.1393 10.2109C31.5494 11.3965 31.8442 12.6068 31.9415 13.8609C32.0618 15.4171 32.007 16.9627 31.6788 18.4932L31.6367 18.6155C31.5337 18.6159 31.4288 18.6028 31.3282 18.6186C30.4782 18.7522 29.6292 18.8906 28.7799 19.0283C27.9018 19.1707 27.0231 19.3074 26.1467 19.4592C25.8362 19.5127 25.4518 19.4488 25.3265 19.878L25.2663 19.8984L25.3087 17.332L25.2656 11.1398L25.6747 11.0696C26.3436 10.9603 27.0124 10.849 27.6822 10.7424C28.4811 10.6157 29.2806 10.492 30.0801 10.3684C30.4331 10.3142 30.7864 10.2637 31.1393 10.2109Z" fill="#439934"/>
<path fill-rule="evenodd" clip-rule="evenodd" d="M24.418 27.3839C23.9865 27.0129 23.5399 26.6583 23.1265 26.2679C20.9011 24.1688 19.2729 21.6977 18.4711 18.7186C18.2502 17.899 18.1031 17.0658 18.0556 16.2188C18.0222 15.6258 17.9744 15.0279 18.0165 14.4379C18.1278 12.8693 18.3548 11.3158 18.8147 9.80463L18.8401 9.76953C18.8849 9.82903 18.9491 9.88184 18.9718 9.94902C19.421 11.2713 19.8666 12.5949 20.3101 13.9195C21.7036 18.0812 23.0954 22.2439 24.4912 26.4049C24.5186 26.4861 24.5891 26.5527 24.6399 26.6259L24.418 27.3839Z" fill="#45A538"/>
<path fill-rule="evenodd" clip-rule="evenodd" d="M31.1351 10.211C30.7818 10.2634 30.4286 10.3143 30.0759 10.3684C29.2764 10.4921 28.4769 10.6157 27.678 10.7424C27.0086 10.8487 26.3397 10.96 25.6706 11.0696L25.2615 11.1398L25.2581 10.8731C25.2444 10.6538 25.2217 10.4346 25.2187 10.2153L25.1729 6.0192C25.1622 5.14381 25.1461 4.26842 25.1284 3.39336C25.1174 2.84955 25.1057 2.30539 25.0813 1.76224C25.0679 1.47045 25.0208 1.17999 25.0021 0.888192C24.991 0.720401 25.0058 0.551272 25.0094 0.382812C25.218 0.786916 25.4222 1.19403 25.6365 1.59512C25.9751 2.22919 26.5149 2.69646 27.0012 3.20619C28.9218 5.22202 30.2852 7.56441 31.1351 10.211Z" fill="#46A037"/>
<path fill-rule="evenodd" clip-rule="evenodd" d="M25.262 19.8989L25.3221 19.8785C25.4475 19.4494 25.8319 19.5132 26.1424 19.4597C27.0188 19.308 27.8975 19.1713 28.7755 19.0289C29.6249 18.8915 30.4738 18.7531 31.3238 18.6191C31.4244 18.6034 31.5294 18.6164 31.6323 18.6161C31.4736 19.183 31.3486 19.7622 31.147 20.3134C30.9181 20.9384 30.6413 21.5488 30.3475 22.1471C29.9083 23.0412 29.3611 23.8754 28.7254 24.6399C28.2354 25.2288 27.6893 25.774 27.1421 26.3118C26.8393 26.6089 26.483 26.8512 26.1507 27.1186L26.0645 27.0598L25.7546 26.7951L25.4341 26.0918C25.2132 25.2689 25.0975 24.4313 25.0781 23.5796L25.0841 23.4366L25.1279 22.8169C25.1423 22.6053 25.1617 22.3941 25.1707 22.1825C25.2028 21.4217 25.2315 20.6603 25.262 19.8989Z" fill="#409433"/>
<path fill-rule="evenodd" clip-rule="evenodd" d="M25.2627 19.9017C25.2326 20.6631 25.2039 21.4248 25.1715 22.1862C25.1624 22.3981 25.1434 22.6094 25.1287 22.8206L24.9335 22.8945C24.4996 21.6173 24.0654 20.3536 23.6409 19.0868C22.9387 16.9907 22.2451 14.8916 21.5439 12.7949C20.978 11.103 20.4071 9.41202 19.8332 7.72241C19.8061 7.64353 19.7293 7.58136 19.6758 7.5115L20.9259 5.21289C20.969 5.28743 21.0255 5.35729 21.0525 5.4375C21.6308 7.14884 22.208 8.86051 22.7803 10.5739C23.525 12.8033 24.2646 15.0337 25.0087 17.2635C25.0384 17.3524 25.0872 17.4346 25.134 17.5345L25.3052 17.3353C25.2908 18.191 25.2767 19.046 25.2627 19.9017Z" fill="#4FAA41"/>
<path fill-rule="evenodd" clip-rule="evenodd" d="M19.6755 7.51172C19.7293 7.58158 19.8061 7.64375 19.8329 7.72263C20.4068 9.41224 20.9777 11.1029 21.5436 12.7951C22.2448 14.8919 22.9384 16.9909 23.6406 19.087C24.0651 20.3538 24.4993 21.6172 24.9331 22.8947L25.1283 22.8208L25.0846 23.4405L25.0448 23.5832C24.9769 24.2614 24.9198 24.941 24.8369 25.6178C24.7954 25.9571 24.7069 26.29 24.6397 26.6255C24.5892 26.5523 24.5183 26.4858 24.4909 26.4046C23.0948 22.2436 21.7033 18.0809 20.3099 13.9192C19.8663 12.5946 19.4204 11.271 18.9715 9.9487C18.9488 9.88152 18.8846 9.82871 18.8398 9.76921L19.6755 7.51172Z" fill="#4AA73C"/>
<path fill-rule="evenodd" clip-rule="evenodd" d="M25.3031 17.3357L25.132 17.5349C25.0852 17.4349 25.0364 17.3527 25.0066 17.2638C24.2626 15.034 23.5229 12.8036 22.7782 10.5742C22.206 8.86086 21.6288 7.14919 21.0505 5.43785C21.0234 5.35763 20.9669 5.28777 20.9238 5.21324L22.4697 3.17969C22.5185 3.24453 22.588 3.30236 22.6131 3.37556C23.0423 4.63232 23.4674 5.89008 23.8906 7.14885C24.2857 8.32473 24.6747 9.50194 25.0745 10.6758C25.1012 10.7544 25.1945 10.8098 25.2567 10.8767L25.26 11.1434L25.3031 17.3357Z" fill="#57AE47"/>
<path fill-rule="evenodd" clip-rule="evenodd" d="M25.2576 10.875C25.1951 10.8085 25.1022 10.753 25.0755 10.6741C24.6761 9.50024 24.2867 8.32302 23.8916 7.14715C23.4684 5.88838 23.0433 4.63061 22.6141 3.37385C22.589 3.30065 22.5195 3.24283 22.4707 3.17798C22.9734 2.68564 23.4604 2.17558 23.9835 1.70597C24.4484 1.28883 24.8221 0.841606 24.8395 0.18214L24.8763 0.0507812L25.0086 0.384358C25.0053 0.552818 24.9902 0.721946 25.0013 0.889737C25.0203 1.18153 25.0675 1.47199 25.0805 1.76379C25.1049 2.30694 25.1166 2.85109 25.1276 3.39491C25.1453 4.26996 25.1614 5.14535 25.1721 6.02074L25.2179 10.2169C25.2212 10.4365 25.2443 10.6557 25.2576 10.875Z" fill="#60B24F"/>
<path fill-rule="evenodd" clip-rule="evenodd" d="M24.6402 26.6251C24.7074 26.2895 24.796 25.9566 24.8374 25.6173C24.9203 24.9408 24.9775 24.2609 25.0453 23.5828L25.0624 23.5801L25.0791 23.5831C25.0985 24.4347 25.2141 25.2724 25.4351 26.0953C25.39 26.1548 25.3268 26.2072 25.3027 26.2741C25.1172 26.7975 24.9421 27.3253 24.7556 27.8484C24.7302 27.9199 24.6586 27.9757 24.6088 28.0382L24.418 27.3831L24.6402 26.6251Z" fill="#A9AA88"/>
<path fill-rule="evenodd" clip-rule="evenodd" d="M24.6055 28.0367C24.6553 27.9739 24.7268 27.9184 24.7522 27.8469C24.9387 27.3238 25.1139 26.796 25.2994 26.2726C25.3231 26.2057 25.3866 26.1532 25.4317 26.0938L25.7523 26.797C25.6891 26.8866 25.6015 26.9678 25.5664 27.0677L24.9528 28.87C24.9273 28.9425 24.8414 28.9933 24.7833 29.0545L24.6055 28.0367Z" fill="#B6B598"/>
<path fill-rule="evenodd" clip-rule="evenodd" d="M24.7812 29.0544C24.8391 28.9932 24.9253 28.9424 24.9507 28.8699L25.5644 27.0676C25.5991 26.9677 25.6871 26.8865 25.7502 26.7969L26.0604 27.0613C25.9107 27.2093 25.8274 27.3805 25.8776 27.5967L25.7833 27.9052C25.7405 27.958 25.6784 28.0042 25.6573 28.0647C25.4431 28.6783 25.2388 29.2954 25.0229 29.9087C24.9955 29.9862 24.9196 30.0474 24.8665 30.1163L24.7812 29.0544Z" fill="#C2C1A7"/>
<path fill-rule="evenodd" clip-rule="evenodd" d="M24.8654 30.1173C24.9189 30.0484 24.9947 29.9873 25.0218 29.9097C25.2377 29.2964 25.4423 28.6794 25.6562 28.0657C25.6773 28.0052 25.7394 27.9594 25.7822 27.9062L25.6522 29.3221C25.6174 29.3622 25.5673 29.3973 25.5506 29.4438L25.1181 30.6832C25.0876 30.7677 25.0295 30.8433 24.984 30.9225C24.9436 30.8697 24.8714 30.8185 24.868 30.7637C24.8553 30.5491 24.8644 30.3329 24.8654 30.1173Z" fill="#CECDB7"/>
<path fill-rule="evenodd" clip-rule="evenodd" d="M24.9941 30.9246C25.0396 30.8454 25.0978 30.7698 25.1282 30.6853L25.5607 29.4459C25.5774 29.3991 25.6279 29.3643 25.6623 29.3242L25.6656 30.2534L25.3545 31.0513L24.9941 30.9246Z" fill="#DBDAC7"/>
<path fill-rule="evenodd" clip-rule="evenodd" d="M25.8817 27.5999C25.8319 27.384 25.9148 27.2129 26.0645 27.0645L26.1507 27.1233L25.8817 27.5999Z" fill="#CECDB7"/>
<path fill-rule="evenodd" clip-rule="evenodd" d="M25.0862 23.5845L25.0695 23.5815L25.0525 23.5842L25.0923 23.4415L25.0862 23.5845Z" fill="#4FAA41"/>
</g>
<defs>
<clipPath id="clip0_299_33449">
<rect width="50" height="50" fill="white" transform="translate(0 0.0507812)"/>
</clipPath>
</defs>
</svg>
