<svg width="50" height="51" viewBox="0 0 50 51" fill="none" xmlns="http://www.w3.org/2000/svg">
<path d="M35.6181 6.68729L26.3425 1.30068C25.7569 0.967483 24.9954 0.967483 24.4056 1.30068L15.0307 6.68729C14.4274 7.03395 14 7.68688 14 8.38524V19.1426C14 19.8409 14.4384 20.4938 15.0425 20.843L17.5187 22.2498C18.7026 22.8329 19.1216 22.8329 19.6601 22.8329C21.4127 22.8329 22.414 21.7727 22.414 19.9242V9.30403C22.414 9.15342 22.3357 8.93048 22.1885 8.93048H21.0055C20.8557 8.93048 20.5208 9.15344 20.5208 9.30321V19.9242C20.5208 20.7437 19.7796 21.559 18.3938 20.8665L15.8351 19.3916C15.7459 19.3428 15.6828 19.2452 15.6828 19.1426V8.38524C15.6828 8.28343 15.7997 8.18164 15.8898 8.13031L25.2335 2.75294C25.321 2.70414 25.4498 2.70414 25.5364 2.75294L34.7674 8.12862C34.8558 8.18163 34.8246 8.28091 34.8246 8.38524V19.1426C34.8246 19.2452 34.8625 19.3453 34.7758 19.395L25.5019 24.7749C25.4228 24.8228 25.3235 24.8228 25.2369 24.7749L22.8583 23.3554C22.7867 23.3133 22.7018 23.2982 22.6328 23.3369C21.9714 23.7122 21.8486 23.7618 21.2285 23.9772C21.0753 24.0302 20.8498 24.1228 21.3143 24.3828L24.4275 26.2246C24.7253 26.3971 25.0644 26.4863 25.4052 26.4863C25.7501 26.4863 26.0884 26.3971 26.3862 26.2246L35.6172 20.843C36.2214 20.4913 36.5074 19.8409 36.5074 19.1426V8.38524C36.5074 7.68688 36.2213 7.03563 35.6181 6.68729ZM28.2853 17.4379C25.8183 17.4379 25.2747 16.758 25.0938 15.5312C25.0728 15.3991 24.9609 15.241 24.8263 15.241H23.6206C23.4716 15.241 23.3521 15.4219 23.3521 15.5708C23.3521 17.1409 24.2054 19.0441 28.2853 19.0441C31.2386 19.0441 32.9315 17.8964 32.9315 15.8653C32.9315 13.8518 31.5709 13.3234 28.7068 12.9448C25.8124 12.5619 25.5179 12.3685 25.5179 11.6903C25.5179 11.1316 25.767 10.3861 27.9109 10.3861C29.8259 10.3861 30.5318 10.7967 30.8221 12.0874C30.8473 12.2094 30.9575 12.2961 31.0829 12.2961H32.2937C32.3677 12.2961 32.4392 12.2658 32.4914 12.2128C32.5419 12.1556 32.568 12.084 32.5613 12.0066C32.3745 9.78366 30.897 8.74791 27.91 8.74791C25.2537 8.74791 23.6685 9.87031 23.6685 11.7508C23.6685 13.7904 25.2453 14.3541 27.7956 14.6065C30.8473 14.9061 31.0846 15.352 31.0846 15.9519C31.0846 16.9944 30.2474 17.4379 28.2853 17.4379Z" fill="#83CD29"/>
<path d="M12.0567 40.7781V48.0508H11.0482L7.35147 42.717H7.284V48.0508H6.1867V40.7781H7.20233L10.9026 46.119H10.9701V40.7781H12.0567ZM15.8698 48.1609C15.3584 48.1609 14.9121 48.0437 14.531 47.8093C14.1498 47.5749 13.8539 47.247 13.6432 46.8256C13.4325 46.4042 13.3271 45.9118 13.3271 45.3484C13.3271 44.7826 13.4325 44.2878 13.6432 43.864C13.8539 43.4402 14.1498 43.1112 14.531 42.8768C14.9121 42.6424 15.3584 42.5252 15.8698 42.5252C16.3811 42.5252 16.8274 42.6424 17.2085 42.8768C17.5897 43.1112 17.8856 43.4402 18.0963 43.864C18.307 44.2878 18.4124 44.7826 18.4124 45.3484C18.4124 45.9118 18.307 46.4042 18.0963 46.8256C17.8856 47.247 17.5897 47.5749 17.2085 47.8093C16.8274 48.0437 16.3811 48.1609 15.8698 48.1609ZM15.8733 47.2695C16.2048 47.2695 16.4794 47.1819 16.6972 47.0067C16.915 46.8316 17.076 46.5984 17.1801 46.3072C17.2867 46.016 17.3399 45.6952 17.3399 45.3448C17.3399 44.9968 17.2867 44.6772 17.1801 44.386C17.076 44.0924 16.915 43.8569 16.6972 43.6793C16.4794 43.5018 16.2048 43.413 15.8733 43.413C15.5395 43.413 15.2625 43.5018 15.0423 43.6793C14.8245 43.8569 14.6624 44.0924 14.5558 44.386C14.4517 44.6772 14.3996 44.9968 14.3996 45.3448C14.3996 45.6952 14.4517 46.016 14.5558 46.3072C14.6624 46.5984 14.8245 46.8316 15.0423 47.0067C15.2625 47.1819 15.5395 47.2695 15.8733 47.2695ZM21.6395 48.1573C21.1991 48.1573 20.8061 48.0449 20.4605 47.82C20.1172 47.5927 19.8473 47.2695 19.6508 46.8505C19.4567 46.4291 19.3596 45.9237 19.3596 45.3342C19.3596 44.7447 19.4579 44.2404 19.6544 43.8214C19.8532 43.4023 20.1255 43.0816 20.4711 42.859C20.8168 42.6365 21.2086 42.5252 21.6466 42.5252C21.9851 42.5252 22.2574 42.582 22.4633 42.6957C22.6717 42.8069 22.8327 42.9371 22.9463 43.0863C23.0623 43.2354 23.1523 43.3668 23.2162 43.4805H23.2801V40.7781H24.3419V48.0508H23.305V47.2021H23.2162C23.1523 47.3181 23.0599 47.4506 22.9392 47.5998C22.8208 47.7489 22.6575 47.8791 22.4491 47.9904C22.2408 48.1017 21.9709 48.1573 21.6395 48.1573ZM21.8738 47.2518C22.1792 47.2518 22.4373 47.1713 22.648 47.0103C22.8611 46.8469 23.022 46.6209 23.1309 46.332C23.2422 46.0432 23.2979 45.707 23.2979 45.3235C23.2979 44.9447 23.2434 44.6133 23.1345 44.3292C23.0256 44.0451 22.8658 43.8237 22.6551 43.6651C22.4444 43.5065 22.184 43.4272 21.8738 43.4272C21.5542 43.4272 21.2879 43.5101 21.0748 43.6758C20.8618 43.8415 20.7008 44.0676 20.5919 44.354C20.4854 44.6405 20.4321 44.9637 20.4321 45.3235C20.4321 45.6881 20.4865 46.016 20.5954 46.3072C20.7043 46.5984 20.8653 46.8292 21.0784 46.9996C21.2938 47.1677 21.559 47.2518 21.8738 47.2518ZM28.2082 48.1609C27.6708 48.1609 27.2079 48.046 26.8197 47.8164C26.4338 47.5844 26.1355 47.2589 25.9248 46.8398C25.7165 46.4184 25.6123 45.9248 25.6123 45.359C25.6123 44.8003 25.7165 44.3079 25.9248 43.8817C26.1355 43.4556 26.4291 43.123 26.8055 42.8839C27.1843 42.6448 27.627 42.5252 28.1336 42.5252C28.4414 42.5252 28.7397 42.5761 29.0285 42.6779C29.3173 42.7797 29.5766 42.9395 29.8062 43.1573C30.0358 43.3751 30.2169 43.658 30.3495 44.006C30.4821 44.3517 30.5484 44.7719 30.5484 45.2667V45.6431H26.2124V44.8477H29.5079C29.5079 44.5683 29.4511 44.3209 29.3374 44.1055C29.2238 43.8877 29.064 43.716 28.858 43.5906C28.6544 43.4651 28.4153 43.4023 28.1407 43.4023C27.8424 43.4023 27.582 43.4757 27.3595 43.6225C27.1393 43.7669 26.9688 43.9563 26.8481 44.1907C26.7297 44.4227 26.6705 44.6748 26.6705 44.9471V45.5685C26.6705 45.9331 26.7345 46.2433 26.8623 46.4989C26.9925 46.7546 27.1736 46.9499 27.4056 47.0849C27.6376 47.2174 27.9087 47.2837 28.2188 47.2837C28.4201 47.2837 28.6035 47.2553 28.7693 47.1985C28.935 47.1393 29.0782 47.0517 29.199 46.9357C29.3197 46.8197 29.412 46.6765 29.4759 46.506L30.4809 46.6871C30.4004 46.9831 30.256 47.2423 30.0477 47.4648C29.8417 47.685 29.5825 47.8567 29.27 47.9798C28.9598 48.1005 28.6059 48.1609 28.2082 48.1609ZM37.2849 40.7781H38.3786V45.9343C38.3786 46.4007 38.2863 46.7996 38.1017 47.131C37.9194 47.4625 37.6625 47.7158 37.3311 47.891C36.9996 48.0638 36.6114 48.1502 36.1663 48.1502C35.7567 48.1502 35.3886 48.0756 35.0619 47.9265C34.7375 47.7773 34.4807 47.5607 34.2913 47.2766C34.1043 46.9902 34.0107 46.6422 34.0107 46.2326H35.1009C35.1009 46.4338 35.1471 46.6078 35.2394 46.7546C35.3341 46.9014 35.4632 47.0162 35.6265 47.0991C35.7922 47.1796 35.9816 47.2198 36.1947 47.2198C36.4267 47.2198 36.6232 47.1713 36.7842 47.0742C36.9475 46.9748 37.0718 46.8292 37.157 46.6374C37.2423 46.4457 37.2849 46.2113 37.2849 45.9343V40.7781ZM43.9424 42.6886C43.9045 42.3524 43.7483 42.092 43.4736 41.9073C43.199 41.7203 42.8534 41.6268 42.4367 41.6268C42.1384 41.6268 41.8804 41.6741 41.6626 41.7688C41.4448 41.8612 41.2755 41.989 41.1547 42.1523C41.0364 42.3133 40.9772 42.4968 40.9772 42.7028C40.9772 42.8756 41.0174 43.0247 41.0979 43.1502C41.1808 43.2757 41.2885 43.381 41.4211 43.4663C41.556 43.5491 41.7004 43.619 41.8543 43.6758C42.0082 43.7302 42.1562 43.7752 42.2982 43.8107L43.0084 43.9954C43.2404 44.0522 43.4784 44.1291 43.7222 44.2262C43.9661 44.3233 44.1921 44.4511 44.4005 44.6097C44.6088 44.7683 44.7769 44.9648 44.9047 45.1992C45.0349 45.4336 45.1001 45.7141 45.1001 46.0408C45.1001 46.4528 44.9935 46.8185 44.7805 47.1381C44.5698 47.4577 44.2632 47.7099 43.8607 47.8945C43.4606 48.0792 42.9765 48.1715 42.4083 48.1715C41.8638 48.1715 41.3927 48.0851 40.9949 47.9123C40.5972 47.7395 40.2859 47.4944 40.061 47.1772C39.8361 46.8576 39.7118 46.4788 39.6881 46.0408H40.789C40.8103 46.3036 40.8955 46.5226 41.0447 46.6978C41.1962 46.8706 41.3891 46.9996 41.6235 47.0849C41.8602 47.1677 42.1195 47.2092 42.4012 47.2092C42.7113 47.2092 42.9871 47.1606 43.2286 47.0636C43.4724 46.9641 43.6642 46.8268 43.8039 46.6516C43.9436 46.4741 44.0134 46.2669 44.0134 46.0302C44.0134 45.8147 43.9519 45.6384 43.8287 45.5011C43.708 45.3638 43.5435 45.2501 43.3351 45.1602C43.1292 45.0702 42.896 44.9909 42.6356 44.9222L41.7762 44.6879C41.1938 44.5292 40.7322 44.296 40.3912 43.9883C40.0527 43.6805 39.8834 43.2733 39.8834 42.7667C39.8834 42.3477 39.9971 41.9819 40.2243 41.6694C40.4516 41.3569 40.7594 41.1142 41.1476 40.9414C41.5359 40.7662 41.9739 40.6786 42.4616 40.6786C42.954 40.6786 43.3884 40.765 43.7648 40.9379C44.1436 41.1107 44.4419 41.3486 44.6597 41.6516C44.8775 41.9523 44.9912 42.2979 45.0006 42.6886H43.9424Z" fill="#334155"/>
</svg>
