<svg width="1440" height="1249" viewBox="0 0 1440 1249" fill="none" xmlns="http://www.w3.org/2000/svg">
<g clip-path="url(#clip0)">
<path opacity="0.3" d="M172 680C174.209 680 176 678.209 176 676C176 673.791 174.209 672 172 672C169.791 672 168 673.791 168 676C168 678.209 169.791 680 172 680Z" stroke="#A145FF" stroke-width="0.5" stroke-miterlimit="10"/>
<path opacity="0.3" d="M241.25 787.25C246.082 787.25 250 783.332 250 778.5C250 773.668 246.082 769.75 241.25 769.75C236.418 769.75 232.5 773.668 232.5 778.5C232.5 783.332 236.418 787.25 241.25 787.25Z" stroke="#DB8607" stroke-width="1.25" stroke-miterlimit="10"/>
<path opacity="0.25" d="M171.955 915.28L164.04 901.571L183.532 900.552L171.955 915.28Z" stroke="#F99746" stroke-width="1.0041"/>
<path opacity="0.5" d="M1188 456C1190.21 456 1192 454.209 1192 452C1192 449.791 1190.21 448 1188 448C1185.79 448 1184 449.791 1184 452C1184 454.209 1185.79 456 1188 456Z" stroke="#F99746" stroke-width="0.5" stroke-miterlimit="10"/>
<path d="M1181.3 1149.17C1180.7 1149.17 1180.21 1149.07 1179.83 1148.89C1179.45 1148.69 1179.16 1148.44 1178.98 1148.12C1178.79 1147.8 1178.7 1147.45 1178.7 1147.07C1178.7 1146.43 1178.95 1145.91 1179.45 1145.51C1179.96 1145.11 1180.71 1144.91 1181.72 1144.91H1183.48V1144.74C1183.48 1144.26 1183.34 1143.91 1183.07 1143.69C1182.8 1143.47 1182.47 1143.35 1182.07 1143.35C1181.7 1143.35 1181.39 1143.44 1181.12 1143.62C1180.85 1143.79 1180.68 1144.04 1180.61 1144.37H1178.87C1178.91 1143.87 1179.08 1143.43 1179.37 1143.06C1179.67 1142.69 1180.05 1142.4 1180.52 1142.21C1180.98 1142 1181.5 1141.9 1182.08 1141.9C1183.07 1141.9 1183.85 1142.15 1184.41 1142.64C1184.98 1143.14 1185.27 1143.83 1185.27 1144.74V1149H1183.74L1183.58 1147.88C1183.37 1148.25 1183.08 1148.56 1182.71 1148.8C1182.35 1149.05 1181.88 1149.17 1181.3 1149.17ZM1181.7 1147.77C1182.22 1147.77 1182.61 1147.6 1182.89 1147.27C1183.18 1146.93 1183.36 1146.52 1183.44 1146.02H1181.91C1181.44 1146.02 1181.1 1146.11 1180.89 1146.29C1180.69 1146.46 1180.59 1146.67 1180.59 1146.92C1180.59 1147.19 1180.69 1147.4 1180.89 1147.55C1181.1 1147.7 1181.37 1147.77 1181.7 1147.77ZM1186.97 1149V1142.07H1188.55L1188.69 1143.24C1188.91 1142.83 1189.21 1142.51 1189.61 1142.26C1190.02 1142.02 1190.5 1141.9 1191.05 1141.9C1191.91 1141.9 1192.58 1142.17 1193.05 1142.71C1193.53 1143.25 1193.76 1144.04 1193.76 1145.09V1149H1191.98V1145.26C1191.98 1144.66 1191.85 1144.2 1191.61 1143.89C1191.37 1143.57 1190.99 1143.41 1190.48 1143.41C1189.98 1143.41 1189.56 1143.59 1189.24 1143.94C1188.92 1144.3 1188.76 1144.79 1188.76 1145.42V1149H1186.97ZM1198.66 1149.17C1198.01 1149.17 1197.43 1149.01 1196.91 1148.69C1196.4 1148.38 1196 1147.94 1195.7 1147.39C1195.4 1146.84 1195.25 1146.22 1195.25 1145.52C1195.25 1144.82 1195.4 1144.2 1195.7 1143.66C1196 1143.11 1196.4 1142.68 1196.91 1142.38C1197.43 1142.06 1198.01 1141.9 1198.66 1141.9C1199.18 1141.9 1199.64 1142 1200.03 1142.19C1200.42 1142.39 1200.74 1142.67 1200.98 1143.02V1138.94H1202.77V1149H1201.18L1200.98 1148.01C1200.76 1148.32 1200.46 1148.59 1200.09 1148.82C1199.72 1149.05 1199.25 1149.17 1198.66 1149.17ZM1199.04 1147.6C1199.62 1147.6 1200.09 1147.41 1200.45 1147.03C1200.82 1146.64 1201.01 1146.14 1201.01 1145.53C1201.01 1144.93 1200.82 1144.44 1200.45 1144.05C1200.09 1143.66 1199.62 1143.47 1199.04 1143.47C1198.47 1143.47 1198 1143.66 1197.63 1144.04C1197.25 1144.42 1197.07 1144.92 1197.07 1145.52C1197.07 1146.13 1197.25 1146.62 1197.63 1147.02C1198 1147.41 1198.47 1147.6 1199.04 1147.6ZM1207.92 1149V1142.07H1209.5L1209.65 1143.01C1209.88 1142.67 1210.17 1142.4 1210.53 1142.21C1210.91 1142 1211.33 1141.9 1211.82 1141.9C1212.89 1141.9 1213.65 1142.32 1214.1 1143.15C1214.35 1142.76 1214.68 1142.46 1215.1 1142.24C1215.53 1142.01 1216 1141.9 1216.5 1141.9C1217.4 1141.9 1218.1 1142.17 1218.58 1142.71C1219.07 1143.25 1219.31 1144.04 1219.31 1145.09V1149H1217.52V1145.26C1217.52 1144.66 1217.4 1144.2 1217.17 1143.89C1216.95 1143.57 1216.6 1143.41 1216.12 1143.41C1215.64 1143.41 1215.25 1143.59 1214.95 1143.94C1214.66 1144.3 1214.52 1144.79 1214.52 1145.42V1149H1212.73V1145.26C1212.73 1144.66 1212.61 1144.2 1212.38 1143.89C1212.14 1143.57 1211.79 1143.41 1211.3 1143.41C1210.83 1143.41 1210.44 1143.59 1210.14 1143.94C1209.85 1144.3 1209.71 1144.79 1209.71 1145.42V1149H1207.92ZM1223.4 1149.17C1222.8 1149.17 1222.31 1149.07 1221.93 1148.89C1221.55 1148.69 1221.26 1148.44 1221.08 1148.12C1220.89 1147.8 1220.8 1147.45 1220.8 1147.07C1220.8 1146.43 1221.05 1145.91 1221.55 1145.51C1222.05 1145.11 1222.81 1144.91 1223.82 1144.91H1225.58V1144.74C1225.58 1144.26 1225.44 1143.91 1225.17 1143.69C1224.9 1143.47 1224.57 1143.35 1224.16 1143.35C1223.8 1143.35 1223.48 1143.44 1223.21 1143.62C1222.94 1143.79 1222.78 1144.04 1222.71 1144.37H1220.96C1221.01 1143.87 1221.18 1143.43 1221.47 1143.06C1221.77 1142.69 1222.15 1142.4 1222.61 1142.21C1223.08 1142 1223.6 1141.9 1224.18 1141.9C1225.17 1141.9 1225.94 1142.15 1226.51 1142.64C1227.08 1143.14 1227.36 1143.83 1227.36 1144.74V1149H1225.84L1225.67 1147.88C1225.47 1148.25 1225.18 1148.56 1224.81 1148.8C1224.44 1149.05 1223.97 1149.17 1223.4 1149.17ZM1223.8 1147.77C1224.31 1147.77 1224.71 1147.6 1224.99 1147.27C1225.28 1146.93 1225.46 1146.52 1225.53 1146.02H1224.01C1223.54 1146.02 1223.2 1146.11 1222.99 1146.29C1222.79 1146.46 1222.68 1146.67 1222.68 1146.92C1222.68 1147.19 1222.79 1147.4 1222.99 1147.55C1223.2 1147.7 1223.47 1147.77 1223.8 1147.77ZM1229.07 1149V1142.07H1230.65L1230.79 1143.24C1231 1142.83 1231.31 1142.51 1231.71 1142.26C1232.12 1142.02 1232.6 1141.9 1233.15 1141.9C1234.01 1141.9 1234.68 1142.17 1235.15 1142.71C1235.63 1143.25 1235.86 1144.04 1235.86 1145.09V1149H1234.07V1145.26C1234.07 1144.66 1233.95 1144.2 1233.71 1143.89C1233.47 1143.57 1233.09 1143.41 1232.58 1143.41C1232.08 1143.41 1231.66 1143.59 1231.34 1143.94C1231.02 1144.3 1230.86 1144.79 1230.86 1145.42V1149H1229.07ZM1238.21 1152.07L1239.81 1148.54H1239.4L1236.7 1142.07H1238.64L1240.58 1146.95L1242.61 1142.07H1244.51L1240.11 1152.07H1238.21ZM1249.01 1149V1142.07H1250.59L1250.74 1143.01C1250.97 1142.67 1251.26 1142.4 1251.62 1142.21C1251.99 1142 1252.42 1141.9 1252.91 1141.9C1253.98 1141.9 1254.74 1142.32 1255.19 1143.15C1255.44 1142.76 1255.77 1142.46 1256.19 1142.24C1256.62 1142.01 1257.09 1141.9 1257.59 1141.9C1258.49 1141.9 1259.19 1142.17 1259.67 1142.71C1260.16 1143.25 1260.4 1144.04 1260.4 1145.09V1149H1258.61V1145.26C1258.61 1144.66 1258.49 1144.2 1258.26 1143.89C1258.04 1143.57 1257.69 1143.41 1257.21 1143.41C1256.73 1143.41 1256.34 1143.59 1256.04 1143.94C1255.75 1144.3 1255.6 1144.79 1255.6 1145.42V1149H1253.82V1145.26C1253.82 1144.66 1253.7 1144.2 1253.47 1143.89C1253.23 1143.57 1252.87 1143.41 1252.39 1143.41C1251.92 1143.41 1251.53 1143.59 1251.23 1143.94C1250.94 1144.3 1250.8 1144.79 1250.8 1145.42V1149H1249.01ZM1265.42 1149.17C1264.75 1149.17 1264.14 1149.01 1263.6 1148.71C1263.07 1148.4 1262.65 1147.98 1262.33 1147.43C1262.03 1146.89 1261.87 1146.25 1261.87 1145.53C1261.87 1144.82 1262.03 1144.19 1262.35 1143.65C1262.66 1143.1 1263.09 1142.67 1263.62 1142.36C1264.16 1142.06 1264.76 1141.9 1265.44 1141.9C1266.1 1141.9 1266.69 1142.06 1267.22 1142.36C1267.76 1142.67 1268.19 1143.1 1268.5 1143.65C1268.81 1144.19 1268.97 1144.82 1268.97 1145.53C1268.97 1146.25 1268.81 1146.89 1268.5 1147.43C1268.19 1147.98 1267.76 1148.4 1267.22 1148.71C1266.68 1149.01 1266.08 1149.17 1265.42 1149.17ZM1265.42 1147.62C1265.89 1147.62 1266.29 1147.44 1266.64 1147.1C1266.98 1146.75 1267.15 1146.22 1267.15 1145.53C1267.15 1144.85 1266.98 1144.33 1266.64 1143.98C1266.29 1143.63 1265.89 1143.45 1265.44 1143.45C1264.96 1143.45 1264.55 1143.63 1264.21 1143.98C1263.87 1144.33 1263.7 1144.85 1263.7 1145.53C1263.7 1146.22 1263.87 1146.75 1264.21 1147.1C1264.55 1147.44 1264.96 1147.62 1265.42 1147.62ZM1270.57 1149V1142.07H1272.16L1272.33 1143.37C1272.58 1142.92 1272.92 1142.57 1273.35 1142.31C1273.79 1142.04 1274.3 1141.9 1274.89 1141.9V1143.79H1274.38C1273.99 1143.79 1273.64 1143.85 1273.34 1143.97C1273.03 1144.09 1272.79 1144.3 1272.61 1144.6C1272.44 1144.9 1272.36 1145.31 1272.36 1145.84V1149H1270.57ZM1279.35 1149.17C1278.66 1149.17 1278.04 1149.02 1277.5 1148.72C1276.96 1148.42 1276.53 1148 1276.22 1147.46C1275.92 1146.92 1275.76 1146.3 1275.76 1145.59C1275.76 1144.87 1275.91 1144.23 1276.21 1143.68C1276.52 1143.12 1276.94 1142.68 1277.47 1142.38C1278.01 1142.06 1278.64 1141.9 1279.37 1141.9C1280.05 1141.9 1280.65 1142.05 1281.17 1142.35C1281.69 1142.65 1282.1 1143.06 1282.39 1143.58C1282.69 1144.09 1282.83 1144.66 1282.83 1145.3C1282.83 1145.4 1282.83 1145.51 1282.82 1145.62C1282.82 1145.73 1282.82 1145.85 1282.81 1145.97H1277.54C1277.58 1146.51 1277.76 1146.93 1278.1 1147.24C1278.44 1147.55 1278.86 1147.7 1279.34 1147.7C1279.7 1147.7 1280.01 1147.62 1280.25 1147.46C1280.5 1147.3 1280.69 1147.08 1280.81 1146.82H1282.62C1282.49 1147.26 1282.28 1147.66 1281.97 1148.02C1281.67 1148.38 1281.3 1148.66 1280.85 1148.86C1280.41 1149.07 1279.91 1149.17 1279.35 1149.17ZM1279.37 1143.35C1278.93 1143.35 1278.54 1143.48 1278.21 1143.73C1277.87 1143.97 1277.66 1144.35 1277.57 1144.85H1281.02C1280.99 1144.39 1280.82 1144.03 1280.51 1143.76C1280.21 1143.49 1279.83 1143.35 1279.37 1143.35ZM1285.11 1149.1C1284.78 1149.1 1284.51 1149 1284.3 1148.79C1284.09 1148.59 1283.99 1148.34 1283.99 1148.05C1283.99 1147.75 1284.09 1147.5 1284.3 1147.3C1284.51 1147.09 1284.78 1146.99 1285.11 1146.99C1285.43 1146.99 1285.7 1147.09 1285.9 1147.3C1286.12 1147.5 1286.23 1147.75 1286.23 1148.05C1286.23 1148.34 1286.12 1148.59 1285.9 1148.79C1285.7 1149 1285.43 1149.1 1285.11 1149.1ZM1288.46 1149.1C1288.14 1149.1 1287.87 1149 1287.65 1148.79C1287.45 1148.59 1287.35 1148.34 1287.35 1148.05C1287.35 1147.75 1287.45 1147.5 1287.65 1147.3C1287.87 1147.09 1288.14 1146.99 1288.46 1146.99C1288.79 1146.99 1289.06 1147.09 1289.26 1147.3C1289.47 1147.5 1289.58 1147.75 1289.58 1148.05C1289.58 1148.34 1289.47 1148.59 1289.26 1148.79C1289.06 1149 1288.79 1149.1 1288.46 1149.1ZM1291.82 1149.1C1291.5 1149.1 1291.22 1149 1291.01 1148.79C1290.81 1148.59 1290.7 1148.34 1290.7 1148.05C1290.7 1147.75 1290.81 1147.5 1291.01 1147.3C1291.22 1147.09 1291.5 1146.99 1291.82 1146.99C1292.15 1146.99 1292.41 1147.09 1292.62 1147.3C1292.83 1147.5 1292.94 1147.75 1292.94 1148.05C1292.94 1148.34 1292.83 1148.59 1292.62 1148.79C1292.41 1149 1292.15 1149.1 1291.82 1149.1Z" fill="#5A7184"/>
<path opacity="0.3" d="M1475.37 249.321L1431.34 268.093C1411.87 276.407 1402.87 298.705 1410.94 318.234L1429.71 362.27C1438.03 381.735 1460.33 390.738 1479.85 382.665L1523.89 363.893C1543.36 355.578 1552.36 333.281 1544.29 313.752L1525.51 269.716C1517.44 250.186 1494.9 241.247 1475.37 249.321Z" fill="url(#paint0_linear)"/>
<g clip-path="url(#clip1)">
<g opacity="0.3">
<path d="M1418.26 248.088C1418.26 247.272 1418.91 246.619 1419.73 246.619C1420.54 246.619 1421.2 247.272 1421.2 248.088C1421.2 248.904 1420.54 249.557 1419.73 249.557C1418.91 249.557 1418.26 248.904 1418.26 248.088ZM1410.83 248.088C1410.83 247.272 1411.48 246.619 1412.3 246.619C1413.12 246.619 1413.77 247.272 1413.77 248.088C1413.77 248.904 1413.12 249.557 1412.3 249.557C1411.48 249.557 1410.83 248.904 1410.83 248.088ZM1403.32 248.088C1403.32 247.272 1403.98 246.619 1404.79 246.619C1405.61 246.619 1406.26 247.272 1406.26 248.088C1406.26 248.904 1405.61 249.557 1404.79 249.557C1403.98 249.557 1403.32 248.904 1403.32 248.088ZM1395.9 248.088C1395.9 247.272 1396.55 246.619 1397.37 246.619C1398.18 246.619 1398.83 247.272 1398.83 248.088C1398.83 248.904 1398.18 249.557 1397.37 249.557C1396.55 249.557 1395.9 248.904 1395.9 248.088ZM1388.47 248.088C1388.47 247.272 1389.12 246.619 1389.94 246.619C1390.75 246.619 1391.41 247.272 1391.41 248.088C1391.41 248.904 1390.75 249.557 1389.94 249.557C1389.12 249.557 1388.47 248.904 1388.47 248.088ZM1380.96 248.088C1380.96 247.272 1381.61 246.619 1382.43 246.619C1383.25 246.619 1383.9 247.272 1383.9 248.088C1383.9 248.904 1383.25 249.557 1382.43 249.557C1381.61 249.557 1380.96 248.904 1380.96 248.088ZM1373.53 248.088C1373.53 247.272 1374.19 246.619 1375 246.619C1375.82 246.619 1376.47 247.272 1376.47 248.088C1376.47 248.904 1375.82 249.557 1375 249.557C1374.19 249.557 1373.53 248.904 1373.53 248.088ZM1366.11 248.088C1366.11 247.272 1366.76 246.619 1367.58 246.619C1368.39 246.619 1369.05 247.272 1369.05 248.088C1369.05 248.904 1368.39 249.557 1367.58 249.557C1366.76 249.557 1366.11 248.904 1366.11 248.088ZM1358.6 248.088C1358.6 247.272 1359.25 246.619 1360.07 246.619C1360.88 246.619 1361.54 247.272 1361.54 248.088C1361.54 248.904 1360.88 249.557 1360.07 249.557C1359.25 249.557 1358.6 248.904 1358.6 248.088ZM1351.17 248.088C1351.17 247.272 1351.82 246.619 1352.64 246.619C1353.46 246.619 1354.11 247.272 1354.11 248.088C1354.11 248.904 1353.46 249.557 1352.64 249.557C1351.82 249.557 1351.17 248.904 1351.17 248.088Z" fill="#1565D8"/>
<path d="M1427.15 249.557C1426.75 249.557 1426.42 249.394 1426.09 249.149C1425.85 248.904 1425.69 248.496 1425.69 248.088C1425.69 247.68 1425.85 247.353 1426.09 247.027C1426.66 246.455 1427.64 246.455 1428.13 247.027C1428.38 247.272 1428.54 247.68 1428.54 248.088C1428.54 248.496 1428.38 248.822 1428.13 249.149C1427.97 249.394 1427.56 249.557 1427.15 249.557Z" fill="#1565D8"/>
<path d="M1418.26 256.168C1418.26 255.351 1418.91 254.698 1419.73 254.698C1420.54 254.698 1421.2 255.351 1421.2 256.168C1421.2 256.984 1420.54 257.637 1419.73 257.637C1418.91 257.637 1418.26 256.984 1418.26 256.168ZM1410.83 256.168C1410.83 255.351 1411.48 254.698 1412.3 254.698C1413.12 254.698 1413.77 255.351 1413.77 256.168C1413.77 256.984 1413.12 257.637 1412.3 257.637C1411.48 257.637 1410.83 256.984 1410.83 256.168ZM1403.32 256.168C1403.32 255.351 1403.98 254.698 1404.79 254.698C1405.61 254.698 1406.26 255.351 1406.26 256.168C1406.26 256.984 1405.61 257.637 1404.79 257.637C1403.98 257.637 1403.32 256.984 1403.32 256.168ZM1395.9 256.168C1395.9 255.351 1396.55 254.698 1397.37 254.698C1398.18 254.698 1398.83 255.351 1398.83 256.168C1398.83 256.984 1398.18 257.637 1397.37 257.637C1396.55 257.637 1395.9 256.984 1395.9 256.168ZM1388.47 256.168C1388.47 255.351 1389.12 254.698 1389.94 254.698C1390.75 254.698 1391.41 255.351 1391.41 256.168C1391.41 256.984 1390.75 257.637 1389.94 257.637C1389.12 257.637 1388.47 256.984 1388.47 256.168ZM1380.96 256.168C1380.96 255.351 1381.61 254.698 1382.43 254.698C1383.25 254.698 1383.9 255.351 1383.9 256.168C1383.9 256.984 1383.25 257.637 1382.43 257.637C1381.61 257.637 1380.96 256.984 1380.96 256.168ZM1373.53 256.168C1373.53 255.351 1374.19 254.698 1375 254.698C1375.82 254.698 1376.47 255.351 1376.47 256.168C1376.47 256.984 1375.82 257.637 1375 257.637C1374.19 257.637 1373.53 256.984 1373.53 256.168ZM1366.11 256.168C1366.11 255.351 1366.76 254.698 1367.58 254.698C1368.39 254.698 1369.05 255.351 1369.05 256.168C1369.05 256.984 1368.39 257.637 1367.58 257.637C1366.76 257.637 1366.11 256.984 1366.11 256.168ZM1358.6 256.168C1358.6 255.351 1359.25 254.698 1360.07 254.698C1360.88 254.698 1361.54 255.351 1361.54 256.168C1361.54 256.984 1360.88 257.637 1360.07 257.637C1359.25 257.637 1358.6 256.984 1358.6 256.168ZM1351.17 256.168C1351.17 255.351 1351.82 254.698 1352.64 254.698C1353.46 254.698 1354.11 255.351 1354.11 256.168C1354.11 256.984 1353.46 257.637 1352.64 257.637C1351.82 257.637 1351.17 256.984 1351.17 256.168Z" fill="#1565D8"/>
<path d="M1427.15 257.637C1426.75 257.637 1426.42 257.473 1426.09 257.229C1425.85 256.984 1425.69 256.576 1425.69 256.168C1425.69 255.759 1425.85 255.433 1426.09 255.107C1426.66 254.535 1427.64 254.535 1428.13 255.107C1428.38 255.351 1428.54 255.759 1428.54 256.168C1428.54 256.576 1428.38 256.902 1428.13 257.229C1427.97 257.473 1427.56 257.637 1427.15 257.637Z" fill="#1565D8"/>
<path d="M1418.26 263.921C1418.26 263.105 1418.91 262.452 1419.73 262.452C1420.54 262.452 1421.2 263.105 1421.2 263.921C1421.2 264.737 1420.54 265.39 1419.73 265.39C1418.91 265.39 1418.26 264.737 1418.26 263.921ZM1410.83 263.921C1410.83 263.105 1411.48 262.452 1412.3 262.452C1413.12 262.452 1413.77 263.105 1413.77 263.921C1413.77 264.737 1413.12 265.39 1412.3 265.39C1411.48 265.39 1410.83 264.737 1410.83 263.921ZM1403.32 264.003C1403.32 263.186 1403.98 262.534 1404.79 262.534C1405.61 262.534 1406.26 263.186 1406.26 264.003C1406.26 264.819 1405.61 265.472 1404.79 265.472C1403.98 265.39 1403.32 264.737 1403.32 264.003ZM1395.9 263.921C1395.9 263.105 1396.55 262.452 1397.37 262.452C1398.18 262.452 1398.83 263.105 1398.83 263.921C1398.83 264.737 1398.18 265.39 1397.37 265.39C1396.55 265.39 1395.9 264.737 1395.9 263.921ZM1388.47 263.921C1388.47 263.105 1389.12 262.452 1389.94 262.452C1390.75 262.452 1391.41 263.105 1391.41 263.921C1391.41 264.737 1390.75 265.39 1389.94 265.39C1389.12 265.39 1388.47 264.737 1388.47 263.921ZM1380.96 263.921C1380.96 263.105 1381.61 262.452 1382.43 262.452C1383.25 262.452 1383.9 263.105 1383.9 263.921C1383.9 264.737 1383.25 265.39 1382.43 265.39C1381.61 265.39 1380.96 264.737 1380.96 263.921ZM1373.53 263.921C1373.53 263.105 1374.19 262.452 1375 262.452C1375.82 262.452 1376.47 263.105 1376.47 263.921C1376.47 264.737 1375.82 265.39 1375 265.39C1374.19 265.39 1373.53 264.737 1373.53 263.921ZM1366.11 263.921C1366.11 263.105 1366.76 262.452 1367.58 262.452C1368.39 262.452 1369.05 263.105 1369.05 263.921C1369.05 264.737 1368.39 265.39 1367.58 265.39C1366.76 265.39 1366.11 264.737 1366.11 263.921ZM1358.6 263.921C1358.6 263.105 1359.25 262.452 1360.07 262.452C1360.88 262.452 1361.54 263.105 1361.54 263.921C1361.54 264.737 1360.88 265.39 1360.07 265.39C1359.25 265.39 1358.6 264.737 1358.6 263.921ZM1351.17 263.921C1351.17 263.105 1351.82 262.452 1352.64 262.452C1353.46 262.452 1354.11 263.105 1354.11 263.921C1354.11 264.737 1353.46 265.39 1352.64 265.39C1351.82 265.39 1351.17 264.737 1351.17 263.921Z" fill="#1565D8"/>
<path d="M1427.15 265.39C1426.75 265.39 1426.42 265.227 1426.09 264.982C1425.85 264.737 1425.69 264.329 1425.69 263.921C1425.69 263.513 1425.85 263.186 1426.09 262.86C1426.66 262.289 1427.64 262.289 1428.13 262.86C1428.38 263.105 1428.54 263.513 1428.54 263.921C1428.54 264.329 1428.38 264.655 1428.13 264.982C1427.97 265.308 1427.56 265.39 1427.15 265.39Z" fill="#1565D8"/>
<path d="M1418.26 272.001C1418.26 271.185 1418.91 270.532 1419.73 270.532C1420.54 270.532 1421.2 271.185 1421.2 272.001C1421.2 272.817 1420.54 273.47 1419.73 273.47C1418.91 273.47 1418.26 272.817 1418.26 272.001ZM1410.83 272.001C1410.83 271.185 1411.48 270.532 1412.3 270.532C1413.12 270.532 1413.77 271.185 1413.77 272.001C1413.77 272.817 1413.12 273.47 1412.3 273.47C1411.48 273.47 1410.83 272.817 1410.83 272.001ZM1403.32 272.001C1403.32 271.185 1403.98 270.532 1404.79 270.532C1405.61 270.532 1406.26 271.185 1406.26 272.001C1406.26 272.817 1405.61 273.47 1404.79 273.47C1403.98 273.47 1403.32 272.817 1403.32 272.001ZM1395.9 272.001C1395.9 271.185 1396.55 270.532 1397.37 270.532C1398.18 270.532 1398.83 271.185 1398.83 272.001C1398.83 272.817 1398.18 273.47 1397.37 273.47C1396.55 273.47 1395.9 272.817 1395.9 272.001ZM1388.47 272.001C1388.47 271.185 1389.12 270.532 1389.94 270.532C1390.75 270.532 1391.41 271.185 1391.41 272.001C1391.41 272.817 1390.75 273.47 1389.94 273.47C1389.12 273.47 1388.47 272.817 1388.47 272.001ZM1380.96 272.001C1380.96 271.185 1381.61 270.532 1382.43 270.532C1383.25 270.532 1383.9 271.185 1383.9 272.001C1383.9 272.817 1383.25 273.47 1382.43 273.47C1381.61 273.47 1380.96 272.817 1380.96 272.001ZM1373.53 272.001C1373.53 271.185 1374.19 270.532 1375 270.532C1375.82 270.532 1376.47 271.185 1376.47 272.001C1376.47 272.817 1375.82 273.47 1375 273.47C1374.19 273.47 1373.53 272.817 1373.53 272.001ZM1366.11 272.001C1366.11 271.185 1366.76 270.532 1367.58 270.532C1368.39 270.532 1369.05 271.185 1369.05 272.001C1369.05 272.817 1368.39 273.47 1367.58 273.47C1366.76 273.47 1366.11 272.817 1366.11 272.001ZM1358.6 272.001C1358.6 271.185 1359.25 270.532 1360.07 270.532C1360.88 270.532 1361.54 271.185 1361.54 272.001C1361.54 272.817 1360.88 273.47 1360.07 273.47C1359.25 273.47 1358.6 272.817 1358.6 272.001ZM1351.17 272.001C1351.17 271.185 1351.82 270.532 1352.64 270.532C1353.46 270.532 1354.11 271.185 1354.11 272.001C1354.11 272.817 1353.46 273.47 1352.64 273.47C1351.82 273.47 1351.17 272.817 1351.17 272.001Z" fill="#1565D8"/>
<path d="M1427.15 273.47C1426.75 273.47 1426.42 273.307 1426.09 273.062C1425.85 272.817 1425.69 272.409 1425.69 272.001C1425.69 271.593 1425.85 271.266 1426.09 270.94C1426.66 270.368 1427.64 270.368 1428.13 270.94C1428.38 271.185 1428.54 271.593 1428.54 272.001C1428.54 272.409 1428.38 272.735 1428.13 273.062C1427.97 273.307 1427.56 273.47 1427.15 273.47Z" fill="#1565D8"/>
<path d="M1418.26 279.346C1418.26 278.53 1418.91 277.877 1419.73 277.877C1420.54 277.877 1421.2 278.53 1421.2 279.346C1421.2 280.162 1420.54 280.815 1419.73 280.815C1418.91 280.815 1418.26 280.162 1418.26 279.346ZM1410.83 279.346C1410.83 278.53 1411.48 277.877 1412.3 277.877C1413.12 277.877 1413.77 278.53 1413.77 279.346C1413.77 280.162 1413.12 280.815 1412.3 280.815C1411.48 280.815 1410.83 280.162 1410.83 279.346ZM1403.32 279.346C1403.32 278.53 1403.98 277.877 1404.79 277.877C1405.61 277.877 1406.26 278.53 1406.26 279.346C1406.26 280.162 1405.61 280.815 1404.79 280.815C1403.98 280.815 1403.32 280.162 1403.32 279.346ZM1395.9 279.346C1395.9 278.53 1396.55 277.877 1397.37 277.877C1398.18 277.877 1398.83 278.53 1398.83 279.346C1398.83 280.162 1398.18 280.815 1397.37 280.815C1396.55 280.815 1395.9 280.162 1395.9 279.346ZM1388.47 279.346C1388.47 278.53 1389.12 277.877 1389.94 277.877C1390.75 277.877 1391.41 278.53 1391.41 279.346C1391.41 280.162 1390.75 280.815 1389.94 280.815C1389.12 280.815 1388.47 280.162 1388.47 279.346ZM1380.96 279.346C1380.96 278.53 1381.61 277.877 1382.43 277.877C1383.25 277.877 1383.9 278.53 1383.9 279.346C1383.9 280.162 1383.25 280.815 1382.43 280.815C1381.61 280.815 1380.96 280.162 1380.96 279.346ZM1373.53 279.346C1373.53 278.53 1374.19 277.877 1375 277.877C1375.82 277.877 1376.47 278.53 1376.47 279.346C1376.47 280.162 1375.82 280.815 1375 280.815C1374.19 280.815 1373.53 280.162 1373.53 279.346ZM1366.11 279.346C1366.11 278.53 1366.76 277.877 1367.58 277.877C1368.39 277.877 1369.05 278.53 1369.05 279.346C1369.05 280.162 1368.39 280.815 1367.58 280.815C1366.76 280.815 1366.11 280.162 1366.11 279.346ZM1358.6 279.346C1358.6 278.53 1359.25 277.877 1360.07 277.877C1360.88 277.877 1361.54 278.53 1361.54 279.346C1361.54 280.162 1360.88 280.815 1360.07 280.815C1359.25 280.815 1358.6 280.162 1358.6 279.346ZM1351.17 279.346C1351.17 278.53 1351.82 277.877 1352.64 277.877C1353.46 277.877 1354.11 278.53 1354.11 279.346C1354.11 280.162 1353.46 280.815 1352.64 280.815C1351.82 280.815 1351.17 280.162 1351.17 279.346Z" fill="#1565D8"/>
<path d="M1427.15 280.815C1426.75 280.815 1426.42 280.652 1426.09 280.407C1425.85 280.162 1425.69 279.754 1425.69 279.346C1425.69 278.938 1425.85 278.611 1426.09 278.285C1426.66 277.714 1427.64 277.714 1428.13 278.285C1428.38 278.53 1428.54 278.938 1428.54 279.346C1428.54 279.754 1428.38 280.081 1428.13 280.407C1427.97 280.652 1427.56 280.815 1427.15 280.815Z" fill="#1565D8"/>
<path d="M1418.26 287.426C1418.26 286.61 1418.91 285.957 1419.73 285.957C1420.54 285.957 1421.2 286.61 1421.2 287.426C1421.2 288.242 1420.54 288.895 1419.73 288.895C1418.91 288.895 1418.26 288.242 1418.26 287.426ZM1410.83 287.426C1410.83 286.61 1411.48 285.957 1412.3 285.957C1413.12 285.957 1413.77 286.61 1413.77 287.426C1413.77 288.242 1413.12 288.895 1412.3 288.895C1411.48 288.895 1410.83 288.242 1410.83 287.426ZM1403.32 287.426C1403.32 286.61 1403.98 285.957 1404.79 285.957C1405.61 285.957 1406.26 286.61 1406.26 287.426C1406.26 288.242 1405.61 288.895 1404.79 288.895C1403.98 288.895 1403.32 288.242 1403.32 287.426ZM1395.9 287.426C1395.9 286.61 1396.55 285.957 1397.37 285.957C1398.18 285.957 1398.83 286.61 1398.83 287.426C1398.83 288.242 1398.18 288.895 1397.37 288.895C1396.55 288.895 1395.9 288.242 1395.9 287.426ZM1388.47 287.426C1388.47 286.61 1389.12 285.957 1389.94 285.957C1390.75 285.957 1391.41 286.61 1391.41 287.426C1391.41 288.242 1390.75 288.895 1389.94 288.895C1389.12 288.895 1388.47 288.242 1388.47 287.426ZM1380.96 287.426C1380.96 286.61 1381.61 285.957 1382.43 285.957C1383.25 285.957 1383.9 286.61 1383.9 287.426C1383.9 288.242 1383.25 288.895 1382.43 288.895C1381.61 288.895 1380.96 288.242 1380.96 287.426ZM1373.53 287.426C1373.53 286.61 1374.19 285.957 1375 285.957C1375.82 285.957 1376.47 286.61 1376.47 287.426C1376.47 288.242 1375.82 288.895 1375 288.895C1374.19 288.895 1373.53 288.242 1373.53 287.426ZM1366.11 287.426C1366.11 286.61 1366.76 285.957 1367.58 285.957C1368.39 285.957 1369.05 286.61 1369.05 287.426C1369.05 288.242 1368.39 288.895 1367.58 288.895C1366.76 288.895 1366.11 288.242 1366.11 287.426ZM1358.6 287.426C1358.6 286.61 1359.25 285.957 1360.07 285.957C1360.88 285.957 1361.54 286.61 1361.54 287.426C1361.54 288.242 1360.88 288.895 1360.07 288.895C1359.25 288.895 1358.6 288.242 1358.6 287.426ZM1351.17 287.426C1351.17 286.61 1351.82 285.957 1352.64 285.957C1353.46 285.957 1354.11 286.61 1354.11 287.426C1354.11 288.242 1353.46 288.895 1352.64 288.895C1351.82 288.895 1351.17 288.242 1351.17 287.426Z" fill="#1565D8"/>
<path d="M1427.15 288.895C1426.75 288.895 1426.42 288.732 1426.09 288.487C1425.85 288.242 1425.69 287.834 1425.69 287.426C1425.69 287.018 1425.85 286.691 1426.09 286.365C1426.66 285.793 1427.64 285.793 1428.13 286.365C1428.38 286.61 1428.54 287.018 1428.54 287.426C1428.54 287.834 1428.38 288.16 1428.13 288.487C1427.97 288.732 1427.56 288.895 1427.15 288.895Z" fill="#1565D8"/>
<path d="M1418.26 295.179C1418.26 294.363 1418.91 293.71 1419.73 293.71C1420.54 293.71 1421.2 294.363 1421.2 295.179C1421.2 295.995 1420.54 296.648 1419.73 296.648C1418.91 296.648 1418.26 295.995 1418.26 295.179ZM1410.83 295.179C1410.83 294.363 1411.48 293.71 1412.3 293.71C1413.12 293.71 1413.77 294.363 1413.77 295.179C1413.77 295.995 1413.12 296.648 1412.3 296.648C1411.48 296.648 1410.83 295.995 1410.83 295.179ZM1403.32 295.179C1403.32 294.363 1403.98 293.71 1404.79 293.71C1405.61 293.71 1406.26 294.363 1406.26 295.179C1406.26 295.995 1405.61 296.648 1404.79 296.648C1403.98 296.648 1403.32 295.995 1403.32 295.179ZM1395.9 295.179C1395.9 294.363 1396.55 293.71 1397.37 293.71C1398.18 293.71 1398.83 294.363 1398.83 295.179C1398.83 295.995 1398.18 296.648 1397.37 296.648C1396.55 296.648 1395.9 295.995 1395.9 295.179ZM1388.47 295.179C1388.47 294.363 1389.12 293.71 1389.94 293.71C1390.75 293.71 1391.41 294.363 1391.41 295.179C1391.41 295.995 1390.75 296.648 1389.94 296.648C1389.12 296.648 1388.47 295.995 1388.47 295.179ZM1380.96 295.179C1380.96 294.363 1381.61 293.71 1382.43 293.71C1383.25 293.71 1383.9 294.363 1383.9 295.179C1383.9 295.995 1383.25 296.648 1382.43 296.648C1381.61 296.648 1380.96 295.995 1380.96 295.179ZM1373.53 295.179C1373.53 294.363 1374.19 293.71 1375 293.71C1375.82 293.71 1376.47 294.363 1376.47 295.179C1376.47 295.995 1375.82 296.648 1375 296.648C1374.19 296.648 1373.53 295.995 1373.53 295.179ZM1366.11 295.179C1366.11 294.363 1366.76 293.71 1367.58 293.71C1368.39 293.71 1369.05 294.363 1369.05 295.179C1369.05 295.995 1368.39 296.648 1367.58 296.648C1366.76 296.648 1366.11 295.995 1366.11 295.179ZM1358.6 295.179C1358.6 294.363 1359.25 293.71 1360.07 293.71C1360.88 293.71 1361.54 294.363 1361.54 295.179C1361.54 295.995 1360.88 296.648 1360.07 296.648C1359.25 296.648 1358.6 295.995 1358.6 295.179ZM1351.17 295.179C1351.17 294.363 1351.82 293.71 1352.64 293.71C1353.46 293.71 1354.11 294.363 1354.11 295.179C1354.11 295.995 1353.46 296.648 1352.64 296.648C1351.82 296.648 1351.17 295.995 1351.17 295.179Z" fill="#1565D8"/>
<path d="M1427.15 296.648C1426.75 296.648 1426.42 296.485 1426.09 296.24C1425.85 295.995 1425.69 295.587 1425.69 295.179C1425.69 294.771 1425.85 294.445 1426.09 294.118C1426.66 293.547 1427.64 293.547 1428.13 294.118C1428.38 294.363 1428.54 294.771 1428.54 295.179C1428.54 295.587 1428.38 295.914 1428.13 296.24C1427.97 296.485 1427.56 296.648 1427.15 296.648Z" fill="#1565D8"/>
<path d="M1418.26 303.259C1418.26 302.443 1418.91 301.79 1419.73 301.79C1420.54 301.79 1421.2 302.443 1421.2 303.259C1421.2 304.075 1420.54 304.728 1419.73 304.728C1418.91 304.728 1418.26 304.075 1418.26 303.259ZM1410.83 303.259C1410.83 302.443 1411.48 301.79 1412.3 301.79C1413.12 301.79 1413.77 302.443 1413.77 303.259C1413.77 304.075 1413.12 304.728 1412.3 304.728C1411.48 304.728 1410.83 304.075 1410.83 303.259ZM1403.32 303.259C1403.32 302.443 1403.98 301.79 1404.79 301.79C1405.61 301.79 1406.26 302.443 1406.26 303.259C1406.26 304.075 1405.61 304.728 1404.79 304.728C1403.98 304.728 1403.32 304.075 1403.32 303.259ZM1395.9 303.259C1395.9 302.443 1396.55 301.79 1397.37 301.79C1398.18 301.79 1398.83 302.443 1398.83 303.259C1398.83 304.075 1398.18 304.728 1397.37 304.728C1396.55 304.728 1395.9 304.075 1395.9 303.259ZM1388.47 303.259C1388.47 302.443 1389.12 301.79 1389.94 301.79C1390.75 301.79 1391.41 302.443 1391.41 303.259C1391.41 304.075 1390.75 304.728 1389.94 304.728C1389.12 304.728 1388.47 304.075 1388.47 303.259ZM1380.96 303.259C1380.96 302.443 1381.61 301.79 1382.43 301.79C1383.25 301.79 1383.9 302.443 1383.9 303.259C1383.9 304.075 1383.25 304.728 1382.43 304.728C1381.61 304.728 1380.96 304.075 1380.96 303.259ZM1373.53 303.259C1373.53 302.443 1374.19 301.79 1375 301.79C1375.82 301.79 1376.47 302.443 1376.47 303.259C1376.47 304.075 1375.82 304.728 1375 304.728C1374.19 304.728 1373.53 304.075 1373.53 303.259ZM1366.11 303.259C1366.11 302.443 1366.76 301.79 1367.58 301.79C1368.39 301.79 1369.05 302.443 1369.05 303.259C1369.05 304.075 1368.39 304.728 1367.58 304.728C1366.76 304.728 1366.11 304.075 1366.11 303.259ZM1358.6 303.259C1358.6 302.443 1359.25 301.79 1360.07 301.79C1360.88 301.79 1361.54 302.443 1361.54 303.259C1361.54 304.075 1360.88 304.728 1360.07 304.728C1359.25 304.728 1358.6 304.075 1358.6 303.259ZM1351.17 303.259C1351.17 302.443 1351.82 301.79 1352.64 301.79C1353.46 301.79 1354.11 302.443 1354.11 303.259C1354.11 304.075 1353.46 304.728 1352.64 304.728C1351.82 304.728 1351.17 304.075 1351.17 303.259Z" fill="#1565D8"/>
<path d="M1427.15 304.728C1426.75 304.728 1426.42 304.565 1426.09 304.32C1425.85 304.075 1425.69 303.667 1425.69 303.259C1425.69 302.851 1425.85 302.524 1426.09 302.198C1426.66 301.627 1427.64 301.627 1428.13 302.198C1428.38 302.443 1428.54 302.851 1428.54 303.259C1428.54 303.667 1428.38 303.993 1428.13 304.32C1427.97 304.565 1427.56 304.728 1427.15 304.728Z" fill="#1565D8"/>
<path d="M1418.26 311.828C1418.26 311.012 1418.91 310.359 1419.73 310.359C1420.54 310.359 1421.2 311.012 1421.2 311.828C1421.2 312.645 1420.54 313.297 1419.73 313.297C1418.91 313.297 1418.26 312.645 1418.26 311.828ZM1410.83 311.828C1410.83 311.012 1411.48 310.359 1412.3 310.359C1413.12 310.359 1413.77 311.012 1413.77 311.828C1413.77 312.645 1413.12 313.297 1412.3 313.297C1411.48 313.297 1410.83 312.645 1410.83 311.828ZM1403.32 311.828C1403.32 311.012 1403.98 310.359 1404.79 310.359C1405.61 310.359 1406.26 311.012 1406.26 311.828C1406.26 312.645 1405.61 313.297 1404.79 313.297C1403.98 313.297 1403.32 312.645 1403.32 311.828ZM1395.9 311.828C1395.9 311.012 1396.55 310.359 1397.37 310.359C1398.18 310.359 1398.83 311.012 1398.83 311.828C1398.83 312.645 1398.18 313.297 1397.37 313.297C1396.55 313.297 1395.9 312.645 1395.9 311.828ZM1388.47 311.828C1388.47 311.012 1389.12 310.359 1389.94 310.359C1390.75 310.359 1391.41 311.012 1391.41 311.828C1391.41 312.645 1390.75 313.297 1389.94 313.297C1389.12 313.297 1388.47 312.645 1388.47 311.828ZM1380.96 311.828C1380.96 311.012 1381.61 310.359 1382.43 310.359C1383.25 310.359 1383.9 311.012 1383.9 311.828C1383.9 312.645 1383.25 313.297 1382.43 313.297C1381.61 313.297 1380.96 312.645 1380.96 311.828ZM1373.53 311.828C1373.53 311.012 1374.19 310.359 1375 310.359C1375.82 310.359 1376.47 311.012 1376.47 311.828C1376.47 312.645 1375.82 313.297 1375 313.297C1374.19 313.297 1373.53 312.645 1373.53 311.828ZM1366.11 311.828C1366.11 311.012 1366.76 310.359 1367.58 310.359C1368.39 310.359 1369.05 311.012 1369.05 311.828C1369.05 312.645 1368.39 313.297 1367.58 313.297C1366.76 313.297 1366.11 312.645 1366.11 311.828ZM1358.6 311.828C1358.6 311.012 1359.25 310.359 1360.07 310.359C1360.88 310.359 1361.54 311.012 1361.54 311.828C1361.54 312.645 1360.88 313.297 1360.07 313.297C1359.25 313.297 1358.6 312.645 1358.6 311.828ZM1351.17 311.828C1351.17 311.012 1351.82 310.359 1352.64 310.359C1353.46 310.359 1354.11 311.012 1354.11 311.828C1354.11 312.645 1353.46 313.297 1352.64 313.297C1351.82 313.297 1351.17 312.645 1351.17 311.828Z" fill="#1565D8"/>
<path d="M1427.15 313.297C1426.75 313.297 1426.42 313.134 1426.09 312.889C1425.85 312.644 1425.69 312.236 1425.69 311.828C1425.69 311.42 1425.85 311.094 1426.09 310.767C1426.66 310.196 1427.64 310.196 1428.13 310.767C1428.38 311.012 1428.54 311.42 1428.54 311.828C1428.54 312.236 1428.38 312.563 1428.13 312.889C1427.97 313.134 1427.56 313.297 1427.15 313.297Z" fill="#1565D8"/>
<path d="M1418.26 319.908C1418.26 319.092 1418.91 318.439 1419.73 318.439C1420.54 318.439 1421.2 319.092 1421.2 319.908C1421.2 320.724 1420.54 321.377 1419.73 321.377C1418.91 321.377 1418.26 320.724 1418.26 319.908ZM1410.83 319.908C1410.83 319.092 1411.48 318.439 1412.3 318.439C1413.12 318.439 1413.77 319.092 1413.77 319.908C1413.77 320.724 1413.12 321.377 1412.3 321.377C1411.48 321.377 1410.83 320.724 1410.83 319.908ZM1403.32 319.908C1403.32 319.092 1403.98 318.439 1404.79 318.439C1405.61 318.439 1406.26 319.092 1406.26 319.908C1406.26 320.724 1405.61 321.377 1404.79 321.377C1403.98 321.377 1403.32 320.724 1403.32 319.908ZM1395.9 319.908C1395.9 319.092 1396.55 318.439 1397.37 318.439C1398.18 318.439 1398.83 319.092 1398.83 319.908C1398.83 320.724 1398.18 321.377 1397.37 321.377C1396.55 321.377 1395.9 320.724 1395.9 319.908ZM1388.47 319.908C1388.47 319.092 1389.12 318.439 1389.94 318.439C1390.75 318.439 1391.41 319.092 1391.41 319.908C1391.41 320.724 1390.75 321.377 1389.94 321.377C1389.12 321.377 1388.47 320.724 1388.47 319.908ZM1380.96 319.908C1380.96 319.092 1381.61 318.439 1382.43 318.439C1383.25 318.439 1383.9 319.092 1383.9 319.908C1383.9 320.724 1383.25 321.377 1382.43 321.377C1381.61 321.377 1380.96 320.724 1380.96 319.908ZM1373.53 319.908C1373.53 319.092 1374.19 318.439 1375 318.439C1375.82 318.439 1376.47 319.092 1376.47 319.908C1376.47 320.724 1375.82 321.377 1375 321.377C1374.19 321.377 1373.53 320.724 1373.53 319.908ZM1366.11 319.908C1366.11 319.092 1366.76 318.439 1367.58 318.439C1368.39 318.439 1369.05 319.092 1369.05 319.908C1369.05 320.724 1368.39 321.377 1367.58 321.377C1366.76 321.377 1366.11 320.724 1366.11 319.908ZM1358.6 319.908C1358.6 319.092 1359.25 318.439 1360.07 318.439C1360.88 318.439 1361.54 319.092 1361.54 319.908C1361.54 320.724 1360.88 321.377 1360.07 321.377C1359.25 321.377 1358.6 320.724 1358.6 319.908ZM1351.17 319.908C1351.17 319.092 1351.82 318.439 1352.64 318.439C1353.46 318.439 1354.11 319.092 1354.11 319.908C1354.11 320.724 1353.46 321.377 1352.64 321.377C1351.82 321.377 1351.17 320.724 1351.17 319.908Z" fill="#1565D8"/>
<path d="M1427.15 321.377C1426.75 321.377 1426.42 321.214 1426.09 320.969C1425.85 320.724 1425.69 320.316 1425.69 319.908C1425.69 319.5 1425.85 319.174 1426.09 318.847C1426.66 318.276 1427.64 318.276 1428.13 318.847C1428.38 319.092 1428.54 319.5 1428.54 319.908C1428.54 320.316 1428.38 320.643 1428.13 320.969C1427.97 321.214 1427.56 321.377 1427.15 321.377Z" fill="#1565D8"/>
<path d="M1418.26 327.743C1418.26 326.927 1418.91 326.274 1419.73 326.274C1420.54 326.274 1421.2 326.927 1421.2 327.743C1421.2 328.559 1420.54 329.212 1419.73 329.212C1418.91 329.212 1418.26 328.559 1418.26 327.743ZM1410.83 327.743C1410.83 326.927 1411.48 326.274 1412.3 326.274C1413.12 326.274 1413.77 326.927 1413.77 327.743C1413.77 328.559 1413.12 329.212 1412.3 329.212C1411.48 329.212 1410.83 328.559 1410.83 327.743ZM1403.32 327.743C1403.32 326.927 1403.98 326.274 1404.79 326.274C1405.61 326.274 1406.26 326.927 1406.26 327.743C1406.26 328.559 1405.61 329.212 1404.79 329.212C1403.98 329.212 1403.32 328.559 1403.32 327.743ZM1395.9 327.743C1395.9 326.927 1396.55 326.274 1397.37 326.274C1398.18 326.274 1398.83 326.927 1398.83 327.743C1398.83 328.559 1398.18 329.212 1397.37 329.212C1396.55 329.212 1395.9 328.559 1395.9 327.743ZM1388.47 327.743C1388.47 326.927 1389.12 326.274 1389.94 326.274C1390.75 326.274 1391.41 326.927 1391.41 327.743C1391.41 328.559 1390.75 329.212 1389.94 329.212C1389.12 329.212 1388.47 328.559 1388.47 327.743ZM1380.96 327.743C1380.96 326.927 1381.61 326.274 1382.43 326.274C1383.25 326.274 1383.9 326.927 1383.9 327.743C1383.9 328.559 1383.25 329.212 1382.43 329.212C1381.61 329.212 1380.96 328.559 1380.96 327.743ZM1373.53 327.743C1373.53 326.927 1374.19 326.274 1375 326.274C1375.82 326.274 1376.47 326.927 1376.47 327.743C1376.47 328.559 1375.82 329.212 1375 329.212C1374.19 329.212 1373.53 328.559 1373.53 327.743ZM1366.11 327.743C1366.11 326.927 1366.76 326.274 1367.58 326.274C1368.39 326.274 1369.05 326.927 1369.05 327.743C1369.05 328.559 1368.39 329.212 1367.58 329.212C1366.76 329.212 1366.11 328.559 1366.11 327.743ZM1358.6 327.743C1358.6 326.927 1359.25 326.274 1360.07 326.274C1360.88 326.274 1361.54 326.927 1361.54 327.743C1361.54 328.559 1360.88 329.212 1360.07 329.212C1359.25 329.212 1358.6 328.559 1358.6 327.743ZM1351.17 327.743C1351.17 326.927 1351.82 326.274 1352.64 326.274C1353.46 326.274 1354.11 326.927 1354.11 327.743C1354.11 328.559 1353.46 329.212 1352.64 329.212C1351.82 329.212 1351.17 328.559 1351.17 327.743Z" fill="#1565D8"/>
<path d="M1427.15 329.212C1426.75 329.212 1426.42 329.049 1426.09 328.804C1425.85 328.559 1425.69 328.151 1425.69 327.743C1425.69 327.335 1425.85 327.009 1426.09 326.682C1426.66 326.111 1427.64 326.111 1428.13 326.682C1428.38 326.927 1428.54 327.335 1428.54 327.743C1428.54 328.151 1428.38 328.478 1428.13 328.804C1427.97 329.049 1427.56 329.212 1427.15 329.212Z" fill="#1565D8"/>
</g>
</g>
<path fill-rule="evenodd" clip-rule="evenodd" d="M-146.5 281C-422.366 281 -646 57.3663 -646 -218.5C-646 -494.366 -422.366 -718 -146.5 -718C129.366 -718 353 -494.366 353 -218.5C353 57.3663 129.366 281 -146.5 281ZM-146.5 112.535C36.325 112.535 184.534 -35.6746 184.534 -218.5C184.534 -401.325 36.325 -549.534 -146.5 -549.534C-329.326 -549.534 -477.535 -401.325 -477.535 -218.5C-477.535 -35.6746 -329.326 112.535 -146.5 112.535Z" fill="url(#paint1_linear)"/>
<path opacity="0.25" d="M1.33189 512.623L32.1075 527.1C45.7103 533.511 51.5208 549.577 45.2789 563.232L30.8015 594.008C24.3902 607.611 8.32426 613.421 -5.33065 607.179L-36.1063 592.702C-49.709 586.291 -55.5196 570.225 -49.2777 556.57L-34.8003 525.794C-28.5584 512.139 -12.323 506.381 1.33189 512.623Z" fill="url(#paint2_linear)"/>
<g clip-path="url(#clip2)">
<g opacity="0.5">
<path d="M18.6982 561.377C18.6982 560.623 19.3018 560.019 20.0564 560.019C20.8109 560.019 21.4145 560.623 21.4145 561.377C21.4145 562.132 20.8109 562.735 20.0564 562.735C19.3018 562.735 18.6982 562.132 18.6982 561.377ZM11.832 561.377C11.832 560.623 12.4356 560.019 13.1901 560.019C13.9447 560.019 14.5483 560.623 14.5483 561.377C14.5483 562.132 13.9447 562.735 13.1901 562.735C12.4356 562.735 11.832 562.132 11.832 561.377ZM4.89029 561.377C4.89029 560.623 5.49393 560.019 6.24846 560.019C7.00299 560.019 7.60661 560.623 7.60661 561.377C7.60661 562.132 7.00299 562.735 6.24846 562.735C5.49393 562.735 4.89029 562.132 4.89029 561.377ZM-1.97594 561.377C-1.97594 560.623 -1.3723 560.019 -0.617771 560.019C0.136761 560.019 0.740376 560.623 0.740376 561.377C0.740376 562.132 0.136761 562.735 -0.617771 562.735C-1.3723 562.735 -1.97594 562.132 -1.97594 561.377ZM-8.84215 561.377C-8.84215 560.623 -8.23854 560.019 -7.484 560.019C-6.72948 560.019 -6.12586 560.623 -6.12586 561.377C-6.12586 562.132 -6.72948 562.735 -7.484 562.735C-8.23854 562.735 -8.84215 562.132 -8.84215 561.377ZM-15.7838 561.377C-15.7838 560.623 -15.1802 560.019 -14.4257 560.019C-13.6712 560.019 -13.0675 560.623 -13.0675 561.377C-13.0675 562.132 -13.6712 562.735 -14.4257 562.735C-15.1802 562.735 -15.7838 562.132 -15.7838 561.377ZM-22.6501 561.377C-22.6501 560.623 -22.0464 560.019 -21.2919 560.019C-20.5374 560.019 -19.9338 560.623 -19.9338 561.377C-19.9338 562.132 -20.5374 562.735 -21.2919 562.735C-22.0464 562.735 -22.6501 562.132 -22.6501 561.377ZM-29.5163 561.377C-29.5163 560.623 -28.9127 560.019 -28.1581 560.019C-27.4036 560.019 -26.8 560.623 -26.8 561.377C-26.8 562.132 -27.4036 562.735 -28.1581 562.735C-28.9127 562.735 -29.5163 562.132 -29.5163 561.377ZM-36.458 561.377C-36.458 560.623 -35.8544 560.019 -35.0998 560.019C-34.3453 560.019 -33.7417 560.623 -33.7417 561.377C-33.7417 562.132 -34.3453 562.735 -35.0998 562.735C-35.8544 562.735 -36.458 562.132 -36.458 561.377ZM-43.3242 561.377C-43.3242 560.623 -42.7206 560.019 -41.9661 560.019C-41.2115 560.019 -40.6079 560.623 -40.6079 561.377C-40.6079 562.132 -41.2115 562.735 -41.9661 562.735C-42.7206 562.735 -43.3242 562.132 -43.3242 561.377Z" fill="#1565D8"/>
<path d="M26.9226 562.735C26.5454 562.735 26.2435 562.584 25.9417 562.358C25.7154 562.132 25.5645 561.754 25.5645 561.377C25.5645 561 25.7154 560.698 25.9417 560.396C26.4699 559.868 27.3753 559.868 27.828 560.396C28.0544 560.622 28.2053 561 28.2053 561.377C28.2053 561.754 28.0544 562.056 27.828 562.358C27.6771 562.584 27.2999 562.735 26.9226 562.735Z" fill="#1565D8"/>
<path d="M18.6982 568.847C18.6982 568.092 19.3018 567.489 20.0564 567.489C20.8109 567.489 21.4145 568.092 21.4145 568.847C21.4145 569.601 20.8109 570.205 20.0564 570.205C19.3018 570.205 18.6982 569.601 18.6982 568.847ZM11.832 568.847C11.832 568.092 12.4356 567.489 13.1901 567.489C13.9447 567.489 14.5483 568.092 14.5483 568.847C14.5483 569.601 13.9447 570.205 13.1901 570.205C12.4356 570.205 11.832 569.601 11.832 568.847ZM4.89029 568.847C4.89029 568.092 5.49393 567.489 6.24846 567.489C7.00299 567.489 7.60661 568.092 7.60661 568.847C7.60661 569.601 7.00299 570.205 6.24846 570.205C5.49393 570.205 4.89029 569.601 4.89029 568.847ZM-1.97594 568.847C-1.97594 568.092 -1.3723 567.489 -0.617771 567.489C0.136761 567.489 0.740376 568.092 0.740376 568.847C0.740376 569.601 0.136761 570.205 -0.617771 570.205C-1.3723 570.205 -1.97594 569.601 -1.97594 568.847ZM-8.84215 568.847C-8.84215 568.092 -8.23854 567.489 -7.484 567.489C-6.72948 567.489 -6.12586 568.092 -6.12586 568.847C-6.12586 569.601 -6.72948 570.205 -7.484 570.205C-8.23854 570.205 -8.84215 569.601 -8.84215 568.847ZM-15.7838 568.847C-15.7838 568.092 -15.1802 567.489 -14.4257 567.489C-13.6712 567.489 -13.0675 568.092 -13.0675 568.847C-13.0675 569.601 -13.6712 570.205 -14.4257 570.205C-15.1802 570.205 -15.7838 569.601 -15.7838 568.847ZM-22.6501 568.847C-22.6501 568.092 -22.0464 567.489 -21.2919 567.489C-20.5374 567.489 -19.9338 568.092 -19.9338 568.847C-19.9338 569.601 -20.5374 570.205 -21.2919 570.205C-22.0464 570.205 -22.6501 569.601 -22.6501 568.847ZM-29.5163 568.847C-29.5163 568.092 -28.9127 567.489 -28.1581 567.489C-27.4036 567.489 -26.8 568.092 -26.8 568.847C-26.8 569.601 -27.4036 570.205 -28.1581 570.205C-28.9127 570.205 -29.5163 569.601 -29.5163 568.847ZM-36.458 568.847C-36.458 568.092 -35.8544 567.489 -35.0998 567.489C-34.3453 567.489 -33.7417 568.092 -33.7417 568.847C-33.7417 569.601 -34.3453 570.205 -35.0998 570.205C-35.8544 570.205 -36.458 569.601 -36.458 568.847ZM-43.3242 568.847C-43.3242 568.092 -42.7206 567.489 -41.9661 567.489C-41.2115 567.489 -40.6079 568.092 -40.6079 568.847C-40.6079 569.601 -41.2115 570.205 -41.9661 570.205C-42.7206 570.205 -43.3242 569.601 -43.3242 568.847Z" fill="#1565D8"/>
<path d="M26.9226 570.205C26.5454 570.205 26.2435 570.054 25.9417 569.828C25.7154 569.601 25.5645 569.224 25.5645 568.847C25.5645 568.47 25.7154 568.168 25.9417 567.866C26.4699 567.338 27.3753 567.338 27.828 567.866C28.0544 568.092 28.2053 568.47 28.2053 568.847C28.2053 569.224 28.0544 569.526 27.828 569.828C27.6771 570.054 27.2999 570.205 26.9226 570.205Z" fill="#1565D8"/>
<path d="M18.6982 576.015C18.6982 575.26 19.3018 574.657 20.0564 574.657C20.8109 574.657 21.4145 575.26 21.4145 576.015C21.4145 576.769 20.8109 577.373 20.0564 577.373C19.3018 577.373 18.6982 576.769 18.6982 576.015ZM11.832 576.015C11.832 575.26 12.4356 574.657 13.1901 574.657C13.9447 574.657 14.5483 575.26 14.5483 576.015C14.5483 576.769 13.9447 577.373 13.1901 577.373C12.4356 577.373 11.832 576.769 11.832 576.015ZM4.89029 576.09C4.89029 575.336 5.49393 574.732 6.24846 574.732C7.00299 574.732 7.60661 575.336 7.60661 576.09C7.60661 576.845 7.00299 577.448 6.24846 577.448C5.49393 577.373 4.89029 576.769 4.89029 576.09ZM-1.97594 576.015C-1.97594 575.26 -1.3723 574.657 -0.617771 574.657C0.136761 574.657 0.740376 575.26 0.740376 576.015C0.740376 576.769 0.136761 577.373 -0.617771 577.373C-1.3723 577.373 -1.97594 576.769 -1.97594 576.015ZM-8.84215 576.015C-8.84215 575.26 -8.23854 574.657 -7.484 574.657C-6.72948 574.657 -6.12586 575.26 -6.12586 576.015C-6.12586 576.769 -6.72948 577.373 -7.484 577.373C-8.23854 577.373 -8.84215 576.769 -8.84215 576.015ZM-15.7838 576.015C-15.7838 575.26 -15.1802 574.657 -14.4257 574.657C-13.6712 574.657 -13.0675 575.26 -13.0675 576.015C-13.0675 576.769 -13.6712 577.373 -14.4257 577.373C-15.1802 577.373 -15.7838 576.769 -15.7838 576.015ZM-22.6501 576.015C-22.6501 575.26 -22.0464 574.657 -21.2919 574.657C-20.5374 574.657 -19.9338 575.26 -19.9338 576.015C-19.9338 576.769 -20.5374 577.373 -21.2919 577.373C-22.0464 577.373 -22.6501 576.769 -22.6501 576.015ZM-29.5163 576.015C-29.5163 575.26 -28.9127 574.657 -28.1581 574.657C-27.4036 574.657 -26.8 575.26 -26.8 576.015C-26.8 576.769 -27.4036 577.373 -28.1581 577.373C-28.9127 577.373 -29.5163 576.769 -29.5163 576.015ZM-36.458 576.015C-36.458 575.26 -35.8544 574.657 -35.0998 574.657C-34.3453 574.657 -33.7417 575.26 -33.7417 576.015C-33.7417 576.769 -34.3453 577.373 -35.0998 577.373C-35.8544 577.373 -36.458 576.769 -36.458 576.015ZM-43.3242 576.015C-43.3242 575.26 -42.7206 574.657 -41.9661 574.657C-41.2115 574.657 -40.6079 575.26 -40.6079 576.015C-40.6079 576.769 -41.2115 577.373 -41.9661 577.373C-42.7206 577.373 -43.3242 576.769 -43.3242 576.015Z" fill="#1565D8"/>
<path d="M26.9226 577.373C26.5454 577.373 26.2435 577.222 25.9417 576.996C25.7154 576.769 25.5645 576.392 25.5645 576.015C25.5645 575.638 25.7154 575.336 25.9417 575.034C26.4699 574.506 27.3753 574.506 27.828 575.034C28.0544 575.26 28.2053 575.638 28.2053 576.015C28.2053 576.392 28.0544 576.694 27.828 576.996C27.6771 577.298 27.2999 577.373 26.9226 577.373Z" fill="#1565D8"/>
<path d="M18.6982 583.485C18.6982 582.73 19.3018 582.127 20.0564 582.127C20.8109 582.127 21.4145 582.73 21.4145 583.485C21.4145 584.239 20.8109 584.843 20.0564 584.843C19.3018 584.843 18.6982 584.239 18.6982 583.485ZM11.832 583.485C11.832 582.73 12.4356 582.127 13.1901 582.127C13.9447 582.127 14.5483 582.73 14.5483 583.485C14.5483 584.239 13.9447 584.843 13.1901 584.843C12.4356 584.843 11.832 584.239 11.832 583.485ZM4.89029 583.485C4.89029 582.73 5.49393 582.127 6.24846 582.127C7.00299 582.127 7.60661 582.73 7.60661 583.485C7.60661 584.239 7.00299 584.843 6.24846 584.843C5.49393 584.843 4.89029 584.239 4.89029 583.485ZM-1.97594 583.485C-1.97594 582.73 -1.3723 582.127 -0.617771 582.127C0.136761 582.127 0.740376 582.73 0.740376 583.485C0.740376 584.239 0.136761 584.843 -0.617771 584.843C-1.3723 584.843 -1.97594 584.239 -1.97594 583.485ZM-8.84215 583.485C-8.84215 582.73 -8.23854 582.127 -7.484 582.127C-6.72948 582.127 -6.12586 582.73 -6.12586 583.485C-6.12586 584.239 -6.72948 584.843 -7.484 584.843C-8.23854 584.843 -8.84215 584.239 -8.84215 583.485ZM-15.7838 583.485C-15.7838 582.73 -15.1802 582.127 -14.4257 582.127C-13.6712 582.127 -13.0675 582.73 -13.0675 583.485C-13.0675 584.239 -13.6712 584.843 -14.4257 584.843C-15.1802 584.843 -15.7838 584.239 -15.7838 583.485ZM-22.6501 583.485C-22.6501 582.73 -22.0464 582.127 -21.2919 582.127C-20.5374 582.127 -19.9338 582.73 -19.9338 583.485C-19.9338 584.239 -20.5374 584.843 -21.2919 584.843C-22.0464 584.843 -22.6501 584.239 -22.6501 583.485ZM-29.5163 583.485C-29.5163 582.73 -28.9127 582.127 -28.1581 582.127C-27.4036 582.127 -26.8 582.73 -26.8 583.485C-26.8 584.239 -27.4036 584.843 -28.1581 584.843C-28.9127 584.843 -29.5163 584.239 -29.5163 583.485ZM-36.458 583.485C-36.458 582.73 -35.8544 582.127 -35.0998 582.127C-34.3453 582.127 -33.7417 582.73 -33.7417 583.485C-33.7417 584.239 -34.3453 584.843 -35.0998 584.843C-35.8544 584.843 -36.458 584.239 -36.458 583.485ZM-43.3242 583.485C-43.3242 582.73 -42.7206 582.127 -41.9661 582.127C-41.2115 582.127 -40.6079 582.73 -40.6079 583.485C-40.6079 584.239 -41.2115 584.843 -41.9661 584.843C-42.7206 584.843 -43.3242 584.239 -43.3242 583.485Z" fill="#1565D8"/>
<path d="M26.9226 584.843C26.5454 584.843 26.2435 584.692 25.9417 584.466C25.7154 584.239 25.5645 583.862 25.5645 583.485C25.5645 583.108 25.7154 582.806 25.9417 582.504C26.4699 581.976 27.3753 581.976 27.828 582.504C28.0544 582.73 28.2053 583.108 28.2053 583.485C28.2053 583.862 28.0544 584.164 27.828 584.466C27.6771 584.692 27.2999 584.843 26.9226 584.843Z" fill="#1565D8"/>
<path d="M18.6982 590.276C18.6982 589.521 19.3018 588.917 20.0564 588.917C20.8109 588.917 21.4145 589.521 21.4145 590.276C21.4145 591.03 20.8109 591.634 20.0564 591.634C19.3018 591.634 18.6982 591.03 18.6982 590.276ZM11.832 590.276C11.832 589.521 12.4356 588.917 13.1901 588.917C13.9447 588.917 14.5483 589.521 14.5483 590.276C14.5483 591.03 13.9447 591.634 13.1901 591.634C12.4356 591.634 11.832 591.03 11.832 590.276ZM4.89029 590.276C4.89029 589.521 5.49393 588.917 6.24846 588.917C7.00299 588.917 7.60661 589.521 7.60661 590.276C7.60661 591.03 7.00299 591.634 6.24846 591.634C5.49393 591.634 4.89029 591.03 4.89029 590.276ZM-1.97594 590.276C-1.97594 589.521 -1.3723 588.917 -0.617771 588.917C0.136761 588.917 0.740376 589.521 0.740376 590.276C0.740376 591.03 0.136761 591.634 -0.617771 591.634C-1.3723 591.634 -1.97594 591.03 -1.97594 590.276ZM-8.84215 590.276C-8.84215 589.521 -8.23854 588.917 -7.484 588.917C-6.72948 588.917 -6.12586 589.521 -6.12586 590.276C-6.12586 591.03 -6.72948 591.634 -7.484 591.634C-8.23854 591.634 -8.84215 591.03 -8.84215 590.276ZM-15.7838 590.276C-15.7838 589.521 -15.1802 588.917 -14.4257 588.917C-13.6712 588.917 -13.0675 589.521 -13.0675 590.276C-13.0675 591.03 -13.6712 591.634 -14.4257 591.634C-15.1802 591.634 -15.7838 591.03 -15.7838 590.276ZM-22.6501 590.276C-22.6501 589.521 -22.0464 588.917 -21.2919 588.917C-20.5374 588.917 -19.9338 589.521 -19.9338 590.276C-19.9338 591.03 -20.5374 591.634 -21.2919 591.634C-22.0464 591.634 -22.6501 591.03 -22.6501 590.276ZM-29.5163 590.276C-29.5163 589.521 -28.9127 588.917 -28.1581 588.917C-27.4036 588.917 -26.8 589.521 -26.8 590.276C-26.8 591.03 -27.4036 591.634 -28.1581 591.634C-28.9127 591.634 -29.5163 591.03 -29.5163 590.276ZM-36.458 590.276C-36.458 589.521 -35.8544 588.917 -35.0998 588.917C-34.3453 588.917 -33.7417 589.521 -33.7417 590.276C-33.7417 591.03 -34.3453 591.634 -35.0998 591.634C-35.8544 591.634 -36.458 591.03 -36.458 590.276ZM-43.3242 590.276C-43.3242 589.521 -42.7206 588.917 -41.9661 588.917C-41.2115 588.917 -40.6079 589.521 -40.6079 590.276C-40.6079 591.03 -41.2115 591.634 -41.9661 591.634C-42.7206 591.634 -43.3242 591.03 -43.3242 590.276Z" fill="#1565D8"/>
<path d="M26.9226 591.634C26.5454 591.634 26.2435 591.483 25.9417 591.256C25.7154 591.03 25.5645 590.653 25.5645 590.276C25.5645 589.898 25.7154 589.597 25.9417 589.295C26.4699 588.767 27.3753 588.767 27.828 589.295C28.0544 589.521 28.2053 589.898 28.2053 590.276C28.2053 590.653 28.0544 590.955 27.828 591.256C27.6771 591.483 27.2999 591.634 26.9226 591.634Z" fill="#1565D8"/>
<path d="M18.6982 597.745C18.6982 596.991 19.3018 596.387 20.0564 596.387C20.8109 596.387 21.4145 596.991 21.4145 597.745C21.4145 598.5 20.8109 599.104 20.0564 599.104C19.3018 599.104 18.6982 598.5 18.6982 597.745ZM11.832 597.745C11.832 596.991 12.4356 596.387 13.1901 596.387C13.9447 596.387 14.5483 596.991 14.5483 597.745C14.5483 598.5 13.9447 599.104 13.1901 599.104C12.4356 599.104 11.832 598.5 11.832 597.745ZM4.89029 597.745C4.89029 596.991 5.49393 596.387 6.24846 596.387C7.00299 596.387 7.60661 596.991 7.60661 597.745C7.60661 598.5 7.00299 599.104 6.24846 599.104C5.49393 599.104 4.89029 598.5 4.89029 597.745ZM-1.97594 597.745C-1.97594 596.991 -1.3723 596.387 -0.617771 596.387C0.136761 596.387 0.740376 596.991 0.740376 597.745C0.740376 598.5 0.136761 599.104 -0.617771 599.104C-1.3723 599.104 -1.97594 598.5 -1.97594 597.745ZM-8.84215 597.745C-8.84215 596.991 -8.23854 596.387 -7.484 596.387C-6.72948 596.387 -6.12586 596.991 -6.12586 597.745C-6.12586 598.5 -6.72948 599.104 -7.484 599.104C-8.23854 599.104 -8.84215 598.5 -8.84215 597.745ZM-15.7838 597.745C-15.7838 596.991 -15.1802 596.387 -14.4257 596.387C-13.6712 596.387 -13.0675 596.991 -13.0675 597.745C-13.0675 598.5 -13.6712 599.104 -14.4257 599.104C-15.1802 599.104 -15.7838 598.5 -15.7838 597.745ZM-22.6501 597.745C-22.6501 596.991 -22.0464 596.387 -21.2919 596.387C-20.5374 596.387 -19.9338 596.991 -19.9338 597.745C-19.9338 598.5 -20.5374 599.104 -21.2919 599.104C-22.0464 599.104 -22.6501 598.5 -22.6501 597.745ZM-29.5163 597.745C-29.5163 596.991 -28.9127 596.387 -28.1581 596.387C-27.4036 596.387 -26.8 596.991 -26.8 597.745C-26.8 598.5 -27.4036 599.104 -28.1581 599.104C-28.9127 599.104 -29.5163 598.5 -29.5163 597.745ZM-36.458 597.745C-36.458 596.991 -35.8544 596.387 -35.0998 596.387C-34.3453 596.387 -33.7417 596.991 -33.7417 597.745C-33.7417 598.5 -34.3453 599.104 -35.0998 599.104C-35.8544 599.104 -36.458 598.5 -36.458 597.745ZM-43.3242 597.745C-43.3242 596.991 -42.7206 596.387 -41.9661 596.387C-41.2115 596.387 -40.6079 596.991 -40.6079 597.745C-40.6079 598.5 -41.2115 599.104 -41.9661 599.104C-42.7206 599.104 -43.3242 598.5 -43.3242 597.745Z" fill="#1565D8"/>
<path d="M26.9226 599.103C26.5454 599.103 26.2435 598.953 25.9417 598.726C25.7154 598.5 25.5645 598.123 25.5645 597.745C25.5645 597.368 25.7154 597.066 25.9417 596.764C26.4699 596.236 27.3753 596.236 27.828 596.764C28.0544 596.991 28.2053 597.368 28.2053 597.745C28.2053 598.123 28.0544 598.424 27.828 598.726C27.6771 598.953 27.2999 599.103 26.9226 599.103Z" fill="#1565D8"/>
<path d="M18.6982 604.913C18.6982 604.159 19.3018 603.555 20.0564 603.555C20.8109 603.555 21.4145 604.159 21.4145 604.913C21.4145 605.668 20.8109 606.272 20.0564 606.272C19.3018 606.272 18.6982 605.668 18.6982 604.913ZM11.832 604.913C11.832 604.159 12.4356 603.555 13.1901 603.555C13.9447 603.555 14.5483 604.159 14.5483 604.913C14.5483 605.668 13.9447 606.272 13.1901 606.272C12.4356 606.272 11.832 605.668 11.832 604.913ZM4.89029 604.913C4.89029 604.159 5.49393 603.555 6.24846 603.555C7.00299 603.555 7.60661 604.159 7.60661 604.913C7.60661 605.668 7.00299 606.272 6.24846 606.272C5.49393 606.272 4.89029 605.668 4.89029 604.913ZM-1.97594 604.913C-1.97594 604.159 -1.3723 603.555 -0.617771 603.555C0.136761 603.555 0.740376 604.159 0.740376 604.913C0.740376 605.668 0.136761 606.272 -0.617771 606.272C-1.3723 606.272 -1.97594 605.668 -1.97594 604.913ZM-8.84215 604.913C-8.84215 604.159 -8.23854 603.555 -7.484 603.555C-6.72948 603.555 -6.12586 604.159 -6.12586 604.913C-6.12586 605.668 -6.72948 606.272 -7.484 606.272C-8.23854 606.272 -8.84215 605.668 -8.84215 604.913ZM-15.7838 604.913C-15.7838 604.159 -15.1802 603.555 -14.4257 603.555C-13.6712 603.555 -13.0675 604.159 -13.0675 604.913C-13.0675 605.668 -13.6712 606.272 -14.4257 606.272C-15.1802 606.272 -15.7838 605.668 -15.7838 604.913ZM-22.6501 604.913C-22.6501 604.159 -22.0464 603.555 -21.2919 603.555C-20.5374 603.555 -19.9338 604.159 -19.9338 604.913C-19.9338 605.668 -20.5374 606.272 -21.2919 606.272C-22.0464 606.272 -22.6501 605.668 -22.6501 604.913ZM-29.5163 604.913C-29.5163 604.159 -28.9127 603.555 -28.1581 603.555C-27.4036 603.555 -26.8 604.159 -26.8 604.913C-26.8 605.668 -27.4036 606.272 -28.1581 606.272C-28.9127 606.272 -29.5163 605.668 -29.5163 604.913ZM-36.458 604.913C-36.458 604.159 -35.8544 603.555 -35.0998 603.555C-34.3453 603.555 -33.7417 604.159 -33.7417 604.913C-33.7417 605.668 -34.3453 606.272 -35.0998 606.272C-35.8544 606.272 -36.458 605.668 -36.458 604.913ZM-43.3242 604.913C-43.3242 604.159 -42.7206 603.555 -41.9661 603.555C-41.2115 603.555 -40.6079 604.159 -40.6079 604.913C-40.6079 605.668 -41.2115 606.272 -41.9661 606.272C-42.7206 606.272 -43.3242 605.668 -43.3242 604.913Z" fill="#1565D8"/>
<path d="M26.9226 606.272C26.5454 606.272 26.2435 606.121 25.9417 605.894C25.7154 605.668 25.5645 605.291 25.5645 604.913C25.5645 604.536 25.7154 604.234 25.9417 603.933C26.4699 603.404 27.3753 603.404 27.828 603.933C28.0544 604.159 28.2053 604.536 28.2053 604.913C28.2053 605.291 28.0544 605.592 27.828 605.894C27.6771 606.121 27.2999 606.272 26.9226 606.272Z" fill="#1565D8"/>
<path d="M18.6982 612.383C18.6982 611.629 19.3018 611.025 20.0564 611.025C20.8109 611.025 21.4145 611.629 21.4145 612.383C21.4145 613.138 20.8109 613.741 20.0564 613.741C19.3018 613.741 18.6982 613.138 18.6982 612.383ZM11.832 612.383C11.832 611.629 12.4356 611.025 13.1901 611.025C13.9447 611.025 14.5483 611.629 14.5483 612.383C14.5483 613.138 13.9447 613.741 13.1901 613.741C12.4356 613.741 11.832 613.138 11.832 612.383ZM4.89029 612.383C4.89029 611.629 5.49393 611.025 6.24846 611.025C7.00299 611.025 7.60661 611.629 7.60661 612.383C7.60661 613.138 7.00299 613.741 6.24846 613.741C5.49393 613.741 4.89029 613.138 4.89029 612.383ZM-1.97594 612.383C-1.97594 611.629 -1.3723 611.025 -0.617771 611.025C0.136761 611.025 0.740376 611.629 0.740376 612.383C0.740376 613.138 0.136761 613.741 -0.617771 613.741C-1.3723 613.741 -1.97594 613.138 -1.97594 612.383ZM-8.84215 612.383C-8.84215 611.629 -8.23854 611.025 -7.484 611.025C-6.72948 611.025 -6.12586 611.629 -6.12586 612.383C-6.12586 613.138 -6.72948 613.741 -7.484 613.741C-8.23854 613.741 -8.84215 613.138 -8.84215 612.383ZM-15.7838 612.383C-15.7838 611.629 -15.1802 611.025 -14.4257 611.025C-13.6712 611.025 -13.0675 611.629 -13.0675 612.383C-13.0675 613.138 -13.6712 613.741 -14.4257 613.741C-15.1802 613.741 -15.7838 613.138 -15.7838 612.383ZM-22.6501 612.383C-22.6501 611.629 -22.0464 611.025 -21.2919 611.025C-20.5374 611.025 -19.9338 611.629 -19.9338 612.383C-19.9338 613.138 -20.5374 613.741 -21.2919 613.741C-22.0464 613.741 -22.6501 613.138 -22.6501 612.383ZM-29.5163 612.383C-29.5163 611.629 -28.9127 611.025 -28.1581 611.025C-27.4036 611.025 -26.8 611.629 -26.8 612.383C-26.8 613.138 -27.4036 613.741 -28.1581 613.741C-28.9127 613.741 -29.5163 613.138 -29.5163 612.383ZM-36.458 612.383C-36.458 611.629 -35.8544 611.025 -35.0998 611.025C-34.3453 611.025 -33.7417 611.629 -33.7417 612.383C-33.7417 613.138 -34.3453 613.741 -35.0998 613.741C-35.8544 613.741 -36.458 613.138 -36.458 612.383ZM-43.3242 612.383C-43.3242 611.629 -42.7206 611.025 -41.9661 611.025C-41.2115 611.025 -40.6079 611.629 -40.6079 612.383C-40.6079 613.138 -41.2115 613.741 -41.9661 613.741C-42.7206 613.741 -43.3242 613.138 -43.3242 612.383Z" fill="#1565D8"/>
<path d="M26.9226 613.741C26.5454 613.741 26.2435 613.59 25.9417 613.364C25.7154 613.138 25.5645 612.761 25.5645 612.383C25.5645 612.006 25.7154 611.704 25.9417 611.402C26.4699 610.874 27.3753 610.874 27.828 611.402C28.0544 611.629 28.2053 612.006 28.2053 612.383C28.2053 612.761 28.0544 613.062 27.828 613.364C27.6771 613.59 27.2999 613.741 26.9226 613.741Z" fill="#1565D8"/>
</g>
</g>
<g opacity="0.15" clip-path="url(#clip3)">
<path fill-rule="evenodd" clip-rule="evenodd" d="M1388.79 437.201C1382.81 435.489 1376.57 438.949 1374.86 444.931C1373.49 449.716 1375.43 454.663 1379.32 457.328C1379.83 457.583 1380.13 457.304 1380.21 457.018C1380.28 456.76 1380.52 455.904 1380.77 454.998C1377.57 454.79 1377.49 452.676 1377.49 452.676C1377.36 451.283 1376.74 450.747 1376.74 450.747C1375.95 449.793 1377 450.11 1377 450.11C1378.07 450.497 1378.34 451.701 1378.34 451.701C1378.84 453.633 1380.54 453.603 1381.24 453.503C1381.54 452.831 1381.95 452.434 1382.34 452.252C1380.01 451.29 1377.75 449.637 1378.94 445.487C1379.28 444.305 1379.98 443.46 1380.89 442.9C1380.85 442.595 1380.8 441.387 1381.81 440.064C1381.81 440.064 1382.8 440.033 1384.47 442.027C1385.4 442.034 1386.37 442.179 1387.29 442.438C1388.21 442.705 1389.1 443.091 1389.9 443.579C1392.36 442.77 1393.19 443.321 1393.19 443.321C1393.35 444.981 1392.67 445.977 1392.48 446.217C1392.95 447.175 1393.1 448.261 1392.76 449.443C1391.57 453.603 1388.77 453.793 1386.28 453.371C1386.58 453.819 1386.73 454.577 1386.44 455.587C1386.03 457.036 1385.68 458.199 1385.58 458.556C1385.5 458.844 1385.6 459.237 1386.17 459.288C1390.89 459.086 1395.15 455.915 1396.52 451.132C1398.23 445.15 1394.77 438.914 1388.79 437.201L1388.79 437.201Z" fill="#1565D8"/>
<path d="M1377.61 450.824C1377.57 450.871 1377.48 450.863 1377.41 450.804C1377.34 450.747 1377.32 450.661 1377.36 450.614C1377.4 450.565 1377.49 450.574 1377.56 450.634C1377.63 450.692 1377.65 450.779 1377.61 450.825L1377.61 450.824ZM1377.91 451.439C1377.84 451.473 1377.75 451.421 1377.7 451.326C1377.65 451.23 1377.67 451.126 1377.73 451.092C1377.8 451.06 1377.89 451.11 1377.94 451.206C1377.99 451.302 1377.98 451.407 1377.91 451.44L1377.91 451.439ZM1378.16 452.185C1378.08 452.213 1377.98 452.138 1377.94 452.023C1377.9 451.907 1377.94 451.792 1378.02 451.765C1378.1 451.738 1378.19 451.81 1378.23 451.925C1378.27 452.042 1378.24 452.158 1378.16 452.185L1378.16 452.185ZM1378.57 452.955C1378.49 453.004 1378.37 452.95 1378.3 452.835C1378.23 452.72 1378.24 452.588 1378.32 452.54C1378.4 452.492 1378.52 452.546 1378.59 452.662C1378.66 452.776 1378.65 452.908 1378.57 452.955L1378.57 452.955ZM1379.28 453.536C1379.22 453.614 1379.09 453.617 1378.98 453.546C1378.87 453.474 1378.82 453.352 1378.87 453.273C1378.92 453.195 1379.05 453.19 1379.16 453.264C1379.27 453.336 1379.33 453.457 1379.28 453.536ZM1380.14 453.855C1380.12 453.945 1380 453.989 1379.87 453.954C1379.74 453.92 1379.65 453.818 1379.68 453.729C1379.7 453.639 1379.82 453.595 1379.95 453.63C1380.08 453.664 1380.17 453.766 1380.14 453.855L1380.14 453.855ZM1381.01 453.951C1381 454.042 1380.88 454.106 1380.75 454.093C1380.62 454.081 1380.52 453.993 1380.52 453.902C1380.53 453.808 1380.65 453.745 1380.78 453.758C1380.92 453.772 1381.02 453.858 1381.01 453.951L1381.01 453.951Z" fill="#1565D8"/>
</g>
<g opacity="0.2">
<path fill-rule="evenodd" clip-rule="evenodd" d="M1330.18 122.234L1330.18 122.234L1329.96 123.961L1329.96 123.982L1329.8 123.963C1329.45 123.918 1329.1 123.949 1328.77 124.054C1328.45 124.154 1328.15 124.31 1327.89 124.52C1327.64 124.724 1327.42 124.978 1327.24 125.284C1327.07 125.586 1326.96 125.914 1326.92 126.267C1326.87 126.673 1326.82 127.076 1326.79 127.476C1326.75 127.875 1326.7 128.269 1326.64 128.658C1326.58 129.044 1326.5 129.419 1326.4 129.785C1326.29 130.149 1326.15 130.493 1325.97 130.817C1325.78 131.144 1325.55 131.448 1325.27 131.728C1325.04 131.959 1324.76 132.167 1324.45 132.353C1324.71 132.61 1324.92 132.879 1325.09 133.161C1325.29 133.501 1325.45 133.852 1325.54 134.214C1325.64 134.574 1325.7 134.946 1325.71 135.332C1325.72 135.705 1325.71 136.089 1325.66 136.484C1325.63 136.869 1325.58 137.263 1325.52 137.665C1325.45 138.055 1325.4 138.452 1325.35 138.858C1325.3 139.219 1325.33 139.566 1325.42 139.901C1325.52 140.234 1325.67 140.534 1325.86 140.802C1326.07 141.063 1326.31 141.286 1326.6 141.47C1326.9 141.646 1327.22 141.756 1327.58 141.8L1327.74 141.82L1327.7 142.146L1327.52 143.569L1327.36 143.549C1326.8 143.48 1326.28 143.303 1325.79 143.019C1325.29 142.735 1324.87 142.364 1324.52 141.905C1324.18 141.448 1323.94 140.965 1323.81 140.457L1323.81 140.455C1323.7 139.96 1323.64 139.457 1323.65 138.946L1323.65 138.943C1323.66 138.432 1323.71 137.915 1323.8 137.392C1323.88 136.88 1323.96 136.366 1324.02 135.851C1324.06 135.499 1324.04 135.155 1323.94 134.819L1323.94 134.816C1323.84 134.478 1323.7 134.18 1323.49 133.92L1323.49 133.916C1323.3 133.65 1323.05 133.428 1322.75 133.25L1322.75 133.249C1322.46 133.066 1322.13 132.953 1321.79 132.909L1321.63 132.89L1321.65 132.727L1321.83 131.304L1321.85 131.141L1322.01 131.161C1322.35 131.204 1322.69 131.176 1323.02 131.078C1323.36 130.972 1323.65 130.816 1323.9 130.613C1324.17 130.402 1324.38 130.148 1324.56 129.85L1324.56 129.848C1324.73 129.547 1324.85 129.217 1324.89 128.856C1324.96 128.342 1325.01 127.826 1325.05 127.308C1325.1 126.78 1325.17 126.269 1325.29 125.778L1325.29 125.776C1325.41 125.272 1325.59 124.795 1325.82 124.343L1325.82 124.341C1326.07 123.879 1326.42 123.47 1326.87 123.112C1327.31 122.752 1327.81 122.495 1328.36 122.341C1328.91 122.187 1329.46 122.144 1330.02 122.214L1330.18 122.234ZM1334.63 144.455L1334.63 144.455L1334.85 142.727L1334.85 142.706L1335.01 142.726C1335.36 142.77 1335.71 142.739 1336.04 142.634C1336.36 142.535 1336.66 142.379 1336.92 142.168C1337.17 141.964 1337.39 141.71 1337.57 141.405C1337.74 141.102 1337.85 140.775 1337.89 140.421C1337.95 140.015 1337.99 139.612 1338.02 139.212C1338.06 138.813 1338.11 138.419 1338.17 138.03C1338.23 137.645 1338.31 137.269 1338.41 136.904C1338.52 136.54 1338.66 136.195 1338.84 135.871C1339.03 135.544 1339.26 135.241 1339.54 134.961C1339.77 134.729 1340.05 134.521 1340.37 134.336C1340.1 134.078 1339.89 133.809 1339.72 133.528C1339.52 133.187 1339.36 132.836 1339.27 132.474C1339.17 132.115 1339.11 131.742 1339.1 131.356C1339.09 130.983 1339.1 130.599 1339.15 130.204C1339.18 129.819 1339.23 129.426 1339.29 129.023C1339.36 128.633 1339.41 128.236 1339.46 127.83C1339.51 127.469 1339.48 127.122 1339.39 126.787C1339.29 126.454 1339.14 126.154 1338.95 125.887C1338.74 125.625 1338.5 125.402 1338.21 125.218C1337.91 125.043 1337.59 124.932 1337.23 124.888L1337.07 124.868L1337.11 124.542L1337.29 123.119L1337.45 123.139C1338.01 123.209 1338.53 123.385 1339.02 123.669C1339.52 123.953 1339.94 124.325 1340.29 124.784C1340.63 125.24 1340.87 125.723 1341 126.231L1341 126.233C1341.11 126.728 1341.17 127.231 1341.16 127.742L1341.16 127.745C1341.15 128.256 1341.1 128.773 1341.01 129.297C1340.93 129.809 1340.85 130.322 1340.79 130.837C1340.75 131.189 1340.77 131.533 1340.87 131.869L1340.87 131.872C1340.97 132.21 1341.11 132.508 1341.32 132.769L1341.32 132.772C1341.51 133.039 1341.76 133.261 1342.06 133.438L1342.06 133.439C1342.36 133.622 1342.68 133.735 1343.02 133.779L1343.18 133.798L1343.16 133.962L1342.98 135.384L1342.96 135.547L1342.81 135.528C1342.46 135.484 1342.12 135.512 1341.79 135.61C1341.45 135.716 1341.16 135.872 1340.91 136.076C1340.64 136.287 1340.43 136.541 1340.25 136.839L1340.25 136.84C1340.08 137.142 1339.96 137.471 1339.92 137.832C1339.86 138.347 1339.8 138.863 1339.76 139.38C1339.71 139.909 1339.64 140.419 1339.52 140.91L1339.52 140.913C1339.4 141.416 1339.22 141.894 1338.99 142.345L1338.99 142.347C1338.74 142.809 1338.39 143.218 1337.95 143.576C1337.5 143.936 1337 144.193 1336.45 144.347C1335.9 144.501 1335.35 144.544 1334.79 144.474L1334.63 144.455Z" fill="#1565D8"/>
</g>
<g opacity="0.2">
<path d="M299.19 320.826L291.92 325.075L296.172 332.344L294.227 333.481L289.409 325.24L289.812 323.699L298.053 318.881L299.19 320.826ZM314.829 323.277L312.885 324.414L317.137 331.683L309.867 335.932L311.004 337.877L319.244 333.058L319.648 331.518L314.829 323.277ZM295.392 337.094L297.083 338.579L313.669 319.665L311.978 318.18L295.392 337.094Z" fill="#1565D8"/>
</g>
<g opacity="0.15" clip-path="url(#clip4)">
<path d="M67.8786 422.527L59.258 415.803L57.3969 415.575L47.407 420.017L46.2988 421.506L44.9296 432.672L45.6475 434.366L54.2682 441.09L56.1293 441.318L66.1192 436.876L67.2251 435.406L68.5943 424.239L67.8786 422.527ZM54.5306 438.95L46.772 432.898L47.9496 423.295L55.7652 428.881L54.5306 438.95ZM48.6617 421.493L58.1312 417.289L66.3045 423.656L56.892 427.395L48.6617 421.493ZM65.3826 435.18L56.3917 439.178L57.6263 429.11L66.5602 425.577L65.3826 435.18Z" fill="#1565D8"/>
</g>
<g opacity="0.2" clip-path="url(#clip5)">
<path d="M1164.97 328.544L1158.41 330.986L1157.36 328.174L1156.08 327.586L1146.7 331.075L1146.12 332.361L1147.16 335.172L1140.6 337.614L1140.01 338.9L1145.6 353.895L1146.88 354.483L1171.25 345.413L1171.84 344.127L1166.25 329.132L1164.97 328.544ZM1148.34 332.6L1155.84 329.809L1156.53 331.684L1149.04 334.474L1148.34 332.6ZM1164.73 330.767L1165.26 332.192L1159.32 339.181L1158.98 338.244L1157.71 337.649L1152.09 339.742L1151.48 341.035L1151.83 341.972L1142.73 340.47L1142.24 339.14L1164.73 330.767ZM1157.45 339.879L1158.15 341.753L1154.4 343.149L1153.7 341.274L1157.45 339.879ZM1147.12 352.26L1143.53 342.626L1152.63 344.127L1152.87 344.783L1154.16 345.372L1159.78 343.279L1160.37 341.993L1160.16 341.412L1166.06 334.347L1169.61 343.888L1147.12 352.26Z" fill="#1565D8"/>
</g>
<path opacity="0.15" d="M114.566 106.111L97.4941 103.602L96.6671 103.792L82.4047 113.504L85.7527 128.068L88.05 127.54L85.4096 116.054L91.1914 116.902C90.4029 118.84 90.2267 120.974 90.6863 123.016C90.7215 123.273 90.7798 123.527 90.8605 123.774L90.9186 124.027L91.7731 124.798L101.856 126.785L102.798 126.569L110.893 120.33L111.325 119.263L111.262 118.988C111.209 118.758 111.151 118.505 111.093 118.252C110.613 116.227 109.534 114.393 107.997 112.99L115.046 108.201L114.566 106.111ZM108.951 118.721L108.988 118.881L101.833 124.372L92.9481 122.544C92.9269 122.502 92.9161 122.454 92.9164 122.407C92.5219 120.633 92.7344 118.779 93.5198 117.14L99.9747 118.075L100.802 117.885L106.155 114.236C107.567 115.372 108.553 116.952 108.951 118.721ZM99.853 115.757L86.1394 113.758L97.6087 105.994L111.328 108.016L99.853 115.757Z" fill="#1565D8"/>
<path opacity="0.5" fill-rule="evenodd" clip-rule="evenodd" d="M1119.88 835.172L1116.24 836.146L1117.38 840.389L1113.14 841.526L1114.11 845.162L1118.35 844.025L1119.49 848.268L1123.13 847.293L1121.99 843.051L1126.23 841.914L1125.26 838.278L1121.02 839.415L1119.88 835.172ZM1118.18 840.851L1113.94 841.988L1114.91 845.625L1119.15 844.488L1120.29 848.73L1123.93 847.756L1122.79 843.513L1127.03 842.377L1126.06 838.74L1121.82 839.877L1120.68 835.635L1117.04 836.609L1118.18 840.851ZM1117.33 836.776L1118.47 841.018L1114.23 842.155L1115.08 845.336L1119.32 844.199L1120.46 848.442L1123.64 847.589L1122.5 843.347L1126.74 842.21L1125.89 839.029L1121.65 840.166L1120.51 835.923L1117.33 836.776Z" fill="#1565D8"/>
</g>
<defs>
<linearGradient id="paint0_linear" x1="1423.81" y1="330.451" x2="1545.61" y2="297.815" gradientUnits="userSpaceOnUse">
<stop stop-color="#1565D8"/>
<stop offset="1" stop-color="#4353FF" stop-opacity="0"/>
</linearGradient>
<linearGradient id="paint1_linear" x1="353" y1="-718" x2="353" y2="281" gradientUnits="userSpaceOnUse">
<stop stop-color="#FAFBFB" stop-opacity="0.01"/>
<stop offset="1" stop-color="#F3F7FC"/>
</linearGradient>
<linearGradient id="paint2_linear" x1="35.8233" y1="571.57" x2="-49.8012" y2="545.22" gradientUnits="userSpaceOnUse">
<stop stop-color="#1565D8"/>
<stop offset="1" stop-color="#4353FF" stop-opacity="0"/>
</linearGradient>
<clipPath id="clip0">
<rect width="1440" height="1249" fill="white"/>
</clipPath>
<clipPath id="clip1">
<rect width="41.6232" height="82.4303" fill="white" transform="translate(1387 246.598)"/>
</clipPath>
<clipPath id="clip2">
<rect width="78.4712" height="58.0989" fill="white" transform="translate(-50.1914 560)"/>
</clipPath>
<clipPath id="clip3">
<rect width="23.8777" height="23.8777" fill="white" transform="translate(1377.57 433) rotate(15.9756)"/>
</clipPath>
<clipPath id="clip4">
<rect width="30" height="30" fill="white" transform="translate(43.6504 412) rotate(6.99079)"/>
</clipPath>
<clipPath id="clip5">
<rect width="32" height="32" fill="white" transform="translate(1135 331.163) rotate(-20.4171)"/>
</clipPath>
</defs>
</svg>
