<svg width="1076" height="144" viewBox="0 0 1076 144" fill="none" xmlns="http://www.w3.org/2000/svg">
<path opacity="0.1" d="M23.4268 6.00001L11 18.4268L23.4268 30.8535L35.8535 18.4268L23.4268 6.00001Z" stroke="#0284C7" stroke-width="5.71615" stroke-miterlimit="10"/>
<path opacity="0.1" d="M853.427 150.854L841 138.427L853.427 126L865.854 138.427L853.427 150.854Z" stroke="#0284C7" stroke-width="5.71615" stroke-miterlimit="10"/>
<rect opacity="0.2" x="554.995" y="122.278" width="17" height="17" transform="rotate(19.6512 554.995 122.278)" stroke="#EA580C" stroke-width="2"/>
<rect opacity="0.2" x="530.368" y="62.2781" width="6.21414" height="6.21414" transform="rotate(19.6512 530.368 62.2781)" stroke="#D97706" stroke-width="2"/>
<rect opacity="0.5" x="359.5" y="64.5" width="5" height="5" stroke="#3B82F6"/>
<rect opacity="0.5" x="0.5" y="-0.5" width="5" height="5" transform="matrix(1 0 0 -1 908 86.2832)" stroke="#3B82F6"/>
<circle opacity="0.2" cx="421.5" cy="99.5" r="2.5" fill="#65A30D"/>
<circle opacity="0.2" r="2.5" transform="matrix(1 0 0 -1 970.5 51.7832)" fill="#65A30D"/>
<circle opacity="0.2" cx="261.5" cy="134.5" r="1.5" fill="#06B6D4"/>
<circle opacity="0.2" r="1.5" transform="matrix(1 0 0 -1 810.5 16.7832)" fill="#06B6D4"/>
<circle opacity="0.2" cx="202.5" cy="13.5" r="1.5" fill="#06B6D4"/>
<circle opacity="0.2" r="1.5" transform="matrix(1 0 0 -1 751.5 137.783)" fill="#06B6D4"/>
<circle opacity="0.2" cx="91.5" cy="123.5" r="5.5" stroke="#059669" stroke-width="2"/>
<circle opacity="0.2" r="5.5" transform="matrix(1 0 0 -1 640.5 27.7832)" stroke="#059669" stroke-width="2"/>
<circle opacity="0.2" cx="477.5" cy="16.5" r="3.5" stroke="#818CF8" stroke-width="2"/>
<circle opacity="0.2" r="3.5" transform="matrix(1 0 0 -1 1026.5 134.783)" stroke="#818CF8" stroke-width="2"/>
<path opacity="0.2" d="M158.361 80.3085L159.452 81.0844L160.774 79.227L162.631 80.5491L163.407 79.4589L161.549 78.1369L162.872 76.2795L161.781 75.5036L160.459 77.361L158.602 76.0389L157.826 77.1291L159.683 78.4511L158.361 80.3085Z" fill="#DB2777"/>
<path opacity="0.2" d="M707.361 70.9747L708.452 70.1988L709.774 72.0562L711.631 70.7341L712.407 71.8243L710.549 73.1463L711.872 75.0037L710.781 75.7796L709.459 73.9222L707.602 75.2443L706.826 74.1541L708.683 72.8321L707.361 70.9747Z" fill="#DB2777"/>
<path opacity="0.2" d="M37.3614 76.3085L38.4515 77.0844L39.7735 75.227L41.6309 76.5491L42.4068 75.4589L40.5495 74.1369L41.8715 72.2795L40.7814 71.5036L39.4593 73.361L37.602 72.0389L36.826 73.1291L38.6834 74.4511L37.3614 76.3085Z" fill="#DB2777"/>
<path opacity="0.2" d="M586.361 74.9747L587.452 74.1988L588.774 76.0562L590.631 74.7341L591.407 75.8243L589.549 77.1463L590.872 79.0037L589.781 79.7796L588.459 77.9222L586.602 79.2443L585.826 78.1541L587.683 76.8321L586.361 74.9747Z" fill="#DB2777"/>
</svg>
