<svg width="50" height="51" viewBox="0 0 50 51" fill="none" xmlns="http://www.w3.org/2000/svg">
<g clip-path="url(#clip0_299_33560)">
<g clip-path="url(#clip1_299_33560)">
<path d="M34.5046 0.0507812H26.0221C25.2927 0.0507812 24.7014 0.64205 24.7014 1.37142V30.7301C24.7014 31.4595 25.2927 32.0508 26.0221 32.0508H34.5046C35.234 32.0508 35.8252 31.4595 35.8252 30.7301V1.37142C35.8252 0.64205 35.234 0.0507812 34.5046 0.0507812Z" fill="url(#paint0_linear_299_33560)"/>
<g filter="url(#filter0_d_299_33560)">
<path d="M29.2685 30.7302V32.0508H27.9478H19.4653C18.7359 32.0508 18.1447 31.4595 18.1447 30.7302V9.34603C18.1447 8.61666 18.7359 8.02539 19.4653 8.02539H27.9478C28.6772 8.02539 29.2685 8.61666 29.2685 9.34603V30.7302Z" fill="black"/>
</g>
<path d="M29.2685 30.7302V32.0508H27.9478H19.4653C18.7359 32.0508 18.1447 31.4595 18.1447 30.7302V9.34603C18.1447 8.61666 18.7359 8.02539 19.4653 8.02539H27.9478C28.6772 8.02539 29.2685 8.61666 29.2685 9.34603V30.7302Z" fill="url(#paint1_linear_299_33560)"/>
<path fill-rule="evenodd" clip-rule="evenodd" d="M22.8252 30.7301V32.0508H21.5046H13.0221C12.2927 32.0508 11.7014 31.4595 11.7014 30.7301V17.3714C11.7014 16.642 12.2927 16.0508 13.0221 16.0508H21.5046C22.234 16.0508 22.8252 16.642 22.8252 17.3714V30.7301Z" fill="url(#paint2_linear_299_33560)"/>
</g>
<path d="M4.86639 48.0508V40.7781H7.45872C8.02453 40.7781 8.49328 40.881 8.86497 41.087C9.23665 41.293 9.51483 41.5747 9.69949 41.9322C9.88414 42.2873 9.97647 42.6874 9.97647 43.1325C9.97647 43.5799 9.88296 43.9824 9.69593 44.3398C9.51127 44.695 9.23192 44.9767 8.85787 45.185C8.48618 45.391 8.01861 45.494 7.45517 45.494H5.6725V44.5636H7.35574C7.71322 44.5636 8.00323 44.502 8.22576 44.3789C8.4483 44.2534 8.61165 44.083 8.71582 43.8675C8.81999 43.6521 8.87207 43.4071 8.87207 43.1325C8.87207 42.8578 8.81999 42.614 8.71582 42.4009C8.61165 42.1879 8.44712 42.021 8.22221 41.9002C7.99967 41.7795 7.70611 41.7191 7.34153 41.7191H5.96369V48.0508H4.86639ZM13.4069 48.1609C12.8955 48.1609 12.4492 48.0437 12.0681 47.8093C11.6869 47.5749 11.391 47.247 11.1803 46.8256C10.9696 46.4042 10.8643 45.9118 10.8643 45.3484C10.8643 44.7826 10.9696 44.2878 11.1803 43.864C11.391 43.4402 11.6869 43.1112 12.0681 42.8768C12.4492 42.6424 12.8955 42.5252 13.4069 42.5252C13.9182 42.5252 14.3645 42.6424 14.7456 42.8768C15.1268 43.1112 15.4227 43.4402 15.6334 43.864C15.8441 44.2878 15.9495 44.7826 15.9495 45.3484C15.9495 45.9118 15.8441 46.4042 15.6334 46.8256C15.4227 47.247 15.1268 47.5749 14.7456 47.8093C14.3645 48.0437 13.9182 48.1609 13.4069 48.1609ZM13.4104 47.2695C13.7419 47.2695 14.0165 47.1819 14.2343 47.0067C14.4521 46.8316 14.6131 46.5984 14.7172 46.3072C14.8238 46.016 14.877 45.6952 14.877 45.3448C14.877 44.9968 14.8238 44.6772 14.7172 44.386C14.6131 44.0924 14.4521 43.8569 14.2343 43.6793C14.0165 43.5018 13.7419 43.413 13.4104 43.413C13.0766 43.413 12.7996 43.5018 12.5795 43.6793C12.3617 43.8569 12.1995 44.0924 12.093 44.386C11.9888 44.6772 11.9367 44.9968 11.9367 45.3448C11.9367 45.6952 11.9888 46.016 12.093 46.3072C12.1995 46.5984 12.3617 46.8316 12.5795 47.0067C12.7996 47.1819 13.0766 47.2695 13.4104 47.2695ZM18.1512 48.0508L16.5461 42.5962H17.6434L18.7123 46.6019H18.7655L19.838 42.5962H20.9353L22.0006 46.5842H22.0539L23.1157 42.5962H24.213L22.6114 48.0508H21.5283L20.4204 44.1126H20.3387L19.2307 48.0508H18.1512ZM27.4055 48.1609C26.868 48.1609 26.4052 48.046 26.017 47.8164C25.6311 47.5844 25.3328 47.2589 25.1221 46.8398C24.9137 46.4184 24.8096 45.9248 24.8096 45.359C24.8096 44.8003 24.9137 44.3079 25.1221 43.8817C25.3328 43.4556 25.6263 43.123 26.0028 42.8839C26.3815 42.6448 26.8242 42.5252 27.3309 42.5252C27.6386 42.5252 27.9369 42.5761 28.2258 42.6779C28.5146 42.7797 28.7738 42.9395 29.0035 43.1573C29.2331 43.3751 29.4142 43.658 29.5468 44.006C29.6794 44.3517 29.7457 44.7719 29.7457 45.2667V45.6431H25.4097V44.8477H28.7052C28.7052 44.5683 28.6483 44.3209 28.5347 44.1055C28.4211 43.8877 28.2613 43.716 28.0553 43.5906C27.8517 43.4651 27.6126 43.4023 27.338 43.4023C27.0397 43.4023 26.7793 43.4757 26.5567 43.6225C26.3366 43.7669 26.1661 43.9563 26.0454 44.1907C25.927 44.4227 25.8678 44.6748 25.8678 44.9471V45.5685C25.8678 45.9331 25.9317 46.2433 26.0596 46.4989C26.1898 46.7546 26.3709 46.9499 26.6029 47.0849C26.8349 47.2174 27.106 47.2837 27.4161 47.2837C27.6173 47.2837 27.8008 47.2553 27.9665 47.1985C28.1323 47.1393 28.2755 47.0517 28.3962 46.9357C28.517 46.8197 28.6093 46.6765 28.6732 46.506L29.6782 46.6871C29.5977 46.9831 29.4533 47.2423 29.2449 47.4648C29.039 47.685 28.7797 47.8567 28.4672 47.9798C28.1571 48.1005 27.8032 48.1609 27.4055 48.1609ZM30.9237 48.0508V42.5962H31.95V43.4627H32.0068C32.1063 43.1692 32.2815 42.9383 32.5324 42.7702C32.7857 42.5998 33.0722 42.5146 33.3918 42.5146C33.4581 42.5146 33.5362 42.5169 33.6262 42.5217C33.7185 42.5264 33.7907 42.5323 33.8428 42.5394V43.555C33.8002 43.5432 33.7244 43.5302 33.6155 43.516C33.5066 43.4994 33.3977 43.4911 33.2888 43.4911C33.0378 43.4911 32.8141 43.5444 32.6176 43.6509C32.4235 43.7551 32.2696 43.9007 32.156 44.0877C32.0423 44.2724 31.9855 44.4831 31.9855 44.7198V48.0508H30.9237ZM37.4933 48.0508V40.7781H40.1567C40.6728 40.7781 41.1001 40.8633 41.4387 41.0337C41.7772 41.2018 42.0305 41.4303 42.1986 41.7191C42.3667 42.0056 42.4507 42.3287 42.4507 42.6886C42.4507 42.9916 42.3951 43.2473 42.2838 43.4556C42.1726 43.6616 42.0234 43.8273 41.8364 43.9528C41.6517 44.0759 41.4481 44.1658 41.2256 44.2227V44.2937C41.4671 44.3055 41.7026 44.3836 41.9323 44.5281C42.1643 44.6701 42.356 44.8725 42.5075 45.1353C42.6591 45.3981 42.7348 45.7177 42.7348 46.0941C42.7348 46.4658 42.6472 46.7996 42.472 47.0955C42.2992 47.3891 42.0317 47.6223 41.6695 47.7951C41.3073 47.9656 40.8444 48.0508 40.281 48.0508H37.4933ZM38.5906 47.1097H40.1744C40.7 47.1097 41.0764 47.0079 41.3037 46.8043C41.531 46.6007 41.6446 46.3462 41.6446 46.0408C41.6446 45.8112 41.5866 45.6005 41.4706 45.4087C41.3546 45.217 41.1889 45.0643 40.9735 44.9506C40.7604 44.837 40.5071 44.7802 40.2135 44.7802H38.5906V47.1097ZM38.5906 43.9244H40.0608C40.307 43.9244 40.5284 43.877 40.7249 43.7823C40.9237 43.6876 41.0812 43.555 41.1972 43.3846C41.3155 43.2118 41.3747 43.0082 41.3747 42.7738C41.3747 42.4731 41.2694 42.221 41.0587 42.0174C40.848 41.8138 40.5248 41.712 40.0892 41.712H38.5906V43.9244ZM45.1336 40.7781V48.0508H44.0363V40.7781H45.1336Z" fill="#183B56"/>
</g>
<defs>
<filter id="filter0_d_299_33560" x="18.1447" y="7.51745" width="13.1555" height="26.0571" filterUnits="userSpaceOnUse" color-interpolation-filters="sRGB">
<feFlood flood-opacity="0" result="BackgroundImageFix"/>
<feColorMatrix in="SourceAlpha" type="matrix" values="0 0 0 0 0 0 0 0 0 0 0 0 0 0 0 0 0 0 127 0" result="hardAlpha"/>
<feOffset dx="1.01587" dy="0.507936"/>
<feGaussianBlur stdDeviation="0.507936"/>
<feColorMatrix type="matrix" values="0 0 0 0 0 0 0 0 0 0 0 0 0 0 0 0 0 0 0.0530212 0"/>
<feBlend mode="normal" in2="BackgroundImageFix" result="effect1_dropShadow_299_33560"/>
<feBlend mode="normal" in="SourceGraphic" in2="effect1_dropShadow_299_33560" result="shape"/>
</filter>
<linearGradient id="paint0_linear_299_33560" x1="30.2633" y1="0.0507812" x2="30.2633" y2="32.0508" gradientUnits="userSpaceOnUse">
<stop stop-color="#EBBB14"/>
<stop offset="1" stop-color="#B25400"/>
</linearGradient>
<linearGradient id="paint1_linear_299_33560" x1="23.7066" y1="8.02539" x2="23.7066" y2="32.0508" gradientUnits="userSpaceOnUse">
<stop stop-color="#F9E583"/>
<stop offset="1" stop-color="#DE9800"/>
</linearGradient>
<linearGradient id="paint2_linear_299_33560" x1="17.2633" y1="16.0508" x2="17.2633" y2="32.0508" gradientUnits="userSpaceOnUse">
<stop stop-color="#F9E68B"/>
<stop offset="1" stop-color="#F3CD32"/>
</linearGradient>
<clipPath id="clip0_299_33560">
<rect width="50" height="50" fill="white" transform="translate(0 0.0507812)"/>
</clipPath>
<clipPath id="clip1_299_33560">
<rect width="32" height="32" fill="white" transform="translate(7.77344 0.0507812)"/>
</clipPath>
</defs>
</svg>
