<svg width="24" height="24" viewBox="0 0 24 24" fill="none" xmlns="http://www.w3.org/2000/svg">
<path d="M20 5H5V20H20V5Z" fill="white"/>
<path d="M3 5C3 3.89543 3.89543 3 5 3H19C20.1046 3 21 3.89543 21 5V19C21 20.1046 20.1046 21 19 21H5C3.89543 21 3 20.1046 3 19V5ZM16.512 18.2865C16.5124 18.2861 16.5126 18.2856 16.5125 18.2851L16.4575 17.8914C16.407 17.5305 16.071 17.2915 15.7323 17.1572C15.6071 17.1076 15.4872 17.0378 15.3775 16.9451C14.9891 16.6171 15.2193 16.044 15.6022 15.7097C16.5185 14.9097 17.07 13.9508 17.3873 12.8038C17.6862 11.7833 17.6108 10.2219 17.3864 9.32756C16.7942 6.96928 15.0337 5.56725 12.4364 5.41678C9.97823 5.27433 7.76058 6.61027 6.80573 8.83819C6.49116 9.57211 6.32916 10.371 6.32916 11.3638C6.32916 14.3549 7.85494 16.4122 10.486 16.9747C10.7514 17.0288 11.1989 17.0699 11.6682 17.0824C12.5889 17.1069 13.5067 17.6029 14.2734 18.1133C14.8581 18.5026 15.5952 18.6433 16.5116 18.2867C16.5117 18.2866 16.5119 18.2866 16.512 18.2865ZM9.13854 13.1949C9.13845 13.195 9.13821 13.195 9.13817 13.1948C8.95266 12.3671 8.97252 10.4009 9.17475 9.58828C9.48004 8.36203 9.99754 7.59422 10.8187 7.14844C11.5474 6.82556 12.4513 6.77564 13.1263 7.09019C13.8601 7.43627 14.3697 8.13532 14.6872 9.2305C14.9792 10.5193 15.0269 12.0261 14.6569 13.3368C14.4833 13.9725 13.6033 14.0201 12.9978 13.76C12.5464 13.5661 12.0421 13.4964 11.5748 13.5723C11.3319 13.6117 11.1932 13.8532 11.2282 14.0968C11.2718 14.4005 11.5809 14.6087 11.8686 14.7154C11.9931 14.7615 12.1138 14.8271 12.2221 14.906C12.6015 15.182 12.3104 15.6466 11.8412 15.638C10.289 15.6099 9.54371 14.6833 9.1389 13.1949C9.13885 13.1947 9.13862 13.1947 9.13854 13.1949Z" fill="#A82400"/>
</svg>
