<svg width="50" height="51" viewBox="0 0 50 51" fill="none" xmlns="http://www.w3.org/2000/svg">
<g clip-path="url(#clip0_299_33479)">
<mask id="mask0_299_33479" style="mask-type:luminance" maskUnits="userSpaceOnUse" x="12" y="0" width="27" height="27">
<path d="M38.9248 0.0507812H12V26.9755H38.9248V0.0507812Z" fill="white"/>
</mask>
<g mask="url(#mask0_299_33479)">
<path d="M25.1913 15.0739C26.5182 15.0739 27.5935 13.9986 27.5935 12.6717C27.5935 11.3448 26.5182 10.2695 25.1913 10.2695C23.8652 10.2695 22.7891 11.3448 22.7891 12.6717C22.7891 13.9986 23.8652 15.0739 25.1913 15.0739Z" fill="#61DAFB"/>
<path d="M34.3156 8.71085C33.852 8.54173 33.3673 8.37346 32.8617 8.22621C32.9887 7.71969 33.0939 7.21402 33.178 6.72937C33.6206 3.94771 33.1359 1.98808 31.7872 1.22998C31.3867 0.997754 30.9441 0.892578 30.4384 0.892578C28.9634 0.892578 27.088 1.98809 25.1915 3.8215C23.2949 1.98809 21.4194 0.892578 19.9445 0.892578C19.4388 0.892578 18.9962 0.997754 18.5957 1.22998C17.247 2.00912 16.7623 3.96958 17.2049 6.72937C17.289 7.21402 17.3942 7.71969 17.5213 8.22621C17.0156 8.37346 16.5309 8.52069 16.0673 8.71085C13.4329 9.72221 12 11.1131 12 12.6722C12 14.2313 13.4539 15.6221 16.0673 16.6335C16.5309 16.8026 17.0156 16.9709 17.5213 17.1181C17.3942 17.6246 17.289 18.1303 17.2049 18.615C16.7623 21.3966 17.247 23.3562 18.5957 24.1143C18.9962 24.3466 19.4388 24.4517 19.9445 24.4517C21.4405 24.4517 23.316 23.3562 25.1915 21.5228C27.088 23.3562 28.9634 24.4517 30.4384 24.4517C30.9441 24.4517 31.3867 24.3466 31.7872 24.1143C33.1359 23.3352 33.6206 21.3747 33.178 18.615C33.0939 18.1303 32.9887 17.6246 32.8617 17.1181C33.3673 16.9709 33.852 16.8236 34.3156 16.6335C36.95 15.6221 38.3829 14.2313 38.3829 12.6722C38.3829 11.1131 36.95 9.72221 34.3156 8.71085ZM31.1974 2.28342C32.0615 2.7891 32.356 4.3482 31.9975 6.56108C31.9344 7.00366 31.8292 7.46728 31.703 7.95193C30.6067 7.69867 29.4481 7.53035 28.2255 7.42518C27.5095 6.41382 26.7716 5.50765 26.0345 4.6856C27.5936 3.14752 29.1738 2.09408 30.4594 2.09408C30.7337 2.09408 30.9862 2.15721 31.1974 2.28342ZM28.8372 14.779C28.4578 15.4539 28.0152 16.1278 27.5516 16.8026C26.7716 16.8657 25.9925 16.8867 25.1915 16.8867C24.3694 16.8867 23.5903 16.8657 22.8313 16.8026C22.3677 16.1278 21.9462 15.4539 21.5667 14.779C21.1662 14.0841 20.7876 13.3672 20.4502 12.6722C20.7876 11.9772 21.1662 11.2603 21.5667 10.5653C21.9462 9.89047 22.3888 9.21654 22.8524 8.54174C23.6323 8.47863 24.4115 8.45762 25.2125 8.45762C26.0345 8.45762 26.8137 8.47863 27.5726 8.54174C28.0362 9.21654 28.4578 9.89047 28.8372 10.5653C29.2377 11.2603 29.6164 11.9772 29.9538 12.6722C29.5953 13.3672 29.2377 14.063 28.8372 14.779ZM30.5857 14.084C30.902 14.8219 31.1553 15.538 31.3867 16.2548C30.6706 16.4231 29.9117 16.5493 29.1107 16.6545C29.3639 16.2548 29.6374 15.8333 29.8696 15.3907C30.1221 14.9482 30.3543 14.5056 30.5857 14.084ZM25.1915 19.7946C24.6858 19.2469 24.2011 18.657 23.7375 18.0453C24.2222 18.0664 24.7068 18.0874 25.1915 18.0874C25.6761 18.0874 26.1607 18.0664 26.6454 18.0453C26.1818 18.657 25.6971 19.2469 25.1915 19.7946ZM21.2722 16.6335C20.4712 16.5283 19.7123 16.4021 18.9962 16.2338C19.2276 15.5379 19.4809 14.8009 19.7972 14.063C20.0286 14.4845 20.2609 14.9271 20.5133 15.3487C20.7665 15.8123 21.0189 16.2128 21.2722 16.6335ZM19.7972 11.2603C19.4809 10.5224 19.2276 9.80636 18.9962 9.08949C19.7123 8.92121 20.4712 8.79502 21.2722 8.68985C21.0189 9.08951 20.7455 9.51101 20.5133 9.95359C20.2609 10.3962 20.0286 10.8388 19.7972 11.2603ZM25.1915 5.5497C25.6971 6.09745 26.1818 6.6873 26.6454 7.299C26.1607 7.27797 25.6761 7.25694 25.1915 7.25694C24.7068 7.25694 24.2222 7.27797 23.7375 7.299C24.2011 6.6873 24.6858 6.09745 25.1915 5.5497ZM29.8696 9.97464L29.1107 8.71085C29.9117 8.81602 30.6706 8.94227 31.3867 9.11055C31.1553 9.80638 30.902 10.5434 30.5857 11.2813C30.3543 10.8387 30.1221 10.3962 29.8696 9.97464ZM18.3854 6.56108C18.0269 4.3482 18.3214 2.7891 19.1856 2.28342C19.3967 2.15721 19.6492 2.09408 19.9234 2.09408C21.1872 2.09408 22.7682 3.12649 24.3484 4.6856C23.6113 5.48661 22.8734 6.41382 22.1574 7.42518C20.9348 7.53035 19.7762 7.7197 18.6799 7.95193C18.5537 7.46728 18.4695 7.00366 18.3854 6.56108ZM13.1805 12.6722C13.1805 11.6818 14.3812 10.6284 16.4889 9.84841C16.9096 9.68013 17.3732 9.53205 17.8368 9.40584C18.1742 10.4593 18.5957 11.5767 19.1014 12.6932C18.5957 13.8098 18.1532 14.9061 17.8368 15.9595C14.9289 15.1164 13.1805 13.8526 13.1805 12.6722ZM19.1856 23.0609C18.3214 22.5552 18.0269 20.9961 18.3854 18.7832C18.4485 18.3407 18.5537 17.877 18.6799 17.3924C19.7762 17.6457 20.9348 17.814 22.1574 17.9191C22.8734 18.9305 23.6113 19.8367 24.3484 20.6587C22.7893 22.1968 21.2091 23.2502 19.9234 23.2502C19.6492 23.2502 19.3967 23.1871 19.1856 23.0609ZM31.9975 18.7832C32.356 20.9961 32.0615 22.5552 31.1974 23.0609C30.9862 23.1871 30.7337 23.2502 30.4594 23.2502C29.1948 23.2502 27.6147 22.2178 26.0345 20.6587C26.7716 19.8577 27.5095 18.9305 28.2255 17.9191C29.4481 17.814 30.6067 17.6246 31.703 17.3924C31.8292 17.877 31.9134 18.3407 31.9975 18.7832ZM33.894 15.4959C33.4733 15.6642 33.0097 15.8123 32.5461 15.9385C32.2087 14.8851 31.7872 13.7676 31.2815 12.6511C31.7872 11.5346 32.2298 10.4383 32.5461 9.38483C35.454 10.2279 37.2024 11.4917 37.2024 12.6722C37.2024 13.6625 35.9807 14.7159 33.894 15.4959Z" fill="#61DAFB"/>
</g>
<path d="M4.83221 48.0508V40.7781H7.42454C7.98799 40.7781 8.45555 40.8751 8.82724 41.0692C9.20129 41.2634 9.48065 41.5321 9.66531 41.8754C9.84996 42.2163 9.94229 42.6104 9.94229 43.0579C9.94229 43.503 9.84878 43.8948 9.66175 44.2333C9.4771 44.5695 9.19774 44.8311 8.82369 45.0181C8.452 45.2051 7.98443 45.2987 7.42099 45.2987H5.45721V44.354H7.32156C7.67667 44.354 7.96549 44.3031 8.18803 44.2013C8.41294 44.0996 8.57747 43.9516 8.68164 43.7575C8.78581 43.5633 8.83789 43.3301 8.83789 43.0579C8.83789 42.7833 8.78462 42.5453 8.67809 42.3441C8.57392 42.1429 8.40939 41.989 8.18448 41.8825C7.96194 41.7736 7.66957 41.7191 7.30735 41.7191H5.92951V48.0508H4.83221ZM8.42241 44.7695L10.2193 48.0508H8.96928L7.20792 44.7695H8.42241ZM13.4748 48.1609C12.9374 48.1609 12.4746 48.046 12.0863 47.8164C11.7004 47.5844 11.4021 47.2589 11.1914 46.8398C10.9831 46.4184 10.8789 45.9248 10.8789 45.359C10.8789 44.8003 10.9831 44.3079 11.1914 43.8817C11.4021 43.4556 11.6957 43.123 12.0721 42.8839C12.4509 42.6448 12.8936 42.5252 13.4002 42.5252C13.708 42.5252 14.0063 42.5761 14.2951 42.6779C14.5839 42.7797 14.8432 42.9395 15.0728 43.1573C15.3024 43.3751 15.4835 43.658 15.6161 44.006C15.7487 44.3517 15.815 44.7719 15.815 45.2667V45.6431H11.479V44.8477H14.7745C14.7745 44.5683 14.7177 44.3209 14.604 44.1055C14.4904 43.8877 14.3306 43.716 14.1246 43.5906C13.921 43.4651 13.6819 43.4023 13.4073 43.4023C13.109 43.4023 12.8486 43.4757 12.6261 43.6225C12.4059 43.7669 12.2354 43.9563 12.1147 44.1907C11.9963 44.4227 11.9371 44.6748 11.9371 44.9471V45.5685C11.9371 45.9331 12.0011 46.2433 12.1289 46.4989C12.2591 46.7546 12.4402 46.9499 12.6722 47.0849C12.9042 47.2174 13.1753 47.2837 13.4854 47.2837C13.6867 47.2837 13.8701 47.2553 14.0359 47.1985C14.2016 47.1393 14.3448 47.0517 14.4656 46.9357C14.5863 46.8197 14.6786 46.6765 14.7425 46.506L15.7475 46.6871C15.667 46.9831 15.5226 47.2423 15.3143 47.4648C15.1083 47.685 14.8491 47.8567 14.5366 47.9798C14.2264 48.1005 13.8725 48.1609 13.4748 48.1609ZM18.5804 48.1715C18.2348 48.1715 17.9223 48.1076 17.6429 47.9798C17.3636 47.8496 17.1422 47.6613 16.9789 47.4151C16.8179 47.1689 16.7374 46.8671 16.7374 46.5096C16.7374 46.2018 16.7966 45.9485 16.915 45.7496C17.0333 45.5508 17.1931 45.3933 17.3944 45.2773C17.5956 45.1613 17.8205 45.0737 18.0691 45.0146C18.3176 44.9554 18.571 44.9104 18.829 44.8796C19.1557 44.8417 19.4209 44.811 19.6245 44.7873C19.8281 44.7612 19.976 44.7198 20.0684 44.663C20.1607 44.6062 20.2069 44.5138 20.2069 44.386V44.3612C20.2069 44.051 20.1193 43.8107 19.9441 43.6403C19.7712 43.4698 19.5132 43.3846 19.1699 43.3846C18.8124 43.3846 18.5307 43.4639 18.3248 43.6225C18.1212 43.7788 17.9803 43.9528 17.9022 44.1445L16.9043 43.9173C17.0227 43.5858 17.1955 43.3183 17.4228 43.1147C17.6524 42.9087 17.9164 42.7596 18.2147 42.6673C18.513 42.5726 18.8266 42.5252 19.1557 42.5252C19.3735 42.5252 19.6043 42.5513 19.8482 42.6033C20.0944 42.6531 20.324 42.7454 20.5371 42.8803C20.7525 43.0153 20.9289 43.2082 21.0662 43.4592C21.2035 43.7077 21.2722 44.0309 21.2722 44.4286V48.0508H20.2353V47.305H20.1926C20.124 47.4424 20.021 47.5773 19.8837 47.7099C19.7464 47.8424 19.57 47.9525 19.3546 48.0401C19.1391 48.1277 18.8811 48.1715 18.5804 48.1715ZM18.8113 47.3192C19.1048 47.3192 19.3558 47.2612 19.5641 47.1452C19.7748 47.0292 19.9346 46.8777 20.0435 46.6907C20.1548 46.5013 20.2104 46.2989 20.2104 46.0835V45.3803C20.1725 45.4182 20.0991 45.4537 19.9902 45.4869C19.8837 45.5176 19.7618 45.5449 19.6245 45.5685C19.4872 45.5898 19.3534 45.61 19.2232 45.6289C19.093 45.6455 18.9841 45.6597 18.8965 45.6715C18.6905 45.6976 18.5023 45.7414 18.3319 45.8029C18.1638 45.8645 18.0288 45.9532 17.927 46.0692C17.8276 46.1829 17.7779 46.3344 17.7779 46.5238C17.7779 46.7866 17.8749 46.9854 18.0691 47.1204C18.2632 47.253 18.5106 47.3192 18.8113 47.3192ZM24.984 48.1609C24.4561 48.1609 24.0015 48.0413 23.6204 47.8022C23.2416 47.5607 22.9504 47.2281 22.7468 46.8043C22.5432 46.3806 22.4414 45.8952 22.4414 45.3484C22.4414 44.7944 22.5456 44.3055 22.7539 43.8817C22.9622 43.4556 23.2558 43.123 23.6346 42.8839C24.0134 42.6448 24.4596 42.5252 24.9734 42.5252C25.3877 42.5252 25.757 42.6022 26.0813 42.756C26.4057 42.9076 26.6673 43.1206 26.8661 43.3952C27.0674 43.6699 27.1869 43.9906 27.2248 44.3576H26.1914C26.1346 44.1019 26.0044 43.8817 25.8008 43.6971C25.5996 43.5124 25.3297 43.4201 24.9911 43.4201C24.6952 43.4201 24.436 43.4982 24.2134 43.6545C23.9933 43.8084 23.8216 44.0285 23.6985 44.315C23.5754 44.5991 23.5138 44.9353 23.5138 45.3235C23.5138 45.7212 23.5742 46.0645 23.695 46.3533C23.8157 46.6422 23.9862 46.8659 24.2063 47.0245C24.4289 47.1831 24.6905 47.2624 24.9911 47.2624C25.1924 47.2624 25.3746 47.2257 25.538 47.1523C25.7037 47.0766 25.8422 46.9689 25.9535 46.8292C26.0671 46.6895 26.1464 46.5214 26.1914 46.3249H27.2248C27.1869 46.6777 27.0721 46.9925 26.8803 47.2695C26.6886 47.5465 26.4317 47.7643 26.1097 47.9229C25.7901 48.0816 25.4149 48.1609 24.984 48.1609ZM30.9064 42.5962V43.4485H27.927V42.5962H30.9064ZM28.726 41.2894H29.7878V46.4492C29.7878 46.6552 29.8186 46.8103 29.8801 46.9144C29.9417 47.0162 30.021 47.0861 30.1181 47.1239C30.2175 47.1594 30.3252 47.1772 30.4412 47.1772C30.5265 47.1772 30.601 47.1713 30.665 47.1594C30.7289 47.1476 30.7786 47.1381 30.8141 47.131L31.0059 48.0082C30.9443 48.0318 30.8567 48.0555 30.7431 48.0792C30.6294 48.1052 30.4874 48.1194 30.3169 48.1218C30.0376 48.1265 29.7772 48.0768 29.5357 47.9727C29.2942 47.8685 29.0989 47.7075 28.9498 47.4897C28.8006 47.2719 28.726 46.9985 28.726 46.6694V41.2894ZM37.6394 40.7781H38.7331V45.9343C38.7331 46.4007 38.6408 46.7996 38.4561 47.131C38.2739 47.4625 38.017 47.7158 37.6855 47.891C37.3541 48.0638 36.9658 48.1502 36.5208 48.1502C36.1112 48.1502 35.7431 48.0756 35.4164 47.9265C35.092 47.7773 34.8352 47.5607 34.6458 47.2766C34.4587 46.9902 34.3652 46.6422 34.3652 46.2326H35.4554C35.4554 46.4338 35.5016 46.6078 35.5939 46.7546C35.6886 46.9014 35.8176 47.0162 35.981 47.0991C36.1467 47.1796 36.3361 47.2198 36.5492 47.2198C36.7812 47.2198 36.9777 47.1713 37.1387 47.0742C37.302 46.9748 37.4263 46.8292 37.5115 46.6374C37.5968 46.4457 37.6394 46.2113 37.6394 45.9343V40.7781ZM44.2969 42.6886C44.259 42.3524 44.1027 42.092 43.8281 41.9073C43.5535 41.7203 43.2079 41.6268 42.7912 41.6268C42.4929 41.6268 42.2348 41.6741 42.017 41.7688C41.7992 41.8612 41.63 41.989 41.5092 42.1523C41.3909 42.3133 41.3317 42.4968 41.3317 42.7028C41.3317 42.8756 41.3719 43.0247 41.4524 43.1502C41.5353 43.2757 41.643 43.381 41.7756 43.4663C41.9105 43.5491 42.0549 43.619 42.2088 43.6758C42.3627 43.7302 42.5107 43.7752 42.6527 43.8107L43.3629 43.9954C43.5949 44.0522 43.8329 44.1291 44.0767 44.2262C44.3205 44.3233 44.5466 44.4511 44.755 44.6097C44.9633 44.7683 45.1314 44.9648 45.2592 45.1992C45.3894 45.4336 45.4545 45.7141 45.4545 46.0408C45.4545 46.4528 45.348 46.8185 45.1349 47.1381C44.9242 47.4577 44.6177 47.7099 44.2152 47.8945C43.8151 48.0792 43.331 48.1715 42.7628 48.1715C42.2183 48.1715 41.7472 48.0851 41.3494 47.9123C40.9517 47.7395 40.6404 47.4944 40.4155 47.1772C40.1906 46.8576 40.0663 46.4788 40.0426 46.0408H41.1435C41.1648 46.3036 41.25 46.5226 41.3991 46.6978C41.5507 46.8706 41.7436 46.9996 41.978 47.0849C42.2147 47.1677 42.474 47.2092 42.7557 47.2092C43.0658 47.2092 43.3416 47.1606 43.5831 47.0636C43.8269 46.9641 44.0187 46.8268 44.1584 46.6516C44.2981 46.4741 44.3679 46.2669 44.3679 46.0302C44.3679 45.8147 44.3063 45.6384 44.1832 45.5011C44.0625 45.3638 43.898 45.2501 43.6896 45.1602C43.4837 45.0702 43.2505 44.9909 42.9901 44.9222L42.1307 44.6879C41.5483 44.5292 41.0866 44.296 40.7457 43.9883C40.4072 43.6805 40.2379 43.2733 40.2379 42.7667C40.2379 42.3477 40.3516 41.9819 40.5788 41.6694C40.8061 41.3569 41.1139 41.1142 41.5021 40.9414C41.8904 40.7662 42.3284 40.6786 42.8161 40.6786C43.3085 40.6786 43.7429 40.765 44.1193 40.9379C44.4981 41.1107 44.7964 41.3486 45.0142 41.6516C45.232 41.9523 45.3456 42.2979 45.3551 42.6886H44.2969Z" fill="#334155"/>
</g>
<defs>
<clipPath id="clip0_299_33479">
<rect width="50" height="50" fill="white" transform="translate(0 0.0507812)"/>
</clipPath>
</defs>
</svg>
