<svg width="50" height="51" viewBox="0 0 50 51" fill="none" xmlns="http://www.w3.org/2000/svg">
<g clip-path="url(#clip0_299_33532)">
<path d="M23.5108 5.39479C22.1855 6.33206 20.6836 7.39439 19.8788 9.15195C18.4809 12.2183 22.7391 15.563 22.9211 15.7039C22.9634 15.7366 23.014 15.7529 23.0645 15.7529C23.1181 15.7529 23.1718 15.7345 23.2153 15.6978C23.2999 15.6267 23.3238 15.5059 23.2731 15.4076C23.2577 15.3777 21.7292 12.3922 21.786 10.2504C21.8061 9.50446 22.8443 8.65822 23.9433 7.76228C24.95 6.94167 26.091 6.0116 26.7586 4.92358C28.2242 2.52865 26.5953 0.173714 26.5786 0.150168C26.5139 0.0588003 26.3945 0.0257345 26.2924 0.0707423C26.1904 0.116032 26.1339 0.226946 26.1572 0.336621C26.1605 0.352224 26.4772 1.90953 25.5958 3.51398C25.2327 4.17698 24.4348 4.7413 23.5108 5.39479Z" fill="#DB380E"/>
<path d="M29.0932 6.4526C29.1867 6.38179 29.2141 6.25262 29.1576 6.14954C29.101 6.04646 28.9777 6.001 28.8683 6.04279C28.6432 6.12887 23.3553 8.17855 23.3553 10.6551C23.3553 12.3623 24.0805 13.2641 24.6101 13.9228C24.8178 14.1811 24.9971 14.4042 25.0562 14.5946C25.2226 15.1434 24.8284 16.1354 24.6627 16.4714C24.6149 16.5679 24.6383 16.685 24.7196 16.7555C24.7635 16.7936 24.8183 16.813 24.8732 16.813C24.9199 16.813 24.9669 16.799 25.0074 16.7706C25.0984 16.7071 27.2295 15.1919 26.8473 13.3664C26.7049 12.6726 26.3658 12.1656 26.0666 11.7182C25.6031 11.0251 25.2684 10.5244 25.7762 9.5997C26.3712 8.52109 29.0659 6.4731 29.0932 6.4526Z" fill="#DB380E"/>
<path d="M14.7966 17.4235C14.6864 17.7552 14.7384 18.0842 14.9468 18.3752C15.6434 19.3477 18.1108 19.8832 21.8947 19.8832C21.8949 19.8832 21.8951 19.8832 21.8952 19.8832C22.4079 19.8832 22.9492 19.873 23.5037 19.853C29.5535 19.6353 31.7974 17.74 31.89 17.6594C31.9909 17.5716 32.0178 17.4254 31.9551 17.3071C31.8924 17.1889 31.7571 17.1295 31.6278 17.1653C29.4971 17.7503 25.5186 17.9579 22.759 17.9579C19.671 17.9579 18.0984 17.7342 17.7134 17.5691C17.911 17.2963 19.1295 16.8092 20.6393 16.5105C20.7837 16.482 20.8828 16.348 20.8685 16.2008C20.8542 16.0537 20.7313 15.9414 20.5842 15.9414C19.6991 15.9414 15.2605 16.0129 14.7966 17.4235Z" fill="#73A1FB"/>
<path d="M35.0377 15.4668C33.7899 15.4668 32.6066 16.0957 32.5567 16.1224C32.4414 16.1845 32.3828 16.3176 32.4145 16.4455C32.4463 16.5731 32.5604 16.6629 32.6913 16.663C32.7178 16.663 35.3531 16.6847 35.5917 18.1988C35.8031 19.505 33.0983 21.6214 32.0382 22.3267C31.9237 22.4029 31.8793 22.5501 31.9325 22.6774C31.9777 22.7858 32.0826 22.8536 32.1958 22.8536C32.2155 22.8536 32.2355 22.8515 32.2554 22.8473C32.507 22.7931 38.4095 21.4851 37.7854 18.0293C37.4047 15.9114 36.0809 15.4668 35.0377 15.4668Z" fill="#73A1FB"/>
<path d="M30.9993 21.9016C31.0199 21.791 30.9741 21.6783 30.8825 21.6137L29.4672 20.6168C29.3982 20.5682 29.311 20.5529 29.2299 20.5745C29.2152 20.5783 27.7352 20.9695 25.5864 21.2095C24.7336 21.3056 23.7785 21.3564 22.824 21.3564C20.6758 21.3564 19.2712 21.1026 19.0666 20.9164C19.0395 20.8641 19.0481 20.8404 19.0529 20.8271C19.0901 20.7232 19.2893 20.5997 19.4177 20.5509C19.5595 20.4981 19.6359 20.3433 19.5918 20.1979C19.5478 20.0523 19.3987 19.9666 19.2515 20.0022C17.8318 20.3467 17.1376 20.8284 17.1881 21.434C17.2778 22.5078 19.751 23.0589 21.8418 23.2046C22.1425 23.2252 22.4677 23.2357 22.8081 23.2357C22.8083 23.2357 22.8084 23.2357 22.8086 23.2357C26.2853 23.2357 30.7424 22.1388 30.7869 22.1276C30.8957 22.1009 30.9787 22.0125 30.9993 21.9016Z" fill="#73A1FB"/>
<path d="M20.3197 24.2075C20.4269 24.1374 20.4744 24.0041 20.4364 23.8814C20.3985 23.7586 20.2843 23.678 20.1561 23.6797C19.9658 23.6848 18.2944 23.7606 18.1774 24.8307C18.142 25.1505 18.233 25.4428 18.4482 25.6991C19.0483 26.4143 20.6683 26.8394 23.3998 26.9986C23.7229 27.0181 24.0512 27.0279 24.3755 27.0279C27.8482 27.0279 30.187 25.9345 30.2849 25.888C30.3799 25.8428 30.4425 25.749 30.4481 25.6435C30.4537 25.5381 30.4014 25.4381 30.3118 25.383L28.5232 24.285C28.4611 24.247 28.3868 24.2344 28.316 24.249C28.3047 24.2514 27.1691 24.4882 25.4553 24.7222C25.131 24.7665 24.7249 24.7891 24.2484 24.7891C22.5364 24.7891 20.6321 24.5078 20.2669 24.3236C20.2616 24.2892 20.2684 24.2455 20.3197 24.2075Z" fill="#73A1FB"/>
<path d="M22.7636 30.327C30.718 30.3202 34.9873 28.8977 35.8097 28.0025C36.1008 27.6859 36.1323 27.386 36.1076 27.1902C36.0465 26.7083 35.6099 26.4133 35.5604 26.3812C35.441 26.304 35.2808 26.3242 35.1877 26.4322C35.0947 26.5402 35.0926 26.6981 35.1858 26.806C35.236 26.8709 35.265 26.9796 35.1183 27.1272C34.7895 27.436 31.4734 28.3733 25.9521 28.6549C25.1957 28.6944 24.4024 28.7146 23.5944 28.7147C18.6508 28.7147 15.0329 28.0337 14.5579 27.637C14.741 27.3725 16.0207 26.9499 17.3817 26.7109C17.535 26.684 17.6386 26.5387 17.6149 26.384C17.5911 26.2293 17.4493 26.1229 17.2943 26.1431C17.256 26.1484 17.1257 26.1562 16.9748 26.1655C14.7293 26.3033 12.1343 26.6106 11.9989 27.7741C11.9578 28.1286 12.0626 28.4505 12.3104 28.7306C12.9169 29.4158 14.66 30.3268 22.7633 30.3268C22.7635 30.327 22.7635 30.327 22.7636 30.327Z" fill="#73A1FB"/>
<path d="M37.3677 28.261C37.2552 28.2087 37.1223 28.2351 37.0385 28.3261C37.0268 28.3388 35.8309 29.5963 32.2351 30.3348C30.8585 30.6122 28.2745 30.7528 24.5549 30.7528C20.8283 30.7528 17.2822 30.6054 17.2469 30.6039C17.0988 30.5966 16.9721 30.7049 16.952 30.8516C16.9317 30.998 17.0257 31.1362 17.1687 31.1704C17.2056 31.1792 20.9218 32.0547 26.0029 32.0547C28.44 32.0547 30.8114 31.8557 33.0516 31.4629C37.2285 30.7266 37.521 28.6438 37.5314 28.5555C37.5459 28.4321 37.4799 28.3133 37.3677 28.261Z" fill="#73A1FB"/>
<path d="M18.2322 40.7781H19.3259V45.9343C19.3259 46.4007 19.2336 46.7996 19.0489 47.131C18.8666 47.4625 18.6098 47.7158 18.2783 47.891C17.9469 48.0638 17.5586 48.1502 17.1135 48.1502C16.704 48.1502 16.3358 48.0756 16.0091 47.9265C15.6848 47.7773 15.4279 47.5607 15.2385 47.2766C15.0515 46.9902 14.958 46.6422 14.958 46.2326H16.0482C16.0482 46.4338 16.0944 46.6078 16.1867 46.7546C16.2814 46.9014 16.4104 47.0162 16.5738 47.0991C16.7395 47.1796 16.9289 47.2198 17.142 47.2198C17.374 47.2198 17.5705 47.1713 17.7314 47.0742C17.8948 46.9748 18.0191 46.8292 18.1043 46.6374C18.1895 46.4457 18.2322 46.2113 18.2322 45.9343V40.7781ZM22.4252 48.1715C22.0795 48.1715 21.767 48.1076 21.4877 47.9798C21.2083 47.8496 20.9869 47.6613 20.8236 47.4151C20.6626 47.1689 20.5821 46.8671 20.5821 46.5096C20.5821 46.2018 20.6413 45.9485 20.7597 45.7496C20.878 45.5508 21.0378 45.3933 21.2391 45.2773C21.4403 45.1613 21.6652 45.0737 21.9138 45.0146C22.1624 44.9554 22.4157 44.9104 22.6737 44.8796C23.0004 44.8417 23.2656 44.811 23.4692 44.7873C23.6728 44.7612 23.8208 44.7198 23.9131 44.663C24.0054 44.6062 24.0516 44.5138 24.0516 44.386V44.3612C24.0516 44.051 23.964 43.8107 23.7888 43.6403C23.616 43.4698 23.3579 43.3846 23.0146 43.3846C22.6572 43.3846 22.3754 43.4639 22.1695 43.6225C21.9659 43.7788 21.825 43.9528 21.7469 44.1445L20.749 43.9173C20.8674 43.5858 21.0402 43.3183 21.2675 43.1147C21.4971 42.9087 21.7611 42.7596 22.0594 42.6673C22.3577 42.5726 22.6714 42.5252 23.0004 42.5252C23.2182 42.5252 23.4491 42.5513 23.6929 42.6033C23.9391 42.6531 24.1688 42.7454 24.3818 42.8803C24.5973 43.0153 24.7736 43.2082 24.911 43.4592C25.0483 43.7077 25.1169 44.0309 25.1169 44.4286V48.0508H24.08V47.305H24.0374C23.9687 47.4424 23.8657 47.5773 23.7284 47.7099C23.5911 47.8424 23.4147 47.9525 23.1993 48.0401C22.9839 48.1277 22.7258 48.1715 22.4252 48.1715ZM22.656 47.3192C22.9495 47.3192 23.2005 47.2612 23.4088 47.1452C23.6195 47.0292 23.7793 46.8777 23.8882 46.6907C23.9995 46.5013 24.0551 46.2989 24.0551 46.0835V45.3803C24.0173 45.4182 23.9439 45.4537 23.835 45.4869C23.7284 45.5176 23.6065 45.5449 23.4692 45.5685C23.3319 45.5898 23.1981 45.61 23.0679 45.6289C22.9377 45.6455 22.8288 45.6597 22.7412 45.6715C22.5352 45.6976 22.347 45.7414 22.1766 45.8029C22.0085 45.8645 21.8736 45.9532 21.7718 46.0692C21.6723 46.1829 21.6226 46.3344 21.6226 46.5238C21.6226 46.7866 21.7197 46.9854 21.9138 47.1204C22.1079 47.253 22.3553 47.3192 22.656 47.3192ZM31.002 42.5962L29.0241 48.0508H27.8877L25.9062 42.5962H27.0461L28.4275 46.7937H28.4843L29.8621 42.5962H31.002ZM33.431 48.1715C33.0854 48.1715 32.7729 48.1076 32.4935 47.9798C32.2142 47.8496 31.9928 47.6613 31.8295 47.4151C31.6685 47.1689 31.588 46.8671 31.588 46.5096C31.588 46.2018 31.6472 45.9485 31.7655 45.7496C31.8839 45.5508 32.0437 45.3933 32.2449 45.2773C32.4462 45.1613 32.6711 45.0737 32.9197 45.0146C33.1682 44.9554 33.4215 44.9104 33.6796 44.8796C34.0063 44.8417 34.2715 44.811 34.4751 44.7873C34.6787 44.7612 34.8266 44.7198 34.9189 44.663C35.0113 44.6062 35.0574 44.5138 35.0574 44.386V44.3612C35.0574 44.051 34.9698 43.8107 34.7947 43.6403C34.6218 43.4698 34.3638 43.3846 34.0205 43.3846C33.663 43.3846 33.3813 43.4639 33.1753 43.6225C32.9717 43.7788 32.8309 43.9528 32.7528 44.1445L31.7549 43.9173C31.8733 43.5858 32.0461 43.3183 32.2733 43.1147C32.503 42.9087 32.767 42.7596 33.0653 42.6673C33.3635 42.5726 33.6772 42.5252 34.0063 42.5252C34.2241 42.5252 34.4549 42.5513 34.6988 42.6033C34.945 42.6531 35.1746 42.7454 35.3877 42.8803C35.6031 43.0153 35.7795 43.2082 35.9168 43.4592C36.0541 43.7077 36.1228 44.0309 36.1228 44.4286V48.0508H35.0858V47.305H35.0432C34.9746 47.4424 34.8716 47.5773 34.7343 47.7099C34.597 47.8424 34.4206 47.9525 34.2052 48.0401C33.9897 48.1277 33.7317 48.1715 33.431 48.1715ZM33.6618 47.3192C33.9554 47.3192 34.2064 47.2612 34.4147 47.1452C34.6254 47.0292 34.7852 46.8777 34.8941 46.6907C35.0054 46.5013 35.061 46.2989 35.061 46.0835V45.3803C35.0231 45.4182 34.9497 45.4537 34.8408 45.4869C34.7343 45.5176 34.6124 45.5449 34.4751 45.5685C34.3377 45.5898 34.204 45.61 34.0738 45.6289C33.9436 45.6455 33.8347 45.6597 33.7471 45.6715C33.5411 45.6976 33.3529 45.7414 33.1824 45.8029C33.0144 45.8645 32.8794 45.9532 32.7776 46.0692C32.6782 46.1829 32.6285 46.3344 32.6285 46.5238C32.6285 46.7866 32.7255 46.9854 32.9197 47.1204C33.1138 47.253 33.3612 47.3192 33.6618 47.3192Z" fill="#334155"/>
</g>
<defs>
<clipPath id="clip0_299_33532">
<rect width="50" height="50" fill="white" transform="translate(0 0.0507812)"/>
</clipPath>
</defs>
</svg>
