<svg width="20" height="20" viewBox="0 0 20 20" fill="none" xmlns="http://www.w3.org/2000/svg">
<mask id="mask0" mask-type="alpha" maskUnits="userSpaceOnUse" x="2" y="2" width="16" height="16">
<path fill-rule="evenodd" clip-rule="evenodd" d="M12.4 8.99167L10.8333 10.5583V3.33333C10.8333 2.875 10.4583 2.5 10 2.5C9.54167 2.5 9.16667 2.875 9.16667 3.33333V10.5583L7.59167 8.99167C7.26667 8.66667 6.74167 8.66667 6.41667 8.99167C6.26062 9.14736 6.17293 9.35874 6.17293 9.57917C6.17293 9.7996 6.26062 10.011 6.41667 10.1667L9.40833 13.1583C9.73333 13.4833 10.2583 13.4833 10.5833 13.1583L13.575 10.1667C13.9 9.84167 13.9 9.31667 13.575 8.99167C13.25 8.66667 12.725 8.66667 12.4 8.99167ZM15.8333 15V10.8333C15.8333 10.375 16.2083 10 16.6667 10C17.125 10 17.5 10.375 17.5 10.8333V15.8333C17.5 16.75 16.75 17.5 15.8333 17.5H4.16667C3.25 17.5 2.5 16.75 2.5 15.8333V10.8333C2.5 10.375 2.875 10 3.33333 10C3.79167 10 4.16667 10.375 4.16667 10.8333V15C4.16667 15.4583 4.54167 15.8333 5 15.8333H15C15.4583 15.8333 15.8333 15.4583 15.8333 15Z" fill="#0F172A"/>
</mask>
<g mask="url(#mask0)">
<rect width="20" height="20" fill="white"/>
</g>
</svg>
